<?xml version="1.0" encoding="utf-8" standalone="no"?>
<!DOCTYPE svg PUBLIC "-//W3C//DTD SVG 1.1//EN"
  "http://www.w3.org/Graphics/SVG/1.1/DTD/svg11.dtd">
<!-- Created with matplotlib (https://matplotlib.org/) -->
<svg height="432pt" version="1.1" viewBox="0 0 1080 432" width="1080pt" xmlns="http://www.w3.org/2000/svg" xmlns:xlink="http://www.w3.org/1999/xlink">
 <defs>
  <style type="text/css">
*{stroke-linecap:butt;stroke-linejoin:round;white-space:pre;}
  </style>
 </defs>
 <g id="figure_1">
  <g id="patch_1">
   <path d="M 0 432 
L 1080 432 
L 1080 0 
L 0 0 
z
" style="fill:#ffffff;"/>
  </g>
  <g id="axes_1">
   <g id="patch_2">
    <path d="M 135 378 
L 972 378 
L 972 51.84 
L 135 51.84 
z
" style="fill:#ffffff;"/>
   </g>
   <g id="matplotlib.axis_1">
    <g id="text_1">
     <!-- Paragraph -->
     <defs>
      <path d="M 7.71875 0 
L 7.71875 71.578125 
L 34.71875 71.578125 
Q 41.84375 71.578125 45.609375 70.90625 
Q 50.875 70.015625 54.4375 67.546875 
Q 58.015625 65.09375 60.1875 60.640625 
Q 62.359375 56.203125 62.359375 50.875 
Q 62.359375 41.75 56.546875 35.421875 
Q 50.734375 29.109375 35.546875 29.109375 
L 17.1875 29.109375 
L 17.1875 0 
z
M 17.1875 37.546875 
L 35.6875 37.546875 
Q 44.875 37.546875 48.734375 40.96875 
Q 52.59375 44.390625 52.59375 50.59375 
Q 52.59375 55.078125 50.3125 58.265625 
Q 48.046875 61.46875 44.34375 62.5 
Q 41.9375 63.140625 35.5 63.140625 
L 17.1875 63.140625 
z
" id="ArialMT-80"/>
      <path d="M 40.4375 6.390625 
Q 35.546875 2.25 31.03125 0.53125 
Q 26.515625 -1.171875 21.34375 -1.171875 
Q 12.796875 -1.171875 8.203125 3 
Q 3.609375 7.171875 3.609375 13.671875 
Q 3.609375 17.484375 5.34375 20.625 
Q 7.078125 23.78125 9.890625 25.6875 
Q 12.703125 27.59375 16.21875 28.5625 
Q 18.796875 29.25 24.03125 29.890625 
Q 34.671875 31.15625 39.703125 32.90625 
Q 39.75 34.71875 39.75 35.203125 
Q 39.75 40.578125 37.25 42.78125 
Q 33.890625 45.75 27.25 45.75 
Q 21.046875 45.75 18.09375 43.578125 
Q 15.140625 41.40625 13.71875 35.890625 
L 5.125 37.0625 
Q 6.296875 42.578125 8.984375 45.96875 
Q 11.671875 49.359375 16.75 51.1875 
Q 21.828125 53.03125 28.515625 53.03125 
Q 35.15625 53.03125 39.296875 51.46875 
Q 43.453125 49.90625 45.40625 47.53125 
Q 47.359375 45.171875 48.140625 41.546875 
Q 48.578125 39.3125 48.578125 33.453125 
L 48.578125 21.734375 
Q 48.578125 9.46875 49.140625 6.21875 
Q 49.703125 2.984375 51.375 0 
L 42.1875 0 
Q 40.828125 2.734375 40.4375 6.390625 
z
M 39.703125 26.03125 
Q 34.90625 24.078125 25.34375 22.703125 
Q 19.921875 21.921875 17.671875 20.9375 
Q 15.4375 19.96875 14.203125 18.09375 
Q 12.984375 16.21875 12.984375 13.921875 
Q 12.984375 10.40625 15.640625 8.0625 
Q 18.3125 5.71875 23.4375 5.71875 
Q 28.515625 5.71875 32.46875 7.9375 
Q 36.421875 10.15625 38.28125 14.015625 
Q 39.703125 17 39.703125 22.796875 
z
" id="ArialMT-97"/>
      <path d="M 6.5 0 
L 6.5 51.859375 
L 14.40625 51.859375 
L 14.40625 44 
Q 17.4375 49.515625 20 51.265625 
Q 22.5625 53.03125 25.640625 53.03125 
Q 30.078125 53.03125 34.671875 50.203125 
L 31.640625 42.046875 
Q 28.421875 43.953125 25.203125 43.953125 
Q 22.3125 43.953125 20.015625 42.21875 
Q 17.71875 40.484375 16.75 37.40625 
Q 15.28125 32.71875 15.28125 27.15625 
L 15.28125 0 
z
" id="ArialMT-114"/>
      <path d="M 4.984375 -4.296875 
L 13.53125 -5.5625 
Q 14.0625 -9.515625 16.5 -11.328125 
Q 19.78125 -13.765625 25.4375 -13.765625 
Q 31.546875 -13.765625 34.859375 -11.328125 
Q 38.1875 -8.890625 39.359375 -4.5 
Q 40.046875 -1.8125 39.984375 6.78125 
Q 34.234375 0 25.640625 0 
Q 14.9375 0 9.078125 7.71875 
Q 3.21875 15.4375 3.21875 26.21875 
Q 3.21875 33.640625 5.90625 39.90625 
Q 8.59375 46.1875 13.6875 49.609375 
Q 18.796875 53.03125 25.6875 53.03125 
Q 34.859375 53.03125 40.828125 45.609375 
L 40.828125 51.859375 
L 48.921875 51.859375 
L 48.921875 7.03125 
Q 48.921875 -5.078125 46.453125 -10.125 
Q 44 -15.1875 38.640625 -18.109375 
Q 33.296875 -21.046875 25.484375 -21.046875 
Q 16.21875 -21.046875 10.5 -16.875 
Q 4.78125 -12.703125 4.984375 -4.296875 
z
M 12.25 26.859375 
Q 12.25 16.65625 16.296875 11.96875 
Q 20.359375 7.28125 26.46875 7.28125 
Q 32.515625 7.28125 36.609375 11.9375 
Q 40.71875 16.609375 40.71875 26.5625 
Q 40.71875 36.078125 36.5 40.90625 
Q 32.28125 45.75 26.3125 45.75 
Q 20.453125 45.75 16.34375 40.984375 
Q 12.25 36.234375 12.25 26.859375 
z
" id="ArialMT-103"/>
      <path d="M 6.59375 -19.875 
L 6.59375 51.859375 
L 14.59375 51.859375 
L 14.59375 45.125 
Q 17.4375 49.078125 21 51.046875 
Q 24.5625 53.03125 29.640625 53.03125 
Q 36.28125 53.03125 41.359375 49.609375 
Q 46.4375 46.1875 49.015625 39.953125 
Q 51.609375 33.734375 51.609375 26.3125 
Q 51.609375 18.359375 48.75 11.984375 
Q 45.90625 5.609375 40.453125 2.21875 
Q 35.015625 -1.171875 29 -1.171875 
Q 24.609375 -1.171875 21.109375 0.6875 
Q 17.625 2.546875 15.375 5.375 
L 15.375 -19.875 
z
M 14.546875 25.640625 
Q 14.546875 15.625 18.59375 10.84375 
Q 22.65625 6.0625 28.421875 6.0625 
Q 34.28125 6.0625 38.453125 11.015625 
Q 42.625 15.96875 42.625 26.375 
Q 42.625 36.28125 38.546875 41.203125 
Q 34.46875 46.140625 28.8125 46.140625 
Q 23.1875 46.140625 18.859375 40.890625 
Q 14.546875 35.640625 14.546875 25.640625 
z
" id="ArialMT-112"/>
      <path d="M 6.59375 0 
L 6.59375 71.578125 
L 15.375 71.578125 
L 15.375 45.90625 
Q 21.53125 53.03125 30.90625 53.03125 
Q 36.671875 53.03125 40.921875 50.75 
Q 45.171875 48.484375 47 44.484375 
Q 48.828125 40.484375 48.828125 32.859375 
L 48.828125 0 
L 40.046875 0 
L 40.046875 32.859375 
Q 40.046875 39.453125 37.1875 42.453125 
Q 34.328125 45.453125 29.109375 45.453125 
Q 25.203125 45.453125 21.75 43.421875 
Q 18.3125 41.40625 16.84375 37.9375 
Q 15.375 34.46875 15.375 28.375 
L 15.375 0 
z
" id="ArialMT-104"/>
     </defs>
     <g style="fill:#262626;" transform="translate(530.152344 389.157812)scale(0.1 -0.1)">
      <use xlink:href="#ArialMT-80"/>
      <use x="66.699219" xlink:href="#ArialMT-97"/>
      <use x="122.314453" xlink:href="#ArialMT-114"/>
      <use x="155.615234" xlink:href="#ArialMT-97"/>
      <use x="211.230469" xlink:href="#ArialMT-103"/>
      <use x="266.845703" xlink:href="#ArialMT-114"/>
      <use x="300.146484" xlink:href="#ArialMT-97"/>
      <use x="355.761719" xlink:href="#ArialMT-112"/>
      <use x="411.376953" xlink:href="#ArialMT-104"/>
     </g>
    </g>
   </g>
   <g id="matplotlib.axis_2">
    <g id="text_2">
     <!-- Sentiment -->
     <defs>
      <path d="M 4.5 23 
L 13.421875 23.78125 
Q 14.0625 18.40625 16.375 14.96875 
Q 18.703125 11.53125 23.578125 9.40625 
Q 28.46875 7.28125 34.578125 7.28125 
Q 39.984375 7.28125 44.140625 8.890625 
Q 48.296875 10.5 50.3125 13.296875 
Q 52.34375 16.109375 52.34375 19.4375 
Q 52.34375 22.796875 50.390625 25.3125 
Q 48.4375 27.828125 43.953125 29.546875 
Q 41.0625 30.671875 31.203125 33.03125 
Q 21.34375 35.40625 17.390625 37.5 
Q 12.25 40.1875 9.734375 44.15625 
Q 7.234375 48.140625 7.234375 53.078125 
Q 7.234375 58.5 10.296875 63.203125 
Q 13.375 67.921875 19.28125 70.359375 
Q 25.203125 72.796875 32.421875 72.796875 
Q 40.375 72.796875 46.453125 70.234375 
Q 52.546875 67.671875 55.8125 62.6875 
Q 59.078125 57.71875 59.328125 51.421875 
L 50.25 50.734375 
Q 49.515625 57.515625 45.28125 60.984375 
Q 41.0625 64.453125 32.8125 64.453125 
Q 24.21875 64.453125 20.28125 61.296875 
Q 16.359375 58.15625 16.359375 53.71875 
Q 16.359375 49.859375 19.140625 47.359375 
Q 21.875 44.875 33.421875 42.265625 
Q 44.96875 39.65625 49.265625 37.703125 
Q 55.515625 34.8125 58.484375 30.390625 
Q 61.46875 25.984375 61.46875 20.21875 
Q 61.46875 14.5 58.203125 9.4375 
Q 54.9375 4.390625 48.796875 1.578125 
Q 42.671875 -1.21875 35.015625 -1.21875 
Q 25.296875 -1.21875 18.71875 1.609375 
Q 12.15625 4.4375 8.421875 10.125 
Q 4.6875 15.828125 4.5 23 
z
" id="ArialMT-83"/>
      <path d="M 42.09375 16.703125 
L 51.171875 15.578125 
Q 49.03125 7.625 43.21875 3.21875 
Q 37.40625 -1.171875 28.375 -1.171875 
Q 17 -1.171875 10.328125 5.828125 
Q 3.65625 12.84375 3.65625 25.484375 
Q 3.65625 38.578125 10.390625 45.796875 
Q 17.140625 53.03125 27.875 53.03125 
Q 38.28125 53.03125 44.875 45.953125 
Q 51.46875 38.875 51.46875 26.03125 
Q 51.46875 25.25 51.421875 23.6875 
L 12.75 23.6875 
Q 13.234375 15.140625 17.578125 10.59375 
Q 21.921875 6.0625 28.421875 6.0625 
Q 33.25 6.0625 36.671875 8.59375 
Q 40.09375 11.140625 42.09375 16.703125 
z
M 13.234375 30.90625 
L 42.1875 30.90625 
Q 41.609375 37.453125 38.875 40.71875 
Q 34.671875 45.796875 27.984375 45.796875 
Q 21.921875 45.796875 17.796875 41.75 
Q 13.671875 37.703125 13.234375 30.90625 
z
" id="ArialMT-101"/>
      <path d="M 6.59375 0 
L 6.59375 51.859375 
L 14.5 51.859375 
L 14.5 44.484375 
Q 20.21875 53.03125 31 53.03125 
Q 35.6875 53.03125 39.625 51.34375 
Q 43.5625 49.65625 45.515625 46.921875 
Q 47.46875 44.1875 48.25 40.4375 
Q 48.734375 37.984375 48.734375 31.890625 
L 48.734375 0 
L 39.9375 0 
L 39.9375 31.546875 
Q 39.9375 36.921875 38.90625 39.578125 
Q 37.890625 42.234375 35.28125 43.8125 
Q 32.671875 45.40625 29.15625 45.40625 
Q 23.53125 45.40625 19.453125 41.84375 
Q 15.375 38.28125 15.375 28.328125 
L 15.375 0 
z
" id="ArialMT-110"/>
      <path d="M 25.78125 7.859375 
L 27.046875 0.09375 
Q 23.34375 -0.6875 20.40625 -0.6875 
Q 15.625 -0.6875 12.984375 0.828125 
Q 10.359375 2.34375 9.28125 4.8125 
Q 8.203125 7.28125 8.203125 15.1875 
L 8.203125 45.015625 
L 1.765625 45.015625 
L 1.765625 51.859375 
L 8.203125 51.859375 
L 8.203125 64.703125 
L 16.9375 69.96875 
L 16.9375 51.859375 
L 25.78125 51.859375 
L 25.78125 45.015625 
L 16.9375 45.015625 
L 16.9375 14.703125 
Q 16.9375 10.9375 17.40625 9.859375 
Q 17.875 8.796875 18.921875 8.15625 
Q 19.96875 7.515625 21.921875 7.515625 
Q 23.390625 7.515625 25.78125 7.859375 
z
" id="ArialMT-116"/>
      <path d="M 6.640625 61.46875 
L 6.640625 71.578125 
L 15.4375 71.578125 
L 15.4375 61.46875 
z
M 6.640625 0 
L 6.640625 51.859375 
L 15.4375 51.859375 
L 15.4375 0 
z
" id="ArialMT-105"/>
      <path d="M 6.59375 0 
L 6.59375 51.859375 
L 14.453125 51.859375 
L 14.453125 44.578125 
Q 16.890625 48.390625 20.9375 50.703125 
Q 25 53.03125 30.171875 53.03125 
Q 35.9375 53.03125 39.625 50.640625 
Q 43.3125 48.25 44.828125 43.953125 
Q 50.984375 53.03125 60.84375 53.03125 
Q 68.5625 53.03125 72.703125 48.75 
Q 76.859375 44.484375 76.859375 35.59375 
L 76.859375 0 
L 68.109375 0 
L 68.109375 32.671875 
Q 68.109375 37.9375 67.25 40.25 
Q 66.40625 42.578125 64.15625 43.984375 
Q 61.921875 45.40625 58.890625 45.40625 
Q 53.421875 45.40625 49.796875 41.765625 
Q 46.1875 38.140625 46.1875 30.125 
L 46.1875 0 
L 37.40625 0 
L 37.40625 33.6875 
Q 37.40625 39.546875 35.25 42.46875 
Q 33.109375 45.40625 28.21875 45.40625 
Q 24.515625 45.40625 21.359375 43.453125 
Q 18.21875 41.5 16.796875 37.734375 
Q 15.375 33.984375 15.375 26.90625 
L 15.375 0 
z
" id="ArialMT-109"/>
     </defs>
     <g style="fill:#262626;" transform="translate(129.0125 237.430937)rotate(-90)scale(0.1 -0.1)">
      <use xlink:href="#ArialMT-83"/>
      <use x="66.699219" xlink:href="#ArialMT-101"/>
      <use x="122.314453" xlink:href="#ArialMT-110"/>
      <use x="177.929688" xlink:href="#ArialMT-116"/>
      <use x="205.712891" xlink:href="#ArialMT-105"/>
      <use x="227.929688" xlink:href="#ArialMT-109"/>
      <use x="311.230469" xlink:href="#ArialMT-101"/>
      <use x="366.845703" xlink:href="#ArialMT-110"/>
      <use x="422.460938" xlink:href="#ArialMT-116"/>
     </g>
    </g>
   </g>
   <g id="PolyCollection_1">
    <path clip-path="url(#pe8695f64f5)" d="M 173.045455 235.083132 
L 173.045455 235.083132 
L 175.734179 235.083132 
L 178.422904 235.083132 
L 181.111629 235.083132 
L 183.800353 235.083132 
L 186.489078 235.083132 
L 189.177803 235.083132 
L 191.866527 235.083132 
L 194.555252 235.083132 
L 197.243977 235.083132 
L 199.932702 235.083132 
L 202.621426 235.083132 
L 205.310151 235.083132 
L 207.998876 235.083132 
L 210.6876 235.083132 
L 213.376325 235.083132 
L 216.06505 235.083132 
L 218.753774 235.083132 
L 221.442499 235.083132 
L 224.131224 235.083132 
L 226.819949 235.083132 
L 229.508673 235.083132 
L 232.197398 235.083132 
L 234.886123 235.083132 
L 237.574847 235.083132 
L 240.263572 235.083132 
L 242.952297 235.083132 
L 245.641022 235.083132 
L 248.329746 235.083132 
L 251.018471 235.083132 
L 253.707196 235.083132 
L 256.39592 235.083132 
L 259.084645 235.083132 
L 261.77337 235.083132 
L 264.462094 235.083132 
L 267.150819 235.083132 
L 269.839544 235.083132 
L 272.528269 235.083132 
L 275.216993 235.083132 
L 277.905718 235.083132 
L 280.594443 235.083132 
L 283.283167 235.083132 
L 285.971892 235.083132 
L 288.660617 235.083132 
L 291.349341 235.083132 
L 294.038066 235.083132 
L 296.726791 235.083132 
L 299.415516 235.083132 
L 302.10424 235.083132 
L 304.792965 235.083132 
L 307.48169 235.083132 
L 310.170414 235.083132 
L 312.859139 235.083132 
L 315.547864 235.083132 
L 318.236588 235.083132 
L 320.925313 235.083132 
L 323.614038 235.083132 
L 326.302763 235.083132 
L 328.991487 235.083132 
L 331.680212 235.083132 
L 334.368937 235.083132 
L 337.057661 235.083132 
L 339.746386 235.083132 
L 342.435111 235.083132 
L 345.123836 235.083132 
L 347.81256 235.083132 
L 350.501285 235.083132 
L 353.19001 235.083132 
L 355.878734 235.083132 
L 358.567459 235.083132 
L 361.256184 235.083132 
L 363.944908 235.083132 
L 366.633633 235.083132 
L 369.322358 235.083132 
L 372.011083 235.083132 
L 374.699807 235.083132 
L 377.388532 235.083132 
L 380.077257 235.083132 
L 382.765981 235.083132 
L 385.454706 235.083132 
L 388.143431 235.083132 
L 390.832155 235.083132 
L 393.52088 235.083132 
L 396.209605 235.083132 
L 398.89833 235.083132 
L 401.587054 235.083132 
L 404.275779 235.083132 
L 406.964504 235.083132 
L 409.653228 235.083132 
L 412.341953 235.083132 
L 415.030678 235.083132 
L 417.719403 235.083132 
L 420.408127 235.083132 
L 423.096852 235.083132 
L 425.785577 235.083132 
L 428.474301 235.083132 
L 431.163026 235.083132 
L 433.851751 235.083132 
L 436.540475 235.083132 
L 439.2292 235.083132 
L 441.917925 235.083132 
L 444.60665 235.083132 
L 447.295374 235.083132 
L 449.984099 235.083132 
L 452.411321 235.083132 
L 449.984099 221.511451 
L 447.295374 204.31124 
L 444.60665 189.273404 
L 441.917925 176.291412 
L 439.2292 161.750988 
L 436.540475 147.838159 
L 433.851751 136.174788 
L 431.163026 126.91493 
L 428.474301 121.558775 
L 425.785577 118.43926 
L 423.096852 118.125408 
L 420.408127 120.059467 
L 417.719403 119.486466 
L 415.030678 117.797631 
L 412.341953 119.325782 
L 409.653228 124.698624 
L 406.964504 132.163778 
L 404.275779 141.479113 
L 401.587054 154.867014 
L 398.89833 168.6343 
L 396.209605 180.484545 
L 393.52088 192.263511 
L 390.832155 202.882991 
L 388.143431 209.746299 
L 385.454706 213.970044 
L 382.765981 213.897659 
L 380.077257 209.204794 
L 377.388532 200.381676 
L 374.699807 183.604281 
L 372.011083 163.736215 
L 369.322358 144.925742 
L 366.633633 126.791378 
L 363.944908 111.01378 
L 361.256184 98.974892 
L 358.567459 91.158091 
L 355.878734 87.701074 
L 353.19001 84.950556 
L 350.501285 84.704226 
L 347.81256 90.381859 
L 345.123836 99.855225 
L 342.435111 111.215352 
L 339.746386 123.136325 
L 337.057661 135.555704 
L 334.368937 146.864996 
L 331.680212 152.801225 
L 328.991487 154.41447 
L 326.302763 157.707377 
L 323.614038 158.649929 
L 320.925313 155.690655 
L 318.236588 149.101525 
L 315.547864 138.732574 
L 312.859139 125.809264 
L 310.170414 110.293688 
L 307.48169 94.803087 
L 304.792965 81.524372 
L 302.10424 72.359664 
L 299.415516 67.394056 
L 296.726791 66.665455 
L 294.038066 70.031078 
L 291.349341 77.335438 
L 288.660617 86.465999 
L 285.971892 96.408928 
L 283.283167 107.173067 
L 280.594443 118.213817 
L 277.905718 129.659811 
L 275.216993 137.269735 
L 272.528269 137.071146 
L 269.839544 132.911609 
L 267.150819 126.466143 
L 264.462094 117.910021 
L 261.77337 109.465294 
L 259.084645 101.569036 
L 256.39592 94.288436 
L 253.707196 87.159236 
L 251.018471 79.877752 
L 248.329746 74.382685 
L 245.641022 74.281346 
L 242.952297 77.640892 
L 240.263572 78.978411 
L 237.574847 78.165821 
L 234.886123 78.142613 
L 232.197398 79.934887 
L 229.508673 82.866091 
L 226.819949 85.913663 
L 224.131224 88.979911 
L 221.442499 92.182862 
L 218.753774 91.515153 
L 216.06505 89.085118 
L 213.376325 90.964696 
L 210.6876 95.065662 
L 207.998876 97.452929 
L 205.310151 96.262169 
L 202.621426 92.743266 
L 199.932702 88.747727 
L 197.243977 84.982052 
L 194.555252 82.019794 
L 191.866527 81.877014 
L 189.177803 81.441267 
L 186.489078 78.468732 
L 183.800353 75.401931 
L 181.111629 73.454831 
L 178.422904 73.436376 
L 175.734179 74.514525 
L 173.045455 75.910726 
z
" style="fill:#55a868;fill-opacity:0.5;stroke:#ffffff;stroke-opacity:0.5;"/>
    <path clip-path="url(#pe8695f64f5)" d="M 524.053899 235.083132 
L 525.268391 235.083132 
L 527.957115 235.083132 
L 530.64584 235.083132 
L 533.334565 235.083132 
L 536.023289 235.083132 
L 538.712014 235.083132 
L 541.400739 235.083132 
L 544.089464 235.083132 
L 546.778188 235.083132 
L 549.466913 235.083132 
L 552.155638 235.083132 
L 554.844362 235.083132 
L 557.533087 235.083132 
L 560.221812 235.083132 
L 562.910536 235.083132 
L 565.599261 235.083132 
L 568.287986 235.083132 
L 570.976711 235.083132 
L 573.665435 235.083132 
L 576.35416 235.083132 
L 579.042885 235.083132 
L 581.31134 235.083132 
L 579.042885 223.46275 
L 576.35416 204.498667 
L 573.665435 179.757712 
L 570.976711 153.708413 
L 568.287986 134.065126 
L 565.599261 120.858907 
L 562.910536 109.72577 
L 560.221812 102.584746 
L 557.533087 99.422131 
L 554.844362 98.285853 
L 552.155638 101.43388 
L 549.466913 109.042146 
L 546.778188 120.779117 
L 544.089464 136.618492 
L 541.400739 152.482289 
L 538.712014 164.106759 
L 536.023289 175.24708 
L 533.334565 185.76301 
L 530.64584 195.708592 
L 527.957115 209.042232 
L 525.268391 226.282227 
z
" style="fill:#55a868;fill-opacity:0.5;stroke:#ffffff;stroke-opacity:0.5;"/>
    <path clip-path="url(#pe8695f64f5)" d="M 621.938097 235.083132 
L 622.06248 235.083132 
L 624.751205 235.083132 
L 627.439929 235.083132 
L 630.128654 235.083132 
L 632.817379 235.083132 
L 635.506103 235.083132 
L 638.194828 235.083132 
L 640.883553 235.083132 
L 643.572278 235.083132 
L 646.261002 235.083132 
L 648.949727 235.083132 
L 651.638452 235.083132 
L 654.327176 235.083132 
L 657.015901 235.083132 
L 659.704626 235.083132 
L 662.39335 235.083132 
L 665.082075 235.083132 
L 667.7708 235.083132 
L 670.459525 235.083132 
L 673.148249 235.083132 
L 675.836974 235.083132 
L 677.429731 235.083132 
L 675.836974 231.689549 
L 673.148249 224.784024 
L 670.459525 212.681703 
L 667.7708 200.430301 
L 665.082075 190.677341 
L 662.39335 179.501215 
L 659.704626 165.225024 
L 657.015901 153.687194 
L 654.327176 147.307262 
L 651.638452 140.773609 
L 648.949727 134.385278 
L 646.261002 131.438271 
L 643.572278 131.510545 
L 640.883553 135.25224 
L 638.194828 142.069576 
L 635.506103 152.797467 
L 632.817379 169.791575 
L 630.128654 187.5155 
L 627.439929 203.258398 
L 624.751205 219.498707 
L 622.06248 234.452333 
z
" style="fill:#55a868;fill-opacity:0.5;stroke:#ffffff;stroke-opacity:0.5;"/>
    <path clip-path="url(#pe8695f64f5)" d="M 738.114472 235.083132 
L 740.366367 235.083132 
L 743.055092 235.083132 
L 745.743816 235.083132 
L 748.432541 235.083132 
L 751.121266 235.083132 
L 753.80999 235.083132 
L 756.498715 235.083132 
L 759.18744 235.083132 
L 761.074722 235.083132 
L 759.18744 229.364389 
L 756.498715 226.978559 
L 753.80999 227.095038 
L 751.121266 224.195993 
L 748.432541 219.527219 
L 745.743816 217.552381 
L 743.055092 220.206201 
L 740.366367 226.347981 
z
" style="fill:#55a868;fill-opacity:0.5;stroke:#ffffff;stroke-opacity:0.5;"/>
    <path clip-path="url(#pe8695f64f5)" d="M 808.654387 235.083132 
L 810.273209 235.083132 
L 812.961934 235.083132 
L 815.650659 235.083132 
L 818.339383 235.083132 
L 821.028108 235.083132 
L 823.716833 235.083132 
L 826.405557 235.083132 
L 829.094282 235.083132 
L 831.783007 235.083132 
L 834.471731 235.083132 
L 837.160456 235.083132 
L 839.849181 235.083132 
L 842.537906 235.083132 
L 845.22663 235.083132 
L 847.915355 235.083132 
L 850.60408 235.083132 
L 853.292804 235.083132 
L 855.981529 235.083132 
L 858.670254 235.083132 
L 861.358978 235.083132 
L 864.047703 235.083132 
L 866.736428 235.083132 
L 869.425153 235.083132 
L 872.113877 235.083132 
L 874.802602 235.083132 
L 877.491327 235.083132 
L 880.180051 235.083132 
L 882.868776 235.083132 
L 885.557501 235.083132 
L 888.246226 235.083132 
L 890.93495 235.083132 
L 893.623675 235.083132 
L 896.3124 235.083132 
L 899.001124 235.083132 
L 901.689849 235.083132 
L 904.378574 235.083132 
L 905.234036 235.083132 
L 904.378574 228.321493 
L 901.689849 207.285653 
L 899.001124 188.273939 
L 896.3124 168.46787 
L 893.623675 148.136871 
L 890.93495 130.468423 
L 888.246226 115.503967 
L 885.557501 101.832163 
L 882.868776 91.243737 
L 880.180051 87.433415 
L 877.491327 91.854865 
L 874.802602 99.491643 
L 872.113877 106.659079 
L 869.425153 114.248227 
L 866.736428 122.678366 
L 864.047703 131.740188 
L 861.358978 140.217184 
L 858.670254 148.157758 
L 855.981529 155.588653 
L 853.292804 158.27629 
L 850.60408 152.501186 
L 847.915355 140.132974 
L 845.22663 127.110646 
L 842.537906 116.479672 
L 839.849181 107.244458 
L 837.160456 100.902099 
L 834.471731 99.142869 
L 831.783007 100.006957 
L 829.094282 101.277617 
L 826.405557 106.796997 
L 823.716833 118.566459 
L 821.028108 136.852555 
L 818.339383 158.214072 
L 815.650659 179.626203 
L 812.961934 202.941562 
L 810.273209 224.638702 
z
" style="fill:#55a868;fill-opacity:0.5;stroke:#ffffff;stroke-opacity:0.5;"/>
   </g>
   <g id="PolyCollection_2">
    <path clip-path="url(#pe8695f64f5)" d="M 452.411321 235.083132 
L 452.672824 235.083132 
L 455.361548 235.083132 
L 458.050273 235.083132 
L 460.738998 235.083132 
L 463.427722 235.083132 
L 466.116447 235.083132 
L 468.805172 235.083132 
L 471.493897 235.083132 
L 474.182621 235.083132 
L 476.871346 235.083132 
L 479.560071 235.083132 
L 482.248795 235.083132 
L 484.93752 235.083132 
L 487.626245 235.083132 
L 490.314969 235.083132 
L 493.003694 235.083132 
L 495.692419 235.083132 
L 498.381144 235.083132 
L 501.069868 235.083132 
L 503.758593 235.083132 
L 506.447318 235.083132 
L 509.136042 235.083132 
L 511.824767 235.083132 
L 514.513492 235.083132 
L 517.202217 235.083132 
L 519.890941 235.083132 
L 522.579666 235.083132 
L 524.053899 235.083132 
L 522.579666 245.766266 
L 519.890941 267.253988 
L 517.202217 287.953984 
L 514.513492 303.889834 
L 511.824767 315.659406 
L 509.136042 322.459945 
L 506.447318 326.263857 
L 503.758593 328.380813 
L 501.069868 324.880033 
L 498.381144 313.213458 
L 495.692419 297.375962 
L 493.003694 279.519314 
L 490.314969 260.475772 
L 487.626245 246.343357 
L 484.93752 240.364912 
L 482.248795 241.491797 
L 479.560071 243.722801 
L 476.871346 243.925147 
L 474.182621 246.123218 
L 471.493897 252.255163 
L 468.805172 260.074285 
L 466.116447 267.353558 
L 463.427722 271.922541 
L 460.738998 271.987411 
L 458.050273 265.708818 
L 455.361548 251.719625 
L 452.672824 236.545308 
z
" style="fill:#4c72b0;fill-opacity:0.5;stroke:#ffffff;stroke-opacity:0.5;"/>
    <path clip-path="url(#pe8695f64f5)" d="M 581.31134 235.083132 
L 581.731609 235.083132 
L 584.420334 235.083132 
L 587.109059 235.083132 
L 589.797783 235.083132 
L 592.486508 235.083132 
L 595.175233 235.083132 
L 597.863958 235.083132 
L 600.552682 235.083132 
L 603.241407 235.083132 
L 605.930132 235.083132 
L 608.618856 235.083132 
L 611.307581 235.083132 
L 613.996306 235.083132 
L 616.685031 235.083132 
L 619.373755 235.083132 
L 621.938097 235.083132 
L 619.373755 248.088 
L 616.685031 260.964012 
L 613.996306 270.5522 
L 611.307581 274.627859 
L 608.618856 275.61572 
L 605.930132 275.625003 
L 603.241407 275.056091 
L 600.552682 276.369518 
L 597.863958 276.969374 
L 595.175233 272.81923 
L 592.486508 266.076157 
L 589.797783 259.767284 
L 587.109059 252.431649 
L 584.420334 245.358921 
L 581.731609 237.236004 
z
" style="fill:#4c72b0;fill-opacity:0.5;stroke:#ffffff;stroke-opacity:0.5;"/>
    <path clip-path="url(#pe8695f64f5)" d="M 677.429731 235.083132 
L 678.525699 235.083132 
L 681.214423 235.083132 
L 683.903148 235.083132 
L 686.591873 235.083132 
L 689.280597 235.083132 
L 691.969322 235.083132 
L 694.658047 235.083132 
L 697.346772 235.083132 
L 700.035496 235.083132 
L 702.724221 235.083132 
L 705.412946 235.083132 
L 708.10167 235.083132 
L 710.790395 235.083132 
L 713.47912 235.083132 
L 716.167845 235.083132 
L 718.856569 235.083132 
L 721.545294 235.083132 
L 724.234019 235.083132 
L 726.922743 235.083132 
L 729.611468 235.083132 
L 732.300193 235.083132 
L 734.988917 235.083132 
L 737.677642 235.083132 
L 738.114472 235.083132 
L 737.677642 236.777603 
L 734.988917 245.884735 
L 732.300193 253.195173 
L 729.611468 260.870409 
L 726.922743 268.149572 
L 724.234019 278.760763 
L 721.545294 291.971514 
L 718.856569 302.430421 
L 716.167845 308.521145 
L 713.47912 311.76377 
L 710.790395 310.995274 
L 708.10167 311.131092 
L 705.412946 310.59257 
L 702.724221 303.89315 
L 700.035496 296.738533 
L 697.346772 292.110759 
L 694.658047 285.933504 
L 691.969322 279.206566 
L 689.280597 274.045243 
L 686.591873 268.045249 
L 683.903148 260.485829 
L 681.214423 248.815938 
L 678.525699 237.418237 
z
" style="fill:#4c72b0;fill-opacity:0.5;stroke:#ffffff;stroke-opacity:0.5;"/>
    <path clip-path="url(#pe8695f64f5)" d="M 761.074722 235.083132 
L 761.876164 235.083132 
L 764.564889 235.083132 
L 767.253614 235.083132 
L 769.942339 235.083132 
L 772.631063 235.083132 
L 775.319788 235.083132 
L 778.008513 235.083132 
L 780.697237 235.083132 
L 783.385962 235.083132 
L 786.074687 235.083132 
L 788.763412 235.083132 
L 791.452136 235.083132 
L 794.140861 235.083132 
L 796.829586 235.083132 
L 799.51831 235.083132 
L 802.207035 235.083132 
L 804.89576 235.083132 
L 807.584484 235.083132 
L 808.654387 235.083132 
L 807.584484 241.986004 
L 804.89576 259.310319 
L 802.207035 280.866226 
L 799.51831 302.615749 
L 796.829586 323.838243 
L 794.140861 342.140916 
L 791.452136 354.947747 
L 788.763412 362.622873 
L 786.074687 363.174545 
L 783.385962 358.402222 
L 780.697237 351.623012 
L 778.008513 342.522843 
L 775.319788 328.903642 
L 772.631063 311.619884 
L 769.942339 290.801972 
L 767.253614 270.255034 
L 764.564889 251.77698 
L 761.876164 237.511619 
z
" style="fill:#4c72b0;fill-opacity:0.5;stroke:#ffffff;stroke-opacity:0.5;"/>
    <path clip-path="url(#pe8695f64f5)" d="M 905.234036 235.083132 
L 907.067298 235.083132 
L 909.756023 235.083132 
L 912.444748 235.083132 
L 915.133473 235.083132 
L 917.822197 235.083132 
L 920.510922 235.083132 
L 923.199647 235.083132 
L 925.888371 235.083132 
L 928.577096 235.083132 
L 931.265821 235.083132 
L 933.954545 235.083132 
L 933.954545 235.083132 
L 933.954545 276.574296 
L 931.265821 277.579839 
L 928.577096 275.739382 
L 925.888371 274.103151 
L 923.199647 276.055224 
L 920.510922 280.032749 
L 917.822197 279.170982 
L 915.133473 275.255785 
L 912.444748 272.257611 
L 909.756023 265.106752 
L 907.067298 249.573383 
z
" style="fill:#4c72b0;fill-opacity:0.5;stroke:#ffffff;stroke-opacity:0.5;"/>
   </g>
   <g id="PathCollection_1">
    <defs>
     <path d="M 0 3 
C 0.795609 3 1.55874 2.683901 2.12132 2.12132 
C 2.683901 1.55874 3 0.795609 3 0 
C 3 -0.795609 2.683901 -1.55874 2.12132 -2.12132 
C 1.55874 -2.683901 0.795609 -3 0 -3 
C -0.795609 -3 -1.55874 -2.683901 -2.12132 -2.12132 
C -2.683901 -1.55874 -3 -0.795609 -3 0 
C -3 0.795609 -2.683901 1.55874 -2.12132 2.12132 
C -1.55874 2.683901 -0.795609 3 0 3 
z
" id="m7a2012d360" style="stroke:#000000;stroke-opacity:0.3;"/>
    </defs>
    <g clip-path="url(#pe8695f64f5)">
     <use style="fill-opacity:0.3;stroke:#000000;stroke-opacity:0.3;" x="425.785577" xlink:href="#m7a2012d360" y="118.43926"/>
    </g>
   </g>
   <g id="PathCollection_2">
    <g clip-path="url(#pe8695f64f5)">
     <use style="fill-opacity:0.3;stroke:#000000;stroke-opacity:0.3;" x="455.361548" xlink:href="#m7a2012d360" y="251.719625"/>
    </g>
   </g>
   <g id="PathCollection_3">
    <g clip-path="url(#pe8695f64f5)">
     <use style="fill-opacity:0.3;stroke:#000000;stroke-opacity:0.3;" x="490.314969" xlink:href="#m7a2012d360" y="260.475772"/>
    </g>
   </g>
   <g id="PathCollection_4">
    <g clip-path="url(#pe8695f64f5)">
     <use style="fill-opacity:0.3;stroke:#000000;stroke-opacity:0.3;" x="552.155638" xlink:href="#m7a2012d360" y="101.43388"/>
    </g>
   </g>
   <g id="PathCollection_5">
    <g clip-path="url(#pe8695f64f5)">
     <use style="fill-opacity:0.3;stroke:#000000;stroke-opacity:0.3;" x="791.452136" xlink:href="#m7a2012d360" y="354.947747"/>
    </g>
   </g>
   <g id="line2d_1">
    <path clip-path="url(#pe8695f64f5)" d="M 135 235.083132 
L 972 235.083132 
" style="fill:none;stroke:#808080;stroke-linecap:round;stroke-opacity:0.3;stroke-width:1.5;"/>
   </g>
   <g id="patch_3">
    <path d="M 135 378 
L 135 51.84 
" style="fill:none;stroke:#262626;stroke-linecap:square;stroke-linejoin:miter;stroke-width:0.8;"/>
   </g>
   <g id="patch_4">
    <path d="M 972 378 
L 972 51.84 
" style="fill:none;stroke:#262626;stroke-linecap:square;stroke-linejoin:miter;stroke-width:0.8;"/>
   </g>
   <g id="patch_5">
    <path d="M 135 378 
L 972 378 
" style="fill:none;stroke:#262626;stroke-linecap:square;stroke-linejoin:miter;stroke-width:0.8;"/>
   </g>
   <g id="patch_6">
    <path d="M 135 51.84 
L 972 51.84 
" style="fill:none;stroke:#262626;stroke-linecap:square;stroke-linejoin:miter;stroke-width:0.8;"/>
   </g>
   <g id="text_3">
    <!-- Frodo meets Aragorn -->
    <defs>
     <path d="M 8.203125 0 
L 8.203125 71.578125 
L 56.5 71.578125 
L 56.5 63.140625 
L 17.671875 63.140625 
L 17.671875 40.96875 
L 51.265625 40.96875 
L 51.265625 32.515625 
L 17.671875 32.515625 
L 17.671875 0 
z
" id="ArialMT-70"/>
     <path d="M 3.328125 25.921875 
Q 3.328125 40.328125 11.328125 47.265625 
Q 18.015625 53.03125 27.640625 53.03125 
Q 38.328125 53.03125 45.109375 46.015625 
Q 51.90625 39.015625 51.90625 26.65625 
Q 51.90625 16.65625 48.90625 10.90625 
Q 45.90625 5.171875 40.15625 2 
Q 34.421875 -1.171875 27.640625 -1.171875 
Q 16.75 -1.171875 10.03125 5.8125 
Q 3.328125 12.796875 3.328125 25.921875 
z
M 12.359375 25.921875 
Q 12.359375 15.96875 16.703125 11.015625 
Q 21.046875 6.0625 27.640625 6.0625 
Q 34.1875 6.0625 38.53125 11.03125 
Q 42.875 16.015625 42.875 26.21875 
Q 42.875 35.84375 38.5 40.796875 
Q 34.125 45.75 27.640625 45.75 
Q 21.046875 45.75 16.703125 40.8125 
Q 12.359375 35.890625 12.359375 25.921875 
z
" id="ArialMT-111"/>
     <path d="M 40.234375 0 
L 40.234375 6.546875 
Q 35.296875 -1.171875 25.734375 -1.171875 
Q 19.53125 -1.171875 14.328125 2.25 
Q 9.125 5.671875 6.265625 11.796875 
Q 3.421875 17.921875 3.421875 25.875 
Q 3.421875 33.640625 6 39.96875 
Q 8.59375 46.296875 13.765625 49.65625 
Q 18.953125 53.03125 25.34375 53.03125 
Q 30.03125 53.03125 33.6875 51.046875 
Q 37.359375 49.078125 39.65625 45.90625 
L 39.65625 71.578125 
L 48.390625 71.578125 
L 48.390625 0 
z
M 12.453125 25.875 
Q 12.453125 15.921875 16.640625 10.984375 
Q 20.84375 6.0625 26.5625 6.0625 
Q 32.328125 6.0625 36.34375 10.765625 
Q 40.375 15.484375 40.375 25.140625 
Q 40.375 35.796875 36.265625 40.765625 
Q 32.171875 45.75 26.171875 45.75 
Q 20.3125 45.75 16.375 40.96875 
Q 12.453125 36.1875 12.453125 25.875 
z
" id="ArialMT-100"/>
     <path id="ArialMT-32"/>
     <path d="M 3.078125 15.484375 
L 11.765625 16.84375 
Q 12.5 11.625 15.84375 8.84375 
Q 19.1875 6.0625 25.203125 6.0625 
Q 31.25 6.0625 34.171875 8.515625 
Q 37.109375 10.984375 37.109375 14.3125 
Q 37.109375 17.28125 34.515625 19 
Q 32.71875 20.171875 25.53125 21.96875 
Q 15.875 24.421875 12.140625 26.203125 
Q 8.40625 27.984375 6.46875 31.125 
Q 4.546875 34.28125 4.546875 38.09375 
Q 4.546875 41.546875 6.125 44.5 
Q 7.71875 47.46875 10.453125 49.421875 
Q 12.5 50.921875 16.03125 51.96875 
Q 19.578125 53.03125 23.640625 53.03125 
Q 29.734375 53.03125 34.34375 51.265625 
Q 38.96875 49.515625 41.15625 46.5 
Q 43.359375 43.5 44.1875 38.484375 
L 35.59375 37.3125 
Q 35.015625 41.3125 32.203125 43.546875 
Q 29.390625 45.796875 24.265625 45.796875 
Q 18.21875 45.796875 15.625 43.796875 
Q 13.03125 41.796875 13.03125 39.109375 
Q 13.03125 37.40625 14.109375 36.03125 
Q 15.1875 34.625 17.484375 33.6875 
Q 18.796875 33.203125 25.25 31.453125 
Q 34.578125 28.953125 38.25 27.359375 
Q 41.9375 25.78125 44.03125 22.75 
Q 46.140625 19.734375 46.140625 15.234375 
Q 46.140625 10.84375 43.578125 6.953125 
Q 41.015625 3.078125 36.171875 0.953125 
Q 31.34375 -1.171875 25.25 -1.171875 
Q 15.140625 -1.171875 9.84375 3.03125 
Q 4.546875 7.234375 3.078125 15.484375 
z
" id="ArialMT-115"/>
     <path d="M -0.140625 0 
L 27.34375 71.578125 
L 37.546875 71.578125 
L 66.84375 0 
L 56.0625 0 
L 47.703125 21.6875 
L 17.78125 21.6875 
L 9.90625 0 
z
M 20.515625 29.390625 
L 44.78125 29.390625 
L 37.3125 49.21875 
Q 33.890625 58.25 32.234375 64.0625 
Q 30.859375 57.171875 28.375 50.390625 
z
" id="ArialMT-65"/>
    </defs>
    <g style="fill:#262626;" transform="translate(425.785577 107.388123)scale(0.1 -0.1)">
     <use xlink:href="#ArialMT-70"/>
     <use x="61.083984" xlink:href="#ArialMT-114"/>
     <use x="94.384766" xlink:href="#ArialMT-111"/>
     <use x="150" xlink:href="#ArialMT-100"/>
     <use x="205.615234" xlink:href="#ArialMT-111"/>
     <use x="261.230469" xlink:href="#ArialMT-32"/>
     <use x="289.013672" xlink:href="#ArialMT-109"/>
     <use x="372.314453" xlink:href="#ArialMT-101"/>
     <use x="427.929688" xlink:href="#ArialMT-101"/>
     <use x="483.544922" xlink:href="#ArialMT-116"/>
     <use x="511.328125" xlink:href="#ArialMT-115"/>
     <use x="561.328125" xlink:href="#ArialMT-32"/>
     <use x="589.033203" xlink:href="#ArialMT-65"/>
     <use x="655.732422" xlink:href="#ArialMT-114"/>
     <use x="689.033203" xlink:href="#ArialMT-97"/>
     <use x="744.648438" xlink:href="#ArialMT-103"/>
     <use x="800.263672" xlink:href="#ArialMT-111"/>
     <use x="855.878906" xlink:href="#ArialMT-114"/>
     <use x="889.179688" xlink:href="#ArialMT-110"/>
    </g>
   </g>
   <g id="text_4">
    <!-- Black Riders arrive in Bree -->
    <defs>
     <path d="M 7.328125 0 
L 7.328125 71.578125 
L 34.1875 71.578125 
Q 42.390625 71.578125 47.34375 69.40625 
Q 52.296875 67.234375 55.09375 62.71875 
Q 57.90625 58.203125 57.90625 53.265625 
Q 57.90625 48.6875 55.421875 44.625 
Q 52.9375 40.578125 47.90625 38.09375 
Q 54.390625 36.1875 57.875 31.59375 
Q 61.375 27 61.375 20.75 
Q 61.375 15.71875 59.25 11.390625 
Q 57.125 7.078125 54 4.734375 
Q 50.875 2.390625 46.15625 1.1875 
Q 41.453125 0 34.625 0 
z
M 16.796875 41.5 
L 32.28125 41.5 
Q 38.578125 41.5 41.3125 42.328125 
Q 44.921875 43.40625 46.75 45.890625 
Q 48.578125 48.390625 48.578125 52.15625 
Q 48.578125 55.71875 46.875 58.421875 
Q 45.171875 61.140625 41.984375 62.140625 
Q 38.8125 63.140625 31.109375 63.140625 
L 16.796875 63.140625 
z
M 16.796875 8.453125 
L 34.625 8.453125 
Q 39.203125 8.453125 41.0625 8.796875 
Q 44.34375 9.375 46.53125 10.734375 
Q 48.734375 12.109375 50.140625 14.71875 
Q 51.5625 17.328125 51.5625 20.75 
Q 51.5625 24.75 49.515625 27.703125 
Q 47.46875 30.671875 43.828125 31.859375 
Q 40.1875 33.0625 33.34375 33.0625 
L 16.796875 33.0625 
z
" id="ArialMT-66"/>
     <path d="M 6.390625 0 
L 6.390625 71.578125 
L 15.1875 71.578125 
L 15.1875 0 
z
" id="ArialMT-108"/>
     <path d="M 40.4375 19 
L 49.078125 17.875 
Q 47.65625 8.9375 41.8125 3.875 
Q 35.984375 -1.171875 27.484375 -1.171875 
Q 16.84375 -1.171875 10.375 5.78125 
Q 3.90625 12.75 3.90625 25.734375 
Q 3.90625 34.125 6.6875 40.421875 
Q 9.46875 46.734375 15.15625 49.875 
Q 20.84375 53.03125 27.546875 53.03125 
Q 35.984375 53.03125 41.359375 48.75 
Q 46.734375 44.484375 48.25 36.625 
L 39.703125 35.296875 
Q 38.484375 40.53125 35.375 43.15625 
Q 32.28125 45.796875 27.875 45.796875 
Q 21.234375 45.796875 17.078125 41.03125 
Q 12.9375 36.28125 12.9375 25.984375 
Q 12.9375 15.53125 16.9375 10.796875 
Q 20.953125 6.0625 27.390625 6.0625 
Q 32.5625 6.0625 36.03125 9.234375 
Q 39.5 12.40625 40.4375 19 
z
" id="ArialMT-99"/>
     <path d="M 6.640625 0 
L 6.640625 71.578125 
L 15.4375 71.578125 
L 15.4375 30.765625 
L 36.234375 51.859375 
L 47.609375 51.859375 
L 27.78125 32.625 
L 49.609375 0 
L 38.765625 0 
L 21.625 26.515625 
L 15.4375 20.5625 
L 15.4375 0 
z
" id="ArialMT-107"/>
     <path d="M 7.859375 0 
L 7.859375 71.578125 
L 39.59375 71.578125 
Q 49.171875 71.578125 54.140625 69.640625 
Q 59.125 67.71875 62.109375 62.828125 
Q 65.09375 57.953125 65.09375 52.046875 
Q 65.09375 44.4375 60.15625 39.203125 
Q 55.21875 33.984375 44.921875 32.5625 
Q 48.6875 30.765625 50.640625 29 
Q 54.78125 25.203125 58.5 19.484375 
L 70.953125 0 
L 59.03125 0 
L 49.5625 14.890625 
Q 45.40625 21.34375 42.71875 24.75 
Q 40.046875 28.171875 37.921875 29.53125 
Q 35.796875 30.90625 33.59375 31.453125 
Q 31.984375 31.78125 28.328125 31.78125 
L 17.328125 31.78125 
L 17.328125 0 
z
M 17.328125 39.984375 
L 37.703125 39.984375 
Q 44.1875 39.984375 47.84375 41.328125 
Q 51.515625 42.671875 53.421875 45.625 
Q 55.328125 48.578125 55.328125 52.046875 
Q 55.328125 57.125 51.640625 60.390625 
Q 47.953125 63.671875 39.984375 63.671875 
L 17.328125 63.671875 
z
" id="ArialMT-82"/>
     <path d="M 21 0 
L 1.265625 51.859375 
L 10.546875 51.859375 
L 21.6875 20.796875 
Q 23.484375 15.765625 25 10.359375 
Q 26.171875 14.453125 28.265625 20.21875 
L 39.796875 51.859375 
L 48.828125 51.859375 
L 29.203125 0 
z
" id="ArialMT-118"/>
    </defs>
    <g style="fill:#262626;" transform="translate(455.361548 240.668487)scale(0.1 -0.1)">
     <use xlink:href="#ArialMT-66"/>
     <use x="66.699219" xlink:href="#ArialMT-108"/>
     <use x="88.916016" xlink:href="#ArialMT-97"/>
     <use x="144.53125" xlink:href="#ArialMT-99"/>
     <use x="194.53125" xlink:href="#ArialMT-107"/>
     <use x="244.53125" xlink:href="#ArialMT-32"/>
     <use x="272.314453" xlink:href="#ArialMT-82"/>
     <use x="344.53125" xlink:href="#ArialMT-105"/>
     <use x="366.748047" xlink:href="#ArialMT-100"/>
     <use x="422.363281" xlink:href="#ArialMT-101"/>
     <use x="477.978516" xlink:href="#ArialMT-114"/>
     <use x="511.279297" xlink:href="#ArialMT-115"/>
     <use x="561.279297" xlink:href="#ArialMT-32"/>
     <use x="589.0625" xlink:href="#ArialMT-97"/>
     <use x="644.677734" xlink:href="#ArialMT-114"/>
     <use x="677.978516" xlink:href="#ArialMT-114"/>
     <use x="711.279297" xlink:href="#ArialMT-105"/>
     <use x="733.496094" xlink:href="#ArialMT-118"/>
     <use x="783.496094" xlink:href="#ArialMT-101"/>
     <use x="839.111328" xlink:href="#ArialMT-32"/>
     <use x="866.894531" xlink:href="#ArialMT-105"/>
     <use x="889.111328" xlink:href="#ArialMT-110"/>
     <use x="944.726562" xlink:href="#ArialMT-32"/>
     <use x="972.509766" xlink:href="#ArialMT-66"/>
     <use x="1039.208984" xlink:href="#ArialMT-114"/>
     <use x="1072.509766" xlink:href="#ArialMT-101"/>
     <use x="1128.125" xlink:href="#ArialMT-101"/>
    </g>
   </g>
   <g id="text_5">
    <!-- Black Riders assembling near Weathertop -->
    <defs>
     <path d="M 14.703125 0 
L 6.546875 0 
L 6.546875 71.578125 
L 15.328125 71.578125 
L 15.328125 46.046875 
Q 20.90625 53.03125 29.546875 53.03125 
Q 34.328125 53.03125 38.59375 51.09375 
Q 42.875 49.171875 45.625 45.671875 
Q 48.390625 42.1875 49.953125 37.25 
Q 51.515625 32.328125 51.515625 26.703125 
Q 51.515625 13.375 44.921875 6.09375 
Q 38.328125 -1.171875 29.109375 -1.171875 
Q 19.921875 -1.171875 14.703125 6.5 
z
M 14.59375 26.3125 
Q 14.59375 17 17.140625 12.84375 
Q 21.296875 6.0625 28.375 6.0625 
Q 34.125 6.0625 38.328125 11.0625 
Q 42.53125 16.0625 42.53125 25.984375 
Q 42.53125 36.140625 38.5 40.96875 
Q 34.46875 45.796875 28.765625 45.796875 
Q 23 45.796875 18.796875 40.796875 
Q 14.59375 35.796875 14.59375 26.3125 
z
" id="ArialMT-98"/>
     <path d="M 20.21875 0 
L 1.21875 71.578125 
L 10.9375 71.578125 
L 21.828125 24.65625 
Q 23.578125 17.28125 24.859375 10.015625 
Q 27.59375 21.484375 28.078125 23.25 
L 41.703125 71.578125 
L 53.125 71.578125 
L 63.375 35.359375 
Q 67.234375 21.875 68.953125 10.015625 
Q 70.3125 16.796875 72.515625 25.59375 
L 83.734375 71.578125 
L 93.265625 71.578125 
L 73.640625 0 
L 64.5 0 
L 49.421875 54.546875 
Q 47.515625 61.375 47.171875 62.9375 
Q 46.046875 58.015625 45.0625 54.546875 
L 29.890625 0 
z
" id="ArialMT-87"/>
    </defs>
    <g style="fill:#262626;" transform="translate(490.314969 249.424635)scale(0.1 -0.1)">
     <use xlink:href="#ArialMT-66"/>
     <use x="66.699219" xlink:href="#ArialMT-108"/>
     <use x="88.916016" xlink:href="#ArialMT-97"/>
     <use x="144.53125" xlink:href="#ArialMT-99"/>
     <use x="194.53125" xlink:href="#ArialMT-107"/>
     <use x="244.53125" xlink:href="#ArialMT-32"/>
     <use x="272.314453" xlink:href="#ArialMT-82"/>
     <use x="344.53125" xlink:href="#ArialMT-105"/>
     <use x="366.748047" xlink:href="#ArialMT-100"/>
     <use x="422.363281" xlink:href="#ArialMT-101"/>
     <use x="477.978516" xlink:href="#ArialMT-114"/>
     <use x="511.279297" xlink:href="#ArialMT-115"/>
     <use x="561.279297" xlink:href="#ArialMT-32"/>
     <use x="589.0625" xlink:href="#ArialMT-97"/>
     <use x="644.677734" xlink:href="#ArialMT-115"/>
     <use x="694.677734" xlink:href="#ArialMT-115"/>
     <use x="744.677734" xlink:href="#ArialMT-101"/>
     <use x="800.292969" xlink:href="#ArialMT-109"/>
     <use x="883.59375" xlink:href="#ArialMT-98"/>
     <use x="939.208984" xlink:href="#ArialMT-108"/>
     <use x="961.425781" xlink:href="#ArialMT-105"/>
     <use x="983.642578" xlink:href="#ArialMT-110"/>
     <use x="1039.257812" xlink:href="#ArialMT-103"/>
     <use x="1094.873047" xlink:href="#ArialMT-32"/>
     <use x="1122.65625" xlink:href="#ArialMT-110"/>
     <use x="1178.271484" xlink:href="#ArialMT-101"/>
     <use x="1233.886719" xlink:href="#ArialMT-97"/>
     <use x="1289.501953" xlink:href="#ArialMT-114"/>
     <use x="1322.802734" xlink:href="#ArialMT-32"/>
     <use x="1350.585938" xlink:href="#ArialMT-87"/>
     <use x="1444.955078" xlink:href="#ArialMT-101"/>
     <use x="1500.570312" xlink:href="#ArialMT-97"/>
     <use x="1556.185547" xlink:href="#ArialMT-116"/>
     <use x="1583.96875" xlink:href="#ArialMT-104"/>
     <use x="1639.583984" xlink:href="#ArialMT-101"/>
     <use x="1695.199219" xlink:href="#ArialMT-114"/>
     <use x="1728.5" xlink:href="#ArialMT-116"/>
     <use x="1756.283203" xlink:href="#ArialMT-111"/>
     <use x="1811.898438" xlink:href="#ArialMT-112"/>
    </g>
   </g>
   <g id="text_6">
    <!-- Frodo meets up with Bilbo in Rivendell -->
    <defs>
     <path d="M 40.578125 0 
L 40.578125 7.625 
Q 34.515625 -1.171875 24.125 -1.171875 
Q 19.53125 -1.171875 15.546875 0.578125 
Q 11.578125 2.34375 9.640625 5 
Q 7.71875 7.671875 6.9375 11.53125 
Q 6.390625 14.109375 6.390625 19.734375 
L 6.390625 51.859375 
L 15.1875 51.859375 
L 15.1875 23.09375 
Q 15.1875 16.21875 15.71875 13.8125 
Q 16.546875 10.359375 19.234375 8.375 
Q 21.921875 6.390625 25.875 6.390625 
Q 29.828125 6.390625 33.296875 8.421875 
Q 36.765625 10.453125 38.203125 13.9375 
Q 39.65625 17.4375 39.65625 24.078125 
L 39.65625 51.859375 
L 48.4375 51.859375 
L 48.4375 0 
z
" id="ArialMT-117"/>
     <path d="M 16.15625 0 
L 0.296875 51.859375 
L 9.375 51.859375 
L 17.625 21.921875 
L 20.703125 10.796875 
Q 20.90625 11.625 23.390625 21.484375 
L 31.640625 51.859375 
L 40.671875 51.859375 
L 48.4375 21.78125 
L 51.03125 11.859375 
L 54 21.875 
L 62.890625 51.859375 
L 71.4375 51.859375 
L 55.21875 0 
L 46.09375 0 
L 37.84375 31.0625 
L 35.84375 39.890625 
L 25.34375 0 
z
" id="ArialMT-119"/>
    </defs>
    <g style="fill:#262626;" transform="translate(552.155638 90.382743)scale(0.1 -0.1)">
     <use xlink:href="#ArialMT-70"/>
     <use x="61.083984" xlink:href="#ArialMT-114"/>
     <use x="94.384766" xlink:href="#ArialMT-111"/>
     <use x="150" xlink:href="#ArialMT-100"/>
     <use x="205.615234" xlink:href="#ArialMT-111"/>
     <use x="261.230469" xlink:href="#ArialMT-32"/>
     <use x="289.013672" xlink:href="#ArialMT-109"/>
     <use x="372.314453" xlink:href="#ArialMT-101"/>
     <use x="427.929688" xlink:href="#ArialMT-101"/>
     <use x="483.544922" xlink:href="#ArialMT-116"/>
     <use x="511.328125" xlink:href="#ArialMT-115"/>
     <use x="561.328125" xlink:href="#ArialMT-32"/>
     <use x="589.111328" xlink:href="#ArialMT-117"/>
     <use x="644.726562" xlink:href="#ArialMT-112"/>
     <use x="700.341797" xlink:href="#ArialMT-32"/>
     <use x="728.125" xlink:href="#ArialMT-119"/>
     <use x="800.341797" xlink:href="#ArialMT-105"/>
     <use x="822.558594" xlink:href="#ArialMT-116"/>
     <use x="850.341797" xlink:href="#ArialMT-104"/>
     <use x="905.957031" xlink:href="#ArialMT-32"/>
     <use x="933.740234" xlink:href="#ArialMT-66"/>
     <use x="1000.439453" xlink:href="#ArialMT-105"/>
     <use x="1022.65625" xlink:href="#ArialMT-108"/>
     <use x="1044.873047" xlink:href="#ArialMT-98"/>
     <use x="1100.488281" xlink:href="#ArialMT-111"/>
     <use x="1156.103516" xlink:href="#ArialMT-32"/>
     <use x="1183.886719" xlink:href="#ArialMT-105"/>
     <use x="1206.103516" xlink:href="#ArialMT-110"/>
     <use x="1261.71875" xlink:href="#ArialMT-32"/>
     <use x="1289.501953" xlink:href="#ArialMT-82"/>
     <use x="1361.71875" xlink:href="#ArialMT-105"/>
     <use x="1383.935547" xlink:href="#ArialMT-118"/>
     <use x="1433.935547" xlink:href="#ArialMT-101"/>
     <use x="1489.550781" xlink:href="#ArialMT-110"/>
     <use x="1545.166016" xlink:href="#ArialMT-100"/>
     <use x="1600.78125" xlink:href="#ArialMT-101"/>
     <use x="1656.396484" xlink:href="#ArialMT-108"/>
     <use x="1678.613281" xlink:href="#ArialMT-108"/>
    </g>
   </g>
   <g id="text_7">
    <!-- "Fly, you fools" -->
    <defs>
     <path d="M 7.03125 46.234375 
L 4.59375 59.859375 
L 4.59375 71.578125 
L 14.59375 71.578125 
L 14.59375 59.859375 
L 12.40625 46.234375 
z
M 23.1875 46.234375 
L 20.796875 59.859375 
L 20.796875 71.578125 
L 30.8125 71.578125 
L 30.8125 59.859375 
L 28.46875 46.234375 
z
" id="ArialMT-34"/>
     <path d="M 6.203125 -19.96875 
L 5.21875 -11.71875 
Q 8.109375 -12.5 10.25 -12.5 
Q 13.1875 -12.5 14.9375 -11.515625 
Q 16.703125 -10.546875 17.828125 -8.796875 
Q 18.65625 -7.46875 20.515625 -2.25 
Q 20.75 -1.515625 21.296875 -0.09375 
L 1.609375 51.859375 
L 11.078125 51.859375 
L 21.875 21.828125 
Q 23.96875 16.109375 25.640625 9.8125 
Q 27.15625 15.875 29.25 21.625 
L 40.328125 51.859375 
L 49.125 51.859375 
L 29.390625 -0.875 
Q 26.21875 -9.421875 24.46875 -12.640625 
Q 22.125 -17 19.09375 -19.015625 
Q 16.0625 -21.046875 11.859375 -21.046875 
Q 9.328125 -21.046875 6.203125 -19.96875 
z
" id="ArialMT-121"/>
     <path d="M 8.890625 0 
L 8.890625 10.015625 
L 18.890625 10.015625 
L 18.890625 0 
Q 18.890625 -5.515625 16.9375 -8.90625 
Q 14.984375 -12.3125 10.75 -14.15625 
L 8.296875 -10.40625 
Q 11.078125 -9.1875 12.390625 -6.8125 
Q 13.71875 -4.4375 13.875 0 
z
" id="ArialMT-44"/>
     <path d="M 8.6875 0 
L 8.6875 45.015625 
L 0.921875 45.015625 
L 0.921875 51.859375 
L 8.6875 51.859375 
L 8.6875 57.375 
Q 8.6875 62.59375 9.625 65.140625 
Q 10.890625 68.5625 14.078125 70.671875 
Q 17.28125 72.796875 23.046875 72.796875 
Q 26.765625 72.796875 31.25 71.921875 
L 29.9375 64.265625 
Q 27.203125 64.75 24.75 64.75 
Q 20.75 64.75 19.09375 63.03125 
Q 17.4375 61.328125 17.4375 56.640625 
L 17.4375 51.859375 
L 27.546875 51.859375 
L 27.546875 45.015625 
L 17.4375 45.015625 
L 17.4375 0 
z
" id="ArialMT-102"/>
    </defs>
    <g style="fill:#262626;" transform="translate(791.452136 343.89661)scale(0.1 -0.1)">
     <use xlink:href="#ArialMT-34"/>
     <use x="35.498047" xlink:href="#ArialMT-70"/>
     <use x="96.582031" xlink:href="#ArialMT-108"/>
     <use x="118.798828" xlink:href="#ArialMT-121"/>
     <use x="168.689453" xlink:href="#ArialMT-44"/>
     <use x="196.472656" xlink:href="#ArialMT-32"/>
     <use x="224.255859" xlink:href="#ArialMT-121"/>
     <use x="274.255859" xlink:href="#ArialMT-111"/>
     <use x="329.871094" xlink:href="#ArialMT-117"/>
     <use x="385.486328" xlink:href="#ArialMT-32"/>
     <use x="413.269531" xlink:href="#ArialMT-102"/>
     <use x="441.052734" xlink:href="#ArialMT-111"/>
     <use x="496.667969" xlink:href="#ArialMT-111"/>
     <use x="552.283203" xlink:href="#ArialMT-108"/>
     <use x="574.5" xlink:href="#ArialMT-115"/>
     <use x="624.5" xlink:href="#ArialMT-34"/>
    </g>
   </g>
   <g id="text_8">
    <!-- Lord of the Rings - The Fellowship of the Ring -->
    <defs>
     <path d="M 7.328125 0 
L 7.328125 71.578125 
L 16.796875 71.578125 
L 16.796875 8.453125 
L 52.046875 8.453125 
L 52.046875 0 
z
" id="ArialMT-76"/>
     <path d="M 3.171875 21.484375 
L 3.171875 30.328125 
L 30.171875 30.328125 
L 30.171875 21.484375 
z
" id="ArialMT-45"/>
     <path d="M 25.921875 0 
L 25.921875 63.140625 
L 2.34375 63.140625 
L 2.34375 71.578125 
L 59.078125 71.578125 
L 59.078125 63.140625 
L 35.40625 63.140625 
L 35.40625 0 
z
" id="ArialMT-84"/>
    </defs>
    <g style="fill:#262626;" transform="translate(431.446875 45.84)scale(0.12 -0.12)">
     <use xlink:href="#ArialMT-76"/>
     <use x="55.615234" xlink:href="#ArialMT-111"/>
     <use x="111.230469" xlink:href="#ArialMT-114"/>
     <use x="144.53125" xlink:href="#ArialMT-100"/>
     <use x="200.146484" xlink:href="#ArialMT-32"/>
     <use x="227.929688" xlink:href="#ArialMT-111"/>
     <use x="283.544922" xlink:href="#ArialMT-102"/>
     <use x="311.328125" xlink:href="#ArialMT-32"/>
     <use x="339.111328" xlink:href="#ArialMT-116"/>
     <use x="366.894531" xlink:href="#ArialMT-104"/>
     <use x="422.509766" xlink:href="#ArialMT-101"/>
     <use x="478.125" xlink:href="#ArialMT-32"/>
     <use x="505.908203" xlink:href="#ArialMT-82"/>
     <use x="578.125" xlink:href="#ArialMT-105"/>
     <use x="600.341797" xlink:href="#ArialMT-110"/>
     <use x="655.957031" xlink:href="#ArialMT-103"/>
     <use x="711.572266" xlink:href="#ArialMT-115"/>
     <use x="761.572266" xlink:href="#ArialMT-32"/>
     <use x="789.355469" xlink:href="#ArialMT-45"/>
     <use x="822.65625" xlink:href="#ArialMT-32"/>
     <use x="850.423828" xlink:href="#ArialMT-84"/>
     <use x="911.507812" xlink:href="#ArialMT-104"/>
     <use x="967.123047" xlink:href="#ArialMT-101"/>
     <use x="1022.738281" xlink:href="#ArialMT-32"/>
     <use x="1050.521484" xlink:href="#ArialMT-70"/>
     <use x="1111.605469" xlink:href="#ArialMT-101"/>
     <use x="1167.220703" xlink:href="#ArialMT-108"/>
     <use x="1189.4375" xlink:href="#ArialMT-108"/>
     <use x="1211.654297" xlink:href="#ArialMT-111"/>
     <use x="1267.269531" xlink:href="#ArialMT-119"/>
     <use x="1339.486328" xlink:href="#ArialMT-115"/>
     <use x="1389.486328" xlink:href="#ArialMT-104"/>
     <use x="1445.101562" xlink:href="#ArialMT-105"/>
     <use x="1467.318359" xlink:href="#ArialMT-112"/>
     <use x="1522.933594" xlink:href="#ArialMT-32"/>
     <use x="1550.716797" xlink:href="#ArialMT-111"/>
     <use x="1606.332031" xlink:href="#ArialMT-102"/>
     <use x="1634.115234" xlink:href="#ArialMT-32"/>
     <use x="1661.898438" xlink:href="#ArialMT-116"/>
     <use x="1689.681641" xlink:href="#ArialMT-104"/>
     <use x="1745.296875" xlink:href="#ArialMT-101"/>
     <use x="1800.912109" xlink:href="#ArialMT-32"/>
     <use x="1828.695312" xlink:href="#ArialMT-82"/>
     <use x="1900.912109" xlink:href="#ArialMT-105"/>
     <use x="1923.128906" xlink:href="#ArialMT-110"/>
     <use x="1978.744141" xlink:href="#ArialMT-103"/>
    </g>
   </g>
  </g>
 </g>
 <defs>
  <clipPath id="pe8695f64f5">
   <rect height="326.16" width="837" x="135" y="51.84"/>
  </clipPath>
 </defs>
</svg>
