<svg xmlns="http://www.w3.org/2000/svg" xmlns:xlink="http://www.w3.org/1999/xlink" version="1.1" class="marks" width="338" height="242" viewBox="0 0 338 242"><rect width="338" height="242" fill="white"/><g fill="none" stroke-miterlimit="10" transform="translate(32,5)"><g class="mark-group role-frame root" role="graphics-object" aria-roledescription="group mark container"><g transform="translate(0,0)"><path class="background" aria-hidden="true" d="M0.5,0.5h300v200h-300Z" stroke="#ddd"/><g><g class="mark-group role-axis" role="graphics-symbol" aria-roledescription="axis" aria-label="X-axis for a linear scale with values from −5 to 30"><g transform="translate(0.5,200.5)"><path class="background" aria-hidden="true" d="M0,0h0v0h0Z" pointer-events="none"/><g><g class="mark-rule role-axis-grid" pointer-events="none"><line transform="translate(0,-200)" x2="0" y2="200" stroke="#ddd" stroke-width="1" opacity="1"/><line transform="translate(43,-200)" x2="0" y2="200" stroke="#ddd" stroke-width="1" opacity="1"/><line transform="translate(86,-200)" x2="0" y2="200" stroke="#ddd" stroke-width="1" opacity="1"/><line transform="translate(129,-200)" x2="0" y2="200" stroke="#ddd" stroke-width="1" opacity="1"/><line transform="translate(171,-200)" x2="0" y2="200" stroke="#ddd" stroke-width="1" opacity="1"/><line transform="translate(214,-200)" x2="0" y2="200" stroke="#ddd" stroke-width="1" opacity="1"/><line transform="translate(257,-200)" x2="0" y2="200" stroke="#ddd" stroke-width="1" opacity="1"/><line transform="translate(300,-200)" x2="0" y2="200" stroke="#ddd" stroke-width="1" opacity="1"/></g></g><path class="foreground" aria-hidden="true" d="" pointer-events="none" display="none"/></g></g><g class="mark-group role-axis" role="graphics-symbol" aria-roledescription="axis" aria-label="Y-axis for a linear scale with values from 0.00 to 0.11"><g transform="translate(0.5,0.5)"><path class="background" aria-hidden="true" d="M0,0h0v0h0Z" pointer-events="none"/><g><g class="mark-rule role-axis-grid" pointer-events="none"><line transform="translate(0,200)" x2="300" y2="0" stroke="#ddd" stroke-width="1" opacity="1"/><line transform="translate(0,164)" x2="300" y2="0" stroke="#ddd" stroke-width="1" opacity="1"/><line transform="translate(0,127)" x2="300" y2="0" stroke="#ddd" stroke-width="1" opacity="1"/><line transform="translate(0,91)" x2="300" y2="0" stroke="#ddd" stroke-width="1" opacity="1"/><line transform="translate(0,55)" x2="300" y2="0" stroke="#ddd" stroke-width="1" opacity="1"/><line transform="translate(0,18)" x2="300" y2="0" stroke="#ddd" stroke-width="1" opacity="1"/></g></g><path class="foreground" aria-hidden="true" d="" pointer-events="none" display="none"/></g></g><g class="mark-group role-axis" role="graphics-symbol" aria-roledescription="axis" aria-label="X-axis titled '% reduction of sales' for a linear scale with values from −5 to 30"><g transform="translate(0.5,200.5)"><path class="background" aria-hidden="true" d="M0,0h0v0h0Z" pointer-events="none"/><g><g class="mark-rule role-axis-tick" pointer-events="none"><line transform="translate(0,0)" x2="0" y2="5" stroke="#888" stroke-width="1" opacity="1"/><line transform="translate(43,0)" x2="0" y2="5" stroke="#888" stroke-width="1" opacity="1"/><line transform="translate(86,0)" x2="0" y2="5" stroke="#888" stroke-width="1" opacity="1"/><line transform="translate(129,0)" x2="0" y2="5" stroke="#888" stroke-width="1" opacity="1"/><line transform="translate(171,0)" x2="0" y2="5" stroke="#888" stroke-width="1" opacity="1"/><line transform="translate(214,0)" x2="0" y2="5" stroke="#888" stroke-width="1" opacity="1"/><line transform="translate(257,0)" x2="0" y2="5" stroke="#888" stroke-width="1" opacity="1"/><line transform="translate(300,0)" x2="0" y2="5" stroke="#888" stroke-width="1" opacity="1"/></g><g class="mark-text role-axis-label" pointer-events="none"><text text-anchor="start" transform="translate(0,15)" font-family="sans-serif" font-size="10px" fill="#000" opacity="1">−5</text><text text-anchor="middle" transform="translate(42.857142857142854,15)" font-family="sans-serif" font-size="10px" fill="#000" opacity="1">0</text><text text-anchor="middle" transform="translate(85.71428571428571,15)" font-family="sans-serif" font-size="10px" fill="#000" opacity="1">5</text><text text-anchor="middle" transform="translate(128.57142857142856,15)" font-family="sans-serif" font-size="10px" fill="#000" opacity="1">10</text><text text-anchor="middle" transform="translate(171.42857142857142,15)" font-family="sans-serif" font-size="10px" fill="#000" opacity="1">15</text><text text-anchor="middle" transform="translate(214.28571428571428,15)" font-family="sans-serif" font-size="10px" fill="#000" opacity="1">20</text><text text-anchor="middle" transform="translate(257.1428571428571,15)" font-family="sans-serif" font-size="10px" fill="#000" opacity="1">25</text><text text-anchor="end" transform="translate(300,15)" font-family="sans-serif" font-size="10px" fill="#000" opacity="1">30</text></g><g class="mark-rule role-axis-domain" pointer-events="none"><line transform="translate(0,0)" x2="300" y2="0" stroke="#888" stroke-width="1" opacity="1"/></g><g class="mark-text role-axis-title" pointer-events="none"><text text-anchor="middle" transform="translate(150,30)" font-family="sans-serif" font-size="11px" font-weight="bold" fill="#000" opacity="1">% reduction of sales</text></g></g><path class="foreground" aria-hidden="true" d="" pointer-events="none" display="none"/></g></g><g class="mark-group role-axis" role="graphics-symbol" aria-roledescription="axis" aria-label="Y-axis for a linear scale with values from 0.00 to 0.11"><g transform="translate(0.5,0.5)"><path class="background" aria-hidden="true" d="M0,0h0v0h0Z" pointer-events="none"/><g><g class="mark-rule role-axis-tick" pointer-events="none"><line transform="translate(0,200)" x2="-5" y2="0" stroke="#888" stroke-width="1" opacity="1"/><line transform="translate(0,164)" x2="-5" y2="0" stroke="#888" stroke-width="1" opacity="1"/><line transform="translate(0,127)" x2="-5" y2="0" stroke="#888" stroke-width="1" opacity="1"/><line transform="translate(0,91)" x2="-5" y2="0" stroke="#888" stroke-width="1" opacity="1"/><line transform="translate(0,55)" x2="-5" y2="0" stroke="#888" stroke-width="1" opacity="1"/><line transform="translate(0,18)" x2="-5" y2="0" stroke="#888" stroke-width="1" opacity="1"/></g><g class="mark-text role-axis-label" pointer-events="none"><text text-anchor="end" transform="translate(-7,203)" font-family="sans-serif" font-size="10px" fill="#000" opacity="1">0.00</text><text text-anchor="end" transform="translate(-7,166.63636363636363)" font-family="sans-serif" font-size="10px" fill="#000" opacity="1">0.02</text><text text-anchor="end" transform="translate(-7,130.27272727272725)" font-family="sans-serif" font-size="10px" fill="#000" opacity="1">0.04</text><text text-anchor="end" transform="translate(-7,93.90909090909092)" font-family="sans-serif" font-size="10px" fill="#000" opacity="1">0.06</text><text text-anchor="end" transform="translate(-7,57.54545454545454)" font-family="sans-serif" font-size="10px" fill="#000" opacity="1">0.08</text><text text-anchor="end" transform="translate(-7,21.181818181818166)" font-family="sans-serif" font-size="10px" fill="#000" opacity="1">0.10</text></g><g class="mark-rule role-axis-domain" pointer-events="none"><line transform="translate(0,200)" x2="0" y2="-200" stroke="#888" stroke-width="1" opacity="1"/></g></g><path class="foreground" aria-hidden="true" d="" pointer-events="none" display="none"/></g></g><g class="mark-area role-mark marks" role="graphics-symbol" aria-roledescription="area mark container"><path d="M0,199.534573774832L6.000000000000001,199.71837013953527L9.000000000000004,199.76598618491707L10.500000000000005,199.76251540107452L12.000000000000002,199.7411796112886L15.000000000000004,199.6493760753838L16.500000000000007,199.57745399391376L18.000000000000007,199.48301625343925L21.000000000000004,199.19906797207713L24,198.74864909609101L25.500000000000007,198.4584049026671L27.000000000000004,198.13257296379828L30,197.41687881396317L36,195.97756138700362L39.00000000000001,195.27291593607598L40.5,194.90388440575697L42.00000000000001,194.51261671855764L43.50000000000001,194.09104932513375L45,193.63151475664856L46.50000000000001,193.12657106461702L48,192.56887475724102L51.00000000000001,191.26782362927486L52.5,190.51351588987364L54.00000000000001,189.6854600041435L57,187.80009165885352L58.5,186.73505080245732L60,185.57622102765714L63,182.904321902255L64.5,181.34274316132198L66,179.59649931634104L69,175.47275341287536L70.50000000000001,173.07646822744238L72,170.45777953274825L75,164.58042660426574L78.00000000000001,157.89976346464636L84.00000000000001,142.69851774761295L96,112.41954616663847L99,103.2110591211167L102.00000000000001,92.51233520108231L108,69.5181225838471L114,48.209286428180405L117,38.77020802447895L120,30.491358287882896L121.50000000000001,26.825115977256896L122.99999999999999,23.47281545775275L126,17.735901541995315L127.5,15.404684058160822L129,13.489099588854803L130.50000000000003,12.031521922170363L132,11.05659921301594L135,10.514434011166518L136.5,10.861431116621322L138,11.539539614267458L139.50000000000003,12.49144888803604L141.00000000000003,13.677082655773432L144,16.693848500864974L145.5,18.52989452399536L146.99999999999997,20.58458269609296L150,25.25765012882575L153,30.425733436374337L156,35.99412698913385L157.5,39.06407782110384L159,42.47266329164832L160.5,46.349819436617224L161.99999999999997,50.81212367698853L165,61.76502493948786L168.00000000000003,75.31148232803595L174.00000000000003,105.71636691702638L177,119.41150748531419L180,130.67889582384328L181.5,135.37900107429368L183,139.54908784466002L184.50000000000003,143.3004263347697L186.00000000000003,146.75699180930513L192,159.62703802450883L195,165.97244721618725L198,171.91865413905L199.5,174.63244111440852L201,177.15805050081335L204.00000000000003,181.74132073317676L206.99999999999997,185.92317164309438L208.49999999999997,187.89847414272947L210,189.76888777630057L211.50000000000003,191.48989635887992L213.00000000000003,193.01227669960474L216,195.32212748315487L217.5,196.09599697944313L218.99999999999997,196.64720331726883L220.5,197.02158794890767L222,197.2717855961285L228,197.88646097410881L240,199.39340639097784L241.50000000000003,199.52418282783535L243.00000000000003,199.63428658980317L245.99999999999997,199.7992229860879L249,199.9026611213453L252,199.95961997090046L264,199.99982591192006L276,199.99999997439068L288,199.9999999999999L300,200L300,200L288,200L276,200L264,200L252,200L249,200L245.99999999999997,200L243.00000000000003,200L241.50000000000003,200L240,200L228,200L222,200L220.5,200L218.99999999999997,200L217.5,200L216,200L213.00000000000003,200L211.50000000000003,200L210,200L208.49999999999997,200L206.99999999999997,200L204.00000000000003,200L201,200L199.5,200L198,200L195,200L192,200L186.00000000000003,200L184.50000000000003,200L183,200L181.5,200L180,200L177,200L174.00000000000003,200L168.00000000000003,200L165,200L161.99999999999997,200L160.5,200L159,200L157.5,200L156,200L153,200L150,200L146.99999999999997,200L145.5,200L144,200L141.00000000000003,200L139.50000000000003,200L138,200L136.5,200L135,200L132,200L130.50000000000003,200L129,200L127.5,200L126,200L122.99999999999999,200L121.50000000000001,200L120,200L117,200L114,200L108,200L102.00000000000001,200L99,200L96,200L84.00000000000001,200L78.00000000000001,200L75,200L72,200L70.50000000000001,200L69,200L66,200L64.5,200L63,200L60,200L58.5,200L57,200L54.00000000000001,200L52.5,200L51.00000000000001,200L48,200L46.50000000000001,200L45,200L43.50000000000001,200L42.00000000000001,200L40.5,200L39.00000000000001,200L36,200L30,200L27.000000000000004,200L25.500000000000007,200L24,200L21.000000000000004,200L18.000000000000007,200L16.500000000000007,200L15.000000000000004,200L12.000000000000002,200L10.500000000000005,200L9.000000000000004,200L6.000000000000001,200L0,200Z" fill="orange" opacity="0.5"/></g></g><path class="foreground" aria-hidden="true" d="" display="none"/></g></g></g></svg>