<svg xmlns="http://www.w3.org/2000/svg" xmlns:xlink="http://www.w3.org/1999/xlink" version="1.1" class="marks" width="479" height="347" viewBox="0 0 479 347"><rect width="479" height="347" fill="white"/><g fill="none" stroke-miterlimit="10" transform="translate(72,10)"><g class="mark-group role-frame root" role="graphics-object" aria-roledescription="group mark container"><g transform="translate(0,0)"><path class="background" aria-hidden="true" d="M0.5,0.5h400v300h-400Z" stroke="#ddd"/><g><g class="mark-group role-axis" role="graphics-symbol" aria-roledescription="axis" aria-label="X-axis for a linear scale with values from 1 to 177"><g transform="translate(0.5,300.5)"><path class="background" aria-hidden="true" d="M0,0h0v0h0Z" pointer-events="none"/><g><g class="mark-rule role-axis-grid" pointer-events="none"><line transform="translate(43,-300)" x2="0" y2="300" stroke="#ddd" stroke-width="1" opacity="1"/><line transform="translate(89,-300)" x2="0" y2="300" stroke="#ddd" stroke-width="1" opacity="1"/><line transform="translate(134,-300)" x2="0" y2="300" stroke="#ddd" stroke-width="1" opacity="1"/><line transform="translate(180,-300)" x2="0" y2="300" stroke="#ddd" stroke-width="1" opacity="1"/><line transform="translate(225,-300)" x2="0" y2="300" stroke="#ddd" stroke-width="1" opacity="1"/><line transform="translate(270,-300)" x2="0" y2="300" stroke="#ddd" stroke-width="1" opacity="1"/><line transform="translate(316,-300)" x2="0" y2="300" stroke="#ddd" stroke-width="1" opacity="1"/><line transform="translate(361,-300)" x2="0" y2="300" stroke="#ddd" stroke-width="1" opacity="1"/></g></g><path class="foreground" aria-hidden="true" d="" pointer-events="none" display="none"/></g></g><g class="mark-group role-axis" role="graphics-symbol" aria-roledescription="axis" aria-label="Y-axis for a linear scale with values from 0 to 4,000,000"><g transform="translate(0.5,0.5)"><path class="background" aria-hidden="true" d="M0,0h0v0h0Z" pointer-events="none"/><g><g class="mark-rule role-axis-grid" pointer-events="none"><line transform="translate(0,300)" x2="400" y2="0" stroke="#ddd" stroke-width="1" opacity="1"/><line transform="translate(0,263)" x2="400" y2="0" stroke="#ddd" stroke-width="1" opacity="1"/><line transform="translate(0,225)" x2="400" y2="0" stroke="#ddd" stroke-width="1" opacity="1"/><line transform="translate(0,188)" x2="400" y2="0" stroke="#ddd" stroke-width="1" opacity="1"/><line transform="translate(0,150)" x2="400" y2="0" stroke="#ddd" stroke-width="1" opacity="1"/><line transform="translate(0,113)" x2="400" y2="0" stroke="#ddd" stroke-width="1" opacity="1"/><line transform="translate(0,75)" x2="400" y2="0" stroke="#ddd" stroke-width="1" opacity="1"/><line transform="translate(0,38)" x2="400" y2="0" stroke="#ddd" stroke-width="1" opacity="1"/><line transform="translate(0,0)" x2="400" y2="0" stroke="#ddd" stroke-width="1" opacity="1"/></g></g><path class="foreground" aria-hidden="true" d="" pointer-events="none" display="none"/></g></g><g class="mark-group role-axis" role="graphics-symbol" aria-roledescription="axis" aria-label="X-axis titled 'Week' for a linear scale with values from 1 to 177"><g transform="translate(0.5,300.5)"><path class="background" aria-hidden="true" d="M0,0h0v0h0Z" pointer-events="none"/><g><g class="mark-rule role-axis-tick" pointer-events="none"><line transform="translate(43,0)" x2="0" y2="5" stroke="#888" stroke-width="1" opacity="1"/><line transform="translate(89,0)" x2="0" y2="5" stroke="#888" stroke-width="1" opacity="1"/><line transform="translate(134,0)" x2="0" y2="5" stroke="#888" stroke-width="1" opacity="1"/><line transform="translate(180,0)" x2="0" y2="5" stroke="#888" stroke-width="1" opacity="1"/><line transform="translate(225,0)" x2="0" y2="5" stroke="#888" stroke-width="1" opacity="1"/><line transform="translate(270,0)" x2="0" y2="5" stroke="#888" stroke-width="1" opacity="1"/><line transform="translate(316,0)" x2="0" y2="5" stroke="#888" stroke-width="1" opacity="1"/><line transform="translate(361,0)" x2="0" y2="5" stroke="#888" stroke-width="1" opacity="1"/></g><g class="mark-text role-axis-label" pointer-events="none"><text text-anchor="middle" transform="translate(43.18181818181818,15)" font-family="sans-serif" font-size="10px" fill="#000" opacity="1">20</text><text text-anchor="middle" transform="translate(88.63636363636364,15)" font-family="sans-serif" font-size="10px" fill="#000" opacity="1">40</text><text text-anchor="middle" transform="translate(134.0909090909091,15)" font-family="sans-serif" font-size="10px" fill="#000" opacity="1">60</text><text text-anchor="middle" transform="translate(179.54545454545453,15)" font-family="sans-serif" font-size="10px" fill="#000" opacity="1">80</text><text text-anchor="middle" transform="translate(225,15)" font-family="sans-serif" font-size="10px" fill="#000" opacity="1">100</text><text text-anchor="middle" transform="translate(270.45454545454544,15)" font-family="sans-serif" font-size="10px" fill="#000" opacity="1">120</text><text text-anchor="middle" transform="translate(315.90909090909093,15)" font-family="sans-serif" font-size="10px" fill="#000" opacity="1">140</text><text text-anchor="middle" transform="translate(361.3636363636364,15)" font-family="sans-serif" font-size="10px" fill="#000" opacity="1">160</text></g><g class="mark-rule role-axis-domain" pointer-events="none"><line transform="translate(0,0)" x2="400" y2="0" stroke="#888" stroke-width="1" opacity="1"/></g><g class="mark-text role-axis-title" pointer-events="none"><text text-anchor="middle" transform="translate(200,30)" font-family="sans-serif" font-size="11px" font-weight="bold" fill="#000" opacity="1">Week</text></g></g><path class="foreground" aria-hidden="true" d="" pointer-events="none" display="none"/></g></g><g class="mark-group role-axis" role="graphics-symbol" aria-roledescription="axis" aria-label="Y-axis titled 'Decks Registered' for a linear scale with values from 0 to 4,000,000"><g transform="translate(0.5,0.5)"><path class="background" aria-hidden="true" d="M0,0h0v0h0Z" pointer-events="none"/><g><g class="mark-rule role-axis-tick" pointer-events="none"><line transform="translate(0,300)" x2="-5" y2="0" stroke="#888" stroke-width="1" opacity="1"/><line transform="translate(0,263)" x2="-5" y2="0" stroke="#888" stroke-width="1" opacity="1"/><line transform="translate(0,225)" x2="-5" y2="0" stroke="#888" stroke-width="1" opacity="1"/><line transform="translate(0,188)" x2="-5" y2="0" stroke="#888" stroke-width="1" opacity="1"/><line transform="translate(0,150)" x2="-5" y2="0" stroke="#888" stroke-width="1" opacity="1"/><line transform="translate(0,113)" x2="-5" y2="0" stroke="#888" stroke-width="1" opacity="1"/><line transform="translate(0,75)" x2="-5" y2="0" stroke="#888" stroke-width="1" opacity="1"/><line transform="translate(0,38)" x2="-5" y2="0" stroke="#888" stroke-width="1" opacity="1"/><line transform="translate(0,0)" x2="-5" y2="0" stroke="#888" stroke-width="1" opacity="1"/></g><g class="mark-text role-axis-label" pointer-events="none"><text text-anchor="end" transform="translate(-7,303)" font-family="sans-serif" font-size="10px" fill="#000" opacity="1">0</text><text text-anchor="end" transform="translate(-7,265.5)" font-family="sans-serif" font-size="10px" fill="#000" opacity="1">500,000</text><text text-anchor="end" transform="translate(-7,228)" font-family="sans-serif" font-size="10px" fill="#000" opacity="1">1,000,000</text><text text-anchor="end" transform="translate(-7,190.5)" font-family="sans-serif" font-size="10px" fill="#000" opacity="1">1,500,000</text><text text-anchor="end" transform="translate(-7,153)" font-family="sans-serif" font-size="10px" fill="#000" opacity="1">2,000,000</text><text text-anchor="end" transform="translate(-7,115.5)" font-family="sans-serif" font-size="10px" fill="#000" opacity="1">2,500,000</text><text text-anchor="end" transform="translate(-7,78)" font-family="sans-serif" font-size="10px" fill="#000" opacity="1">3,000,000</text><text text-anchor="end" transform="translate(-7,40.5)" font-family="sans-serif" font-size="10px" fill="#000" opacity="1">3,500,000</text><text text-anchor="end" transform="translate(-7,3)" font-family="sans-serif" font-size="10px" fill="#000" opacity="1">4,000,000</text></g><g class="mark-rule role-axis-domain" pointer-events="none"><line transform="translate(0,300)" x2="0" y2="-300" stroke="#888" stroke-width="1" opacity="1"/></g><g class="mark-text role-axis-title" pointer-events="none"><text text-anchor="middle" transform="translate(-55.4873046875,150) rotate(-90) translate(0,-2)" font-family="sans-serif" font-size="11px" font-weight="bold" fill="#000" opacity="1">Decks Registered</text></g></g><path class="foreground" aria-hidden="true" d="" pointer-events="none" display="none"/></g></g><g class="mark-area role-mark layer_0_marks" role="graphics-symbol" aria-roledescription="area mark container"><path d="M0,291.92891670877674L2.272727272727273,286.3275280340065L4.545454545454546,281.67430318809244L6.8181818181818175,277.9382613018624L9.090909090909092,274.35401295272635L11.363636363636363,271.3221575567502L13.636363636363635,268.4929244264333L15.909090909090908,266.2721450416391L18.181818181818183,264.15323416831825L20.454545454545457,261.77537209841677L22.727272727272727,259.6806691949492L25,258.1122712498766L27.27272727272727,256.30066152250237L29.545454545454547,254.96152280774857L31.818181818181817,253.8220767731574L34.090909090909086,251.61197360027109L36.36363636363637,250.85805448967997L38.63636363636363,248.75497310702445L40.909090909090914,248.28544653525705L43.18181818181818,246.88778167475104L45.45454545454545,244.95345031591677L47.72727272727273,243.7746441023328L50,242.8557980545204L52.27272727272727,242.03785491600001L54.54545454545454,240.12835922341327L56.81818181818182,238.6794701096243L59.09090909090909,237.7247047318989L61.36363636363637,236.1258915671678L63.63636363636363,233.083294613376L65.9090909090909,230.00167104914038L68.18181818181817,227.37243135979156L70.45454545454545,225.65408464500734L72.72727272727273,223.25123622331077L75,221.12989242078163L77.27272727272727,219.30424136668836L79.54545454545455,217.75259064216732L81.81818181818183,215.86076268772658L84.0909090909091,214.3890181338103L86.36363636363636,213.34803184905684L88.63636363636364,211.6081826052803L90.9090909090909,210.09153965207477L93.18181818181817,208.5573504631349L95.45454545454545,207.48976045523557L97.72727272727273,206.32724863226747L100,204.8865749240644L102.27272727272727,203.4678137439498L104.54545454545455,202.20832712141888L106.81818181818181,200.9070527198783L109.09090909090908,200.06929261388225L111.36363636363636,198.55993331216547L113.63636363636364,197.33103601763102L115.90909090909092,194.89270917376805L118.18181818181819,194.06762974943996L120.45454545454545,191.25511467928138L122.72727272727273,189.74266807739016L125,187.55509462654703L127.27272727272727,185.97011675958092L129.54545454545453,184.81596303218646L131.8181818181818,182.88241978293527L134.0909090909091,181.84584172346874L136.36363636363635,179.91588748957125L138.63636363636365,178.8943389025154L140.9090909090909,177.73207837457937L143.1818181818182,176.41799854725468L145.45454545454547,175.38410427949322L147.72727272727272,173.77538356800918L150,172.39401402818626L152.27272727272728,171.0450693724028L154.54545454545453,170.1024267945671L156.8181818181818,168.71144413464185L159.0909090909091,167.4393117679075L161.36363636363635,166.5700429167975L163.63636363636365,165.45340498174846L165.9090909090909,164.01352266760387L168.1818181818182,163.12268805157987L170.45454545454547,161.576469533506L172.72727272727272,160.76766273276417L175,159.2940062234936L177.27272727272728,159.17589142981507L179.54545454545453,157.3234611463866L181.8181818181818,156.0275840500872L184.0909090909091,154.95470982003417L186.36363636363635,153.66154901712144L188.63636363636365,152.7109750691832L190.9090909090909,151.41435887388735L193.1818181818182,150.07024280717928L195.45454545454547,147.90046016657678L197.72727272727272,145.45180989817524L200,143.28646525945493L202.27272727272728,141.38454035003826L204.54545454545453,139.65244000695785L206.81818181818184,137.7525274932835L209.0909090909091,135.78435698120222L211.36363636363637,134.37565757725653L213.63636363636363,133.4624735248983L215.9090909090909,131.67754170846086L218.18181818181816,129.92819172029473L220.45454545454547,129.39333937504512L222.72727272727272,127.87233369542811L225,127.18161799089458L227.27272727272728,126.66182388535425L229.54545454545453,124.89635626195971L231.81818181818184,123.34837355167795L234.0909090909091,121.99768375887885L236.36363636363637,121.4340751717055L238.63636363636363,120.07021712739886L240.9090909090909,118.10268710638819L243.18181818181816,117.95885685004737L245.45454545454547,116.51913894880785L247.72727272727272,115.95038481580848L250,114.25763387785935L252.27272727272728,112.92068207503021L254.54545454545453,113.2764163464278L256.8181818181818,110.27105062501747L259.09090909090907,109.78029308171892L261.3636363636364,108.99047454472027L263.6363636363636,108.08636141164601L265.90909090909093,106.68160869550891L268.1818181818182,105.52574740024579L270.45454545454544,104.20601991268802L272.7272727272727,103.06275301166494L275,102.65407597500553L277.2727272727273,101.84855801304727L279.54545454545456,99.70776872439626L281.8181818181818,100.20067920723957L284.09090909090907,99.75290889536728L286.3636363636364,96.98444453068021L288.6363636363636,95.32308640951625L290.90909090909093,92.4872200803431L293.1818181818182,90.8836029522502L295.45454545454544,89.02836235825151L297.7272727272727,86.91648844262954L300,86.71609266449559L302.2727272727273,84.15046913490421L304.54545454545456,82.69636427165649L306.8181818181818,81.99488758329501L309.09090909090907,80.68382869614014L311.3636363636364,80.03071747337125L313.6363636363636,77.51172967953889L315.90909090909093,76.96480747777711L318.1818181818182,75.44410789795708L320.45454545454544,74.5167925825766L322.7272727272727,73.09227293791609L325,73.00900615117757L327.2727272727273,71.02525089695935L329.54545454545456,70.36139110332914L331.8181818181818,68.9820805640075L334.09090909090907,67.1561852490996L336.3636363636364,66.60862777618041L338.6363636363636,65.65507559425386L340.90909090909093,65.29697343776223L343.1818181818182,63.21124105321233L345.45454545454544,62.26799509048703L347.7272727272727,60.96109788347401L350,59.76697728160809L352.2727272727273,59.55934029004107L354.54545454545456,58.37523302006867L356.8181818181818,56.67119045582301L359.09090909090907,55.6806661222834L361.3636363636364,54.98563234817156L363.6363636363636,53.260173882778304L365.90909090909093,53.60088058010379L368.1818181818182,50.84215642710691L370.45454545454544,49.866230703605865L372.7272727272727,49.507479298051834L375,47.801105487897125L377.2727272727273,48.04197161635682L379.54545454545456,47.26359050509627L381.8181818181818,45.22737933763833L384.09090909090907,44.04639449449236L386.3636363636364,42.9038367483091L388.6363636363636,41.63846933181018L390.90909090909093,42.108805684652275L393.1818181818182,39.45847989962934L395.45454545454544,38.955163388523914L397.7272727272727,37.65625952539923L400,36.839928438904955L400,9.702900576781193L397.7272727272727,10.58425294086831L395.45454545454544,11.846423617203616L393.1818181818182,12.717313277730636L390.90909090909093,15.021433773139492L388.6363636363636,15.278138411983676L386.3636363636364,18.158618373845115L384.09090909090907,18.505153915991112L381.8181818181818,20.53149522875871L379.54545454545456,21.590302376615334L377.2727272727273,23.340859073523447L375,24.053022802578027L372.7272727272727,25.85152285242758L370.45454545454544,26.596713493065536L368.1818181818182,27.402349053675422L365.90909090909093,29.373629753564312L363.6363636363636,30.209862816908085L361.3636363636364,31.902955144143874L359.09090909090907,33.01081892039872L356.8181818181818,35.05673436632413L354.54545454545456,35.51403845432057L352.2727272727273,37.03342849542768L350,38.28863262152466L347.7272727272727,39.43523533028631L345.45454545454544,39.97562226754319L343.1818181818182,42.81613414501555L340.90909090909093,43.871268744404L338.6363636363636,44.74840193999115L336.3636363636364,45.95589328197149L334.09090909090907,47.912121903211194L331.8181818181818,48.60670301394311L329.54545454545456,49.400942755262214L327.2727272727273,51.47181015097297L325,53.16879354760302L322.7272727272727,53.84523659142785L320.45454545454544,55.355023279238466L318.1818181818182,56.51537071407654L315.90909090909093,57.86893250418051L313.6363636363636,59.354364760678244L311.3636363636364,60.78298436556857L309.09090909090907,62.31695365649874L306.8181818181818,64.02435164036933L304.54545454545456,65.86290494155661L302.2727272727273,67.42408667851299L300,69.2040674305585L297.7272727272727,70.63864064117202L295.45454545454544,72.68827687381479L293.1818181818182,74.31085050777132L290.90909090909093,76.20298063700731L288.6363636363636,79.08892037178083L286.3636363636364,80.92482530649998L284.09090909090907,82.70930429571311L281.8181818181818,84.26135826434788L279.54545454545456,85.98895297279088L277.2727272727273,86.89893722659794L275,89.02632541832838L272.7272727272727,89.80986123259584L270.45454545454544,90.9710689493893L268.1818181818182,91.4213597795704L265.90909090909093,92.96140892288551L263.6363636363636,94.6127840974292L261.3636363636364,95.79297668185635L259.09090909090907,97.9697244127657L256.8181818181818,98.43008444619798L254.54545454545453,100.3642076624012L252.27272727272728,100.4435439253168L250,102.56059905282724L247.72727272727272,102.91926431198395L245.45454545454547,104.63399849683724L243.18181818181816,106.22137824124668L240.9090909090909,106.91959959665174L238.63636363636363,108.93274542925187L236.36363636363637,110.37572430705174L234.0909090909091,111.49131762499572L231.81818181818184,113.26310009309125L229.54545454545453,113.69878298174733L227.27272727272728,115.54398143010017L225,117.11075235389087L222.72727272727272,117.96395785286632L220.45454545454547,118.39912675077655L218.18181818181816,120.83109289515393L215.9090909090909,122.55617919652285L213.63636363636363,123.73612877037573L211.36363636363637,125.03278467983874L209.0909090909091,126.35387481159816L206.81818181818184,129.56046013475202L204.54545454545453,130.1241130314033L202.27272727272728,133.0516705351022L200,134.7540045792843L197.72727272727272,137.6873282880077L195.45454545454547,139.5325544357129L193.1818181818182,143.11182866261944L190.9090909090909,143.43606646905147L188.63636363636365,145.5063317876903L186.36363636363635,146.1690658051663L184.0909090909091,148.4633450827905L181.8181818181818,149.64687309937315L179.54545454545453,150.80700218933467L177.27272727272728,151.13697657314944L175,152.4683697849796L172.72727272727272,154.61925177732618L170.45454545454547,155.8940691933705L168.1818181818182,156.93542352729554L165.9090909090909,158.39456093699255L163.63636363636365,158.97289306697837L161.36363636363635,160.60785665907568L159.0909090909091,162.07553748899656L156.8181818181818,163.25876146973073L154.54545454545453,164.07279733727373L152.27272727272728,165.1817087515364L150,165.54365773715415L147.72727272727272,168.14760417498943L145.45454545454547,169.1675458703323L143.1818181818182,169.85621492499158L140.9090909090909,172.0396396879405L138.63636363636365,173.37397261226238L136.36363636363635,174.36984762423725L134.0909090909091,175.47282660634323L131.8181818181818,177.3182757730982L129.54545454545453,178.47582677382877L127.27272727272727,180.23636367111604L125,182.0994316558741L122.72727272727273,182.74650698429102L120.45454545454545,185.60531412671895L118.18181818181819,187.3873071905374L115.90909090909092,189.40194748835717L113.63636363636364,191.72459359006925L111.36363636363636,192.8320853824837L109.09090909090908,193.736069378279L106.81818181818181,195.23644174435177L104.54545454545455,195.33218270299494L102.27272727272727,198.06095019106044L100,199.06005568558345L97.72727272727273,200.10645749246518L95.45454545454545,201.3672258169968L93.18181818181817,202.38313588167443L90.9090909090909,204.35153541381828L88.63636363636364,205.8917818857861L86.36363636363636,207.01243738483555L84.0909090909091,208.994445532595L81.81818181818183,210.3089250088286L79.54545454545455,211.9042362982924L77.27272727272727,213.82597597487865L75,215.45253275012035L72.72727272727273,217.62230291169956L70.45454545454545,219.65958151870555L68.18181818181817,221.66921350310042L65.9090909090909,224.38115795644833L63.63636363636363,227.59967375702522L61.36363636363637,230.5392741596439L59.09090909090909,231.82513981719083L56.81818181818182,233.1623915461048L54.54545454545454,233.87855963054892L52.27272727272727,235.3466948299435L50,236.64099512210296L47.72727272727273,237.53848579003935L45.45454545454545,239.32916542685876L43.18181818181818,240.02439868628588L40.909090909090914,241.44002559446187L38.63636363636363,243.1582974622528L36.36363636363637,244.4552888117193L34.090909090909086,245.82059881237353L31.818181818181817,247.7214775078269L29.545454545454547,248.81174196163735L27.27272727272727,250.65530648258758L25,252.38347722952594L22.727272727272727,254.01568254281744L20.454545454545457,256.0004952054307L18.181818181818183,257.65556611237486L15.909090909090908,259.85721608590126L13.636363636363635,262.4428870060484L11.363636363636363,265.39618933037L9.090909090909092,268.60664398808717L6.8181818181818175,271.87629207267065L4.545454545454546,275.9472239819852L2.272727272727273,280.6816273924014L0,286.12716194126796Z" fill="#333333" opacity="0.2"/></g><g class="mark-line role-mark layer_1_marks" role="graphics-symbol" aria-roledescription="line mark container"><path d="M0,288.74217460744694L2.272727272727273,283.4758433310848L4.545454545454546,278.90709912872825L6.8181818181818175,274.93595215258665L9.090909090909092,271.4400588156968L11.363636363636363,268.3826899919555L13.636363636363635,265.58876837567146L15.909090909090908,263.1469127637247L18.181818181818183,260.892550052099L20.454545454545457,258.8270951087201L22.727272727272727,256.91342301217725L25,255.1170727406755L27.27272727272727,253.4255141630463L29.545454545454547,251.8270956121783L31.818181818181817,250.3090659354969L34.090909090909086,248.8399259226734L36.36363636363637,247.4178028112104L38.63636363636363,246.01869057563533L40.909090909090914,244.66808246579973L43.18181818181818,243.37591022400787L45.45454545454545,242.0718187611944L47.72727272727273,240.8187617293393L50,239.5416074549491L52.27272727272727,238.3029505643962L54.54545454545454,237.05979091941356L56.81818181818182,235.80229712476108L59.09090909090909,234.59801813485797L61.36363636363637,233.39406898750883L63.63636363636363,230.1519165041828L65.9090909090909,227.27889910420066L68.18181818181817,224.72400493030025L70.45454545454545,222.39420803216268L72.72727272727273,220.26448468889785L75,218.32456356663528L77.27272727272727,216.47066987206668L79.54545454545455,214.74114124048165L81.81818181818183,213.13092282187378L84.0909090909091,211.58982001939333L86.36363636363636,210.0942687614846L88.63636363636364,208.66678966892437L90.9090909090909,207.26654484758944L93.18181818181817,205.89562026531073L95.45454545454545,204.58110523580814L97.72727272727273,203.28855282569705L100,202.00403438363935L102.27272727272727,200.73419792407103L104.54545454545455,199.48571010676244L106.81818181818181,198.2435127917433L109.09090909090908,197.01199723359673L111.36363636363636,195.77511289932704L113.63636363636364,194.55829166820132L115.90909090909092,192.30059007539163L118.18181818181819,190.22503083105937L120.45454545454545,188.28607846917333L122.72727272727273,186.45997304250665L125,184.77407796469657L127.27272727272727,183.18399443012794L129.54545454545453,181.651762252437L131.8181818181818,180.15931692455334L134.0909090909091,178.74647846570446L136.36363636363635,177.3591729487388L138.63636363636365,176.01381691782575L140.9090909090909,174.68163468558583L143.1818181818182,173.3858706551225L145.45454545454547,172.10641872707916L147.72727272727272,170.83977866102728L150,169.602095105085L152.27272727272728,168.36774908412158L154.54545454545453,167.10930079513201L156.8181818181818,165.91013405082685L159.0909090909091,164.70226020608678L161.36363636363635,163.47002827721255L163.63636363636365,162.25997731651955L165.9090909090909,161.06854784831614L168.1818181818182,159.87699910542685L170.45454545454547,158.64054276855452L172.72727272727272,157.46950874616158L175,156.24846013733912L177.27272727272728,155.0780731902589L179.54545454545453,153.8859818725304L181.8181818181818,152.6865102618259L184.0909090909091,151.4819787182549L186.36363636363635,150.30685981918901L188.63636363636365,149.10643546332818L190.9090909090909,147.89873555275707L193.1818181818182,146.71834043710416L195.45454545454547,143.94602719582292L197.72727272727272,141.45341600787572L200,139.16763259761117L202.27272727272728,137.11387816670384L204.54545454545453,135.17022794460942L206.81818181818184,133.3796181114964L209.0909090909091,131.68413816701013L211.36363636363637,130.06898853980007L213.63636363636363,128.57772011952545L215.9090909090909,127.08553980521782L218.18181818181816,125.63659612906257L220.45454545454547,124.28147933316157L222.72727272727272,122.93278185357991L225,121.61922719096407L227.27272727272728,120.31909489721858L229.54545454545453,119.03959764163999L231.81818181818184,117.7865050500107L234.0909090909091,116.52041469433449L236.36363636363637,115.28201243463513L238.63636363636363,114.08069712953929L240.9090909090909,112.83017654568744L243.18181818181816,111.60957605631327L245.45454545454547,110.42455258780717L247.72727272727272,109.22369749918832L250,107.9936264893181L252.27272727272728,106.7908609250169L254.54545454545453,105.6100790441425L256.8181818181818,104.3625128177642L259.09090909090907,103.19604059672152L261.3636363636364,102.00229897173114L263.6363636363636,100.82629685966099L265.90909090909093,99.61315327856319L268.1818181818182,98.44169010551363L270.45454545454544,97.238847347639L272.7272727272727,96.0530993206553L275,94.85081347041248L277.2727272727273,93.67859645567701L279.54545454545456,92.49885674158833L281.8181818181818,91.28086011273237L284.09090909090907,90.10108363423164L286.3636363636364,88.9010856377493L288.6363636363636,86.44014823642998L290.90909090909093,84.1789450585371L293.1818181818182,82.11923640485666L295.45454545454544,80.20281008113008L297.7272727272727,78.42775271457097L300,76.72828212873743L302.2727272727273,75.1382334226243L304.54545454545456,73.60584481797989L306.8181818181818,72.14265650318174L309.09090909090907,70.73730709408764L311.3636363636364,69.35375014079179L313.6363636363636,68.03995887858237L315.90909090909093,66.72181535673931L318.1818181818182,65.40808995161437L320.45454545454544,64.14555054101947L322.7272727272727,62.866566810551475L325,61.60879753692123L327.2727272727273,60.363285653182075L329.54545454545456,59.17312547474166L331.8181818181818,57.92580245629067L334.09090909090907,56.73707747207282L336.3636363636364,55.49576708582315L338.6363636363636,54.300742206964536L340.90909090909093,53.098312459463436L343.1818181818182,51.87372669368043L345.45454545454544,50.702666221396676L347.7272727272727,49.50118672246091L350,48.29410265202545L352.2727272727273,47.09920493114189L354.54545454545456,45.884141517349974L356.8181818181818,44.735173897714034L359.09090909090907,43.520363615709314L361.3636363636364,42.36091520320022L363.6363636363636,41.14388532360085L365.90909090909093,39.956685569373576L368.1818181818182,38.7526657460021L370.45454545454544,37.5768520905297L372.7272727272727,36.37010554188056L375,35.19739853577758L377.2727272727273,33.995783028098344L379.54545454545456,32.81520440339426L381.8181818181818,31.63474304159243L384.09090909090907,30.44889396523197L386.3636363636364,29.237118073716495L388.6363636363636,28.050844340511215L390.90909090909093,26.87127673664188L393.1818181818182,25.688416477153453L395.45454545454544,24.484237548880994L397.7272727272727,23.281741867384966L400,22.110961473601066" stroke="#333333" stroke-width="2" opacity="0.7"/></g><g class="mark-line role-mark layer_2_marks" role="graphics-symbol" aria-roledescription="line mark container"><path d="M0,288.1488L2.272727272727273,283.595025L4.545454545454546,279.89805L6.8181818181818175,276.60787500000004L9.090909090909092,273.14265L11.363636363636363,269.21925000000005L13.636363636363635,266.31442499999997L15.909090909090908,263.64502500000003L18.181818181818183,261.384375L20.454545454545457,259.31385L22.727272727272727,257.44575L25,255.8796L27.27272727272727,254.03985L29.545454545454547,252.171975L31.818181818181817,250.39229999999998L34.090909090909086,248.79000000000002L36.36363636363637,247.11885L38.63636363636363,245.502825L40.909090909090914,243.99015L43.18181818181818,242.588475L45.45454545454545,241.4229L47.72727272727273,240.274425L50,239.35305000000002L52.27272727272727,238.48485L54.54545454545454,237.637875L56.81818181818182,236.84137500000003L59.09090909090909,236.10315000000003L61.36363636363637,231.905625L63.63636363636363,227.996925L65.9090909090909,225.47625L68.18181818181817,223.24949999999998L70.45454545454545,221.35425L72.72727272727273,219.740175L75,218.15662500000002L77.27272727272727,216.58687500000002L79.54545454545455,214.982775L81.81818181818183,213.00382499999998L84.0909090909091,211.17735000000002L86.36363636363636,209.67254999999997L88.63636363636364,208.25189999999998L90.9090909090909,206.85607499999998L93.18181818181817,205.692675L95.45454545454545,204.63555000000002L97.72727272727273,203.618625L100,202.66905L102.27272727272727,201.680625L104.54545454545455,200.745225L106.81818181818181,199.83885L109.09090909090908,198.86535L111.36363636363636,197.90429999999998L113.63636363636364,194.73225L115.90909090909092,191.145525L118.18181818181819,188.944125L120.45454545454545,187.34107499999996L122.72727272727273,185.33745000000002L125,183.67634999999999L127.27272727272727,182.198775L129.54545454545453,180.35085L131.8181818181818,178.93545L134.0909090909091,177.60299999999998L136.36363636363635,176.3418L138.63636363636365,175.13774999999998L140.9090909090909,173.90917499999998L143.1818181818182,172.823025L145.45454545454547,171.459525L147.72727272727272,170.51647499999999L150,169.62622499999998L152.27272727272728,168.71197500000002L154.54545454545453,167.99535L156.8181818181818,167.48767500000002L159.0909090909091,167.124225L161.36363636363635,166.8129L163.63636363636365,166.51590000000002L165.9090909090909,166.19879999999998L168.1818181818182,165.89775L170.45454545454547,165.6048L172.72727272727272,165.3177L175,164.921475L177.27272727272728,164.574075L179.54545454545453,163.88842499999998L181.8181818181818,163.0626L184.0909090909091,162.501975L186.36363636363635,161.97644999999997L188.63636363636365,161.5797L190.9090909090909,161.13239999999996L193.1818181818182,158.849325L195.45454545454547,156.098325L197.72727272727272,154.17577500000002L200,152.78302499999998L202.27272727272728,151.74675000000002L204.54545454545453,150.96885L206.81818181818184,150.23685L209.0909090909091,149.606625L211.36363636363637,148.92375L213.63636363636363,148.330275L215.9090909090909,147.6813L218.18181818181816,147.078825L220.45454545454547,146.48827500000002L222.72727272727272,145.94692500000002L225,145.486725L227.27272727272728,144.928575L229.54545454545453,144.23917500000002L231.81818181818184,143.72542499999997L234.0909090909091,143.249175L236.36363636363637,142.7823L238.63636363636363,142.259625L240.9090909090909,141.66885L243.18181818181816,141.2196L245.45454545454547,140.687025L247.72727272727272,140.0277L250,139.4865L252.27272727272728,138.7659L254.54545454545453,138.242025L256.8181818181818,137.7855L259.09090909090907,137.30085L261.3636363636364,136.77165L263.6363636363636,136.3242L265.90909090909093,135.8991L268.1818181818182,135.519525L270.45454545454544,135.015075L272.7272727272727,134.51122500000002L275,134.023725L277.2727272727273,133.482525L279.54545454545456,133.02015L281.8181818181818,132.51254999999998L284.09090909090907,130.781025L286.3636363636364,129.72645L288.6363636363636,128.88420000000002L290.90909090909093,128.17755L293.1818181818182,126.88402500000001L295.45454545454544,125.037525L297.7272727272727,123.98489999999998L300,123.0666L302.2727272727273,122.3754L304.54545454545456,121.71090000000001L306.8181818181818,121.17285000000001L309.09090909090907,120.65159999999999L311.3636363636364,120.059775L313.6363636363636,119.4996L315.90909090909093,119.00452500000002L318.1818181818182,118.54200000000002L320.45454545454544,118.12140000000001L322.7272727272727,117.62745000000001L325,117.08475L327.2727272727273,116.52465000000001L329.54545454545456,115.85797500000001L331.8181818181818,115.256175L334.09090909090907,114.74752500000001L336.3636363636364,114.346725L338.6363636363636,113.8635L340.90909090909093,113.46494999999999L343.1818181818182,113.06887500000002L345.45454545454544,112.65255L347.7272727272727,112.24245L350,111.846375L352.2727272727273,111.46815L354.54545454545456,111.0846L356.8181818181818,110.56230000000001L359.09090909090907,110.04645000000001L361.3636363636364,109.58160000000001L363.6363636363636,109.17405L365.90909090909093,108.65415L368.1818181818182,108.226125L370.45454545454544,107.80934999999997L372.7272727272727,107.42227500000001L375,106.99762500000001L377.2727272727273,106.65719999999999L379.54545454545456,106.34437499999999L381.8181818181818,105.8745L384.09090909090907,105.285525L386.3636363636364,104.903025L388.6363636363636,104.49802500000001L390.90909090909093,104.1315L393.1818181818182,103.807725L395.45454545454544,103.476L397.7272727272727,103.14075L400,102.706125" stroke="#4c78a8" stroke-width="2"/></g></g><path class="foreground" aria-hidden="true" d="" display="none"/></g></g></g></svg>