<svg xmlns="http://www.w3.org/2000/svg" xmlns:xlink="http://www.w3.org/1999/xlink" version="1.1" class="marks" width="972" height="366" viewBox="0 0 972 366"><rect width="972" height="366" fill="white"/><g fill="none" stroke-miterlimit="10" transform="translate(73,28)"><g class="mark-group role-frame root" role="graphics-object" aria-roledescription="group mark container"><g transform="translate(0,0)"><path class="background" aria-hidden="true" d="M0,0h0v0h0Z"/><g><g class="mark-group role-scope concat_0_group" role="graphics-object" aria-roledescription="group mark container"><g transform="translate(0,0)"><path class="background" aria-hidden="true" d="M0.5,0.5h400v300h-400Z" stroke="#ddd"/><g><g class="mark-group role-axis" role="graphics-symbol" aria-roledescription="axis" aria-label="X-axis for a linear scale with values from 1 to 134"><g transform="translate(0.5,300.5)"><path class="background" aria-hidden="true" d="M0,0h0v0h0Z" pointer-events="none"/><g><g class="mark-rule role-axis-grid" pointer-events="none"><line transform="translate(27,-300)" x2="0" y2="300" stroke="#ddd" stroke-width="1" opacity="1"/><line transform="translate(57,-300)" x2="0" y2="300" stroke="#ddd" stroke-width="1" opacity="1"/><line transform="translate(87,-300)" x2="0" y2="300" stroke="#ddd" stroke-width="1" opacity="1"/><line transform="translate(117,-300)" x2="0" y2="300" stroke="#ddd" stroke-width="1" opacity="1"/><line transform="translate(147,-300)" x2="0" y2="300" stroke="#ddd" stroke-width="1" opacity="1"/><line transform="translate(177,-300)" x2="0" y2="300" stroke="#ddd" stroke-width="1" opacity="1"/><line transform="translate(208,-300)" x2="0" y2="300" stroke="#ddd" stroke-width="1" opacity="1"/><line transform="translate(238,-300)" x2="0" y2="300" stroke="#ddd" stroke-width="1" opacity="1"/><line transform="translate(268,-300)" x2="0" y2="300" stroke="#ddd" stroke-width="1" opacity="1"/><line transform="translate(298,-300)" x2="0" y2="300" stroke="#ddd" stroke-width="1" opacity="1"/><line transform="translate(328,-300)" x2="0" y2="300" stroke="#ddd" stroke-width="1" opacity="1"/><line transform="translate(358,-300)" x2="0" y2="300" stroke="#ddd" stroke-width="1" opacity="1"/><line transform="translate(388,-300)" x2="0" y2="300" stroke="#ddd" stroke-width="1" opacity="1"/></g></g><path class="foreground" aria-hidden="true" d="" pointer-events="none" display="none"/></g></g><g class="mark-group role-axis" role="graphics-symbol" aria-roledescription="axis" aria-label="Y-axis for a linear scale with values from 0 to 4,000,000"><g transform="translate(0.5,0.5)"><path class="background" aria-hidden="true" d="M0,0h0v0h0Z" pointer-events="none"/><g><g class="mark-rule role-axis-grid" pointer-events="none"><line transform="translate(0,300)" x2="400" y2="0" stroke="#ddd" stroke-width="1" opacity="1"/><line transform="translate(0,263)" x2="400" y2="0" stroke="#ddd" stroke-width="1" opacity="1"/><line transform="translate(0,225)" x2="400" y2="0" stroke="#ddd" stroke-width="1" opacity="1"/><line transform="translate(0,188)" x2="400" y2="0" stroke="#ddd" stroke-width="1" opacity="1"/><line transform="translate(0,150)" x2="400" y2="0" stroke="#ddd" stroke-width="1" opacity="1"/><line transform="translate(0,113)" x2="400" y2="0" stroke="#ddd" stroke-width="1" opacity="1"/><line transform="translate(0,75)" x2="400" y2="0" stroke="#ddd" stroke-width="1" opacity="1"/><line transform="translate(0,38)" x2="400" y2="0" stroke="#ddd" stroke-width="1" opacity="1"/><line transform="translate(0,0)" x2="400" y2="0" stroke="#ddd" stroke-width="1" opacity="1"/></g></g><path class="foreground" aria-hidden="true" d="" pointer-events="none" display="none"/></g></g><g class="mark-group role-axis" role="graphics-symbol" aria-roledescription="axis" aria-label="X-axis titled 'Week' for a linear scale with values from 1 to 134"><g transform="translate(0.5,300.5)"><path class="background" aria-hidden="true" d="M0,0h0v0h0Z" pointer-events="none"/><g><g class="mark-rule role-axis-tick" pointer-events="none"><line transform="translate(27,0)" x2="0" y2="5" stroke="#888" stroke-width="1" opacity="1"/><line transform="translate(57,0)" x2="0" y2="5" stroke="#888" stroke-width="1" opacity="1"/><line transform="translate(87,0)" x2="0" y2="5" stroke="#888" stroke-width="1" opacity="1"/><line transform="translate(117,0)" x2="0" y2="5" stroke="#888" stroke-width="1" opacity="1"/><line transform="translate(147,0)" x2="0" y2="5" stroke="#888" stroke-width="1" opacity="1"/><line transform="translate(177,0)" x2="0" y2="5" stroke="#888" stroke-width="1" opacity="1"/><line transform="translate(208,0)" x2="0" y2="5" stroke="#888" stroke-width="1" opacity="1"/><line transform="translate(238,0)" x2="0" y2="5" stroke="#888" stroke-width="1" opacity="1"/><line transform="translate(268,0)" x2="0" y2="5" stroke="#888" stroke-width="1" opacity="1"/><line transform="translate(298,0)" x2="0" y2="5" stroke="#888" stroke-width="1" opacity="1"/><line transform="translate(328,0)" x2="0" y2="5" stroke="#888" stroke-width="1" opacity="1"/><line transform="translate(358,0)" x2="0" y2="5" stroke="#888" stroke-width="1" opacity="1"/><line transform="translate(388,0)" x2="0" y2="5" stroke="#888" stroke-width="1" opacity="1"/></g><g class="mark-text role-axis-label" pointer-events="none"><text text-anchor="middle" transform="translate(27.06766917293233,15)" font-family="sans-serif" font-size="10px" fill="#000" opacity="1">10</text><text text-anchor="middle" transform="translate(57.14285714285714,15)" font-family="sans-serif" font-size="10px" fill="#000" opacity="1">20</text><text text-anchor="middle" transform="translate(87.21804511278195,15)" font-family="sans-serif" font-size="10px" fill="#000" opacity="1">30</text><text text-anchor="middle" transform="translate(117.29323308270676,15)" font-family="sans-serif" font-size="10px" fill="#000" opacity="1">40</text><text text-anchor="middle" transform="translate(147.36842105263156,15)" font-family="sans-serif" font-size="10px" fill="#000" opacity="1">50</text><text text-anchor="middle" transform="translate(177.4436090225564,15)" font-family="sans-serif" font-size="10px" fill="#000" opacity="1">60</text><text text-anchor="middle" transform="translate(207.5187969924812,15)" font-family="sans-serif" font-size="10px" fill="#000" opacity="1">70</text><text text-anchor="middle" transform="translate(237.593984962406,15)" font-family="sans-serif" font-size="10px" fill="#000" opacity="1">80</text><text text-anchor="middle" transform="translate(267.6691729323308,15)" font-family="sans-serif" font-size="10px" fill="#000" opacity="1">90</text><text text-anchor="middle" transform="translate(297.74436090225566,15)" font-family="sans-serif" font-size="10px" fill="#000" opacity="1">100</text><text text-anchor="middle" transform="translate(327.81954887218046,15)" font-family="sans-serif" font-size="10px" fill="#000" opacity="1">110</text><text text-anchor="middle" transform="translate(357.89473684210526,15)" font-family="sans-serif" font-size="10px" fill="#000" opacity="1">120</text><text text-anchor="middle" transform="translate(387.96992481203006,15)" font-family="sans-serif" font-size="10px" fill="#000" opacity="1">130</text></g><g class="mark-rule role-axis-domain" pointer-events="none"><line transform="translate(0,0)" x2="400" y2="0" stroke="#888" stroke-width="1" opacity="1"/></g><g class="mark-text role-axis-title" pointer-events="none"><text text-anchor="middle" transform="translate(200,30)" font-family="sans-serif" font-size="11px" font-weight="bold" fill="#000" opacity="1">Week</text></g></g><path class="foreground" aria-hidden="true" d="" pointer-events="none" display="none"/></g></g><g class="mark-group role-axis" role="graphics-symbol" aria-roledescription="axis" aria-label="Y-axis titled 'Decks Registered' for a linear scale with values from 0 to 4,000,000"><g transform="translate(0.5,0.5)"><path class="background" aria-hidden="true" d="M0,0h0v0h0Z" pointer-events="none"/><g><g class="mark-rule role-axis-tick" pointer-events="none"><line transform="translate(0,300)" x2="-5" y2="0" stroke="#888" stroke-width="1" opacity="1"/><line transform="translate(0,263)" x2="-5" y2="0" stroke="#888" stroke-width="1" opacity="1"/><line transform="translate(0,225)" x2="-5" y2="0" stroke="#888" stroke-width="1" opacity="1"/><line transform="translate(0,188)" x2="-5" y2="0" stroke="#888" stroke-width="1" opacity="1"/><line transform="translate(0,150)" x2="-5" y2="0" stroke="#888" stroke-width="1" opacity="1"/><line transform="translate(0,113)" x2="-5" y2="0" stroke="#888" stroke-width="1" opacity="1"/><line transform="translate(0,75)" x2="-5" y2="0" stroke="#888" stroke-width="1" opacity="1"/><line transform="translate(0,38)" x2="-5" y2="0" stroke="#888" stroke-width="1" opacity="1"/><line transform="translate(0,0)" x2="-5" y2="0" stroke="#888" stroke-width="1" opacity="1"/></g><g class="mark-text role-axis-label" pointer-events="none"><text text-anchor="end" transform="translate(-7,303)" font-family="sans-serif" font-size="10px" fill="#000" opacity="1">0</text><text text-anchor="end" transform="translate(-7,265.5)" font-family="sans-serif" font-size="10px" fill="#000" opacity="1">500,000</text><text text-anchor="end" transform="translate(-7,228)" font-family="sans-serif" font-size="10px" fill="#000" opacity="1">1,000,000</text><text text-anchor="end" transform="translate(-7,190.5)" font-family="sans-serif" font-size="10px" fill="#000" opacity="1">1,500,000</text><text text-anchor="end" transform="translate(-7,153)" font-family="sans-serif" font-size="10px" fill="#000" opacity="1">2,000,000</text><text text-anchor="end" transform="translate(-7,115.5)" font-family="sans-serif" font-size="10px" fill="#000" opacity="1">2,500,000</text><text text-anchor="end" transform="translate(-7,78)" font-family="sans-serif" font-size="10px" fill="#000" opacity="1">3,000,000</text><text text-anchor="end" transform="translate(-7,40.5)" font-family="sans-serif" font-size="10px" fill="#000" opacity="1">3,500,000</text><text text-anchor="end" transform="translate(-7,3)" font-family="sans-serif" font-size="10px" fill="#000" opacity="1">4,000,000</text></g><g class="mark-rule role-axis-domain" pointer-events="none"><line transform="translate(0,300)" x2="0" y2="-300" stroke="#888" stroke-width="1" opacity="1"/></g><g class="mark-text role-axis-title" pointer-events="none"><text text-anchor="middle" transform="translate(-55.4873046875,150) rotate(-90) translate(0,-2)" font-family="sans-serif" font-size="11px" font-weight="bold" fill="#000" opacity="1">Decks Registered</text></g></g><path class="foreground" aria-hidden="true" d="" pointer-events="none" display="none"/></g></g><g class="mark-area role-mark concat_0_layer_0_marks" role="graphics-symbol" aria-roledescription="area mark container"><path d="M0,294.2755676942399L3.007518796992481,289.53244752191205L6.015037593984962,283.22560777207684L9.022556390977442,279.5935224831331L12.030075187969924,276.1367388292819L15.037593984962406,272.9718696496132L18.045112781954884,270.64376361353317L21.052631578947366,268.28781407093027L24.06015037593985,266.5490912189521L27.06766917293233,265.4322312018207L30.075187969924812,264.3033466631343L33.08270676691729,262.2830325146129L36.09022556390977,261.9460890487839L39.097744360902254,260.78232315622904L42.10526315789473,258.6871883514439L45.11278195488722,256.7379792335075L48.1203007518797,257.4113621045203L51.127819548872175,252.9510180551745L54.13533834586466,250.93013145543986L57.14285714285714,251.11886357726866L60.150375939849624,252.3828519257452L63.1578947368421,247.45992757626624L66.16541353383458,246.68079834611945L69.17293233082707,246.55791225535125L72.18045112781954,246.2078247106387L75.18796992481202,243.5769558124019L78.19548872180451,241.91260700326157L81.203007518797,242.05427561699904L84.21052631578947,240.84983899551665L87.21804511278195,236.39607834344233L90.22556390977444,234.29737876657242L93.23308270676691,231.88304255566945L96.2406015037594,228.3700710378825L99.24812030075188,229.8682289147275L102.25563909774435,227.64325792575042L105.26315789473684,224.91293353699243L108.27067669172932,223.27305461342655L111.27819548872179,221.74981742680438L114.28571428571428,220.2874888234429L117.29323308270676,218.89437361223779L120.30075187969925,218.33797343935288L123.30827067669172,216.53227211628717L126.3157894736842,217.58422621110782L129.32330827067668,215.18563199526943L132.33082706766916,214.0496685886765L135.33834586466165,212.3318001131015L138.34586466165413,210.9723590902199L141.35338345864662,210.10453458210546L144.36090225563908,208.96652372425925L147.36842105263156,208.12391316256165L150.37593984962405,207.00010214060845L153.38345864661653,204.52231030485146L156.39097744360902,202.5664620661438L159.3984962406015,201.8621553942036L162.406015037594,199.7888649861381L165.41353383458645,200.63243484235682L168.42105263157893,195.92380228675972L171.42857142857142,196.44372827265076L174.4360902255639,193.24443144855994L177.4436090225564,192.25418222554276L180.45112781954887,191.5801616917967L183.45864661654133,190.76247460185007L186.46616541353382,189.1313887273497L189.4736842105263,187.77679093108551L192.4812030075188,188.8433278078741L195.48872180451127,187.23181719196046L198.49624060150376,184.85403337893354L201.50375939849624,183.07159279365678L204.5112781954887,181.89646420644715L207.5187969924812,181.04394875104285L210.52631578947367,180.93955289499831L213.53383458646618,179.1264688097417L216.54135338345864,177.36718670324203L219.54887218045113,176.61006585349912L222.55639097744358,175.87936480218391L225.5639097744361,174.34119046964224L228.57142857142856,173.98265901435119L231.57894736842107,172.51807744712943L234.58646616541353,171.38823497765966L237.593984962406,169.96758421348036L240.6015037593985,168.57745655784393L243.60902255639098,168.02402374432742L246.61654135338344,166.67434204740493L249.62406015037595,165.81657644518927L252.6315789473684,165.7142221986489L255.63909774436092,163.37136012521333L258.64661654135335,159.38447155288026L261.6541353383459,156.09726723430285L264.6616541353383,153.1766937516275L267.6691729323308,150.1955359529567L270.6766917293233,147.0321167717793L273.6842105263158,144.48580289646995L276.69172932330827,143.01933678651926L279.69924812030075,140.7467542095246L282.70676691729324,139.61676221568575L285.7142857142857,137.37375172543972L288.72180451127815,136.2312154452027L291.7293233082707,134.57066046951084L294.7368421052631,133.74257418153616L297.74436090225566,131.50905288859477L300.7518796992481,130.90150754520667L303.7593984962406,129.26213164579053L306.76691729323306,129.2675994347482L309.77443609022555,127.38322953061612L312.78195488721803,125.96939987031061L315.7894736842105,125.38741485307825L318.796992481203,123.30459543974301L321.8045112781955,122.48291024362992L324.812030075188,120.93984084493297L327.81954887218046,120.11085873800779L330.8270676691729,120.10279348303126L333.83458646616543,117.88720485326434L336.84210526315786,116.60825969798152L339.8496240601504,116.47204407757613L342.85714285714283,115.26602993463824L345.8646616541353,113.78479295061872L348.8721804511278,113.33150972195389L351.8796992481203,112.35445568856366L354.8872180451128,110.18763814687271L357.89473684210526,108.96108134349551L360.90225563909775,108.21631195765089L363.90977443609023,107.40637318840685L366.91729323308266,106.49906515432845L369.9248120300752,105.15453761146861L372.93233082706763,103.55471821841935L375.9398496240602,103.72978564030417L378.9473684210526,102.37499273966395L381.9548872180451,97.86688544552815L384.9624060150376,93.59269397226652L387.96992481203006,91.0231392357647L390.97744360902254,88.61006378510423L393.98496240601503,85.97366949880994L396.9924812030075,83.83847376620655L400,81.29300790609877L400,11.388953833575826L396.9924812030075,14.507996196904287L393.98496240601503,17.702242681616056L390.97744360902254,20.73798259737346L387.96992481203006,24.76947969137089L384.9624060150376,28.999164059755884L381.9548872180451,34.28624237769278L378.9473684210526,39.9275923269571L375.9398496240602,40.659486114521584L372.93233082706763,41.811562395933855L369.9248120300752,43.91208639356204L366.91729323308266,45.11143734568527L363.90977443609023,46.03902523402026L360.90225563909775,47.843347097724006L357.89473684210526,48.83488241998333L354.8872180451128,50.31574881055448L351.8796992481203,52.53033728363796L348.8721804511278,53.00640729473191L345.8646616541353,54.458190683990246L342.85714285714283,55.56716729802675L339.8496240601504,57.184766915212556L336.84210526315786,58.88292184558686L333.83458646616543,60.15358289884878L330.8270676691729,61.02813653412653L327.81954887218046,62.90003511853608L324.812030075188,63.6197241946459L321.8045112781955,65.99867181343319L318.796992481203,67.38723232114924L315.7894736842105,68.88107466627994L312.78195488721803,69.96319182943441L309.77443609022555,71.59069170169353L306.76691729323306,73.27519456358677L303.7593984962406,75.0104462477798L300.7518796992481,76.17317534356603L297.74436090225566,79.29422860793001L294.7368421052631,80.58708407684026L291.7293233082707,81.62561532136074L288.72180451127815,84.54595709648511L285.7142857142857,85.94395258615127L282.70676691729324,89.04538875613859L279.69924812030075,91.31683130379167L276.69172932330827,94.21784968721498L273.6842105263158,97.24443970583849L270.6766917293233,100.82362103758153L267.6691729323308,104.39481094162653L264.6616541353383,107.64587727880203L261.6541353383459,112.56425068532036L258.64661654135335,117.65258980056603L255.63909774436092,123.53815729465377L252.6315789473684,125.08765691806084L249.62406015037595,126.41481824949079L246.61654135338344,127.63478323532249L243.60902255639098,129.32199759732026L240.6015037593985,130.86242560931882L237.593984962406,129.0800918105602L234.58646616541353,133.19483121596986L231.57894736842107,134.29370828986436L228.57142857142856,136.50057979051059L225.5639097744361,137.1613535436412L222.55639097744358,138.4892817271994L219.54887218045113,138.41696066367876L216.54135338345864,140.30766096494423L213.53383458646618,142.41068447013365L210.52631578947367,143.9482829173949L207.5187969924812,144.55420408444044L204.5112781954887,146.9634390545917L201.50375939849624,147.91859016853L198.49624060150376,149.79925296558469L195.48872180451127,150.5175721244109L192.4812030075188,150.73458078644876L189.4736842105263,153.89497167547694L186.46616541353382,155.2770728103107L183.45864661654133,157.11526198618893L180.45112781954887,158.4865960479878L177.4436090225564,160.46069779816656L174.4360902255639,161.91656873776336L171.42857142857142,163.5675043321506L168.42105263157893,166.03216619612664L165.41353383458645,167.03850406468027L162.406015037594,166.63943208520172L159.3984962406015,170.0418807922715L156.39097744360902,171.60809982430513L153.38345864661653,174.17426361927195L150.37593984962405,178.77891265295298L147.36842105263156,180.16099049639703L144.36090225563908,181.5049559208012L141.35338345864662,182.90214161483073L138.34586466165413,184.3034232282911L135.33834586466165,185.54944416717618L132.33082706766916,187.2160075162583L129.32330827067668,188.28922093507754L126.3157894736842,190.19245790059756L123.30827067669172,189.98459180571288L120.30075187969925,192.93056914648588L117.29323308270676,193.35425291027238L114.28571428571428,195.61601197829225L111.27819548872179,195.9665888491289L108.27067669172932,199.9215316506839L105.26315789473684,200.9512333936005L102.25563909774435,204.47530510944273L99.24812030075188,206.45071776963437L96.2406015037594,205.35269165671022L93.23308270676691,210.32149490651395L90.22556390977444,213.62171666301396L87.21804511278195,216.40378039121967L84.21052631578947,218.3352660663352L81.203007518797,223.09783049000228L78.19548872180451,223.27340354953714L75.18796992481202,224.83746549278445L72.18045112781954,226.86056343504595L69.17293233082707,228.22632819280304L66.16541353383458,229.81928359226677L63.1578947368421,229.9388349193042L60.150375939849624,232.1707992193156L57.14285714285714,233.61353554990762L54.13533834586466,234.27457911752134L51.127819548872175,234.37920021009936L48.1203007518797,235.9016284361554L45.11278195488722,240.80458035490284L42.10526315789473,240.50807829619018L39.097744360902254,243.38752995554174L36.09022556390977,245.14195548263186L33.08270676691729,246.87301949312652L30.075187969924812,248.2250843369893L27.06766917293233,248.5459336795388L24.06015037593985,254.16528279027594L21.052631578947366,256.5322103992308L18.045112781954884,259.7028810787069L15.037593984962406,254.03260417055287L12.030075187969924,265.7046050090505L9.022556390977442,267.1547424400963L6.015037593984962,273.6205860766335L3.007518796992481,273.7258864638333L0,283.6150234003053Z" fill="#333333" opacity="0.2"/></g><g class="mark-line role-mark concat_0_layer_1_marks" role="graphics-symbol" aria-roledescription="line mark container"><path d="M0,288.76390875706613L3.007518796992481,283.5783230310528L6.015037593984962,278.9917083900421L9.022556390977442,275.02071366818717L12.030075187969924,271.44439923956713L15.037593984962406,268.2087953426174L18.045112781954884,265.4597412529489L21.052631578947366,262.81380646571824L24.06015037593985,260.5248106580616L27.06766917293233,258.2714619337686L30.075187969924812,256.267438634233L33.08270676691729,254.43728505272955L36.09022556390977,252.6736583325286L39.097744360902254,250.98360188520724L42.10526315789473,249.29524019415626L45.11278195488722,247.9133262395796L48.1203007518797,246.39070414856903L51.127819548872175,244.95891269989514L54.13533834586466,243.5556489933683L57.14285714285714,242.2848484647611L60.150375939849624,240.95158276882958L63.1578947368421,239.6483665804367L66.16541353383458,238.40079589666544L69.17293233082707,237.11296728049L72.18045112781954,235.90467113957263L75.18796992481202,234.61399296836078L78.19548872180451,233.42089296655655L81.203007518797,232.2829572544156L84.21052631578947,229.09437958252218L87.21804511278195,226.24778951936602L90.22556390977444,223.69104469625879L93.23308270676691,221.17819022079627L96.2406015037594,219.0127822409075L99.24812030075188,217.18664853429556L102.25563909774435,215.16627326718134L105.26315789473684,213.36515262319656L108.27067669172932,211.68268206803043L111.27819548872179,210.0848652341544L114.28571428571428,208.67385327786445L117.29323308270676,207.0056504598247L120.30075187969925,205.77059200763273L123.30827067669172,204.37965722747597L126.3157894736842,202.97661904541133L129.32330827067668,201.65753113351906L132.33082706766916,200.43218991307486L135.33834586466165,199.11168256411355L138.34586466165413,197.91154769055836L141.35338345864662,196.70663821636984L144.36090225563908,195.35586514453215L147.36842105263156,194.24050325745702L150.37593984962405,192.92965835721245L153.38345864661653,190.63452423795354L156.39097744360902,188.60105145703824L159.3984962406015,186.50775200378274L162.406015037594,184.68040279475167L165.41353383458645,183.02045193315126L168.42105263157893,181.35510672160393L171.42857142857142,179.76336851598373L174.4360902255639,178.30383094208807L177.4436090225564,176.7350904293199L180.45112781954887,175.38923441205887L183.45864661654133,174.06039897511397L186.46616541353382,172.62684333861216L189.4736842105263,171.35840069224668L192.4812030075188,169.99959160098464L195.48872180451127,168.88900371103318L198.49624060150376,167.63004152751202L201.50375939849624,166.2481370936227L204.5112781954887,165.0443324936547L207.5187969924812,163.88423127158563L210.52631578947367,162.68757283838374L213.53383458646618,161.56583933170973L216.54135338345864,160.29379961127162L219.54887218045113,159.08758702452099L222.55639097744358,157.97383222067958L225.5639097744361,156.79352977958325L228.57142857142856,155.5937264589662L231.57894736842107,154.4141000672389L234.58646616541353,153.22737700179982L237.593984962406,152.04672587398107L240.6015037593985,150.95889670494134L243.60902255639098,149.64319626057065L246.61654135338344,148.57464906594856L249.62406015037595,147.29986219107573L252.6315789473684,146.1714697712933L255.63909774436092,144.98101459764504L258.64661654135335,140.16213372579242L261.6541353383459,135.81598054762046L264.6616541353383,132.15002312180476L267.6691729323308,128.731154882169L270.6766917293233,125.78493413930974L273.6842105263158,122.89434836879643L276.69172932330827,120.57986350637097L279.69924812030075,118.20019855525298L282.70676691729324,116.19688477366672L285.7142857142857,114.23421287837556L288.72180451127815,112.39723938318147L291.7293233082707,110.67381506245579L294.7368421052631,109.12289223463853L297.74436090225566,107.4909109916814L300.7518796992481,105.95052470715169L303.7593984962406,104.55935831475381L306.76691729323306,103.18897517919957L309.77443609022555,101.80104836941825L312.78195488721803,100.50409571001866L315.7894736842105,99.18013546356387L318.796992481203,97.94840843464596L321.8045112781955,96.56200590239202L324.812030075188,95.42525387366561L327.81954887218046,94.1772468592528L330.8270676691729,92.97432818165167L333.83458646616543,91.71874692417792L336.84210526315786,90.52085519407781L339.8496240601504,89.32249077415005L342.85714285714283,88.19197138248799L345.8646616541353,86.93175016153076L348.8721804511278,85.74307103435363L351.8796992481203,84.54666489546271L354.8872180451128,83.42848991319104L357.89473684210526,82.1970259111991L360.90225563909775,81.06539904549405L363.90977443609023,79.89644641027292L366.91729323308266,78.67407172328537L369.9248120300752,77.5312118040743L372.93233082706763,76.26604395793193L375.9398496240602,75.18342204200974L378.9473684210526,74.06481495165416L381.9548872180451,69.29967496984601L384.9624060150376,65.15115786148897L387.96992481203006,61.47768958558151L390.97744360902254,58.23657213417436L393.98496240601503,55.237153315158494L396.9924812030075,52.619356122506744L400,50.22085965928839" stroke="#333333" stroke-width="2" opacity="0.7"/></g><g class="mark-line role-mark concat_0_layer_2_marks" role="graphics-symbol" aria-roledescription="line mark container"><path d="M0,288.1488L3.007518796992481,283.595025L6.015037593984962,279.89805L9.022556390977442,276.60787500000004L12.030075187969924,273.14265L15.037593984962406,269.21925000000005L18.045112781954884,266.31442499999997L21.052631578947366,263.64502500000003L24.06015037593985,261.384375L27.06766917293233,259.31385L30.075187969924812,257.44575L33.08270676691729,255.8796L36.09022556390977,254.03985L39.097744360902254,252.171975L42.10526315789473,250.39229999999998L45.11278195488722,248.79000000000002L48.1203007518797,247.11885L51.127819548872175,245.502825L54.13533834586466,243.99015L57.14285714285714,242.588475L60.150375939849624,241.4229L63.1578947368421,240.274425L66.16541353383458,239.35305000000002L69.17293233082707,238.48485L72.18045112781954,237.637875L75.18796992481202,236.84137500000003L78.19548872180451,236.10315000000003L81.203007518797,231.905625L84.21052631578947,227.996925L87.21804511278195,225.47625L90.22556390977444,223.24949999999998L93.23308270676691,221.35425L96.2406015037594,219.740175L99.24812030075188,218.15662500000002L102.25563909774435,216.58687500000002L105.26315789473684,214.982775L108.27067669172932,213.00382499999998L111.27819548872179,211.17735000000002L114.28571428571428,209.67254999999997L117.29323308270676,208.25189999999998L120.30075187969925,206.85607499999998L123.30827067669172,205.692675L126.3157894736842,204.63555000000002L129.32330827067668,203.618625L132.33082706766916,202.66905L135.33834586466165,201.680625L138.34586466165413,200.745225L141.35338345864662,199.83885L144.36090225563908,198.86535L147.36842105263156,197.90429999999998L150.37593984962405,194.73225L153.38345864661653,191.145525L156.39097744360902,188.944125L159.3984962406015,187.34107499999996L162.406015037594,185.33745000000002L165.41353383458645,183.67634999999999L168.42105263157893,182.198775L171.42857142857142,180.35085L174.4360902255639,178.93545L177.4436090225564,177.60299999999998L180.45112781954887,176.3418L183.45864661654133,175.13774999999998L186.46616541353382,173.90917499999998L189.4736842105263,172.823025L192.4812030075188,171.459525L195.48872180451127,170.51647499999999L198.49624060150376,169.62622499999998L201.50375939849624,168.71197500000002L204.5112781954887,167.99535L207.5187969924812,167.48767500000002L210.52631578947367,167.124225L213.53383458646618,166.8129L216.54135338345864,166.51590000000002L219.54887218045113,166.19879999999998L222.55639097744358,165.89775L225.5639097744361,165.6048L228.57142857142856,165.3177L231.57894736842107,164.921475L234.58646616541353,164.574075L237.593984962406,163.88842499999998L240.6015037593985,163.0626L243.60902255639098,162.501975L246.61654135338344,161.97644999999997L249.62406015037595,161.5797L252.6315789473684,161.13239999999996L255.63909774436092,158.849325L258.64661654135335,156.098325L261.6541353383459,154.17577500000002L264.6616541353383,152.78302499999998L267.6691729323308,151.74675000000002L270.6766917293233,150.96885L273.6842105263158,150.23685L276.69172932330827,149.606625L279.69924812030075,148.92375L282.70676691729324,148.330275L285.7142857142857,147.6813L288.72180451127815,147.078825L291.7293233082707,146.48827500000002L294.7368421052631,145.94692500000002L297.74436090225566,145.486725L300.7518796992481,144.928575L303.7593984962406,144.23917500000002L306.76691729323306,143.72542499999997L309.77443609022555,143.249175L312.78195488721803,142.7823L315.7894736842105,142.259625L318.796992481203,141.66885L321.8045112781955,141.2196L324.812030075188,140.687025L327.81954887218046,140.0277L330.8270676691729,139.4865L333.83458646616543,138.7659L336.84210526315786,138.242025L339.8496240601504,137.7855L342.85714285714283,137.30085L345.8646616541353,136.77165L348.8721804511278,136.3242L351.8796992481203,135.8991L354.8872180451128,135.519525L357.89473684210526,135.015075L360.90225563909775,134.51122500000002L363.90977443609023,134.023725L366.91729323308266,133.482525L369.9248120300752,133.02015L372.93233082706763,132.51254999999998L375.9398496240602,130.781025L378.9473684210526,129.72645L381.9548872180451,128.88420000000002L384.9624060150376,128.17755L387.96992481203006,126.88402500000001L390.97744360902254,125.037525L393.98496240601503,123.98489999999998L396.9924812030075,123.0666L400,122.3754" stroke="#4c78a8" stroke-width="2"/></g><g class="mark-group role-title"><g transform="translate(200,-22)"><path class="background" aria-hidden="true" d="M0,0h0v0h0Z" pointer-events="none"/><g><g class="mark-text role-title-text" role="graphics-symbol" aria-roledescription="title" aria-label="Title text 'No COVID-19 (Optimistic model)'" pointer-events="none"><text text-anchor="middle" transform="translate(0,10)" font-family="sans-serif" font-size="13px" font-weight="bold" fill="#000" opacity="1">No COVID-19 (Optimistic model)</text></g></g><path class="foreground" aria-hidden="true" d="" pointer-events="none" display="none"/></g></g></g><path class="foreground" aria-hidden="true" d="" display="none"/></g></g><g class="mark-group role-scope concat_1_group" role="graphics-object" aria-roledescription="group mark container"><g transform="translate(491,0)"><path class="background" aria-hidden="true" d="M0.5,0.5h400v300h-400Z" stroke="#ddd"/><g><g class="mark-group role-axis" role="graphics-symbol" aria-roledescription="axis" aria-label="X-axis for a linear scale with values from 1 to 134"><g transform="translate(0.5,300.5)"><path class="background" aria-hidden="true" d="M0,0h0v0h0Z" pointer-events="none"/><g><g class="mark-rule role-axis-grid" pointer-events="none"><line transform="translate(27,-300)" x2="0" y2="300" stroke="#ddd" stroke-width="1" opacity="1"/><line transform="translate(57,-300)" x2="0" y2="300" stroke="#ddd" stroke-width="1" opacity="1"/><line transform="translate(87,-300)" x2="0" y2="300" stroke="#ddd" stroke-width="1" opacity="1"/><line transform="translate(117,-300)" x2="0" y2="300" stroke="#ddd" stroke-width="1" opacity="1"/><line transform="translate(147,-300)" x2="0" y2="300" stroke="#ddd" stroke-width="1" opacity="1"/><line transform="translate(177,-300)" x2="0" y2="300" stroke="#ddd" stroke-width="1" opacity="1"/><line transform="translate(208,-300)" x2="0" y2="300" stroke="#ddd" stroke-width="1" opacity="1"/><line transform="translate(238,-300)" x2="0" y2="300" stroke="#ddd" stroke-width="1" opacity="1"/><line transform="translate(268,-300)" x2="0" y2="300" stroke="#ddd" stroke-width="1" opacity="1"/><line transform="translate(298,-300)" x2="0" y2="300" stroke="#ddd" stroke-width="1" opacity="1"/><line transform="translate(328,-300)" x2="0" y2="300" stroke="#ddd" stroke-width="1" opacity="1"/><line transform="translate(358,-300)" x2="0" y2="300" stroke="#ddd" stroke-width="1" opacity="1"/><line transform="translate(388,-300)" x2="0" y2="300" stroke="#ddd" stroke-width="1" opacity="1"/></g></g><path class="foreground" aria-hidden="true" d="" pointer-events="none" display="none"/></g></g><g class="mark-group role-axis" role="graphics-symbol" aria-roledescription="axis" aria-label="Y-axis for a linear scale with values from 0 to 3,500,000"><g transform="translate(0.5,0.5)"><path class="background" aria-hidden="true" d="M0,0h0v0h0Z" pointer-events="none"/><g><g class="mark-rule role-axis-grid" pointer-events="none"><line transform="translate(0,300)" x2="400" y2="0" stroke="#ddd" stroke-width="1" opacity="1"/><line transform="translate(0,257)" x2="400" y2="0" stroke="#ddd" stroke-width="1" opacity="1"/><line transform="translate(0,214)" x2="400" y2="0" stroke="#ddd" stroke-width="1" opacity="1"/><line transform="translate(0,171)" x2="400" y2="0" stroke="#ddd" stroke-width="1" opacity="1"/><line transform="translate(0,129)" x2="400" y2="0" stroke="#ddd" stroke-width="1" opacity="1"/><line transform="translate(0,86)" x2="400" y2="0" stroke="#ddd" stroke-width="1" opacity="1"/><line transform="translate(0,43)" x2="400" y2="0" stroke="#ddd" stroke-width="1" opacity="1"/><line transform="translate(0,0)" x2="400" y2="0" stroke="#ddd" stroke-width="1" opacity="1"/></g></g><path class="foreground" aria-hidden="true" d="" pointer-events="none" display="none"/></g></g><g class="mark-group role-axis" role="graphics-symbol" aria-roledescription="axis" aria-label="X-axis titled 'Week' for a linear scale with values from 1 to 134"><g transform="translate(0.5,300.5)"><path class="background" aria-hidden="true" d="M0,0h0v0h0Z" pointer-events="none"/><g><g class="mark-rule role-axis-tick" pointer-events="none"><line transform="translate(27,0)" x2="0" y2="5" stroke="#888" stroke-width="1" opacity="1"/><line transform="translate(57,0)" x2="0" y2="5" stroke="#888" stroke-width="1" opacity="1"/><line transform="translate(87,0)" x2="0" y2="5" stroke="#888" stroke-width="1" opacity="1"/><line transform="translate(117,0)" x2="0" y2="5" stroke="#888" stroke-width="1" opacity="1"/><line transform="translate(147,0)" x2="0" y2="5" stroke="#888" stroke-width="1" opacity="1"/><line transform="translate(177,0)" x2="0" y2="5" stroke="#888" stroke-width="1" opacity="1"/><line transform="translate(208,0)" x2="0" y2="5" stroke="#888" stroke-width="1" opacity="1"/><line transform="translate(238,0)" x2="0" y2="5" stroke="#888" stroke-width="1" opacity="1"/><line transform="translate(268,0)" x2="0" y2="5" stroke="#888" stroke-width="1" opacity="1"/><line transform="translate(298,0)" x2="0" y2="5" stroke="#888" stroke-width="1" opacity="1"/><line transform="translate(328,0)" x2="0" y2="5" stroke="#888" stroke-width="1" opacity="1"/><line transform="translate(358,0)" x2="0" y2="5" stroke="#888" stroke-width="1" opacity="1"/><line transform="translate(388,0)" x2="0" y2="5" stroke="#888" stroke-width="1" opacity="1"/></g><g class="mark-text role-axis-label" pointer-events="none"><text text-anchor="middle" transform="translate(27.06766917293233,15)" font-family="sans-serif" font-size="10px" fill="#000" opacity="1">10</text><text text-anchor="middle" transform="translate(57.14285714285714,15)" font-family="sans-serif" font-size="10px" fill="#000" opacity="1">20</text><text text-anchor="middle" transform="translate(87.21804511278195,15)" font-family="sans-serif" font-size="10px" fill="#000" opacity="1">30</text><text text-anchor="middle" transform="translate(117.29323308270676,15)" font-family="sans-serif" font-size="10px" fill="#000" opacity="1">40</text><text text-anchor="middle" transform="translate(147.36842105263156,15)" font-family="sans-serif" font-size="10px" fill="#000" opacity="1">50</text><text text-anchor="middle" transform="translate(177.4436090225564,15)" font-family="sans-serif" font-size="10px" fill="#000" opacity="1">60</text><text text-anchor="middle" transform="translate(207.5187969924812,15)" font-family="sans-serif" font-size="10px" fill="#000" opacity="1">70</text><text text-anchor="middle" transform="translate(237.593984962406,15)" font-family="sans-serif" font-size="10px" fill="#000" opacity="1">80</text><text text-anchor="middle" transform="translate(267.6691729323308,15)" font-family="sans-serif" font-size="10px" fill="#000" opacity="1">90</text><text text-anchor="middle" transform="translate(297.74436090225566,15)" font-family="sans-serif" font-size="10px" fill="#000" opacity="1">100</text><text text-anchor="middle" transform="translate(327.81954887218046,15)" font-family="sans-serif" font-size="10px" fill="#000" opacity="1">110</text><text text-anchor="middle" transform="translate(357.89473684210526,15)" font-family="sans-serif" font-size="10px" fill="#000" opacity="1">120</text><text text-anchor="middle" transform="translate(387.96992481203006,15)" font-family="sans-serif" font-size="10px" fill="#000" opacity="1">130</text></g><g class="mark-rule role-axis-domain" pointer-events="none"><line transform="translate(0,0)" x2="400" y2="0" stroke="#888" stroke-width="1" opacity="1"/></g><g class="mark-text role-axis-title" pointer-events="none"><text text-anchor="middle" transform="translate(200,30)" font-family="sans-serif" font-size="11px" font-weight="bold" fill="#000" opacity="1">Week</text></g></g><path class="foreground" aria-hidden="true" d="" pointer-events="none" display="none"/></g></g><g class="mark-group role-axis" role="graphics-symbol" aria-roledescription="axis" aria-label="Y-axis titled 'Decks Registered' for a linear scale with values from 0 to 3,500,000"><g transform="translate(0.5,0.5)"><path class="background" aria-hidden="true" d="M0,0h0v0h0Z" pointer-events="none"/><g><g class="mark-rule role-axis-tick" pointer-events="none"><line transform="translate(0,300)" x2="-5" y2="0" stroke="#888" stroke-width="1" opacity="1"/><line transform="translate(0,257)" x2="-5" y2="0" stroke="#888" stroke-width="1" opacity="1"/><line transform="translate(0,214)" x2="-5" y2="0" stroke="#888" stroke-width="1" opacity="1"/><line transform="translate(0,171)" x2="-5" y2="0" stroke="#888" stroke-width="1" opacity="1"/><line transform="translate(0,129)" x2="-5" y2="0" stroke="#888" stroke-width="1" opacity="1"/><line transform="translate(0,86)" x2="-5" y2="0" stroke="#888" stroke-width="1" opacity="1"/><line transform="translate(0,43)" x2="-5" y2="0" stroke="#888" stroke-width="1" opacity="1"/><line transform="translate(0,0)" x2="-5" y2="0" stroke="#888" stroke-width="1" opacity="1"/></g><g class="mark-text role-axis-label" pointer-events="none"><text text-anchor="end" transform="translate(-7,303)" font-family="sans-serif" font-size="10px" fill="#000" opacity="1">0</text><text text-anchor="end" transform="translate(-7,260.14285714285717)" font-family="sans-serif" font-size="10px" fill="#000" opacity="1">500,000</text><text text-anchor="end" transform="translate(-7,217.28571428571428)" font-family="sans-serif" font-size="10px" fill="#000" opacity="1">1,000,000</text><text text-anchor="end" transform="translate(-7,174.42857142857142)" font-family="sans-serif" font-size="10px" fill="#000" opacity="1">1,500,000</text><text text-anchor="end" transform="translate(-7,131.57142857142858)" font-family="sans-serif" font-size="10px" fill="#000" opacity="1">2,000,000</text><text text-anchor="end" transform="translate(-7,88.71428571428571)" font-family="sans-serif" font-size="10px" fill="#000" opacity="1">2,500,000</text><text text-anchor="end" transform="translate(-7,45.85714285714287)" font-family="sans-serif" font-size="10px" fill="#000" opacity="1">3,000,000</text><text text-anchor="end" transform="translate(-7,3)" font-family="sans-serif" font-size="10px" fill="#000" opacity="1">3,500,000</text></g><g class="mark-rule role-axis-domain" pointer-events="none"><line transform="translate(0,300)" x2="0" y2="-300" stroke="#888" stroke-width="1" opacity="1"/></g><g class="mark-text role-axis-title" pointer-events="none"><text text-anchor="middle" transform="translate(-55.4873046875,150) rotate(-90) translate(0,-2)" font-family="sans-serif" font-size="11px" font-weight="bold" fill="#000" opacity="1">Decks Registered</text></g></g><path class="foreground" aria-hidden="true" d="" pointer-events="none" display="none"/></g></g><g class="mark-area role-mark concat_1_layer_0_marks" role="graphics-symbol" aria-roledescription="area mark container"><path d="M0,292.761984455601L3.007518796992481,286.81022902160026L6.015037593984962,286.8289317166686L9.022556390977442,277.66570424299226L12.030075187969924,274.0089738270106L15.037593984962406,271.51434364848376L18.045112781954884,269.60652667404645L21.052631578947366,268.69027997813987L24.06015037593985,260.8647436467283L27.06766917293233,262.9695226840581L30.075187969924812,260.6220988815573L33.08270676691729,255.6261096972778L36.09022556390977,252.88246612734986L39.097744360902254,254.26065674581992L42.10526315789473,250.69376039369294L45.11278195488722,251.33844320903827L48.1203007518797,247.95194707072858L51.127819548872175,247.32390175046604L54.13533834586466,244.33674024794198L57.14285714285714,245.86498995403105L60.150375939849624,241.7260745537927L63.1578947368421,239.38132870786984L66.16541353383458,238.99009324946996L69.17293233082707,239.05764144413166L72.18045112781954,236.1337064463312L75.18796992481202,237.94158641758773L78.19548872180451,234.7317375809065L81.203007518797,233.07812528248056L84.21052631578947,228.58846950053606L87.21804511278195,227.97244563748944L90.22556390977444,226.033882616396L93.23308270676691,221.2300872194494L96.2406015037594,219.82022289871972L99.24812030075188,220.33933046381242L102.25563909774435,215.67810230584828L105.26315789473684,213.7640656881231L108.27067669172932,212.50853985075315L111.27819548872179,209.50561276294465L114.28571428571428,208.29271790862256L117.29323308270676,207.60667187600183L120.30075187969925,208.32223648021107L123.30827067669172,207.07341573652707L126.3157894736842,201.84422600029052L129.32330827067668,202.6948912176327L132.33082706766916,200.01223654567684L135.33834586466165,199.0032025745911L138.34586466165413,198.14883135984823L141.35338345864662,197.37511791034802L144.36090225563908,193.84135083904252L147.36842105263156,194.3055130155238L150.37593984962405,192.89572182806825L153.38345864661653,191.31866213978083L156.39097744360902,188.34460647507902L159.3984962406015,187.19580683325236L162.406015037594,185.4545271508537L165.41353383458645,182.79410441107098L168.42105263157893,180.53607111076295L171.42857142857142,179.00577680538393L174.4360902255639,177.57583232048287L177.4436090225564,176.39193277987457L180.45112781954887,173.97445961175447L183.45864661654133,174.54219544982857L186.46616541353382,172.4910950336704L189.4736842105263,171.22902941888685L192.4812030075188,169.08206276201216L195.48872180451127,169.73552757389027L198.49624060150376,166.4281078635841L201.50375939849624,166.40885489352118L204.5112781954887,163.78352237987258L207.5187969924812,162.34130863489528L210.52631578947367,162.1997016184633L213.53383458646618,160.59506442298886L216.54135338345864,160.11727370071202L219.54887218045113,158.88952395082217L222.55639097744358,156.27544555824616L225.5639097744361,157.95580359257613L228.57142857142856,153.90250203576662L231.57894736842107,155.25943793584594L234.58646616541353,152.94006602265486L237.593984962406,151.7519011253021L240.6015037593985,150.12296600039068L243.60902255639098,149.45893664123642L246.61654135338344,147.3237152472997L249.62406015037595,146.23114559652691L252.6315789473684,146.13479831718257L255.63909774436092,145.40356368999934L258.64661654135335,142.93834941301782L261.6541353383459,141.8012916880982L264.6616541353383,138.57056391068454L267.6691729323308,137.20830303486795L270.6766917293233,136.42657857698032L273.6842105263158,133.43062220152189L276.69172932330827,132.56842302761302L279.69924812030075,130.4823312395375L282.70676691729324,129.01393089553986L285.7142857142857,128.12068323642941L288.72180451127815,127.46218100627034L291.7293233082707,125.51892242084033L294.7368421052631,125.7726648977222L297.74436090225566,122.70019752421636L300.7518796992481,122.98493209379718L303.7593984962406,119.77166363514414L306.76691729323306,119.61098650047668L309.77443609022555,117.49648951409391L312.78195488721803,116.32882266121804L315.7894736842105,114.27006038165199L318.796992481203,113.88683118980627L321.8045112781955,113.53604951461017L324.812030075188,112.38241028736302L327.81954887218046,111.48123574960026L330.8270676691729,111.20863782058427L333.83458646616543,108.5242112750205L336.84210526315786,107.34999485694718L339.8496240601504,106.1740867909333L342.85714285714283,105.11377846970088L345.8646616541353,102.8017981066168L348.8721804511278,102.61270001430489L351.8796992481203,101.044268331962L354.8872180451128,100.52470980828423L357.89473684210526,98.58939036165737L360.90225563909775,97.76196219930193L363.90977443609023,95.59190067180285L366.91729323308266,96.15415435320901L369.9248120300752,95.69137985300131L372.93233082706763,93.91135350185837L375.9398496240602,91.83634783353615L378.9473684210526,90.40187178728644L381.9548872180451,90.23539345213283L384.9624060150376,86.6542284916266L387.96992481203006,84.07300851383785L390.97744360902254,84.47485502302669L393.98496240601503,81.84243667930365L396.9924812030075,78.86667456402702L400,77.16643899240796L400,11.110252709307048L396.9924812030075,9.910139285679392L393.98496240601503,14.778619168430183L390.97744360902254,17.624727824645007L387.96992481203006,19.279848853778134L384.9624060150376,20.21427142221846L381.9548872180451,22.051829015904232L378.9473684210526,24.948201504798817L375.9398496240602,29.242417767481697L372.93233082706763,28.950043897165344L369.9248120300752,29.78010866898859L366.91729323308266,32.31446834721198L363.90977443609023,33.802906660550526L360.90225563909775,35.959303957162106L357.89473684210526,36.551056381095336L354.8872180451128,38.07249735030349L351.8796992481203,39.284711409739614L348.8721804511278,39.49779203199812L345.8646616541353,41.98974926500071L342.85714285714283,42.99882578751375L339.8496240601504,44.96185846287277L336.84210526315786,45.5554218759299L333.83458646616543,48.450638646895264L330.8270676691729,49.314423521400904L327.81954887218046,50.31540723188447L324.812030075188,51.56881319620767L321.8045112781955,52.99259173923372L318.796992481203,54.040486810796416L315.7894736842105,57.36113676540575L312.78195488721803,57.519415843992164L309.77443609022555,59.98072805400684L306.76691729323306,62.70751753760757L303.7593984962406,64.38483275983698L300.7518796992481,66.1567633765685L297.74436090225566,65.900057302897L294.7368421052631,68.15339760791571L291.7293233082707,69.35096213941682L288.72180451127815,72.32391754878503L285.7142857142857,73.16994108931661L282.70676691729324,74.82838314523664L279.69924812030075,77.05132225469697L276.69172932330827,77.99829844787118L273.6842105263158,79.55871327370741L270.6766917293233,82.51346629520015L267.6691729323308,83.64532242749712L264.6616541353383,87.85239165450686L261.6541353383459,89.03542241701872L258.64661654135335,92.06874997310146L255.63909774436092,93.50430982863193L252.6315789473684,95.72114399345988L249.62406015037595,96.54767689973703L246.61654135338344,98.86517422197082L243.60902255639098,98.7177230201844L240.6015037593985,99.07373378811273L237.593984962406,102.71949616462543L234.58646616541353,104.32633500040758L231.57894736842107,106.66776149845015L228.57142857142856,106.272097314545L225.5639097744361,108.77315748458324L222.55639097744358,108.75886241341279L219.54887218045113,111.60579843927519L216.54135338345864,113.72454464635271L213.53383458646618,115.72256920332953L210.52631578947367,115.87719004128901L207.5187969924812,117.69275144443515L204.5112781954887,119.53869088795199L201.50375939849624,121.32889677285353L198.49624060150376,122.30963360914289L195.48872180451127,124.21321437323526L192.4812030075188,124.60509445302783L189.4736842105263,126.75899859608826L186.46616541353382,128.27431351426262L183.45864661654133,130.68733576030428L180.45112781954887,133.3407251678998L177.4436090225564,132.5134170028323L174.4360902255639,136.28297395656892L171.42857142857142,137.59271236962925L168.42105263157893,139.5105177300792L165.41353383458645,141.96756870022955L162.406015037594,143.03334515401042L159.3984962406015,147.30857637404748L156.39097744360902,149.95086045837456L153.38345864661653,151.73872159096885L150.37593984962405,155.1943833273413L147.36842105263156,156.34464310047846L144.36090225563908,155.60039975874676L141.35338345864662,159.01047127035224L138.34586466165413,161.64031812641727L135.33834586466165,163.60894967034665L132.33082706766916,163.59787759801242L129.32330827067668,164.65176792139954L126.3157894736842,167.82620151564424L123.30827067669172,169.94229538078358L120.30075187969925,172.25931204732106L117.29323308270676,173.92767087594555L114.28571428571428,176.47856765082506L111.27819548872179,177.21787677578942L108.27067669172932,180.30262680554995L105.26315789473684,182.94529894243016L102.25563909774435,185.03636778413863L99.24812030075188,187.044862649593L96.2406015037594,189.65225262335446L93.23308270676691,192.56458250265328L90.22556390977444,197.38750812982659L87.21804511278195,200.9799803655996L84.21052631578947,205.61698104986405L81.203007518797,208.82756622956572L78.19548872180451,210.95034662621248L75.18796992481202,213.15004303744945L72.18045112781954,214.43660641747323L69.17293233082707,215.7969500612017L66.16541353383458,218.07525832064314L63.1578947368421,218.8833468732724L60.150375939849624,220.1410693648138L57.14285714285714,222.67023203973153L54.13533834586466,223.66702567399307L51.127819548872175,225.6305964258594L48.1203007518797,228.3227095415054L45.11278195488722,229.81280434666533L42.10526315789473,231.45905407111897L39.097744360902254,233.86254677888758L36.09022556390977,233.5240718507904L33.08270676691729,236.91485244830807L30.075187969924812,236.58164658235552L27.06766917293233,243.5710417316409L24.06015037593985,248.18465828762152L21.052631578947366,248.32934534544407L18.045112781954884,253.98820421130551L15.037593984962406,253.68359247078888L12.030075187969924,259.6196045574793L9.022556390977442,264.4596815988395L6.015037593984962,270.5511748039984L3.007518796992481,275.89474626793975L0,270.8754656125321Z" fill="#333333" opacity="0.2"/></g><g class="mark-line role-mark concat_1_layer_1_marks" role="graphics-symbol" aria-roledescription="line mark container"><path d="M0,287.0964020764418L3.007518796992481,281.22855909712666L6.015037593984962,276.05611403565774L9.022556390977442,271.5010343619673L12.030075187969924,267.3279053541221L15.037593984962406,263.7529755069562L18.045112781954884,260.6090583717695L21.052631578947366,257.5339341788546L24.06015037593985,254.91349872384023L27.06766917293233,252.3041171487092L30.075187969924812,250.06779071305158L33.08270676691729,247.92353270931972L36.09022556390977,245.87333104230038L39.097744360902254,244.08723427070876L42.10526315789473,242.23602874842067L45.11278195488722,240.5177702442355L48.1203007518797,238.78644263487223L51.127819548872175,237.29888585789388L54.13533834586466,235.59006156691666L57.14285714285714,234.07085428792115L60.150375939849624,232.62106783969196L63.1578947368421,231.13910335030602L66.16541353383458,229.7503126281005L69.17293233082707,228.15664685932776L72.18045112781954,226.82250451498447L75.18796992481202,225.40539078756524L78.19548872180451,223.93669531670204L81.203007518797,222.57100833523987L84.21052631578947,219.04173497766945L87.21804511278195,215.83957183971086L90.22556390977444,212.75644847048807L93.23308270676691,210.18769147116788L96.2406015037594,207.73462793295187L99.24812030075188,205.39712474473808L102.25563909774435,203.37243961431176L105.26315789473684,201.36336875541116L108.27067669172932,199.41895678495106L111.27819548872179,197.6498306622408L114.28571428571428,195.8362542128772L117.29323308270676,194.18691476747262L120.30075187969925,192.50410445875508L123.30827067669172,190.99945578421162L126.3157894736842,189.36264103061242L129.32330827067668,187.98164139865875L132.33082706766916,186.4316740422329L135.33834586466165,185.06003753219252L138.34586466165413,183.51125598736135L141.35338345864662,182.19962711069434L144.36090225563908,180.6706630477869L147.36842105263156,179.37162667689935L150.37593984962405,178.0673152506951L153.38345864661653,175.35379977244776L156.39097744360902,172.9618391674149L159.3984962406015,170.7694657657646L162.406015037594,168.6203097280213L165.41353383458645,166.64771069231307L168.42105263157893,164.81483502063773L171.42857142857142,163.051082204398L174.4360902255639,161.318055707722L177.4436090225564,159.71791389341737L180.45112781954887,157.99786045728698L183.45864661654133,156.50472035757477L186.46616541353382,154.89979516143475L189.4736842105263,153.48759555673394L192.4812030075188,151.905570886681L195.48872180451127,150.52627613690575L198.49624060150376,149.11227668107472L201.50375939849624,147.80226992324714L204.5112781954887,146.40480766874055L207.5187969924812,144.99476064612196L210.52631578947367,143.4383523361032L213.53383458646618,142.07111796930545L216.54135338345864,140.78325230859033L219.54887218045113,139.41990008539946L222.55639097744358,138.1120208756425L225.5639097744361,136.87355654591553L228.57142857142856,135.39444082777763L231.57894736842107,134.00720719059944L234.58646616541353,132.816392259512L237.593984962406,131.3520330623717L240.6015037593985,129.93815516793094L243.60902255639098,128.74340757342543L246.61654135338344,127.41466515288089L249.62406015037595,126.13725342853263L252.6315789473684,124.63072488613638L255.63909774436092,123.33229477333217L258.64661654135335,120.72071143055686L261.6541353383459,118.39581537697916L264.6616541353383,116.14281084356357L267.6691729323308,114.15321707256183L270.6766917293233,112.09878802732337L273.6842105263158,110.17115146880244L276.69172932330827,108.38969200091249L279.69924812030075,106.77674011457097L282.70676691729324,105.12057428917323L285.7142857142857,103.53331537124633L288.72180451127815,102.03357170927137L291.7293233082707,100.48790812766231L294.7368421052631,99.01781178320942L297.74436090225566,97.47499847930328L300.7518796992481,96.04524631330736L303.7593984962406,94.6695489435238L306.76691729323306,93.2993924748396L309.77443609022555,91.8137690387653L312.78195488721803,90.40026442702538L315.7894736842105,89.0141132256104L318.796992481203,87.80660077761779L321.8045112781955,86.30313081213073L324.812030075188,85.07225288578678L327.81954887218046,83.66227478264713L330.8270676691729,82.3352163654234L333.83458646616543,81.02191386069683L336.84210526315786,79.57962880893051L339.8496240601504,78.32074675879973L342.85714285714283,76.98509271546422L345.8646616541353,75.59124127177077L348.8721804511278,74.286720858263L351.8796992481203,72.87714617884298L354.8872180451128,71.67901919807359L357.89473684210526,70.1399148912768L360.90225563909775,69.0440166807601L363.90977443609023,67.6155519237679L366.91729323308266,66.37918607174525L369.9248120300752,64.92946481755737L372.93233082706763,63.610063311379896L375.9398496240602,62.18127393901356L378.9473684210526,60.93789160046399L381.9548872180451,58.36014182519988L384.9624060150376,56.07914121226346L387.96992481203006,53.77872996134653L390.97744360902254,51.771538521912795L393.98496240601503,49.90270802115149L396.9924812030075,47.81922295122364L400,46.11051299154539" stroke="#333333" stroke-width="2" opacity="0.7"/></g><g class="mark-line role-mark concat_1_layer_2_marks" role="graphics-symbol" aria-roledescription="line mark container"><path d="M0,286.45577142857144L3.007518796992481,281.25145714285713L6.015037593984962,277.0263428571428L9.022556390977442,273.2661428571429L12.030075187969924,269.30588571428575L15.037593984962406,264.822L18.045112781954884,261.5022L21.052631578947366,258.4514571428572L24.06015037593985,255.86785714285713L27.06766917293233,253.50154285714282L30.075187969924812,251.36657142857143L33.08270676691729,249.57668571428573L36.09022556390977,247.47411428571428L39.097744360902254,245.3394L42.10526315789473,243.3054857142857L45.11278195488722,241.4742857142857L48.1203007518797,239.5644L51.127819548872175,237.7175142857143L54.13533834586466,235.98874285714285L57.14285714285714,234.38682857142857L60.150375939849624,233.05474285714288L63.1578947368421,231.7422L66.16541353383458,230.6892L69.17293233082707,229.69697142857143L72.18045112781954,228.72899999999998L75.18796992481202,227.8187142857143L78.19548872180451,226.97502857142857L81.203007518797,222.17785714285714L84.21052631578947,217.71077142857143L87.21804511278195,214.82999999999998L90.22556390977444,212.28514285714286L93.23308270676691,210.1191428571429L96.2406015037594,208.27448571428573L99.24812030075188,206.46471428571428L102.25563909774435,204.6707142857143L105.26315789473684,202.83745714285712L108.27067669172932,200.57580000000002L111.27819548872179,198.48839999999998L114.28571428571428,196.76862857142856L117.29323308270676,195.14502857142855L120.30075187969925,193.5498L123.30827067669172,192.2202L126.3157894736842,191.01205714285715L129.32330827067668,189.84985714285716L132.33082706766916,188.7646285714286L135.33834586466165,187.63500000000002L138.34586466165413,186.56597142857146L141.35338345864662,185.53011428571432L144.36090225563908,184.41754285714285L147.36842105263156,183.31920000000002L150.37593984962405,179.69400000000002L153.38345864661653,175.5948857142857L156.39097744360902,173.07899999999998L159.3984962406015,171.24694285714287L162.406015037594,168.95708571428568L165.41353383458645,167.05868571428573L168.42105263157893,165.3700285714286L171.42857142857142,163.25811428571427L174.4360902255639,161.64051428571426L177.4436090225564,160.1177142857143L180.45112781954887,158.67634285714286L183.45864661654133,157.30028571428568L186.46616541353382,155.8962L189.4736842105263,154.65488571428568L192.4812030075188,153.0966L195.48872180451127,152.01882857142857L198.49624060150376,151.0014L201.50375939849624,149.95654285714284L204.5112781954887,149.13754285714285L207.5187969924812,148.55734285714286L210.52631578947367,148.14197142857142L213.53383458646618,147.78617142857144L216.54135338345864,147.44674285714285L219.54887218045113,147.08434285714287L222.55639097744358,146.74028571428573L225.5639097744361,146.40548571428573L228.57142857142856,146.0773714285714L231.57894736842107,145.62454285714284L234.58646616541353,145.22751428571428L237.593984962406,144.44391428571427L240.6015037593985,143.5001142857143L243.60902255639098,142.8594L246.61654135338344,142.25879999999998L249.62406015037595,141.80537142857145L252.6315789473684,141.29417142857142L255.63909774436092,138.68494285714286L258.64661654135335,135.54094285714285L261.6541353383459,133.34374285714284L264.6616541353383,131.75202857142858L267.6691729323308,130.5677142857143L270.6766917293233,129.6786857142857L273.6842105263158,128.84211428571427L276.69172932330827,128.12185714285715L279.69924812030075,127.34142857142858L282.70676691729324,126.66317142857143L285.7142857142857,125.92148571428572L288.72180451127815,125.23294285714287L291.7293233082707,124.55802857142858L294.7368421052631,123.93934285714285L297.74436090225566,123.41340000000001L300.7518796992481,122.77551428571428L303.7593984962406,121.9876285714286L306.76691729323306,121.40048571428571L309.77443609022555,120.85620000000002L312.78195488721803,120.32262857142855L315.7894736842105,119.7252857142857L318.796992481203,119.05011428571427L321.8045112781955,118.53668571428572L324.812030075188,117.92802857142858L327.81954887218046,117.1745142857143L330.8270676691729,116.556L333.83458646616543,115.73245714285716L336.84210526315786,115.13374285714286L339.8496240601504,114.61200000000001L342.85714285714283,114.05811428571427L345.8646616541353,113.4533142857143L348.8721804511278,112.94194285714285L351.8796992481203,112.45611428571426L354.8872180451128,112.02231428571429L357.89473684210526,111.44579999999999L360.90225563909775,110.86997142857142L363.90977443609023,110.31282857142855L366.91729323308266,109.69431428571428L369.9248120300752,109.16588571428572L372.93233082706763,108.58577142857142L375.9398496240602,106.60688571428571L378.9473684210526,105.40165714285715L381.9548872180451,104.43908571428572L384.9624060150376,103.6314857142857L387.96992481203006,102.15317142857143L390.97744360902254,100.0428857142857L393.98496240601503,98.83988571428571L396.9924812030075,97.7904L400,97.00045714285714" stroke="#4c78a8" stroke-width="2"/></g><g class="mark-group role-title"><g transform="translate(200,-22)"><path class="background" aria-hidden="true" d="M0,0h0v0h0Z" pointer-events="none"/><g><g class="mark-text role-title-text" role="graphics-symbol" aria-roledescription="title" aria-label="Title text 'No COVID-19 (Pessimistic model)'" pointer-events="none"><text text-anchor="middle" transform="translate(0,10)" font-family="sans-serif" font-size="13px" font-weight="bold" fill="#000" opacity="1">No COVID-19 (Pessimistic model)</text></g></g><path class="foreground" aria-hidden="true" d="" pointer-events="none" display="none"/></g></g></g><path class="foreground" aria-hidden="true" d="" display="none"/></g></g></g><path class="foreground" aria-hidden="true" d="" display="none"/></g></g></g></svg>