<svg xmlns="http://www.w3.org/2000/svg" xmlns:xlink="http://www.w3.org/1999/xlink" version="1.1" class="marks" width="972" height="366" viewBox="0 0 972 366"><rect width="972" height="366" fill="white"/><g fill="none" stroke-miterlimit="10" transform="translate(73,28)"><g class="mark-group role-frame root" role="graphics-object" aria-roledescription="group mark container"><g transform="translate(0,0)"><path class="background" aria-hidden="true" d="M0,0h0v0h0Z"/><g><g class="mark-group role-scope concat_0_group" role="graphics-object" aria-roledescription="group mark container"><g transform="translate(0,0)"><path class="background" aria-hidden="true" d="M0.5,0.5h400v300h-400Z" stroke="#ddd"/><g><g class="mark-group role-axis" role="graphics-symbol" aria-roledescription="axis" aria-label="X-axis for a linear scale with values from 1 to 134"><g transform="translate(0.5,300.5)"><path class="background" aria-hidden="true" d="M0,0h0v0h0Z" pointer-events="none"/><g><g class="mark-rule role-axis-grid" pointer-events="none"><line transform="translate(27,-300)" x2="0" y2="300" stroke="#ddd" stroke-width="1" opacity="1"/><line transform="translate(57,-300)" x2="0" y2="300" stroke="#ddd" stroke-width="1" opacity="1"/><line transform="translate(87,-300)" x2="0" y2="300" stroke="#ddd" stroke-width="1" opacity="1"/><line transform="translate(117,-300)" x2="0" y2="300" stroke="#ddd" stroke-width="1" opacity="1"/><line transform="translate(147,-300)" x2="0" y2="300" stroke="#ddd" stroke-width="1" opacity="1"/><line transform="translate(177,-300)" x2="0" y2="300" stroke="#ddd" stroke-width="1" opacity="1"/><line transform="translate(208,-300)" x2="0" y2="300" stroke="#ddd" stroke-width="1" opacity="1"/><line transform="translate(238,-300)" x2="0" y2="300" stroke="#ddd" stroke-width="1" opacity="1"/><line transform="translate(268,-300)" x2="0" y2="300" stroke="#ddd" stroke-width="1" opacity="1"/><line transform="translate(298,-300)" x2="0" y2="300" stroke="#ddd" stroke-width="1" opacity="1"/><line transform="translate(328,-300)" x2="0" y2="300" stroke="#ddd" stroke-width="1" opacity="1"/><line transform="translate(358,-300)" x2="0" y2="300" stroke="#ddd" stroke-width="1" opacity="1"/><line transform="translate(388,-300)" x2="0" y2="300" stroke="#ddd" stroke-width="1" opacity="1"/></g></g><path class="foreground" aria-hidden="true" d="" pointer-events="none" display="none"/></g></g><g class="mark-group role-axis" role="graphics-symbol" aria-roledescription="axis" aria-label="Y-axis for a linear scale with values from 0 to 2,600,000"><g transform="translate(0.5,0.5)"><path class="background" aria-hidden="true" d="M0,0h0v0h0Z" pointer-events="none"/><g><g class="mark-rule role-axis-grid" pointer-events="none"><line transform="translate(0,300)" x2="400" y2="0" stroke="#ddd" stroke-width="1" opacity="1"/><line transform="translate(0,242)" x2="400" y2="0" stroke="#ddd" stroke-width="1" opacity="1"/><line transform="translate(0,185)" x2="400" y2="0" stroke="#ddd" stroke-width="1" opacity="1"/><line transform="translate(0,127)" x2="400" y2="0" stroke="#ddd" stroke-width="1" opacity="1"/><line transform="translate(0,69)" x2="400" y2="0" stroke="#ddd" stroke-width="1" opacity="1"/><line transform="translate(0,12)" x2="400" y2="0" stroke="#ddd" stroke-width="1" opacity="1"/></g></g><path class="foreground" aria-hidden="true" d="" pointer-events="none" display="none"/></g></g><g class="mark-group role-axis" role="graphics-symbol" aria-roledescription="axis" aria-label="X-axis titled 'Week' for a linear scale with values from 1 to 134"><g transform="translate(0.5,300.5)"><path class="background" aria-hidden="true" d="M0,0h0v0h0Z" pointer-events="none"/><g><g class="mark-rule role-axis-tick" pointer-events="none"><line transform="translate(27,0)" x2="0" y2="5" stroke="#888" stroke-width="1" opacity="1"/><line transform="translate(57,0)" x2="0" y2="5" stroke="#888" stroke-width="1" opacity="1"/><line transform="translate(87,0)" x2="0" y2="5" stroke="#888" stroke-width="1" opacity="1"/><line transform="translate(117,0)" x2="0" y2="5" stroke="#888" stroke-width="1" opacity="1"/><line transform="translate(147,0)" x2="0" y2="5" stroke="#888" stroke-width="1" opacity="1"/><line transform="translate(177,0)" x2="0" y2="5" stroke="#888" stroke-width="1" opacity="1"/><line transform="translate(208,0)" x2="0" y2="5" stroke="#888" stroke-width="1" opacity="1"/><line transform="translate(238,0)" x2="0" y2="5" stroke="#888" stroke-width="1" opacity="1"/><line transform="translate(268,0)" x2="0" y2="5" stroke="#888" stroke-width="1" opacity="1"/><line transform="translate(298,0)" x2="0" y2="5" stroke="#888" stroke-width="1" opacity="1"/><line transform="translate(328,0)" x2="0" y2="5" stroke="#888" stroke-width="1" opacity="1"/><line transform="translate(358,0)" x2="0" y2="5" stroke="#888" stroke-width="1" opacity="1"/><line transform="translate(388,0)" x2="0" y2="5" stroke="#888" stroke-width="1" opacity="1"/></g><g class="mark-text role-axis-label" pointer-events="none"><text text-anchor="middle" transform="translate(27.06766917293233,15)" font-family="sans-serif" font-size="10px" fill="#000" opacity="1">10</text><text text-anchor="middle" transform="translate(57.14285714285714,15)" font-family="sans-serif" font-size="10px" fill="#000" opacity="1">20</text><text text-anchor="middle" transform="translate(87.21804511278195,15)" font-family="sans-serif" font-size="10px" fill="#000" opacity="1">30</text><text text-anchor="middle" transform="translate(117.29323308270676,15)" font-family="sans-serif" font-size="10px" fill="#000" opacity="1">40</text><text text-anchor="middle" transform="translate(147.36842105263156,15)" font-family="sans-serif" font-size="10px" fill="#000" opacity="1">50</text><text text-anchor="middle" transform="translate(177.4436090225564,15)" font-family="sans-serif" font-size="10px" fill="#000" opacity="1">60</text><text text-anchor="middle" transform="translate(207.5187969924812,15)" font-family="sans-serif" font-size="10px" fill="#000" opacity="1">70</text><text text-anchor="middle" transform="translate(237.593984962406,15)" font-family="sans-serif" font-size="10px" fill="#000" opacity="1">80</text><text text-anchor="middle" transform="translate(267.6691729323308,15)" font-family="sans-serif" font-size="10px" fill="#000" opacity="1">90</text><text text-anchor="middle" transform="translate(297.74436090225566,15)" font-family="sans-serif" font-size="10px" fill="#000" opacity="1">100</text><text text-anchor="middle" transform="translate(327.81954887218046,15)" font-family="sans-serif" font-size="10px" fill="#000" opacity="1">110</text><text text-anchor="middle" transform="translate(357.89473684210526,15)" font-family="sans-serif" font-size="10px" fill="#000" opacity="1">120</text><text text-anchor="middle" transform="translate(387.96992481203006,15)" font-family="sans-serif" font-size="10px" fill="#000" opacity="1">130</text></g><g class="mark-rule role-axis-domain" pointer-events="none"><line transform="translate(0,0)" x2="400" y2="0" stroke="#888" stroke-width="1" opacity="1"/></g><g class="mark-text role-axis-title" pointer-events="none"><text text-anchor="middle" transform="translate(200,30)" font-family="sans-serif" font-size="11px" font-weight="bold" fill="#000" opacity="1">Week</text></g></g><path class="foreground" aria-hidden="true" d="" pointer-events="none" display="none"/></g></g><g class="mark-group role-axis" role="graphics-symbol" aria-roledescription="axis" aria-label="Y-axis titled 'Decks Registered' for a linear scale with values from 0 to 2,600,000"><g transform="translate(0.5,0.5)"><path class="background" aria-hidden="true" d="M0,0h0v0h0Z" pointer-events="none"/><g><g class="mark-rule role-axis-tick" pointer-events="none"><line transform="translate(0,300)" x2="-5" y2="0" stroke="#888" stroke-width="1" opacity="1"/><line transform="translate(0,242)" x2="-5" y2="0" stroke="#888" stroke-width="1" opacity="1"/><line transform="translate(0,185)" x2="-5" y2="0" stroke="#888" stroke-width="1" opacity="1"/><line transform="translate(0,127)" x2="-5" y2="0" stroke="#888" stroke-width="1" opacity="1"/><line transform="translate(0,69)" x2="-5" y2="0" stroke="#888" stroke-width="1" opacity="1"/><line transform="translate(0,12)" x2="-5" y2="0" stroke="#888" stroke-width="1" opacity="1"/></g><g class="mark-text role-axis-label" pointer-events="none"><text text-anchor="end" transform="translate(-7,303)" font-family="sans-serif" font-size="10px" fill="#000" opacity="1">0</text><text text-anchor="end" transform="translate(-7,245.30769230769232)" font-family="sans-serif" font-size="10px" fill="#000" opacity="1">500,000</text><text text-anchor="end" transform="translate(-7,187.6153846153846)" font-family="sans-serif" font-size="10px" fill="#000" opacity="1">1,000,000</text><text text-anchor="end" transform="translate(-7,129.92307692307693)" font-family="sans-serif" font-size="10px" fill="#000" opacity="1">1,500,000</text><text text-anchor="end" transform="translate(-7,72.23076923076921)" font-family="sans-serif" font-size="10px" fill="#000" opacity="1">2,000,000</text><text text-anchor="end" transform="translate(-7,14.538461538461531)" font-family="sans-serif" font-size="10px" fill="#000" opacity="1">2,500,000</text></g><g class="mark-rule role-axis-domain" pointer-events="none"><line transform="translate(0,300)" x2="0" y2="-300" stroke="#888" stroke-width="1" opacity="1"/></g><g class="mark-text role-axis-title" pointer-events="none"><text text-anchor="middle" transform="translate(-55.4873046875,150) rotate(-90) translate(0,-2)" font-family="sans-serif" font-size="11px" font-weight="bold" fill="#000" opacity="1">Decks Registered</text></g></g><path class="foreground" aria-hidden="true" d="" pointer-events="none" display="none"/></g></g><g class="mark-area role-mark concat_0_layer_0_marks" role="graphics-symbol" aria-roledescription="area mark container"><path d="M0,288.00482214106484L3.007518796992481,279.716712362684L6.015037593984962,272.34062088043027L9.022556390977442,266.8497361058548L12.030075187969924,260.85766425943643L15.037593984962406,256.8896798229128L18.045112781954884,252.36898241141202L21.052631578947366,248.50694262967264L24.06015037593985,244.49260387985285L27.06766917293233,242.36566746814728L30.075187969924812,239.4352216017469L33.08270676691729,235.52922184309952L36.09022556390977,233.02724090627495L39.097744360902254,230.67404445228357L42.10526315789473,227.93234258492606L45.11278195488722,225.99947951283934L48.1203007518797,224.57301636941213L51.127819548872175,222.81179899976635L54.13533834586466,220.04117576746887L57.14285714285714,217.34850588048766L60.150375939849624,216.57303758429526L63.1578947368421,213.53130201798132L66.16541353383458,211.64028027735313L69.17293233082707,209.86266556684518L72.18045112781954,207.99527072224865L75.18796992481202,206.42207405798106L78.19548872180451,204.15639444721398L81.203007518797,202.7361833710924L84.21052631578947,197.56954834376074L87.21804511278195,193.13470306820443L90.22556390977444,189.31787057699754L93.23308270676691,187.3825809789214L96.2406015037594,182.3095902375652L99.24812030075188,179.3459248859514L102.25563909774435,176.42005997044464L105.26315789473684,174.07162974441596L108.27067669172932,172.06587360922907L111.27819548872179,168.3557179114048L114.28571428571428,168.18678720004374L117.29323308270676,164.68175740424812L120.30075187969925,162.43196310295752L123.30827067669172,160.3834644391854L126.3157894736842,159.470854066856L129.32330827067668,157.02708588141516L132.33082706766916,154.32103960150357L135.33834586466165,152.5702855583044L138.34586466165413,150.3147618332975L141.35338345864662,148.48168314046737L144.36090225563908,146.3932673348477L147.36842105263156,144.59763642634965L150.37593984962405,143.23537220829138L153.38345864661653,139.5187357780061L156.39097744360902,135.8567698219969L159.3984962406015,133.18448196647125L162.406015037594,130.03466716922074L165.41353383458645,127.48133924817357L168.42105263157893,124.86006725841911L171.42857142857142,122.47357740792776L174.4360902255639,119.78666737028577L177.4436090225564,118.52463259359321L180.45112781954887,115.79813603288238L183.45864661654133,113.59073231477794L186.46616541353382,112.73709475538412L189.4736842105263,110.28656631352793L192.4812030075188,107.79819193369067L195.48872180451127,106.08247174573177L198.49624060150376,103.61848999017263L201.50375939849624,102.0499577222622L204.5112781954887,100.82964262994103L207.5187969924812,100.5181184458953L210.52631578947367,99.93347207346379L213.53383458646618,99.69085336653661L216.54135338345864,98.53750098992336L219.54887218045113,97.3728809749142L222.55639097744358,97.58950203523868L225.5639097744361,95.86819088379899L228.57142857142856,95.70239941909136L231.57894736842107,95.61334359434589L234.58646616541353,95.49368118203904L237.593984962406,93.58990683179117L240.6015037593985,92.48354098268767L243.60902255639098,91.84338259120985L246.61654135338344,92.19284684889283L249.62406015037595,90.74120276732623L252.6315789473684,92.30468718424312L255.63909774436092,89.5701786646592L258.64661654135335,86.19736200892196L261.6541353383459,83.31868530753123L264.6616541353383,80.78064850927538L267.6691729323308,79.1711457315553L270.6766917293233,77.27746474205843L273.6842105263158,75.71248641819012L276.69172932330827,74.07417639032121L279.69924812030075,72.86962242144564L282.70676691729324,71.67671733469908L285.7142857142857,70.60510257046181L288.72180451127815,69.03299480529019L291.7293233082707,68.14796865835503L294.7368421052631,67.91234735938136L297.74436090225566,66.50534941766381L300.7518796992481,65.79940406479304L303.7593984962406,64.8964587304205L306.76691729323306,63.93136263114687L309.77443609022555,63.01747710841531L312.78195488721803,62.17013584551761L315.7894736842105,61.367147448732176L318.796992481203,60.444968135644785L321.8045112781955,60.12691673343574L324.812030075188,59.201381785535034L327.81954887218046,59.76464782087515L330.8270676691729,57.49440766613381L333.83458646616543,56.74732765689045L336.84210526315786,56.1312775424624L339.8496240601504,55.45543996843747L342.85714285714283,54.355086608169344L345.8646616541353,54.255309329571745L348.8721804511278,53.22705371169071L351.8796992481203,53.01178160964134L354.8872180451128,51.70234570747613L357.89473684210526,50.931330159835994L360.90225563909775,50.63868012724836L363.90977443609023,49.84330538862615L366.91729323308266,48.35966170426658L369.9248120300752,48.11185203347061L372.93233082706763,47.228199852739L375.9398496240602,46.21572231705288L378.9473684210526,45.36374008968272L381.9548872180451,42.511234226246955L384.9624060150376,40.58966218047807L387.96992481203006,38.72314848727979L390.97744360902254,37.662827355519426L393.98496240601503,35.79995032982478L396.9924812030075,33.024921555867934L400,31.987693312510757L400,19.963351909484707L396.9924812030075,22.894870554288627L393.98496240601503,23.85827177974277L390.97744360902254,26.376891158834294L387.96992481203006,27.365456054439996L384.9624060150376,30.65303450728164L381.9548872180451,32.613640637745945L378.9473684210526,36.13923580123958L375.9398496240602,36.24763234845718L372.93233082706763,37.02197989583903L369.9248120300752,37.41571300341392L366.91729323308266,38.07104580195577L363.90977443609023,39.06177841097917L360.90225563909775,40.47962591850672L357.89473684210526,41.375169582764336L354.8872180451128,40.75719314961326L351.8796992481203,42.84428808242878L348.8721804511278,42.893014883854605L345.8646616541353,43.487101310112116L342.85714285714283,44.66282214965691L339.8496240601504,45.356464620052606L336.84210526315786,46.45192167516154L333.83458646616543,46.243164764084895L330.8270676691729,47.36105699947639L327.81954887218046,48.529396946154954L324.812030075188,48.23770006764392L321.8045112781955,50.41250508431673L318.796992481203,50.45058810740202L315.7894736842105,51.204819001859846L312.78195488721803,51.94011620939195L309.77443609022555,52.77057175990387L306.76691729323306,53.73827064960523L303.7593984962406,54.22421312054826L300.7518796992481,55.403798189083844L297.74436090225566,56.79817683252142L294.7368421052631,57.26924325816749L291.7293233082707,58.375786147870336L288.72180451127815,58.38908570627137L285.7142857142857,60.64440076454599L282.70676691729324,61.602602004811125L279.69924812030075,63.66184584766993L276.69172932330827,64.34005980283632L273.6842105263158,66.18411768096081L270.6766917293233,67.18631844289895L267.6691729323308,68.63648354469616L264.6616541353383,71.69667545053717L261.6541353383459,72.43806694883767L258.64661654135335,75.12445383569268L255.63909774436092,78.93117962951874L252.6315789473684,80.19603021221816L249.62406015037595,81.06893584874672L246.61654135338344,80.5146998290076L243.60902255639098,81.93588446024135L240.6015037593985,81.92913117207117L237.593984962406,84.15422517689099L234.58646616541353,84.0212823841232L231.57894736842107,85.37307176039293L228.57142857142856,86.59022382767265L225.5639097744361,86.53634367754883L222.55639097744358,86.94933968106282L219.54887218045113,88.0462425969462L216.54135338345864,88.96016127279822L213.53383458646618,89.44152616878523L210.52631578947367,90.07500752653357L207.5187969924812,90.86708217719108L204.5112781954887,90.96792998458287L201.50375939849624,92.6101084290888L198.49624060150376,94.87528398855089L195.48872180451127,95.92659161349683L192.4812030075188,98.43925541439998L189.4736842105263,100.47053757008185L186.46616541353382,102.05789100253955L183.45864661654133,104.15737519997931L180.45112781954887,105.84513579308711L177.4436090225564,107.64294666414082L174.4360902255639,109.86475146271111L171.42857142857142,112.36210627154082L168.42105263157893,115.65712598989919L165.41353383458645,117.69050348024449L162.406015037594,120.86582144874697L159.3984962406015,123.64857194655265L156.39097744360902,126.52580012263324L153.38345864661653,128.94132041988473L150.37593984962405,132.88613963570242L147.36842105263156,134.14543874044367L144.36090225563908,135.9835840274909L141.35338345864662,138.81482111192267L138.34586466165413,140.22398018191566L135.33834586466165,142.46236296158196L132.33082706766916,144.46687588724166L129.32330827067668,146.15048015087658L126.3157894736842,148.9843514765675L123.30827067669172,150.32236077882422L120.30075187969925,151.63816906969L117.29323308270676,153.45415202996705L114.28571428571428,156.65515935658976L111.27819548872179,159.0429019680903L108.27067669172932,161.49011003067716L105.26315789473684,163.53090962740436L102.25563909774435,166.7499198422557L99.24812030075188,169.90917677564985L96.2406015037594,172.48678423263905L93.23308270676691,175.72071527909844L90.22556390977444,179.76407567942374L87.21804511278195,183.45415215840615L84.21052631578947,187.60207885416622L81.203007518797,192.22057876143265L78.19548872180451,194.427938829356L75.18796992481202,195.92219821098834L72.18045112781954,198.19399631187378L69.17293233082707,198.45249712500723L66.16541353383458,202.27784275969904L63.1578947368421,202.54004756244706L60.150375939849624,204.6575297529117L57.14285714285714,208.08414510264177L54.13533834586466,209.62579938396388L51.127819548872175,211.58955537646767L48.1203007518797,213.93618992386615L45.11278195488722,216.0874488394454L42.10526315789473,218.57000380528413L39.097744360902254,220.26408327472473L36.09022556390977,222.76350739877506L33.08270676691729,225.27069383352492L30.075187969924812,229.13033506819554L27.06766917293233,231.99938086924803L24.06015037593985,235.6950453537642L21.052631578947366,238.16007650243907L18.045112781954884,242.1600012103351L15.037593984962406,246.34140102610306L12.030075187969924,252.08196355524532L9.022556390977442,256.26844375620624L6.015037593984962,262.04527698632614L3.007518796992481,270.0248588353052L0,277.66999295164175Z" fill="#333333" opacity="0.2"/></g><g class="mark-line role-mark concat_0_layer_1_marks" role="graphics-symbol" aria-roledescription="line mark container"><path d="M0,282.71505044680623L3.007518796992481,274.8263792662338L6.015037593984962,267.8300727307367L9.022556390977442,261.8145916016872L12.030075187969924,256.4240302586775L15.037593984962406,251.66914686769533L18.045112781954884,247.38778541652073L21.052631578947366,243.54020010750745L24.06015037593985,240.00297155657694L27.06766917293233,236.73401817228554L30.075187969924812,233.7519976247974L33.08270676691729,230.96224529134557L36.09022556390977,228.27935999324038L39.097744360902254,225.81127253435147L42.10526315789473,223.4239228733616L45.11278195488722,221.17417234843145L48.1203007518797,218.8946580518734L51.127819548872175,216.78404138519227L54.13533834586466,214.70546075210797L57.14285714285714,212.6909380662929L60.150375939849624,210.7210846821792L63.1578947368421,208.73971265020123L66.16541353383458,206.82092937580344L69.17293233082707,204.88938904466227L72.18045112781954,203.04923502201376L75.18796992481202,201.17522974247467L78.19548872180451,199.32074028176163L81.203007518797,197.43941611747405L84.21052631578947,192.6173658526085L87.21804511278195,188.245981814744L90.22556390977444,184.27771964457284L93.23308270676691,180.70068459251095L96.2406015037594,177.43217405643682L99.24812030075188,174.35433682574376L102.25563909774435,171.5420111747787L105.26315789473684,168.85718526783984L108.27067669172932,166.35214915572257L111.27819548872179,163.96109603926968L114.28571428571428,161.63169388493785L117.29323308270676,159.48278953790032L120.30075187969925,157.34328493080656L123.30827067669172,155.2439402035833L126.3157894736842,153.1514269671383L129.32330827067668,151.1772350609511L132.33082706766916,149.20179638908485L135.33834586466165,147.26265742822477L138.34586466165413,145.40224501885558L141.35338345864662,143.54606373654147L144.36090225563908,141.62422983247336L147.36842105263156,139.79616380813232L150.37593984962405,137.9538392264095L153.38345864661653,134.3870049958614L156.39097744360902,131.12310881692278L159.3984962406015,128.1236742098136L162.406015037594,125.34958305774396L165.41353383458645,122.69857799651744L168.42105263157893,120.22633011243201L171.42857142857142,117.78070993255263L174.4360902255639,115.51554923997067L177.4436090225564,113.30217309016525L180.45112781954887,111.16861749345577L183.45864661654133,109.04969521053545L186.46616541353382,107.09204974871213L189.4736842105263,105.0460793510496L192.4812030075188,103.03872931422468L195.48872180451127,101.17250843425846L198.49624060150376,99.27512047077069L201.50375939849624,97.3889714815826L204.5112781954887,96.63387726185243L207.5187969924812,95.87613899590899L210.52631578947367,95.13284063215981L213.53383458646618,94.40624538611726L216.54135338345864,93.68762016091951L219.54887218045113,92.95729264072146L222.55639097744358,92.1904283913444L225.5639097744361,91.52808253578497L228.57142857142856,90.78382753183304L231.57894736842107,90.02509250359583L234.58646616541353,89.302440769628L237.593984962406,88.60281811062842L240.6015037593985,87.83823140127082L243.60902255639098,87.1077296162155L246.61654135338344,86.39026608477413L249.62406015037595,85.70195656432398L252.6315789473684,84.9214579926677L255.63909774436092,84.28260128815592L258.64661654135335,81.21435466740479L261.6541353383459,78.6573561320704L264.6616541353383,76.32880981023388L267.6691729323308,74.29553164590665L270.6766917293233,72.45802983224947L273.6842105263158,70.80794784051005L276.69172932330827,69.2834473558257L279.69924812030075,67.94607221639052L282.70676691729324,66.70338137553705L285.7142857142857,65.53502863565359L288.72180451127815,64.38777415694646L291.7293233082707,63.32397234337596L294.7368421052631,62.40830437536186L297.74436090225566,61.43051002842529L300.7518796992481,60.534623494779424L303.7593984962406,59.68198912177931L306.76691729323306,58.78451115697126L309.77443609022555,57.992734999541184L312.78195488721803,57.20554729790592L315.7894736842105,56.430133300656124L318.796992481203,55.60185274558219L321.8045112781955,54.80933489842871L324.812030075188,54.043413906137395L327.81954887218046,53.335288261139546L330.8270676691729,52.55605564464953L333.83458646616543,51.82182503225681L336.84210526315786,51.055376052742055L339.8496240601504,50.35636813356682L342.85714285714283,49.56087977476694L345.8646616541353,48.8837075094022L348.8721804511278,48.13824459824374L351.8796992481203,47.430234810633245L354.8872180451128,46.69544424685456L357.89473684210526,45.94070667644573L360.90225563909775,45.2470930968368L363.90977443609023,44.51554568819016L366.91729323308266,43.8131567425878L369.9248120300752,43.05328954464337L372.93233082706763,42.38175484252882L375.9398496240602,41.599987224346144L378.9473684210526,40.90898034004182L381.9548872180451,38.03320714977589L384.9624060150376,35.502800472009774L387.96992481203006,33.295112904879176L390.97744360902254,31.275447666345478L393.98496240601503,29.52803777045063L396.9924812030075,27.944969364677174L400,26.470197674395234" stroke="#333333" stroke-width="2" opacity="0.7"/></g><g class="mark-line role-mark concat_0_layer_2_marks" role="graphics-symbol" aria-roledescription="line mark container"><path d="M0,281.76738461538463L3.007518796992481,274.7615769230769L6.015037593984962,269.07392307692305L9.022556390977442,264.01211538461536L12.030075187969924,258.681L15.037593984962406,252.64499999999998L18.045112781954884,248.17603846153847L21.052631578947366,244.06926923076924L24.06015037593985,240.59134615384613L27.06766917293233,237.4059230769231L30.075187969924812,234.53192307692308L33.08270676691729,232.12246153846155L36.09022556390977,229.2920769230769L39.097744360902254,226.41842307692306L42.10526315789473,223.68046153846151L45.11278195488722,221.21538461538458L48.1203007518797,218.6443846153846L51.127819548872175,216.15819230769233L54.13533834586466,213.83100000000002L57.14285714285714,211.67457692307693L60.150375939849624,209.8813846153846L63.1578947368421,208.11450000000002L66.16541353383458,206.697L69.17293233082707,205.36130769230766L72.18045112781954,204.05826923076924L75.18796992481202,202.83288461538461L78.19548872180451,201.69715384615384L81.203007518797,195.23942307692306L84.21052631578947,189.22603846153848L87.21804511278195,185.34807692307695L90.22556390977444,181.9223076923077L93.23308270676691,179.00653846153847L96.2406015037594,176.52334615384615L99.24812030075188,174.0871153846154L102.25563909774435,171.67211538461538L105.26315789473684,169.20426923076926L108.27067669172932,166.15973076923078L111.27819548872179,163.34976923076923L114.28571428571428,161.03469230769232L117.29323308270676,158.84907692307692L120.30075187969925,156.70165384615385L123.30827067669172,154.9118076923077L126.3157894736842,153.28546153846153L129.32330827067668,151.72096153846152L132.33082706766916,150.26007692307695L135.33834586466165,148.73942307692306L138.34586466165413,147.30034615384616L141.35338345864662,145.90592307692307L144.36090225563908,144.40823076923076L147.36842105263156,142.9296923076923L150.37593984962405,138.04961538461538L153.38345864661653,132.5315769230769L156.39097744360902,129.1448076923077L159.3984962406015,126.6785769230769L162.406015037594,123.59607692307692L165.41353383458645,121.04053846153845L168.42105263157893,118.76734615384615L171.42857142857142,115.92438461538462L174.4360902255639,113.74684615384616L177.4436090225564,111.69692307692306L180.45112781954887,109.75661538461537L183.45864661654133,107.90423076923076L186.46616541353382,106.01411538461537L189.4736842105263,104.34311538461539L192.4812030075188,102.24542307692309L195.48872180451127,100.79457692307693L198.49624060150376,99.42496153846152L201.50375939849624,98.01842307692309L204.5112781954887,96.91592307692308L207.5187969924812,96.1348846153846L210.52631578947367,95.57573076923076L213.53383458646618,95.09676923076924L216.54135338345864,94.63984615384615L219.54887218045113,94.152L222.55639097744358,93.68884615384616L225.5639097744361,93.23815384615386L228.57142857142856,92.79646153846153L231.57894736842107,92.18688461538463L234.58646616541353,91.65242307692307L237.593984962406,90.59757692307694L240.6015037593985,89.3270769230769L243.60902255639098,88.46457692307692L246.61654135338344,87.65607692307692L249.62406015037595,87.04569230769235L252.6315789473684,86.35753846153845L255.63909774436092,82.8451153846154L258.64661654135335,78.61280769230768L261.6541353383459,75.65503846153845L264.6616541353383,73.51234615384617L267.6691729323308,71.91807692307694L270.6766917293233,70.72130769230768L273.6842105263158,69.59515384615385L276.69172932330827,68.62557692307692L279.69924812030075,67.57499999999999L282.70676691729324,66.66196153846154L285.7142857142857,65.66353846153848L288.72180451127815,64.73665384615386L291.7293233082707,63.82811538461538L294.7368421052631,62.99526923076924L297.74436090225566,62.287269230769226L300.7518796992481,61.428576923076925L303.7593984962406,60.36796153846158L306.76691729323306,59.577576923076926L309.77443609022555,58.844884615384615L312.78195488721803,58.1266153846154L315.7894736842105,57.3225L318.796992481203,56.4136153846154L321.8045112781955,55.72246153846155L324.812030075188,54.9031153846154L327.81954887218046,53.88876923076923L330.8270676691729,53.05615384615384L333.83458646616543,51.94753846153844L336.84210526315786,51.14157692307691L339.8496240601504,50.43923076923076L342.85714285714283,49.69361538461538L345.8646616541353,48.879461538461555L348.8721804511278,48.191076923076935L351.8796992481203,47.53707692307692L354.8872180451128,46.95311538461537L357.89473684210526,46.17703846153848L360.90225563909775,45.40188461538462L363.90977443609023,44.65188461538463L366.91729323308266,43.819269230769244L369.9248120300752,43.10792307692306L372.93233082706763,42.32700000000001L375.9398496240602,39.66311538461538L378.9473684210526,38.04069230769231L381.9548872180451,36.74492307692307L384.9624060150376,35.65776923076923L387.96992481203006,33.667730769230765L390.97744360902254,30.82696153846153L393.98496240601503,29.20753846153845L396.9924812030075,27.794769230769244L400,26.731384615384602" stroke="#4c78a8" stroke-width="2"/></g><g class="mark-group role-title"><g transform="translate(200,-17)"><path class="background" aria-hidden="true" d="M0,0h0v0h0Z" pointer-events="none"/><g><g class="mark-text role-title-text" role="graphics-symbol" aria-roledescription="title" aria-label="Title text 'Final model with COVID-19'" pointer-events="none"><text text-anchor="middle" transform="translate(0,10)" font-family="sans-serif" font-size="13px" font-weight="bold" fill="#000" opacity="1">Final model with COVID-19</text></g></g><path class="foreground" aria-hidden="true" d="" pointer-events="none" display="none"/></g></g></g><path class="foreground" aria-hidden="true" d="" display="none"/></g></g><g class="mark-group role-scope concat_1_group" role="graphics-object" aria-roledescription="group mark container"><g transform="translate(491,0)"><path class="background" aria-hidden="true" d="M0.5,0.5h400v300h-400Z" stroke="#ddd"/><g><g class="mark-group role-axis" role="graphics-symbol" aria-roledescription="axis" aria-label="X-axis for a linear scale with values from 1 to 134"><g transform="translate(0.5,300.5)"><path class="background" aria-hidden="true" d="M0,0h0v0h0Z" pointer-events="none"/><g><g class="mark-rule role-axis-grid" pointer-events="none"><line transform="translate(27,-300)" x2="0" y2="300" stroke="#ddd" stroke-width="1" opacity="1"/><line transform="translate(57,-300)" x2="0" y2="300" stroke="#ddd" stroke-width="1" opacity="1"/><line transform="translate(87,-300)" x2="0" y2="300" stroke="#ddd" stroke-width="1" opacity="1"/><line transform="translate(117,-300)" x2="0" y2="300" stroke="#ddd" stroke-width="1" opacity="1"/><line transform="translate(147,-300)" x2="0" y2="300" stroke="#ddd" stroke-width="1" opacity="1"/><line transform="translate(177,-300)" x2="0" y2="300" stroke="#ddd" stroke-width="1" opacity="1"/><line transform="translate(208,-300)" x2="0" y2="300" stroke="#ddd" stroke-width="1" opacity="1"/><line transform="translate(238,-300)" x2="0" y2="300" stroke="#ddd" stroke-width="1" opacity="1"/><line transform="translate(268,-300)" x2="0" y2="300" stroke="#ddd" stroke-width="1" opacity="1"/><line transform="translate(298,-300)" x2="0" y2="300" stroke="#ddd" stroke-width="1" opacity="1"/><line transform="translate(328,-300)" x2="0" y2="300" stroke="#ddd" stroke-width="1" opacity="1"/><line transform="translate(358,-300)" x2="0" y2="300" stroke="#ddd" stroke-width="1" opacity="1"/><line transform="translate(388,-300)" x2="0" y2="300" stroke="#ddd" stroke-width="1" opacity="1"/></g></g><path class="foreground" aria-hidden="true" d="" pointer-events="none" display="none"/></g></g><g class="mark-group role-axis" role="graphics-symbol" aria-roledescription="axis" aria-label="Y-axis for a linear scale with values from 0 to 4,000,000"><g transform="translate(0.5,0.5)"><path class="background" aria-hidden="true" d="M0,0h0v0h0Z" pointer-events="none"/><g><g class="mark-rule role-axis-grid" pointer-events="none"><line transform="translate(0,300)" x2="400" y2="0" stroke="#ddd" stroke-width="1" opacity="1"/><line transform="translate(0,263)" x2="400" y2="0" stroke="#ddd" stroke-width="1" opacity="1"/><line transform="translate(0,225)" x2="400" y2="0" stroke="#ddd" stroke-width="1" opacity="1"/><line transform="translate(0,188)" x2="400" y2="0" stroke="#ddd" stroke-width="1" opacity="1"/><line transform="translate(0,150)" x2="400" y2="0" stroke="#ddd" stroke-width="1" opacity="1"/><line transform="translate(0,113)" x2="400" y2="0" stroke="#ddd" stroke-width="1" opacity="1"/><line transform="translate(0,75)" x2="400" y2="0" stroke="#ddd" stroke-width="1" opacity="1"/><line transform="translate(0,38)" x2="400" y2="0" stroke="#ddd" stroke-width="1" opacity="1"/><line transform="translate(0,0)" x2="400" y2="0" stroke="#ddd" stroke-width="1" opacity="1"/></g></g><path class="foreground" aria-hidden="true" d="" pointer-events="none" display="none"/></g></g><g class="mark-group role-axis" role="graphics-symbol" aria-roledescription="axis" aria-label="X-axis titled 'Week' for a linear scale with values from 1 to 134"><g transform="translate(0.5,300.5)"><path class="background" aria-hidden="true" d="M0,0h0v0h0Z" pointer-events="none"/><g><g class="mark-rule role-axis-tick" pointer-events="none"><line transform="translate(27,0)" x2="0" y2="5" stroke="#888" stroke-width="1" opacity="1"/><line transform="translate(57,0)" x2="0" y2="5" stroke="#888" stroke-width="1" opacity="1"/><line transform="translate(87,0)" x2="0" y2="5" stroke="#888" stroke-width="1" opacity="1"/><line transform="translate(117,0)" x2="0" y2="5" stroke="#888" stroke-width="1" opacity="1"/><line transform="translate(147,0)" x2="0" y2="5" stroke="#888" stroke-width="1" opacity="1"/><line transform="translate(177,0)" x2="0" y2="5" stroke="#888" stroke-width="1" opacity="1"/><line transform="translate(208,0)" x2="0" y2="5" stroke="#888" stroke-width="1" opacity="1"/><line transform="translate(238,0)" x2="0" y2="5" stroke="#888" stroke-width="1" opacity="1"/><line transform="translate(268,0)" x2="0" y2="5" stroke="#888" stroke-width="1" opacity="1"/><line transform="translate(298,0)" x2="0" y2="5" stroke="#888" stroke-width="1" opacity="1"/><line transform="translate(328,0)" x2="0" y2="5" stroke="#888" stroke-width="1" opacity="1"/><line transform="translate(358,0)" x2="0" y2="5" stroke="#888" stroke-width="1" opacity="1"/><line transform="translate(388,0)" x2="0" y2="5" stroke="#888" stroke-width="1" opacity="1"/></g><g class="mark-text role-axis-label" pointer-events="none"><text text-anchor="middle" transform="translate(27.06766917293233,15)" font-family="sans-serif" font-size="10px" fill="#000" opacity="1">10</text><text text-anchor="middle" transform="translate(57.14285714285714,15)" font-family="sans-serif" font-size="10px" fill="#000" opacity="1">20</text><text text-anchor="middle" transform="translate(87.21804511278195,15)" font-family="sans-serif" font-size="10px" fill="#000" opacity="1">30</text><text text-anchor="middle" transform="translate(117.29323308270676,15)" font-family="sans-serif" font-size="10px" fill="#000" opacity="1">40</text><text text-anchor="middle" transform="translate(147.36842105263156,15)" font-family="sans-serif" font-size="10px" fill="#000" opacity="1">50</text><text text-anchor="middle" transform="translate(177.4436090225564,15)" font-family="sans-serif" font-size="10px" fill="#000" opacity="1">60</text><text text-anchor="middle" transform="translate(207.5187969924812,15)" font-family="sans-serif" font-size="10px" fill="#000" opacity="1">70</text><text text-anchor="middle" transform="translate(237.593984962406,15)" font-family="sans-serif" font-size="10px" fill="#000" opacity="1">80</text><text text-anchor="middle" transform="translate(267.6691729323308,15)" font-family="sans-serif" font-size="10px" fill="#000" opacity="1">90</text><text text-anchor="middle" transform="translate(297.74436090225566,15)" font-family="sans-serif" font-size="10px" fill="#000" opacity="1">100</text><text text-anchor="middle" transform="translate(327.81954887218046,15)" font-family="sans-serif" font-size="10px" fill="#000" opacity="1">110</text><text text-anchor="middle" transform="translate(357.89473684210526,15)" font-family="sans-serif" font-size="10px" fill="#000" opacity="1">120</text><text text-anchor="middle" transform="translate(387.96992481203006,15)" font-family="sans-serif" font-size="10px" fill="#000" opacity="1">130</text></g><g class="mark-rule role-axis-domain" pointer-events="none"><line transform="translate(0,0)" x2="400" y2="0" stroke="#888" stroke-width="1" opacity="1"/></g><g class="mark-text role-axis-title" pointer-events="none"><text text-anchor="middle" transform="translate(200,30)" font-family="sans-serif" font-size="11px" font-weight="bold" fill="#000" opacity="1">Week</text></g></g><path class="foreground" aria-hidden="true" d="" pointer-events="none" display="none"/></g></g><g class="mark-group role-axis" role="graphics-symbol" aria-roledescription="axis" aria-label="Y-axis titled 'Decks Registered' for a linear scale with values from 0 to 4,000,000"><g transform="translate(0.5,0.5)"><path class="background" aria-hidden="true" d="M0,0h0v0h0Z" pointer-events="none"/><g><g class="mark-rule role-axis-tick" pointer-events="none"><line transform="translate(0,300)" x2="-5" y2="0" stroke="#888" stroke-width="1" opacity="1"/><line transform="translate(0,263)" x2="-5" y2="0" stroke="#888" stroke-width="1" opacity="1"/><line transform="translate(0,225)" x2="-5" y2="0" stroke="#888" stroke-width="1" opacity="1"/><line transform="translate(0,188)" x2="-5" y2="0" stroke="#888" stroke-width="1" opacity="1"/><line transform="translate(0,150)" x2="-5" y2="0" stroke="#888" stroke-width="1" opacity="1"/><line transform="translate(0,113)" x2="-5" y2="0" stroke="#888" stroke-width="1" opacity="1"/><line transform="translate(0,75)" x2="-5" y2="0" stroke="#888" stroke-width="1" opacity="1"/><line transform="translate(0,38)" x2="-5" y2="0" stroke="#888" stroke-width="1" opacity="1"/><line transform="translate(0,0)" x2="-5" y2="0" stroke="#888" stroke-width="1" opacity="1"/></g><g class="mark-text role-axis-label" pointer-events="none"><text text-anchor="end" transform="translate(-7,303)" font-family="sans-serif" font-size="10px" fill="#000" opacity="1">0</text><text text-anchor="end" transform="translate(-7,265.5)" font-family="sans-serif" font-size="10px" fill="#000" opacity="1">500,000</text><text text-anchor="end" transform="translate(-7,228)" font-family="sans-serif" font-size="10px" fill="#000" opacity="1">1,000,000</text><text text-anchor="end" transform="translate(-7,190.5)" font-family="sans-serif" font-size="10px" fill="#000" opacity="1">1,500,000</text><text text-anchor="end" transform="translate(-7,153)" font-family="sans-serif" font-size="10px" fill="#000" opacity="1">2,000,000</text><text text-anchor="end" transform="translate(-7,115.5)" font-family="sans-serif" font-size="10px" fill="#000" opacity="1">2,500,000</text><text text-anchor="end" transform="translate(-7,78)" font-family="sans-serif" font-size="10px" fill="#000" opacity="1">3,000,000</text><text text-anchor="end" transform="translate(-7,40.5)" font-family="sans-serif" font-size="10px" fill="#000" opacity="1">3,500,000</text><text text-anchor="end" transform="translate(-7,3)" font-family="sans-serif" font-size="10px" fill="#000" opacity="1">4,000,000</text></g><g class="mark-rule role-axis-domain" pointer-events="none"><line transform="translate(0,300)" x2="0" y2="-300" stroke="#888" stroke-width="1" opacity="1"/></g><g class="mark-text role-axis-title" pointer-events="none"><text text-anchor="middle" transform="translate(-55.4873046875,150) rotate(-90) translate(0,-2)" font-family="sans-serif" font-size="11px" font-weight="bold" fill="#000" opacity="1">Decks Registered</text></g></g><path class="foreground" aria-hidden="true" d="" pointer-events="none" display="none"/></g></g><g class="mark-area role-mark concat_1_layer_0_marks" role="graphics-symbol" aria-roledescription="area mark container"><path d="M0,292.7097335141812L3.007518796992481,286.60622486824013L6.015037593984962,282.0637329543696L9.022556390977442,278.0631243395911L12.030075187969924,275.992196939839L15.037593984962406,272.56446551551295L18.045112781954884,269.0901192133436L21.052631578947366,266.1662548051412L24.06015037593985,264.47570853389124L27.06766917293233,262.08600438161415L30.075187969924812,260.6230055400846L33.08270676691729,258.2109920495738L36.09022556390977,256.9275150024157L39.097744360902254,255.62038643716994L42.10526315789473,253.62967053750563L45.11278195488722,252.15042414199866L48.1203007518797,250.1416427719739L51.127819548872175,249.1424646548397L54.13533834586466,247.7963788455524L57.14285714285714,246.52418005906551L60.150375939849624,245.07968355170308L63.1578947368421,243.98814629037338L66.16541353383458,242.77606154745553L69.17293233082707,241.547034421931L72.18045112781954,239.95423972506748L75.18796992481202,239.41489124444718L78.19548872180451,238.11928083868705L81.203007518797,236.663255388336L84.21052631578947,233.15848013995108L87.21804511278195,230.57442083331966L90.22556390977444,228.11772944791244L93.23308270676691,225.86282714237947L96.2406015037594,224.06719772627414L99.24812030075188,221.300996265568L102.25563909774435,219.5316499019022L105.26315789473684,218.25023199794697L108.27067669172932,216.31640909514368L111.27819548872179,214.43504363395306L114.28571428571428,213.3499643918147L117.29323308270676,211.73404427340796L120.30075187969925,210.3429404787953L123.30827067669172,209.16015178436942L126.3157894736842,208.26227986096174L129.32330827067668,206.794365063646L132.33082706766916,205.11763062415466L135.33834586466165,203.92617169205909L138.34586466165413,202.66925228258708L141.35338345864662,202.1198239659252L144.36090225563908,201.2951984820491L147.36842105263156,199.08358663118463L150.37593984962405,197.8545504293378L153.38345864661653,195.65191461965765L156.39097744360902,193.27786165363116L159.3984962406015,191.72700176308027L162.406015037594,189.46066737765972L165.41353383458645,187.6997842140457L168.42105263157893,186.40386754008898L171.42857142857142,185.41653884096564L174.4360902255639,183.15977062933828L177.4436090225564,182.61466601267165L180.45112781954887,180.74538769954373L183.45864661654133,179.53557053863187L186.46616541353382,177.6723859032285L189.4736842105263,176.63483839789868L192.4812030075188,175.16381841365882L195.48872180451127,174.2630083111007L198.49624060150376,172.53721062006088L201.50375939849624,171.5349571072601L204.5112781954887,170.45079750155355L207.5187969924812,169.5010550088354L210.52631578947367,167.97554925507873L213.53383458646618,166.95969500052001L216.54135338345864,165.78048966962996L219.54887218045113,164.21635710544302L222.55639097744358,163.02599934062715L225.5639097744361,161.99818248456432L228.57142857142856,161.29917701986673L231.57894736842107,159.92933282157352L234.58646616541353,159.4107879997955L237.593984962406,157.46857398694567L240.6015037593985,156.8204406213173L243.60902255639098,155.83818105182695L246.61654135338344,154.45731529987182L249.62406015037595,153.90849385811507L252.6315789473684,152.10919311373647L255.63909774436092,150.97414023434987L258.64661654135335,147.81916391482892L261.6541353383459,143.4338152364171L264.6616541353383,140.92053657805283L267.6691729323308,138.67627473763397L270.6766917293233,136.23480876867055L273.6842105263158,133.62085265825468L276.69172932330827,131.73054077540328L279.69924812030075,129.82036814460503L282.70676691729324,129.1013089418966L285.7142857142857,125.70971227060306L288.72180451127815,126.1967435192339L291.7293233082707,123.14879663158115L294.7368421052631,121.5472836377122L297.74436090225566,120.6054575052707L300.7518796992481,119.27409566217739L303.7593984962406,117.94573881976837L306.76691729323306,117.20251050093036L309.77443609022555,115.3554442242015L312.78195488721803,115.55586636352285L315.7894736842105,113.32318514775426L318.796992481203,112.74526078977328L321.8045112781955,110.31514958574789L324.812030075188,109.21955170569402L327.81954887218046,109.13408474891129L330.8270676691729,107.96746709625758L333.83458646616543,107.66242216631689L336.84210526315786,105.57036317856561L339.8496240601504,105.3607393235027L342.85714285714283,103.85017213415382L345.8646616541353,103.35576086109677L348.8721804511278,101.02970700022975L351.8796992481203,102.04464619656663L354.8872180451128,99.60819349900886L357.89473684210526,97.97845169159399L360.90225563909775,97.73848698384646L363.90977443609023,96.70530995128351L366.91729323308266,96.45228838035325L369.9248120300752,93.96774418317784L372.93233082706763,94.18977062789308L375.9398496240602,93.65584338214697L378.9473684210526,90.77467278130982L381.9548872180451,88.18412690655481L384.9624060150376,84.53626349593799L387.96992481203006,82.46979731272498L390.97744360902254,79.94020517341977L393.98496240601503,77.65649993762965L396.9924812030075,76.20770960897953L400,73.80964257174458L400,35.7070467041355L396.9924812030075,38.13151196911504L393.98496240601503,41.9976776511614L390.97744360902254,45.65014654247499L387.96992481203006,50.74956675244577L384.9624060150376,52.000499383282595L381.9548872180451,59.69163099049012L378.9473684210526,64.90221857749876L375.9398496240602,67.10168195556034L372.93233082706763,67.99469959686304L369.9248120300752,68.73570843571972L366.91729323308266,70.98634042016843L363.90977443609023,70.77073940511744L360.90225563909775,72.7479900576833L357.89473684210526,73.72094190581592L354.8872180451128,75.55812688938812L351.8796992481203,76.19514214460786L348.8721804511278,78.36106163907864L345.8646616541353,78.78094546604308L342.85714285714283,79.64481535918522L339.8496240601504,82.51718433075781L336.84210526315786,81.54284325617091L333.83458646616543,84.65612219783563L330.8270676691729,84.29594715198814L327.81954887218046,85.4871044396786L324.812030075188,87.20417067499882L321.8045112781955,87.15626156669796L318.796992481203,90.94904656743078L315.7894736842105,91.14262913444631L312.78195488721803,92.63739893615414L309.77443609022555,93.63926448023865L306.76691729323306,96.18258028557297L303.7593984962406,96.14537895950099L300.7518796992481,99.54393591438074L297.74436090225566,101.42270281456321L294.7368421052631,101.68048715643678L291.7293233082707,101.81651273525614L288.72180451127815,104.95997598286135L285.7142857142857,106.64414970747582L282.70676691729324,109.4047430453722L279.69924812030075,112.51018382030492L276.69172932330827,114.88652872786797L273.6842105263158,116.59157472583105L270.6766917293233,120.1836462688136L267.6691729323308,124.54839371092486L264.6616541353383,127.9454407655743L261.6541353383459,132.27400504375828L258.64661654135335,137.53774603614085L255.63909774436092,143.43659147545173L252.6315789473684,144.54993383527324L249.62406015037595,145.4448763702468L246.61654135338344,146.78001923643347L243.60902255639098,148.26970579189842L240.6015037593985,149.63826525035154L237.593984962406,150.530941822287L234.58646616541353,150.89950942519872L231.57894736842107,151.94298874826714L228.57142857142856,154.1627131872775L225.5639097744361,155.60647920657985L222.55639097744358,156.06841474703077L219.54887218045113,158.2430646325528L216.54135338345864,158.9349583721171L213.53383458646618,160.32018411030705L210.52631578947367,161.52703402954148L207.5187969924812,162.44128655114505L204.5112781954887,164.19741593194738L201.50375939849624,165.35074955331538L198.49624060150376,166.5255989553404L195.48872180451127,167.19472154180684L192.4812030075188,168.61031485511378L189.4736842105263,170.1104356486602L186.46616541353382,171.45302599101453L183.45864661654133,172.5988035154468L180.45112781954887,173.7212609644541L177.4436090225564,174.9977251839305L174.4360902255639,176.97055705964976L171.42857142857142,178.14151480505978L168.42105263157893,179.49898330313826L165.41353383458645,181.82498692331924L162.406015037594,183.02072401533232L159.3984962406015,185.1664681714009L156.39097744360902,187.01358880950846L153.38345864661653,189.14114224246094L150.37593984962405,190.96164556360839L147.36842105263156,191.78426558479012L144.36090225563908,193.6817648906251L141.35338345864662,194.0668388512119L138.34586466165413,195.9278610611346L135.33834586466165,197.6008145650138L132.33082706766916,198.99627192075056L129.32330827067668,200.035175874492L126.3157894736842,201.26754547817023L123.30827067669172,202.8582813855415L120.30075187969925,203.94509028615892L117.29323308270676,205.32372310082334L114.28571428571428,206.3713315384486L111.27819548872179,208.40583602914379L108.27067669172932,210.07592055078294L105.26315789473684,211.28792848147185L102.25563909774435,213.18527167840523L99.24812030075188,214.85999939259466L96.2406015037594,217.05043553785995L93.23308270676691,219.13237135092615L90.22556390977444,221.23644665656167L87.21804511278195,223.64726238846714L84.21052631578947,226.68642110227034L81.203007518797,230.31656903571317L78.19548872180451,231.13730038990263L75.18796992481202,232.67028654116336L72.18045112781954,234.09235566927632L69.17293233082707,234.38581867478555L66.16541353383458,236.47701368317996L63.1578947368421,237.74068549912533L60.150375939849624,238.777422632403L57.14285714285714,240.2209639683025L54.13533834586466,240.96555244679635L51.127819548872175,242.6706314017932L48.1203007518797,243.6502542666424L45.11278195488722,245.52964351737594L42.10526315789473,247.27644455627293L39.097744360902254,248.48728478022852L36.09022556390977,250.10460322716068L33.08270676691729,251.6530708467229L30.075187969924812,253.8095927405899L27.06766917293233,255.7754958829898L24.06015037593985,257.34650782301645L21.052631578947366,259.82074309420216L18.045112781954884,261.8384148086868L15.037593984962406,265.36431473828515L12.030075187969924,268.33659780789384L9.022556390977442,271.8984755647142L6.015037593984962,275.4380726941265L3.007518796992481,280.3147251145754L0,285.66126591036226Z" fill="#333333" opacity="0.2"/></g><g class="mark-line role-mark concat_1_layer_1_marks" role="graphics-symbol" aria-roledescription="line mark container"><path d="M0,288.7505320021579L3.007518796992481,283.56840121138356L6.015037593984962,279.1113468190442L9.022556390977442,275.1746171993135L12.030075187969924,271.6873570761583L15.037593984962406,268.5936082825275L18.045112781954884,265.81022368496656L21.052631578947366,263.2734939810809L24.06015037593985,260.98639872631156L27.06766917293233,258.85907138493354L30.075187969924812,256.9519291543465L33.08270676691729,255.10996697691857L36.09022556390977,253.39834495248505L39.097744360902254,251.76043328030298L42.10526315789473,250.2185743243015L45.11278195488722,248.71935762662505L48.1203007518797,247.307717385832L51.127819548872175,245.92218233616885L54.13533834586466,244.55378469405167L57.14285714285714,243.24609001969046L60.150375939849624,241.96983215835013L63.1578947368421,240.69231442005855L66.16541353383458,239.43976052959437L69.17293233082707,238.19792115971887L72.18045112781954,236.9445273021111L75.18796992481202,235.75917855443217L78.19548872180451,234.52844182073602L81.203007518797,233.36237909850576L84.21052631578947,230.19040898390162L87.21804511278195,227.34286334870413L90.22556390977444,224.7853652565272L93.23308270676691,222.4727064360741L96.2406015037594,220.33571565716275L99.24812030075188,218.35382368481427L102.25563909774435,216.48368746536477L105.26315789473684,214.77574358523222L108.27067669172932,213.14893333274853L111.27819548872179,211.56619952852301L114.28571428571428,210.09254537385112L117.29323308270676,208.64260726561895L120.30075187969925,207.24047956317892L123.30827067669172,205.89403307639435L126.3157894736842,204.57323726387474L129.32330827067668,203.2669851448719L132.33082706766916,201.9903664865513L135.33834586466165,200.75942905582258L138.34586466165413,199.47683828030566L141.35338345864662,198.26599150103087L144.36090225563908,197.03784009943283L147.36842105263156,195.84493463396652L150.37593984962405,194.6467918841276L153.38345864661653,192.32898907023426L156.39097744360902,190.2391159945877L159.3984962406015,188.2836190566683L162.406015037594,186.46338222968888L165.41353383458645,184.74889407399954L168.42105263157893,183.11859992561222L171.42857142857142,181.56653618250178L174.4360902255639,180.06892610888198L177.4436090225564,178.63344921823295L180.45112781954887,177.28366477486077L183.45864661654133,175.89925028393841L186.46616541353382,174.58270729914003L189.4736842105263,173.30321227974437L192.4812030075188,171.99250994888584L195.48872180451127,170.77346309366732L198.49624060150376,169.5469104605954L201.50375939849624,168.2966503371788L204.5112781954887,167.10557512232091L207.5187969924812,165.87687505435525L210.52631578947367,164.66734010617492L213.53383458646618,163.50640837966765L216.54135338345864,162.28832800025458L219.54887218045113,161.1339073150484L222.55639097744358,159.92532361262857L225.5639097744361,158.75193499211636L228.57142857142856,157.5745727994693L231.57894736842107,156.43678301412103L234.58646616541353,155.2592693547481L237.593984962406,154.09276560411428L240.6015037593985,152.94394801877237L243.60902255639098,151.7678099985391L246.61654135338344,150.60979904709532L249.62406015037595,149.44713076554737L252.6315789473684,148.2810511606903L255.63909774436092,147.09882797994936L258.64661654135335,142.24864237189442L261.6541353383459,138.0387820294246L264.6616541353383,134.28014954508342L267.6691729323308,130.97002262842506L270.6766917293233,128.02063886858645L273.6842105263158,125.35096542737932L276.69172932330827,122.95994651345735L279.69924812030075,120.73067267047828L282.70676691729324,118.69955077303769L285.7142857142857,116.80900985987304L288.72180451127815,115.06010460106938L291.7293233082707,113.37434424754427L294.7368421052631,111.79214347076896L297.74436090225566,110.26550445706833L300.7518796992481,108.82255779430643L303.7593984962406,107.4040970014036L306.76691729323306,106.04621666825183L309.77443609022555,104.70380104044645L312.78195488721803,103.40303876106005L315.7894736842105,102.10686470005425L318.796992481203,100.86685055404938L321.8045112781955,99.62286061794305L324.812030075188,98.39136138402334L327.81954887218046,97.14577290645263L330.8270676691729,95.94786799341279L333.83458646616543,94.73028374331327L336.84210526315786,93.56260110827915L339.8496240601504,92.38023661524565L342.85714285714283,91.15584471506502L345.8646616541353,89.98543895099196L348.8721804511278,88.81148867670089L351.8796992481203,87.65600852880787L354.8872180451128,86.4745283868897L357.89473684210526,85.29134769993738L360.90225563909775,84.15047992068685L363.90977443609023,82.98670420337127L366.91729323308266,81.80377623758528L369.9248120300752,80.65203305964461L372.93233082706763,79.47505740785031L375.9398496240602,78.32470814245647L378.9473684210526,77.16860820978641L381.9548872180451,72.51991690665398L384.9624060150376,68.45094273948963L387.96992481203006,64.83547537519866L390.97744360902254,61.59913138361116L393.98496240601503,58.76209773830905L396.9924812030075,56.192964446647395L400,53.83713071836221" stroke="#333333" stroke-width="2" opacity="0.7"/></g><g class="mark-line role-mark concat_1_layer_2_marks" role="graphics-symbol" aria-roledescription="line mark container"><path d="M0,288.1488L3.007518796992481,283.595025L6.015037593984962,279.89805L9.022556390977442,276.60787500000004L12.030075187969924,273.14265L15.037593984962406,269.21925000000005L18.045112781954884,266.31442499999997L21.052631578947366,263.64502500000003L24.06015037593985,261.384375L27.06766917293233,259.31385L30.075187969924812,257.44575L33.08270676691729,255.8796L36.09022556390977,254.03985L39.097744360902254,252.171975L42.10526315789473,250.39229999999998L45.11278195488722,248.79000000000002L48.1203007518797,247.11885L51.127819548872175,245.502825L54.13533834586466,243.99015L57.14285714285714,242.588475L60.150375939849624,241.4229L63.1578947368421,240.274425L66.16541353383458,239.35305000000002L69.17293233082707,238.48485L72.18045112781954,237.637875L75.18796992481202,236.84137500000003L78.19548872180451,236.10315000000003L81.203007518797,231.905625L84.21052631578947,227.996925L87.21804511278195,225.47625L90.22556390977444,223.24949999999998L93.23308270676691,221.35425L96.2406015037594,219.740175L99.24812030075188,218.15662500000002L102.25563909774435,216.58687500000002L105.26315789473684,214.982775L108.27067669172932,213.00382499999998L111.27819548872179,211.17735000000002L114.28571428571428,209.67254999999997L117.29323308270676,208.25189999999998L120.30075187969925,206.85607499999998L123.30827067669172,205.692675L126.3157894736842,204.63555000000002L129.32330827067668,203.618625L132.33082706766916,202.66905L135.33834586466165,201.680625L138.34586466165413,200.745225L141.35338345864662,199.83885L144.36090225563908,198.86535L147.36842105263156,197.90429999999998L150.37593984962405,194.73225L153.38345864661653,191.145525L156.39097744360902,188.944125L159.3984962406015,187.34107499999996L162.406015037594,185.33745000000002L165.41353383458645,183.67634999999999L168.42105263157893,182.198775L171.42857142857142,180.35085L174.4360902255639,178.93545L177.4436090225564,177.60299999999998L180.45112781954887,176.3418L183.45864661654133,175.13774999999998L186.46616541353382,173.90917499999998L189.4736842105263,172.823025L192.4812030075188,171.459525L195.48872180451127,170.51647499999999L198.49624060150376,169.62622499999998L201.50375939849624,168.71197500000002L204.5112781954887,167.99535L207.5187969924812,167.48767500000002L210.52631578947367,167.124225L213.53383458646618,166.8129L216.54135338345864,166.51590000000002L219.54887218045113,166.19879999999998L222.55639097744358,165.89775L225.5639097744361,165.6048L228.57142857142856,165.3177L231.57894736842107,164.921475L234.58646616541353,164.574075L237.593984962406,163.88842499999998L240.6015037593985,163.0626L243.60902255639098,162.501975L246.61654135338344,161.97644999999997L249.62406015037595,161.5797L252.6315789473684,161.13239999999996L255.63909774436092,158.849325L258.64661654135335,156.098325L261.6541353383459,154.17577500000002L264.6616541353383,152.78302499999998L267.6691729323308,151.74675000000002L270.6766917293233,150.96885L273.6842105263158,150.23685L276.69172932330827,149.606625L279.69924812030075,148.92375L282.70676691729324,148.330275L285.7142857142857,147.6813L288.72180451127815,147.078825L291.7293233082707,146.48827500000002L294.7368421052631,145.94692500000002L297.74436090225566,145.486725L300.7518796992481,144.928575L303.7593984962406,144.23917500000002L306.76691729323306,143.72542499999997L309.77443609022555,143.249175L312.78195488721803,142.7823L315.7894736842105,142.259625L318.796992481203,141.66885L321.8045112781955,141.2196L324.812030075188,140.687025L327.81954887218046,140.0277L330.8270676691729,139.4865L333.83458646616543,138.7659L336.84210526315786,138.242025L339.8496240601504,137.7855L342.85714285714283,137.30085L345.8646616541353,136.77165L348.8721804511278,136.3242L351.8796992481203,135.8991L354.8872180451128,135.519525L357.89473684210526,135.015075L360.90225563909775,134.51122500000002L363.90977443609023,134.023725L366.91729323308266,133.482525L369.9248120300752,133.02015L372.93233082706763,132.51254999999998L375.9398496240602,130.781025L378.9473684210526,129.72645L381.9548872180451,128.88420000000002L384.9624060150376,128.17755L387.96992481203006,126.88402500000001L390.97744360902254,125.037525L393.98496240601503,123.98489999999998L396.9924812030075,123.0666L400,122.3754" stroke="#4c78a8" stroke-width="2"/></g><g class="mark-group role-title"><g transform="translate(200,-22)"><path class="background" aria-hidden="true" d="M0,0h0v0h0Z" pointer-events="none"/><g><g class="mark-text role-title-text" role="graphics-symbol" aria-roledescription="title" aria-label="Title text 'Final model without COVID-19'" pointer-events="none"><text text-anchor="middle" transform="translate(0,10)" font-family="sans-serif" font-size="13px" font-weight="bold" fill="#000" opacity="1">Final model without COVID-19</text></g></g><path class="foreground" aria-hidden="true" d="" pointer-events="none" display="none"/></g></g></g><path class="foreground" aria-hidden="true" d="" display="none"/></g></g></g><path class="foreground" aria-hidden="true" d="" display="none"/></g></g></g></svg>