<svg xmlns="http://www.w3.org/2000/svg" xmlns:xlink="http://www.w3.org/1999/xlink" version="1.1" class="marks" width="479" height="342" viewBox="0 0 479 342"><rect width="479" height="342" fill="white"/><g fill="none" stroke-miterlimit="10" transform="translate(72,5)"><g class="mark-group role-frame root" role="graphics-object" aria-roledescription="group mark container"><g transform="translate(0,0)"><path class="background" aria-hidden="true" d="M0.5,0.5h400v300h-400Z" stroke="#ddd"/><g><g class="mark-group role-axis" role="graphics-symbol" aria-roledescription="axis" aria-label="X-axis for a linear scale with values from 1 to 134"><g transform="translate(0.5,300.5)"><path class="background" aria-hidden="true" d="M0,0h0v0h0Z" pointer-events="none"/><g><g class="mark-rule role-axis-grid" pointer-events="none"><line transform="translate(27,-300)" x2="0" y2="300" stroke="#ddd" stroke-width="1" opacity="1"/><line transform="translate(57,-300)" x2="0" y2="300" stroke="#ddd" stroke-width="1" opacity="1"/><line transform="translate(87,-300)" x2="0" y2="300" stroke="#ddd" stroke-width="1" opacity="1"/><line transform="translate(117,-300)" x2="0" y2="300" stroke="#ddd" stroke-width="1" opacity="1"/><line transform="translate(147,-300)" x2="0" y2="300" stroke="#ddd" stroke-width="1" opacity="1"/><line transform="translate(177,-300)" x2="0" y2="300" stroke="#ddd" stroke-width="1" opacity="1"/><line transform="translate(208,-300)" x2="0" y2="300" stroke="#ddd" stroke-width="1" opacity="1"/><line transform="translate(238,-300)" x2="0" y2="300" stroke="#ddd" stroke-width="1" opacity="1"/><line transform="translate(268,-300)" x2="0" y2="300" stroke="#ddd" stroke-width="1" opacity="1"/><line transform="translate(298,-300)" x2="0" y2="300" stroke="#ddd" stroke-width="1" opacity="1"/><line transform="translate(328,-300)" x2="0" y2="300" stroke="#ddd" stroke-width="1" opacity="1"/><line transform="translate(358,-300)" x2="0" y2="300" stroke="#ddd" stroke-width="1" opacity="1"/><line transform="translate(388,-300)" x2="0" y2="300" stroke="#ddd" stroke-width="1" opacity="1"/></g></g><path class="foreground" aria-hidden="true" d="" pointer-events="none" display="none"/></g></g><g class="mark-group role-axis" role="graphics-symbol" aria-roledescription="axis" aria-label="Y-axis for a linear scale with values from 0 to 2,600,000"><g transform="translate(0.5,0.5)"><path class="background" aria-hidden="true" d="M0,0h0v0h0Z" pointer-events="none"/><g><g class="mark-rule role-axis-grid" pointer-events="none"><line transform="translate(0,300)" x2="400" y2="0" stroke="#ddd" stroke-width="1" opacity="1"/><line transform="translate(0,242)" x2="400" y2="0" stroke="#ddd" stroke-width="1" opacity="1"/><line transform="translate(0,185)" x2="400" y2="0" stroke="#ddd" stroke-width="1" opacity="1"/><line transform="translate(0,127)" x2="400" y2="0" stroke="#ddd" stroke-width="1" opacity="1"/><line transform="translate(0,69)" x2="400" y2="0" stroke="#ddd" stroke-width="1" opacity="1"/><line transform="translate(0,12)" x2="400" y2="0" stroke="#ddd" stroke-width="1" opacity="1"/></g></g><path class="foreground" aria-hidden="true" d="" pointer-events="none" display="none"/></g></g><g class="mark-group role-axis" role="graphics-symbol" aria-roledescription="axis" aria-label="X-axis titled 'Week' for a linear scale with values from 1 to 134"><g transform="translate(0.5,300.5)"><path class="background" aria-hidden="true" d="M0,0h0v0h0Z" pointer-events="none"/><g><g class="mark-rule role-axis-tick" pointer-events="none"><line transform="translate(27,0)" x2="0" y2="5" stroke="#888" stroke-width="1" opacity="1"/><line transform="translate(57,0)" x2="0" y2="5" stroke="#888" stroke-width="1" opacity="1"/><line transform="translate(87,0)" x2="0" y2="5" stroke="#888" stroke-width="1" opacity="1"/><line transform="translate(117,0)" x2="0" y2="5" stroke="#888" stroke-width="1" opacity="1"/><line transform="translate(147,0)" x2="0" y2="5" stroke="#888" stroke-width="1" opacity="1"/><line transform="translate(177,0)" x2="0" y2="5" stroke="#888" stroke-width="1" opacity="1"/><line transform="translate(208,0)" x2="0" y2="5" stroke="#888" stroke-width="1" opacity="1"/><line transform="translate(238,0)" x2="0" y2="5" stroke="#888" stroke-width="1" opacity="1"/><line transform="translate(268,0)" x2="0" y2="5" stroke="#888" stroke-width="1" opacity="1"/><line transform="translate(298,0)" x2="0" y2="5" stroke="#888" stroke-width="1" opacity="1"/><line transform="translate(328,0)" x2="0" y2="5" stroke="#888" stroke-width="1" opacity="1"/><line transform="translate(358,0)" x2="0" y2="5" stroke="#888" stroke-width="1" opacity="1"/><line transform="translate(388,0)" x2="0" y2="5" stroke="#888" stroke-width="1" opacity="1"/></g><g class="mark-text role-axis-label" pointer-events="none"><text text-anchor="middle" transform="translate(27.06766917293233,15)" font-family="sans-serif" font-size="10px" fill="#000" opacity="1">10</text><text text-anchor="middle" transform="translate(57.14285714285714,15)" font-family="sans-serif" font-size="10px" fill="#000" opacity="1">20</text><text text-anchor="middle" transform="translate(87.21804511278195,15)" font-family="sans-serif" font-size="10px" fill="#000" opacity="1">30</text><text text-anchor="middle" transform="translate(117.29323308270676,15)" font-family="sans-serif" font-size="10px" fill="#000" opacity="1">40</text><text text-anchor="middle" transform="translate(147.36842105263156,15)" font-family="sans-serif" font-size="10px" fill="#000" opacity="1">50</text><text text-anchor="middle" transform="translate(177.4436090225564,15)" font-family="sans-serif" font-size="10px" fill="#000" opacity="1">60</text><text text-anchor="middle" transform="translate(207.5187969924812,15)" font-family="sans-serif" font-size="10px" fill="#000" opacity="1">70</text><text text-anchor="middle" transform="translate(237.593984962406,15)" font-family="sans-serif" font-size="10px" fill="#000" opacity="1">80</text><text text-anchor="middle" transform="translate(267.6691729323308,15)" font-family="sans-serif" font-size="10px" fill="#000" opacity="1">90</text><text text-anchor="middle" transform="translate(297.74436090225566,15)" font-family="sans-serif" font-size="10px" fill="#000" opacity="1">100</text><text text-anchor="middle" transform="translate(327.81954887218046,15)" font-family="sans-serif" font-size="10px" fill="#000" opacity="1">110</text><text text-anchor="middle" transform="translate(357.89473684210526,15)" font-family="sans-serif" font-size="10px" fill="#000" opacity="1">120</text><text text-anchor="middle" transform="translate(387.96992481203006,15)" font-family="sans-serif" font-size="10px" fill="#000" opacity="1">130</text></g><g class="mark-rule role-axis-domain" pointer-events="none"><line transform="translate(0,0)" x2="400" y2="0" stroke="#888" stroke-width="1" opacity="1"/></g><g class="mark-text role-axis-title" pointer-events="none"><text text-anchor="middle" transform="translate(200,30)" font-family="sans-serif" font-size="11px" font-weight="bold" fill="#000" opacity="1">Week</text></g></g><path class="foreground" aria-hidden="true" d="" pointer-events="none" display="none"/></g></g><g class="mark-group role-axis" role="graphics-symbol" aria-roledescription="axis" aria-label="Y-axis titled 'Decks Registered' for a linear scale with values from 0 to 2,600,000"><g transform="translate(0.5,0.5)"><path class="background" aria-hidden="true" d="M0,0h0v0h0Z" pointer-events="none"/><g><g class="mark-rule role-axis-tick" pointer-events="none"><line transform="translate(0,300)" x2="-5" y2="0" stroke="#888" stroke-width="1" opacity="1"/><line transform="translate(0,242)" x2="-5" y2="0" stroke="#888" stroke-width="1" opacity="1"/><line transform="translate(0,185)" x2="-5" y2="0" stroke="#888" stroke-width="1" opacity="1"/><line transform="translate(0,127)" x2="-5" y2="0" stroke="#888" stroke-width="1" opacity="1"/><line transform="translate(0,69)" x2="-5" y2="0" stroke="#888" stroke-width="1" opacity="1"/><line transform="translate(0,12)" x2="-5" y2="0" stroke="#888" stroke-width="1" opacity="1"/></g><g class="mark-text role-axis-label" pointer-events="none"><text text-anchor="end" transform="translate(-7,303)" font-family="sans-serif" font-size="10px" fill="#000" opacity="1">0</text><text text-anchor="end" transform="translate(-7,245.30769230769232)" font-family="sans-serif" font-size="10px" fill="#000" opacity="1">500,000</text><text text-anchor="end" transform="translate(-7,187.6153846153846)" font-family="sans-serif" font-size="10px" fill="#000" opacity="1">1,000,000</text><text text-anchor="end" transform="translate(-7,129.92307692307693)" font-family="sans-serif" font-size="10px" fill="#000" opacity="1">1,500,000</text><text text-anchor="end" transform="translate(-7,72.23076923076921)" font-family="sans-serif" font-size="10px" fill="#000" opacity="1">2,000,000</text><text text-anchor="end" transform="translate(-7,14.538461538461531)" font-family="sans-serif" font-size="10px" fill="#000" opacity="1">2,500,000</text></g><g class="mark-rule role-axis-domain" pointer-events="none"><line transform="translate(0,300)" x2="0" y2="-300" stroke="#888" stroke-width="1" opacity="1"/></g><g class="mark-text role-axis-title" pointer-events="none"><text text-anchor="middle" transform="translate(-55.4873046875,150) rotate(-90) translate(0,-2)" font-family="sans-serif" font-size="11px" font-weight="bold" fill="#000" opacity="1">Decks Registered</text></g></g><path class="foreground" aria-hidden="true" d="" pointer-events="none" display="none"/></g></g><g class="mark-area role-mark layer_0_marks" role="graphics-symbol" aria-roledescription="area mark container"><path d="M0,287.6816972344289L3.007518796992481,279.49032970274544L6.015037593984962,272.76693916199946L9.022556390977442,266.9162655294564L12.030075187969924,261.3902547338319L15.037593984962406,256.72791589419825L18.045112781954884,253.57270895426916L21.052631578947366,248.95927498083566L24.06015037593985,246.11125444861207L27.06766917293233,241.42219021549306L30.075187969924812,238.96396509930244L33.08270676691729,235.5227342885613L36.09022556390977,232.8047922644924L39.097744360902254,231.1557479739013L42.10526315789473,228.97615298986605L45.11278195488722,226.10406989714184L48.1203007518797,224.58537418865856L51.127819548872175,222.2772937641819L54.13533834586466,219.63799707742993L57.14285714285714,218.3259534315424L60.150375939849624,216.82304292382406L63.1578947368421,213.57265692353639L66.16541353383458,211.60145517875537L69.17293233082707,209.72082869239472L72.18045112781954,207.94315605027595L75.18796992481202,206.2233064518202L78.19548872180451,204.86666263652535L81.203007518797,203.67637495332463L84.21052631578947,197.40708223835009L87.21804511278195,193.42039422117773L90.22556390977444,188.93479099999723L93.23308270676691,185.79544160293383L96.2406015037594,182.17038929836747L99.24812030075188,179.17631989186563L102.25563909774435,176.3911153283667L105.26315789473684,174.0246702086553L108.27067669172932,171.14236865928868L111.27819548872179,168.81589198008047L114.28571428571428,167.73990845401232L117.29323308270676,164.05503646478388L120.30075187969925,162.22777324697608L123.30827067669172,160.9943278757237L126.3157894736842,158.2378309937037L129.32330827067668,156.33782156523114L132.33082706766916,154.57735802191746L135.33834586466165,152.4388113838972L138.34586466165413,150.1526970981782L141.35338345864662,148.2878030359511L144.36090225563908,146.57608942851147L147.36842105263156,145.01605378316714L150.37593984962405,144.07134304727302L153.38345864661653,139.81598647976872L156.39097744360902,135.69010696452915L159.3984962406015,132.6912150547147L162.406015037594,130.88134258422673L165.41353383458645,129.55629956346343L168.42105263157893,124.92539014229257L171.42857142857142,122.99830031873068L174.4360902255639,121.84383152757665L177.4436090225564,118.42775721350569L180.45112781954887,116.97182134707703L183.45864661654133,114.69254677740426L186.46616541353382,111.69954229440529L189.4736842105263,109.98503445672841L192.4812030075188,108.3529213654209L195.48872180451127,107.29597132880939L198.49624060150376,104.37417064039347L201.50375939849624,101.98672501602319L204.5112781954887,102.76768363529666L207.5187969924812,102.02848335422601L210.52631578947367,99.9622577063275L213.53383458646618,99.03465760237444L216.54135338345864,99.02881564763757L219.54887218045113,97.36255623867054L222.55639097744358,96.56057971948813L225.5639097744361,96.5094374989729L228.57142857142856,96.11303033792802L231.57894736842107,95.37151227630844L234.58646616541353,94.3065676826079L237.593984962406,93.44594016781824L240.6015037593985,92.57639024902087L243.60902255639098,92.45449275501286L246.61654135338344,92.44877264324158L249.62406015037595,90.72015568475292L252.6315789473684,89.5883428642189L255.63909774436092,89.03236038418356L258.64661654135335,86.32299255049097L261.6541353383459,83.31710573682726L264.6616541353383,81.64863011014928L267.6691729323308,79.89030671770999L270.6766917293233,77.00109110954313L273.6842105263158,75.61658088282711L276.69172932330827,74.30034292610452L279.69924812030075,72.5696834248613L282.70676691729324,72.7732010818185L285.7142857142857,70.7133562598984L288.72180451127815,69.39041569496393L291.7293233082707,69.446667584744L294.7368421052631,67.15901651265673L297.74436090225566,67.38493164958328L300.7518796992481,65.34409170905091L303.7593984962406,64.26819398655162L306.76691729323306,63.6470195711905L309.77443609022555,63.188459784638255L312.78195488721803,62.650430655006254L315.7894736842105,60.3489261139473L318.796992481203,59.944329042273914L321.8045112781955,59.337610437433675L324.812030075188,58.77855166384588L327.81954887218046,59.15392545660095L330.8270676691729,57.182198471392496L333.83458646616543,56.85044211962118L336.84210526315786,56.25274620002742L339.8496240601504,56.9574010254694L342.85714285714283,54.21904708745275L345.8646616541353,54.072943836511335L348.8721804511278,53.18336977452166L351.8796992481203,52.167559634984585L354.8872180451128,51.43822107312136L357.89473684210526,51.77338756777212L360.90225563909775,49.92242141680426L363.90977443609023,48.88732149864074L366.91729323308266,48.91545880275363L369.9248120300752,47.763155792185174L372.93233082706763,47.158210664516986L375.9398496240602,46.45312755818741L378.9473684210526,45.74449866407498L381.9548872180451,43.416710626105015L384.9624060150376,41.066703671623415L387.96992481203006,37.90182013790782L390.97744360902254,37.10281618838627L393.98496240601503,35.07282928721425L396.9924812030075,34.6715442889863L400,32.41961927694008L400,20.91888435073156L396.9924812030075,21.387138222234647L393.98496240601503,24.321061354728823L390.97744360902254,25.258478652626405L387.96992481203006,27.654859957280596L384.9624060150376,30.739184003343567L381.9548872180451,32.52574088798978L378.9473684210526,35.833485549908914L375.9398496240602,35.229842234140776L372.93233082706763,36.49037209964371L369.9248120300752,38.16470092685211L366.91729323308266,39.08062173615892L363.90977443609023,38.96242709221035L360.90225563909775,40.012289016612215L357.89473684210526,41.22585745410904L354.8872180451128,41.79726949772801L351.8796992481203,42.969554143183494L348.8721804511278,43.16147888645231L345.8646616541353,43.5799298854018L342.85714285714283,44.39045992643421L339.8496240601504,44.58968299474034L336.84210526315786,45.622353155621234L333.83458646616543,46.711359905759984L330.8270676691729,48.078372943804226L327.81954887218046,48.48525524309358L324.812030075188,48.27146335710777L321.8045112781955,49.883761634998855L318.796992481203,50.76240994883003L315.7894736842105,51.068961268338455L312.78195488721803,52.2665856868882L309.77443609022555,53.558803379569554L306.76691729323306,53.7264541276048L303.7593984962406,55.16846572842383L300.7518796992481,55.684346262130425L297.74436090225566,56.4826291096083L294.7368421052631,57.42730547804994L291.7293233082707,58.393823430899616L288.72180451127815,59.50007091493353L285.7142857142857,60.60704521773229L282.70676691729324,60.76219396193919L279.69924812030075,62.82028101036059L276.69172932330827,64.50849505772439L273.6842105263158,65.5451275612132L270.6766917293233,67.86606859278717L267.6691729323308,69.53416235204334L264.6616541353383,71.328879340626L261.6541353383459,73.21007733431085L258.64661654135335,75.25804362830402L255.63909774436092,78.82257527109562L252.6315789473684,78.89193031375115L249.62406015037595,80.575628249229L246.61654135338344,81.14306570212281L243.60902255639098,82.3879592714935L240.6015037593985,83.35327483475972L237.593984962406,83.67059755784628L234.58646616541353,84.45314399928627L231.57894736842107,85.18213072838874L228.57142857142856,86.20341433997042L225.5639097744361,86.43782545276609L222.55639097744358,87.10492945666692L219.54887218045113,88.25752234870694L216.54135338345864,89.03245693429103L213.53383458646618,88.90880070477654L210.52631578947367,89.97098827973956L207.5187969924812,90.90399924746102L204.5112781954887,91.14729019199584L201.50375939849624,92.69015733817264L198.49624060150376,94.46904464844475L195.48872180451127,95.52438665994993L192.4812030075188,98.32373830372717L189.4736842105263,100.22792106192064L186.46616541353382,101.77037661204493L183.45864661654133,103.68008606955466L180.45112781954887,105.47476590348714L177.4436090225564,108.73644488519663L174.4360902255639,110.49717102380122L171.42857142857142,112.38819239481455L168.42105263157893,115.07610274239974L165.41353383458645,117.40555206460202L162.406015037594,120.21531928871275L159.3984962406015,122.7609569964767L156.39097744360902,126.36643850130854L153.38345864661653,129.48846304725998L150.37593984962405,133.65517790251292L147.36842105263156,134.04568311166886L144.36090225563908,136.6320355605331L141.35338345864662,138.22692161295626L138.34586466165413,140.43215431209953L135.33834586466165,142.50601080667792L132.33082706766916,143.08501216774292L129.32330827067668,146.51503639887943L126.3157894736842,147.90909430655756L123.30827067669172,150.77466464878773L120.30075187969925,152.7528416780822L117.29323308270676,154.49278674166388L114.28571428571428,155.9887458612367L111.27819548872179,158.88716345130248L108.27067669172932,161.47994548049468L105.26315789473684,163.2481343561177L102.25563909774435,165.31690365716557L99.24812030075188,169.48098880028897L96.2406015037594,172.57301779097918L93.23308270676691,175.7233325186225L90.22556390977444,179.1622760829142L87.21804511278195,183.73982262413662L84.21052631578947,187.53701293876063L81.203007518797,192.26600219878014L78.19548872180451,193.77083406175245L75.18796992481202,196.24169851507943L72.18045112781954,197.7863967401479L69.17293233082707,199.66213825750265L66.16541353383458,201.96019281145954L63.1578947368421,203.17789843587437L60.150375939849624,205.30345061749392L57.14285714285714,207.77745612901083L54.13533834586466,209.47488445606896L51.127819548872175,211.61518779102377L48.1203007518797,214.33013589097206L45.11278195488722,216.2945041337398L42.10526315789473,217.7561680372443L39.097744360902254,220.3306562259631L36.09022556390977,223.32293555989506L33.08270676691729,226.38920429741327L30.075187969924812,228.53371553223613L27.06766917293233,231.89219746143496L24.06015037593985,235.24114452459673L21.052631578947366,238.04260072166102L18.045112781954884,242.287938800103L15.037593984962406,247.38156707252716L12.030075187969924,250.68517287583845L9.022556390977442,257.1243909300048L6.015037593984962,262.82287513895403L3.007518796992481,269.162903442336L0,278.1291761595761Z" fill="#333333" opacity="0.2"/></g><g class="mark-line role-mark layer_1_marks" role="graphics-symbol" aria-roledescription="line mark container"><path d="M0,282.6725381815057L3.007518796992481,274.8021667994207L6.015037593984962,267.82036065776555L9.022556390977442,261.76685815223L12.030075187969924,256.40172527290696L15.037593984962406,251.6326655873665L18.045112781954884,247.36414219762037L21.052631578947366,243.44889978900153L24.06015037593985,239.96880801903694L27.06766917293233,236.73978701496878L30.075187969924812,233.74772357619804L33.08270676691729,230.90225763385135L36.09022556390977,228.30023894788025L39.097744360902254,225.78952595944676L42.10526315789473,223.44187320830432L45.11278195488722,221.14945246189717L48.1203007518797,218.94372061948079L51.127819548872175,216.83563137156005L54.13533834586466,214.73097156417685L57.14285714285714,212.71706431682426L60.150375939849624,210.70160367215612L63.1578947368421,208.7738063052305L66.16541353383458,206.83951260111195L69.17293233082707,204.93700958373753L72.18045112781954,203.05425128751818L75.18796992481202,201.21343072166985L78.19548872180451,199.34425532222068L81.203007518797,197.4841066461228L84.21052631578947,192.62204614212735L87.21804511278195,188.20899976530518L90.22556390977444,184.27968271885825L93.23308270676691,180.7072710089883L96.2406015037594,177.4011490216724L99.24812030075188,174.35173787551142L102.25563909774435,171.51170241724034L105.26315789473684,168.89953489675577L108.27067669172932,166.34482101457408L111.27819548872179,163.94759107447848L114.28571428571428,161.64292113085057L117.29323308270676,159.45270093249098L120.30075187969925,157.28948724199628L123.30827067669172,155.14887883640426L126.3157894736842,153.15562451818897L129.32330827067668,151.19867607858623L132.33082706766916,149.20684771416407L135.33834586466165,147.31143200099834L138.34586466165413,145.37951205541242L141.35338345864662,143.5052645759987L144.36090225563908,141.63542963599352L147.36842105263156,139.75494216046695L150.37593984962405,137.95064024136025L153.38345864661653,134.3604437937373L156.39097744360902,131.13105798230947L159.3984962406015,128.1343435088006L162.406015037594,125.28667079520568L165.41353383458645,122.64473315278482L168.42105263157893,120.20198456449975L171.42857142857142,117.79055821284076L174.4360902255639,115.49723829738917L177.4436090225564,113.29941058675766L180.45112781954887,111.15441939318269L183.45864661654133,109.05310357934749L186.46616541353382,107.03878977083022L189.4736842105263,105.071780168738L192.4812030075188,103.14829446182277L195.48872180451127,101.16895589376631L198.49624060150376,99.29652688717255L201.50375939849624,97.40698837739244L204.5112781954887,96.69221427111964L207.5187969924812,95.86759939766155L210.52631578947367,95.13586141732182L213.53383458646618,94.39892039043035L216.54135338345864,93.68032448756006L219.54887218045113,92.94291532858657L222.55639097744358,92.20882189224136L225.5639097744361,91.47735102259918L228.57142857142856,90.76133059053642L231.57894736842107,90.06320485254662L234.58646616541353,89.29706423490127L237.593984962406,88.576517790906L240.6015037593985,87.86152530938747L243.60902255639098,87.12497665325806L246.61654135338344,86.41171026161574L249.62406015037595,85.6852939367845L252.6315789473684,84.95444771976409L255.63909774436092,84.24184242925577L258.64661654135335,81.23737196972468L261.6541353383459,78.61887137747206L264.6616541353383,76.28366295020315L267.6691729323308,74.25616560155542L270.6766917293233,72.42222065484512L273.6842105263158,70.74265546740423L276.69172932330827,69.24720788514591L279.69924812030075,67.92172329375337L282.70676691729324,66.67275107997801L285.7142857142857,65.48803930992186L288.72180451127815,64.37240325965732L291.7293233082707,63.32956914758478L294.7368421052631,62.36091895222351L297.74436090225566,61.43651967906442L300.7518796992481,60.5241337558358L303.7593984962406,59.656457359774016L306.76691729323306,58.80543654572109L309.77443609022555,58.00039464214027L312.78195488721803,57.214035209405544L315.7894736842105,56.40779155004837L318.796992481203,55.54723396910545L321.8045112781955,54.83408716857121L324.812030075188,54.06093313483997L327.81954887218046,53.28098450766472L330.8270676691729,52.56989918043704L333.83458646616543,51.84081343987654L336.84210526315786,51.08271242846134L339.8496240601504,50.35226399090893L342.85714285714283,49.626230026287956L345.8646616541353,48.88796768243431L348.8721804511278,48.10126914651271L351.8796992481203,47.372342319083174L354.8872180451128,46.68749480281782L357.89473684210526,45.92894008323258L360.90225563909775,45.251797124798586L363.90977443609023,44.470352582859505L366.91729323308266,43.82221473751192L369.9248120300752,43.09704790755995L372.93233082706763,42.317819163716706L375.9398496240602,41.58174780882632L378.9473684210526,40.88947596101629L381.9548872180451,38.010650995243125L384.9624060150376,35.52793418745096L387.96992481203006,33.24481996077384L390.97744360902254,31.265431114758947L393.98496240601503,29.539289133160317L396.9924812030075,27.920523166488554L400,26.462635883208684" stroke="#333333" stroke-width="2" opacity="0.7"/></g><g class="mark-line role-mark layer_2_marks" role="graphics-symbol" aria-roledescription="line mark container"><path d="M0,281.76738461538463L3.007518796992481,274.7615769230769L6.015037593984962,269.07392307692305L9.022556390977442,264.01211538461536L12.030075187969924,258.681L15.037593984962406,252.64499999999998L18.045112781954884,248.17603846153847L21.052631578947366,244.06926923076924L24.06015037593985,240.59134615384613L27.06766917293233,237.4059230769231L30.075187969924812,234.53192307692308L33.08270676691729,232.12246153846155L36.09022556390977,229.2920769230769L39.097744360902254,226.41842307692306L42.10526315789473,223.68046153846151L45.11278195488722,221.21538461538458L48.1203007518797,218.6443846153846L51.127819548872175,216.15819230769233L54.13533834586466,213.83100000000002L57.14285714285714,211.67457692307693L60.150375939849624,209.8813846153846L63.1578947368421,208.11450000000002L66.16541353383458,206.697L69.17293233082707,205.36130769230766L72.18045112781954,204.05826923076924L75.18796992481202,202.83288461538461L78.19548872180451,201.69715384615384L81.203007518797,195.23942307692306L84.21052631578947,189.22603846153848L87.21804511278195,185.34807692307695L90.22556390977444,181.9223076923077L93.23308270676691,179.00653846153847L96.2406015037594,176.52334615384615L99.24812030075188,174.0871153846154L102.25563909774435,171.67211538461538L105.26315789473684,169.20426923076926L108.27067669172932,166.15973076923078L111.27819548872179,163.34976923076923L114.28571428571428,161.03469230769232L117.29323308270676,158.84907692307692L120.30075187969925,156.70165384615385L123.30827067669172,154.9118076923077L126.3157894736842,153.28546153846153L129.32330827067668,151.72096153846152L132.33082706766916,150.26007692307695L135.33834586466165,148.73942307692306L138.34586466165413,147.30034615384616L141.35338345864662,145.90592307692307L144.36090225563908,144.40823076923076L147.36842105263156,142.9296923076923L150.37593984962405,138.04961538461538L153.38345864661653,132.5315769230769L156.39097744360902,129.1448076923077L159.3984962406015,126.6785769230769L162.406015037594,123.59607692307692L165.41353383458645,121.04053846153845L168.42105263157893,118.76734615384615L171.42857142857142,115.92438461538462L174.4360902255639,113.74684615384616L177.4436090225564,111.69692307692306L180.45112781954887,109.75661538461537L183.45864661654133,107.90423076923076L186.46616541353382,106.01411538461537L189.4736842105263,104.34311538461539L192.4812030075188,102.24542307692309L195.48872180451127,100.79457692307693L198.49624060150376,99.42496153846152L201.50375939849624,98.01842307692309L204.5112781954887,96.91592307692308L207.5187969924812,96.1348846153846L210.52631578947367,95.57573076923076L213.53383458646618,95.09676923076924L216.54135338345864,94.63984615384615L219.54887218045113,94.152L222.55639097744358,93.68884615384616L225.5639097744361,93.23815384615386L228.57142857142856,92.79646153846153L231.57894736842107,92.18688461538463L234.58646616541353,91.65242307692307L237.593984962406,90.59757692307694L240.6015037593985,89.3270769230769L243.60902255639098,88.46457692307692L246.61654135338344,87.65607692307692L249.62406015037595,87.04569230769235L252.6315789473684,86.35753846153845L255.63909774436092,82.8451153846154L258.64661654135335,78.61280769230768L261.6541353383459,75.65503846153845L264.6616541353383,73.51234615384617L267.6691729323308,71.91807692307694L270.6766917293233,70.72130769230768L273.6842105263158,69.59515384615385L276.69172932330827,68.62557692307692L279.69924812030075,67.57499999999999L282.70676691729324,66.66196153846154L285.7142857142857,65.66353846153848L288.72180451127815,64.73665384615386L291.7293233082707,63.82811538461538L294.7368421052631,62.99526923076924L297.74436090225566,62.287269230769226L300.7518796992481,61.428576923076925L303.7593984962406,60.36796153846158L306.76691729323306,59.577576923076926L309.77443609022555,58.844884615384615L312.78195488721803,58.1266153846154L315.7894736842105,57.3225L318.796992481203,56.4136153846154L321.8045112781955,55.72246153846155L324.812030075188,54.9031153846154L327.81954887218046,53.88876923076923L330.8270676691729,53.05615384615384L333.83458646616543,51.94753846153844L336.84210526315786,51.14157692307691L339.8496240601504,50.43923076923076L342.85714285714283,49.69361538461538L345.8646616541353,48.879461538461555L348.8721804511278,48.191076923076935L351.8796992481203,47.53707692307692L354.8872180451128,46.95311538461537L357.89473684210526,46.17703846153848L360.90225563909775,45.40188461538462L363.90977443609023,44.65188461538463L366.91729323308266,43.819269230769244L369.9248120300752,43.10792307692306L372.93233082706763,42.32700000000001L375.9398496240602,39.66311538461538L378.9473684210526,38.04069230769231L381.9548872180451,36.74492307692307L384.9624060150376,35.65776923076923L387.96992481203006,33.667730769230765L390.97744360902254,30.82696153846153L393.98496240601503,29.20753846153845L396.9924812030075,27.794769230769244L400,26.731384615384602" stroke="#4c78a8" stroke-width="2"/></g></g><path class="foreground" aria-hidden="true" d="" display="none"/></g></g></g></svg>