<svg xmlns="http://www.w3.org/2000/svg" xmlns:xlink="http://www.w3.org/1999/xlink" version="1.1" class="marks" width="485" height="347" viewBox="0 0 485 347"><rect width="485" height="347" fill="white"/><g fill="none" stroke-miterlimit="10" transform="translate(78,10)"><g class="mark-group role-frame root" role="graphics-object" aria-roledescription="group mark container"><g transform="translate(0,0)"><path class="background" aria-hidden="true" d="M0.5,0.5h400v300h-400Z" stroke="#ddd"/><g><g class="mark-group role-axis" role="graphics-symbol" aria-roledescription="axis" aria-label="X-axis for a linear scale with values from 1 to 134"><g transform="translate(0.5,300.5)"><path class="background" aria-hidden="true" d="M0,0h0v0h0Z" pointer-events="none"/><g><g class="mark-rule role-axis-grid" pointer-events="none"><line transform="translate(27,-300)" x2="0" y2="300" stroke="#ddd" stroke-width="1" opacity="1"/><line transform="translate(57,-300)" x2="0" y2="300" stroke="#ddd" stroke-width="1" opacity="1"/><line transform="translate(87,-300)" x2="0" y2="300" stroke="#ddd" stroke-width="1" opacity="1"/><line transform="translate(117,-300)" x2="0" y2="300" stroke="#ddd" stroke-width="1" opacity="1"/><line transform="translate(147,-300)" x2="0" y2="300" stroke="#ddd" stroke-width="1" opacity="1"/><line transform="translate(177,-300)" x2="0" y2="300" stroke="#ddd" stroke-width="1" opacity="1"/><line transform="translate(208,-300)" x2="0" y2="300" stroke="#ddd" stroke-width="1" opacity="1"/><line transform="translate(238,-300)" x2="0" y2="300" stroke="#ddd" stroke-width="1" opacity="1"/><line transform="translate(268,-300)" x2="0" y2="300" stroke="#ddd" stroke-width="1" opacity="1"/><line transform="translate(298,-300)" x2="0" y2="300" stroke="#ddd" stroke-width="1" opacity="1"/><line transform="translate(328,-300)" x2="0" y2="300" stroke="#ddd" stroke-width="1" opacity="1"/><line transform="translate(358,-300)" x2="0" y2="300" stroke="#ddd" stroke-width="1" opacity="1"/><line transform="translate(388,-300)" x2="0" y2="300" stroke="#ddd" stroke-width="1" opacity="1"/></g></g><path class="foreground" aria-hidden="true" d="" pointer-events="none" display="none"/></g></g><g class="mark-group role-axis" role="graphics-symbol" aria-roledescription="axis" aria-label="Y-axis for a linear scale with values from −1,500,000 to 4,000,000"><g transform="translate(0.5,0.5)"><path class="background" aria-hidden="true" d="M0,0h0v0h0Z" pointer-events="none"/><g><g class="mark-rule role-axis-grid" pointer-events="none"><line transform="translate(0,300)" x2="400" y2="0" stroke="#ddd" stroke-width="1" opacity="1"/><line transform="translate(0,273)" x2="400" y2="0" stroke="#ddd" stroke-width="1" opacity="1"/><line transform="translate(0,245)" x2="400" y2="0" stroke="#ddd" stroke-width="1" opacity="1"/><line transform="translate(0,218)" x2="400" y2="0" stroke="#ddd" stroke-width="1" opacity="1"/><line transform="translate(0,191)" x2="400" y2="0" stroke="#ddd" stroke-width="1" opacity="1"/><line transform="translate(0,164)" x2="400" y2="0" stroke="#ddd" stroke-width="1" opacity="1"/><line transform="translate(0,136)" x2="400" y2="0" stroke="#ddd" stroke-width="1" opacity="1"/><line transform="translate(0,109)" x2="400" y2="0" stroke="#ddd" stroke-width="1" opacity="1"/><line transform="translate(0,82)" x2="400" y2="0" stroke="#ddd" stroke-width="1" opacity="1"/><line transform="translate(0,55)" x2="400" y2="0" stroke="#ddd" stroke-width="1" opacity="1"/><line transform="translate(0,27)" x2="400" y2="0" stroke="#ddd" stroke-width="1" opacity="1"/><line transform="translate(0,0)" x2="400" y2="0" stroke="#ddd" stroke-width="1" opacity="1"/></g></g><path class="foreground" aria-hidden="true" d="" pointer-events="none" display="none"/></g></g><g class="mark-group role-axis" role="graphics-symbol" aria-roledescription="axis" aria-label="X-axis titled 'Week' for a linear scale with values from 1 to 134"><g transform="translate(0.5,300.5)"><path class="background" aria-hidden="true" d="M0,0h0v0h0Z" pointer-events="none"/><g><g class="mark-rule role-axis-tick" pointer-events="none"><line transform="translate(27,0)" x2="0" y2="5" stroke="#888" stroke-width="1" opacity="1"/><line transform="translate(57,0)" x2="0" y2="5" stroke="#888" stroke-width="1" opacity="1"/><line transform="translate(87,0)" x2="0" y2="5" stroke="#888" stroke-width="1" opacity="1"/><line transform="translate(117,0)" x2="0" y2="5" stroke="#888" stroke-width="1" opacity="1"/><line transform="translate(147,0)" x2="0" y2="5" stroke="#888" stroke-width="1" opacity="1"/><line transform="translate(177,0)" x2="0" y2="5" stroke="#888" stroke-width="1" opacity="1"/><line transform="translate(208,0)" x2="0" y2="5" stroke="#888" stroke-width="1" opacity="1"/><line transform="translate(238,0)" x2="0" y2="5" stroke="#888" stroke-width="1" opacity="1"/><line transform="translate(268,0)" x2="0" y2="5" stroke="#888" stroke-width="1" opacity="1"/><line transform="translate(298,0)" x2="0" y2="5" stroke="#888" stroke-width="1" opacity="1"/><line transform="translate(328,0)" x2="0" y2="5" stroke="#888" stroke-width="1" opacity="1"/><line transform="translate(358,0)" x2="0" y2="5" stroke="#888" stroke-width="1" opacity="1"/><line transform="translate(388,0)" x2="0" y2="5" stroke="#888" stroke-width="1" opacity="1"/></g><g class="mark-text role-axis-label" pointer-events="none"><text text-anchor="middle" transform="translate(27.06766917293233,15)" font-family="sans-serif" font-size="10px" fill="#000" opacity="1">10</text><text text-anchor="middle" transform="translate(57.14285714285714,15)" font-family="sans-serif" font-size="10px" fill="#000" opacity="1">20</text><text text-anchor="middle" transform="translate(87.21804511278195,15)" font-family="sans-serif" font-size="10px" fill="#000" opacity="1">30</text><text text-anchor="middle" transform="translate(117.29323308270676,15)" font-family="sans-serif" font-size="10px" fill="#000" opacity="1">40</text><text text-anchor="middle" transform="translate(147.36842105263156,15)" font-family="sans-serif" font-size="10px" fill="#000" opacity="1">50</text><text text-anchor="middle" transform="translate(177.4436090225564,15)" font-family="sans-serif" font-size="10px" fill="#000" opacity="1">60</text><text text-anchor="middle" transform="translate(207.5187969924812,15)" font-family="sans-serif" font-size="10px" fill="#000" opacity="1">70</text><text text-anchor="middle" transform="translate(237.593984962406,15)" font-family="sans-serif" font-size="10px" fill="#000" opacity="1">80</text><text text-anchor="middle" transform="translate(267.6691729323308,15)" font-family="sans-serif" font-size="10px" fill="#000" opacity="1">90</text><text text-anchor="middle" transform="translate(297.74436090225566,15)" font-family="sans-serif" font-size="10px" fill="#000" opacity="1">100</text><text text-anchor="middle" transform="translate(327.81954887218046,15)" font-family="sans-serif" font-size="10px" fill="#000" opacity="1">110</text><text text-anchor="middle" transform="translate(357.89473684210526,15)" font-family="sans-serif" font-size="10px" fill="#000" opacity="1">120</text><text text-anchor="middle" transform="translate(387.96992481203006,15)" font-family="sans-serif" font-size="10px" fill="#000" opacity="1">130</text></g><g class="mark-rule role-axis-domain" pointer-events="none"><line transform="translate(0,0)" x2="400" y2="0" stroke="#888" stroke-width="1" opacity="1"/></g><g class="mark-text role-axis-title" pointer-events="none"><text text-anchor="middle" transform="translate(200,30)" font-family="sans-serif" font-size="11px" font-weight="bold" fill="#000" opacity="1">Week</text></g></g><path class="foreground" aria-hidden="true" d="" pointer-events="none" display="none"/></g></g><g class="mark-group role-axis" role="graphics-symbol" aria-roledescription="axis" aria-label="Y-axis titled 'Decks Registered' for a linear scale with values from −1,500,000 to 4,000,000"><g transform="translate(0.5,0.5)"><path class="background" aria-hidden="true" d="M0,0h0v0h0Z" pointer-events="none"/><g><g class="mark-rule role-axis-tick" pointer-events="none"><line transform="translate(0,300)" x2="-5" y2="0" stroke="#888" stroke-width="1" opacity="1"/><line transform="translate(0,273)" x2="-5" y2="0" stroke="#888" stroke-width="1" opacity="1"/><line transform="translate(0,245)" x2="-5" y2="0" stroke="#888" stroke-width="1" opacity="1"/><line transform="translate(0,218)" x2="-5" y2="0" stroke="#888" stroke-width="1" opacity="1"/><line transform="translate(0,191)" x2="-5" y2="0" stroke="#888" stroke-width="1" opacity="1"/><line transform="translate(0,164)" x2="-5" y2="0" stroke="#888" stroke-width="1" opacity="1"/><line transform="translate(0,136)" x2="-5" y2="0" stroke="#888" stroke-width="1" opacity="1"/><line transform="translate(0,109)" x2="-5" y2="0" stroke="#888" stroke-width="1" opacity="1"/><line transform="translate(0,82)" x2="-5" y2="0" stroke="#888" stroke-width="1" opacity="1"/><line transform="translate(0,55)" x2="-5" y2="0" stroke="#888" stroke-width="1" opacity="1"/><line transform="translate(0,27)" x2="-5" y2="0" stroke="#888" stroke-width="1" opacity="1"/><line transform="translate(0,0)" x2="-5" y2="0" stroke="#888" stroke-width="1" opacity="1"/></g><g class="mark-text role-axis-label" pointer-events="none"><text text-anchor="end" transform="translate(-7,303)" font-family="sans-serif" font-size="10px" fill="#000" opacity="1">−1,500,000</text><text text-anchor="end" transform="translate(-7,275.7272727272727)" font-family="sans-serif" font-size="10px" fill="#000" opacity="1">−1,000,000</text><text text-anchor="end" transform="translate(-7,248.45454545454544)" font-family="sans-serif" font-size="10px" fill="#000" opacity="1">−500,000</text><text text-anchor="end" transform="translate(-7,221.1818181818182)" font-family="sans-serif" font-size="10px" fill="#000" opacity="1">0</text><text text-anchor="end" transform="translate(-7,193.9090909090909)" font-family="sans-serif" font-size="10px" fill="#000" opacity="1">500,000</text><text text-anchor="end" transform="translate(-7,166.63636363636363)" font-family="sans-serif" font-size="10px" fill="#000" opacity="1">1,000,000</text><text text-anchor="end" transform="translate(-7,139.36363636363637)" font-family="sans-serif" font-size="10px" fill="#000" opacity="1">1,500,000</text><text text-anchor="end" transform="translate(-7,112.0909090909091)" font-family="sans-serif" font-size="10px" fill="#000" opacity="1">2,000,000</text><text text-anchor="end" transform="translate(-7,84.81818181818181)" font-family="sans-serif" font-size="10px" fill="#000" opacity="1">2,500,000</text><text text-anchor="end" transform="translate(-7,57.54545454545453)" font-family="sans-serif" font-size="10px" fill="#000" opacity="1">3,000,000</text><text text-anchor="end" transform="translate(-7,30.27272727272728)" font-family="sans-serif" font-size="10px" fill="#000" opacity="1">3,500,000</text><text text-anchor="end" transform="translate(-7,3)" font-family="sans-serif" font-size="10px" fill="#000" opacity="1">4,000,000</text></g><g class="mark-rule role-axis-domain" pointer-events="none"><line transform="translate(0,300)" x2="0" y2="-300" stroke="#888" stroke-width="1" opacity="1"/></g><g class="mark-text role-axis-title" pointer-events="none"><text text-anchor="middle" transform="translate(-61.3271484375,150) rotate(-90) translate(0,-2)" font-family="sans-serif" font-size="11px" font-weight="bold" fill="#000" opacity="1">Decks Registered</text></g></g><path class="foreground" aria-hidden="true" d="" pointer-events="none" display="none"/></g></g><g class="mark-area role-mark layer_0_marks" role="graphics-symbol" aria-roledescription="area mark container"><path d="M0,269.76951300017754L3.007518796992481,271.83817753447664L6.015037593984962,267.8504127576165L9.022556390977442,275.9009746305881L12.030075187969924,262.2643139189221L15.037593984962406,268.3535616149567L18.045112781954884,263.1303473328917L21.052631578947366,259.2712386495233L24.06015037593985,269.4114876346717L27.06766917293233,269.02081903328286L30.075187969924812,259.3421800100395L33.08270676691729,253.94019233339893L36.09022556390977,256.81199104393346L39.097744360902254,260.0330756239899L42.10526315789473,251.6949645282321L45.11278195488722,259.26158843015696L48.1203007518797,250.26484176006795L51.127819548872175,250.46830786393224L54.13533834586466,252.28744165292736L57.14285714285714,248.6752977606428L60.150375939849624,248.867513805376L63.1578947368421,244.51293746111756L66.16541353383458,245.39819043105206L69.17293233082707,244.72418885950768L72.18045112781954,255.25565672774977L75.18796992481202,241.46707881870086L78.19548872180451,236.92593013848807L81.203007518797,237.54578477551692L84.21052631578947,238.05362542900667L87.21804511278195,237.82541620413687L90.22556390977444,231.85506487973072L93.23308270676691,239.3117984259929L96.2406015037594,231.79342486820482L99.24812030075188,237.62816648100628L102.25563909774435,236.89569148136417L105.26315789473684,234.92658235759322L108.27067669172932,231.10138612238592L111.27819548872179,231.16659911585907L114.28571428571428,231.8521944785248L117.29323308270676,224.08078456834525L120.30075187969925,219.2152223215964L123.30827067669172,228.04487026225772L126.3157894736842,223.58036156369448L129.32330827067668,222.67498991008446L132.33082706766916,226.56024034307535L135.33834586466165,222.2398627916726L138.34586466165413,213.91687905572454L141.35338345864662,220.75718385919433L144.36090225563908,213.42320892930965L147.36842105263156,213.43818216958223L150.37593984962405,205.51857266695674L153.38345864661653,210.38299818119265L156.39097744360902,211.23789845341815L159.3984962406015,208.3209917267008L162.406015037594,208.3804446840558L165.41353383458645,205.90969426227784L168.42105263157893,207.43000787236042L171.42857142857142,209.97507139942192L174.4360902255639,204.73714602891496L177.4436090225564,200.7733425628914L180.45112781954887,199.03966044716674L183.45864661654133,201.2901548511384L186.46616541353382,213.03201546665616L189.4736842105263,192.51103958237323L192.4812030075188,199.03454104804374L195.48872180451127,189.77534535791705L198.49624060150376,198.34985997745227L201.50375939849624,200.57086346313383L204.5112781954887,199.72057694911L207.5187969924812,188.22780334152594L210.52631578947367,194.11706259449025L213.53383458646618,197.68122645937373L216.54135338345864,190.208981530086L219.54887218045113,198.39738232724045L222.55639097744358,184.03206859185426L225.5639097744361,182.2994422229475L228.57142857142856,185.86457397997037L231.57894736842107,186.19202475682513L234.58646616541353,180.36549587365315L237.593984962406,186.0338480611047L240.6015037593985,182.96804934735508L243.60902255639098,176.0267013959657L246.61654135338344,187.4483698849071L249.62406015037595,170.85287970821946L252.6315789473684,172.17458109335792L255.63909774436092,180.23809217913927L258.64661654135335,178.3600132737473L261.6541353383459,173.1778221195741L264.6616541353383,167.89808493355847L267.6691729323308,166.83459171440677L270.6766917293233,174.0910276685935L273.6842105263158,170.92474824255945L276.69172932330827,160.0169159886937L279.69924812030075,163.5667575440872L282.70676691729324,176.1312478975207L285.7142857142857,160.4941148065815L288.72180451127815,161.68031244586163L291.7293233082707,160.70827364497586L294.7368421052631,162.6143325601831L297.74436090225566,160.2188813158028L300.7518796992481,158.38141530651865L303.7593984962406,152.78726383430973L306.76691729323306,149.44715200267876L309.77443609022555,155.14420021211654L312.78195488721803,166.00467580866595L315.7894736842105,147.26998422438248L318.796992481203,145.1369472126629L321.8045112781955,153.3167531645837L324.812030075188,140.85186443235378L327.81954887218046,151.5335824018464L330.8270676691729,144.769787645722L333.83458646616543,143.24158427091461L336.84210526315786,143.50649818222334L339.8496240601504,144.85189049641923L342.85714285714283,153.62937334638852L345.8646616541353,136.92012278721944L348.8721804511278,133.63278763311988L351.8796992481203,136.38818191981116L354.8872180451128,137.17125042739517L357.89473684210526,129.80228494915858L360.90225563909775,134.6387558805129L363.90977443609023,129.67004747645615L366.91729323308266,126.80288990484532L369.9248120300752,126.33988177100409L372.93233082706763,131.12661928413698L375.9398496240602,136.37702818680924L378.9473684210526,141.77270157108427L381.9548872180451,123.25508154623088L384.9624060150376,132.6096322183588L387.96992481203006,127.10409994596759L390.97744360902254,123.59627259585821L393.98496240601503,118.36482400389666L396.9924812030075,115.05655891830379L400,115.75315298902814L400,6.7109647144467885L396.9924812030075,15.8549454226726L393.98496240601503,12.624002252555513L390.97744360902254,12.068720180344044L387.96992481203006,17.182188243822424L384.9624060150376,22.992206652599975L381.9548872180451,13.969388418633315L378.9473684210526,19.433006789715265L375.9398496240602,13.042102821837219L372.93233082706763,22.526313341138234L369.9248120300752,25.935954000244152L366.91729323308266,24.860318418951664L363.90977443609023,23.60244066306919L360.90225563909775,16.193421490603455L357.89473684210526,16.169751292758775L354.8872180451128,20.891794919310087L351.8796992481203,35.73137528271701L348.8721804511278,34.18600342743075L345.8646616541353,16.612660567365253L342.85714285714283,22.793271366335944L339.8496240601504,34.402734866091734L336.84210526315786,32.90477645308236L333.83458646616543,32.93402830538872L330.8270676691729,40.99021305599996L327.81954887218046,45.96458562202574L324.812030075188,34.38862422453512L321.8045112781955,43.90148186940225L318.796992481203,38.35469262157892L315.7894736842105,32.273524487625494L312.78195488721803,41.569449205577286L309.77443609022555,49.02158525247964L306.76691729323306,38.20053938164877L303.7593984962406,45.0137564920976L300.7518796992481,45.76071207438625L297.74436090225566,41.02083262767772L294.7368421052631,44.51400619097629L291.7293233082707,59.51466877833454L288.72180451127815,59.40732319752996L285.7142857142857,57.22301987384428L282.70676691729324,59.12245423110545L279.69924812030075,55.177714063981966L276.69172932330827,60.14854877412509L273.6842105263158,62.67681198679634L270.6766917293233,62.79176267227042L267.6691729323308,58.7402264935517L264.6616541353383,64.72667473534646L261.6541353383459,61.28698255371543L258.64661654135335,64.54231698186672L255.63909774436092,68.7031961777749L252.6315789473684,64.15592595160116L249.62406015037595,57.21139212811305L246.61654135338344,62.536914904839804L243.60902255639098,75.92330477683932L240.6015037593985,70.30584665404366L237.593984962406,67.3632941799507L234.58646616541353,70.5182387999417L231.57894736842107,63.85281135371443L228.57142857142856,81.02880353374516L225.5639097744361,71.55555798352437L222.55639097744358,81.43157275320213L219.54887218045113,84.35046193664041L216.54135338345864,78.63131244803368L213.53383458646618,83.8028467790918L210.52631578947367,75.2758767427234L207.5187969924812,82.0172506752097L204.5112781954887,89.19385480024721L201.50375939849624,88.5676763907873L198.49624060150376,84.9786801179301L195.48872180451127,89.46497525983203L192.4812030075188,89.52222122482587L189.4736842105263,92.19648371365254L186.46616541353382,94.78840213061144L183.45864661654133,100.36210078715011L180.45112781954887,93.27426381231724L177.4436090225564,94.5289337949778L174.4360902255639,101.9115383896939L171.42857142857142,88.56634183274805L168.42105263157893,102.12888791149359L165.41353383458645,103.57740479567724L162.406015037594,92.58798749164866L159.3984962406015,103.13413083018001L156.39097744360902,100.77856884782669L153.38345864661653,101.10600198113569L150.37593984962405,109.06489029068734L147.36842105263156,108.23574583983027L144.36090225563908,111.61814956650366L141.35338345864662,112.69427764928894L138.34586466165413,112.84055756221376L135.33834586466165,107.25621356957528L132.33082706766916,108.92042020969623L129.32330827067668,116.16506629956014L126.3157894736842,118.3028519091016L123.30827067669172,114.95302272712156L120.30075187969925,115.88213910145303L117.29323308270676,114.43266544977398L114.28571428571428,115.40894182250818L111.27819548872179,114.87400492821946L108.27067669172932,121.28733567477822L105.26315789473684,126.33131181598849L102.25563909774435,114.8673383059517L99.24812030075188,129.87339402104L96.2406015037594,128.48443968796064L93.23308270676691,122.75403075858131L90.22556390977444,127.99001344837228L87.21804511278195,138.07267104558989L84.21052631578947,130.22409067806078L81.203007518797,133.6423993079698L78.19548872180451,145.0042037702544L75.18796992481202,125.12045289618683L72.18045112781954,132.02064563132092L69.17293233082707,143.94045720361353L66.16541353383458,134.41749480144816L63.1578947368421,134.08186087953192L60.150375939849624,137.4332436713045L57.14285714285714,148.6738954967171L54.13533834586466,140.90116506180016L51.127819548872175,151.69505000067764L48.1203007518797,140.71790343103302L45.11278195488722,141.90838194068104L42.10526315789473,146.0560578544793L39.097744360902254,146.15398094466292L36.09022556390977,147.70866554288241L33.08270676691729,153.36305907515828L30.075187969924812,149.75934932335602L27.06766917293233,150.5515147632924L24.06015037593985,150.10471615656493L21.052631578947366,160.09382201629435L18.045112781954884,156.14748773742815L15.037593984962406,162.3116612546197L12.030075187969924,153.87312731856525L9.022556390977442,159.48249532436668L6.015037593984962,159.71804740855075L3.007518796992481,167.47201297950275L0,162.01724330019545Z" fill="#333333" opacity="0.2"/></g><g class="mark-line role-mark layer_1_marks" role="graphics-symbol" aria-roledescription="line mark container"><path d="M0,216.64120989288213L3.007518796992481,215.9343307149379L6.015037593984962,214.91758607172943L9.022556390977442,213.51817791735536L12.030075187969924,212.17731163607445L15.037593984962406,211.52293760733875L18.045112781954884,210.03920550537885L21.052631578947366,209.0631891960368L24.06015037593985,208.11584360376222L27.06766917293233,206.45081611987933L30.075187969924812,205.36486477610657L33.08270676691729,204.25544977478674L36.09022556390977,203.34627283659975L39.097744360902254,202.23358131492358L42.10526315789473,201.07942428305864L45.11278195488722,199.91812835656793L48.1203007518797,198.6253843967628L51.127819548872175,197.35373982382717L54.13533834586466,196.75972135109816L57.14285714285714,195.33127604202085L60.150375939849624,194.16463763372724L63.1578947368421,193.39607529805312L66.16541353383458,191.95848875984362L69.17293233082707,191.02055741877817L72.18045112781954,189.18494397112937L75.18796992481202,187.9842134239567L78.19548872180451,187.62093077511068L81.203007518797,186.7840160528445L84.21052631578947,185.07511918048942L87.21804511278195,183.8897568289839L90.22556390977444,182.51336916201325L93.23308270676691,181.6019362814729L96.2406015037594,180.30437583671863L99.24812030075188,179.22352890004083L102.25563909774435,177.93665187521017L105.26315789473684,176.92181678943066L108.27067669172932,175.9759593604706L111.27819548872179,174.36742686810896L114.28571428571428,173.73238662555238L117.29323308270676,172.49177451860118L120.30075187969925,171.63125680137432L123.30827067669172,170.06250857670042L126.3157894736842,168.7039188457162L129.32330827067668,167.2463803991917L132.33082706766916,166.6082747990179L135.33834586466165,165.53436323201623L138.34586466165413,164.7689466549404L141.35338345864662,162.930121899765L144.36090225563908,162.05289352412404L147.36842105263156,160.99844482740954L150.37593984962405,159.54477138551684L153.38345864661653,158.22911042685675L156.39097744360902,157.42189078195986L159.3984962406015,156.38231352884006L162.406015037594,155.32398888872038L165.41353383458645,154.0902660475958L168.42105263157893,153.12151758764708L171.42857142857142,151.94401414348079L174.4360902255639,150.3633212456122L177.4436090225564,149.26995135297764L180.45112781954887,148.50424153924675L183.45864661654133,147.40751493836115L186.46616541353382,145.8836577305624L189.4736842105263,145.01956297629152L192.4812030075188,143.25638753410766L195.48872180451127,142.40307513065974L198.49624060150376,141.35776631284907L201.50375939849624,140.21567196302757L204.5112781954887,139.28516627691903L207.5187969924812,138.39385016575244L210.52631578947367,137.23069957100373L213.53383458646618,135.8888808869971L216.54135338345864,134.6037955139716L219.54887218045113,133.43925221910672L222.55639097744358,132.61121987488386L225.5639097744361,131.62166377408366L228.57142857142856,129.99112912867525L231.57894736842107,128.72323120402496L234.58646616541353,127.7351171160561L237.593984962406,126.08392172359267L240.6015037593985,125.65968213019588L243.60902255639098,124.59708129812562L246.61654135338344,122.8413768874767L249.62406015037595,121.75164733222528L252.6315789473684,121.16844977652406L255.63909774436092,120.021603126643L258.64661654135335,118.90966996930042L261.6541353383459,117.22513668552561L264.6616541353383,116.14744474139036L267.6691729323308,115.40864949441945L270.6766917293233,113.63017084350179L273.6842105263158,113.31091438670273L276.69172932330827,111.52117327709566L279.69924812030075,110.49394277310192L282.70676691729324,108.92451783695077L285.7142857142857,108.35903296469945L288.72180451127815,107.32154931784032L291.7293233082707,106.13011640826306L294.7368421052631,104.96287683892524L297.74436090225566,103.39997150758418L300.7518796992481,102.72476315470334L303.7593984962406,101.25033020495535L306.76691729323306,100.20330464885L309.77443609022555,98.85630278564517L312.78195488721803,97.75276969075827L315.7894736842105,96.83724470727998L318.796992481203,95.98114931466756L321.8045112781955,94.51688657006765L324.812030075188,93.31524978219198L327.81954887218046,92.35266997243234L330.8270676691729,90.77354586050255L333.83458646616543,90.30345591941709L336.84210526315786,88.36759944932692L339.8496240601504,87.86427036214111L342.85714285714283,87.25270391749245L345.8646616541353,85.00217040690103L348.8721804511278,84.07046002450535L351.8796992481203,83.22655049188484L354.8872180451128,82.0332687967946L357.89473684210526,80.56812331185174L360.90225563909775,79.46739502817103L363.90977443609023,78.6747618030476L366.91729323308266,77.79329323714654L369.9248120300752,75.88358945708487L372.93233082706763,75.15841987404085L375.9398496240602,73.71954776537173L378.9473684210526,72.82022500285389L381.9548872180451,71.58550448436995L384.9624060150376,70.92052612612476L387.96992481203006,69.42942220222179L390.97744360902254,67.80909228562736L393.98496240601503,66.53682586728367L396.9924812030075,66.14496297410342L400,64.78700888956536" stroke="#333333" stroke-width="2" opacity="0.7"/></g><g class="mark-line role-mark layer_2_marks" role="graphics-symbol" aria-roledescription="line mark container"><path d="M0,209.56276363636366L3.007518796992481,206.25092727272727L6.015037593984962,203.5622181818182L9.022556390977442,201.16936363636364L12.030075187969924,198.64919999999998L15.037593984962406,195.7958181818182L18.045112781954884,193.68321818181818L21.052631578947366,191.74183636363637L24.06015037593985,190.09772727272727L27.06766917293233,188.59189090909092L30.075187969924812,187.23327272727275L33.08270676691729,186.09425454545456L36.09022556390977,184.7562545454545L39.097744360902254,183.39780000000002L42.10526315789473,182.10349090909094L45.11278195488722,180.93818181818182L48.1203007518797,179.72279999999998L51.127819548872175,178.5475090909091L54.13533834586466,177.44738181818184L57.14285714285714,176.42798181818182L60.150375939849624,175.58029090909093L63.1578947368421,174.74503636363633L66.16541353383458,174.07494545454546L69.17293233082707,173.44352727272724L72.18045112781954,172.82754545454546L75.18796992481202,172.24827272727273L78.19548872180451,171.71138181818182L81.203007518797,168.6586363636364L84.21052631578947,165.81594545454547L87.21804511278195,163.9827272727273L90.22556390977444,162.36327272727272L93.23308270676691,160.9849090909091L96.2406015037594,159.81103636363636L99.24812030075188,158.65936363636365L102.25563909774435,157.51772727272726L105.26315789473684,156.3511090909091L108.27067669172932,154.9118727272727L111.27819548872179,153.58352727272728L114.28571428571428,152.48912727272727L117.29323308270676,151.45592727272728L120.30075187969925,150.44078181818182L123.30827067669172,149.59467272727272L126.3157894736842,148.82585454545455L129.32330827067668,148.08627272727273L132.33082706766916,147.39567272727274L135.33834586466165,146.67681818181816L138.34586466165413,145.99652727272726L141.35338345864662,145.33734545454547L144.36090225563908,144.62934545454544L147.36842105263156,143.9304L150.37593984962405,141.62345454545456L153.38345864661653,139.01492727272728L156.39097744360902,137.4139090909091L159.3984962406015,136.24805454545455L162.406015037594,134.79087272727273L165.41353383458645,133.5828L168.42105263157893,132.50820000000002L171.42857142857142,131.16425454545455L174.4360902255639,130.13487272727272L177.4436090225564,129.1658181818182L180.45112781954887,128.2485818181818L183.45864661654133,127.37290909090909L186.46616541353382,126.47940000000001L189.4736842105263,125.68947272727273L192.4812030075188,124.69783636363636L195.48872180451127,124.01198181818182L198.49624060150376,123.36452727272727L201.50375939849624,122.69961818181817L204.5112781954887,122.17843636363638L207.5187969924812,121.80921818181818L210.52631578947367,121.5448909090909L213.53383458646618,121.31847272727273L216.54135338345864,121.10247272727273L219.54887218045113,120.87185454545455L222.55639097744358,120.6529090909091L225.5639097744361,120.43985454545455L228.57142857142856,120.23105454545454L231.57894736842107,119.94289090909089L234.58646616541353,119.69023636363637L237.593984962406,119.1915818181818L240.6015037593985,118.59098181818182L243.60902255639098,118.18325454545455L246.61654135338344,117.80105454545455L249.62406015037595,117.51250909090909L252.6315789473684,117.18719999999999L255.63909774436092,115.52678181818183L258.64661654135335,113.52605454545454L261.6541353383459,112.12783636363636L264.6616541353383,111.11492727272729L267.6691729323308,110.36127272727273L270.6766917293233,109.79552727272728L273.6842105263158,109.26316363636363L276.69172932330827,108.80481818181819L279.69924812030075,108.30818181818182L282.70676691729324,107.87656363636363L285.7142857142857,107.40458181818182L288.72180451127815,106.96641818181818L291.7293233082707,106.53692727272727L294.7368421052631,106.14321818181817L297.74436090225566,105.80852727272728L300.7518796992481,105.4026L303.7593984962406,104.9012181818182L306.76691729323306,104.52758181818183L309.77443609022555,104.18121818181817L312.78195488721803,103.84167272727271L315.7894736842105,103.46154545454547L318.796992481203,103.03189090909092L321.8045112781955,102.70516363636364L324.812030075188,102.31783636363635L327.81954887218046,101.83832727272728L330.8270676691729,101.44472727272729L333.83458646616543,100.92065454545455L336.84210526315786,100.53965454545455L339.8496240601504,100.20763636363635L342.85714285714283,99.85516363636366L345.8646616541353,99.47029090909092L348.8721804511278,99.14487272727271L351.8796992481203,98.83570909090909L354.8872180451128,98.55965454545453L357.89473684210526,98.19278181818181L360.90225563909775,97.82634545454546L363.90977443609023,97.4718L366.91729323308266,97.07820000000001L369.9248120300752,96.74192727272728L372.93233082706763,96.37276363636363L375.9398496240602,95.11347272727274L378.9473684210526,94.34650909090911L381.9548872180451,93.73396363636363L384.9624060150376,93.22003636363635L387.96992481203006,92.2792909090909L390.97744360902254,90.93638181818181L393.98496240601503,90.17083636363637L396.9924812030075,89.50298181818181L400,89.00029090909091" stroke="#4c78a8" stroke-width="2"/></g></g><path class="foreground" aria-hidden="true" d="" display="none"/></g></g></g></svg>