<svg xmlns="http://www.w3.org/2000/svg" xmlns:xlink="http://www.w3.org/1999/xlink" version="1.1" class="marks" width="485" height="347" viewBox="0 0 485 347"><rect width="485" height="347" fill="white"/><g fill="none" stroke-miterlimit="10" transform="translate(78,10)"><g class="mark-group role-frame root" role="graphics-object" aria-roledescription="group mark container"><g transform="translate(0,0)"><path class="background" aria-hidden="true" d="M0.5,0.5h400v300h-400Z" stroke="#ddd"/><g><g class="mark-group role-axis" role="graphics-symbol" aria-roledescription="axis" aria-label="X-axis for a linear scale with values from 1 to 134"><g transform="translate(0.5,300.5)"><path class="background" aria-hidden="true" d="M0,0h0v0h0Z" pointer-events="none"/><g><g class="mark-rule role-axis-grid" pointer-events="none"><line transform="translate(27,-300)" x2="0" y2="300" stroke="#ddd" stroke-width="1" opacity="1"/><line transform="translate(57,-300)" x2="0" y2="300" stroke="#ddd" stroke-width="1" opacity="1"/><line transform="translate(87,-300)" x2="0" y2="300" stroke="#ddd" stroke-width="1" opacity="1"/><line transform="translate(117,-300)" x2="0" y2="300" stroke="#ddd" stroke-width="1" opacity="1"/><line transform="translate(147,-300)" x2="0" y2="300" stroke="#ddd" stroke-width="1" opacity="1"/><line transform="translate(177,-300)" x2="0" y2="300" stroke="#ddd" stroke-width="1" opacity="1"/><line transform="translate(208,-300)" x2="0" y2="300" stroke="#ddd" stroke-width="1" opacity="1"/><line transform="translate(238,-300)" x2="0" y2="300" stroke="#ddd" stroke-width="1" opacity="1"/><line transform="translate(268,-300)" x2="0" y2="300" stroke="#ddd" stroke-width="1" opacity="1"/><line transform="translate(298,-300)" x2="0" y2="300" stroke="#ddd" stroke-width="1" opacity="1"/><line transform="translate(328,-300)" x2="0" y2="300" stroke="#ddd" stroke-width="1" opacity="1"/><line transform="translate(358,-300)" x2="0" y2="300" stroke="#ddd" stroke-width="1" opacity="1"/><line transform="translate(388,-300)" x2="0" y2="300" stroke="#ddd" stroke-width="1" opacity="1"/></g></g><path class="foreground" aria-hidden="true" d="" pointer-events="none" display="none"/></g></g><g class="mark-group role-axis" role="graphics-symbol" aria-roledescription="axis" aria-label="Y-axis for a linear scale with values from −1,000,000 to 4,000,000"><g transform="translate(0.5,0.5)"><path class="background" aria-hidden="true" d="M0,0h0v0h0Z" pointer-events="none"/><g><g class="mark-rule role-axis-grid" pointer-events="none"><line transform="translate(0,300)" x2="400" y2="0" stroke="#ddd" stroke-width="1" opacity="1"/><line transform="translate(0,270)" x2="400" y2="0" stroke="#ddd" stroke-width="1" opacity="1"/><line transform="translate(0,240)" x2="400" y2="0" stroke="#ddd" stroke-width="1" opacity="1"/><line transform="translate(0,210)" x2="400" y2="0" stroke="#ddd" stroke-width="1" opacity="1"/><line transform="translate(0,180)" x2="400" y2="0" stroke="#ddd" stroke-width="1" opacity="1"/><line transform="translate(0,150)" x2="400" y2="0" stroke="#ddd" stroke-width="1" opacity="1"/><line transform="translate(0,120)" x2="400" y2="0" stroke="#ddd" stroke-width="1" opacity="1"/><line transform="translate(0,90)" x2="400" y2="0" stroke="#ddd" stroke-width="1" opacity="1"/><line transform="translate(0,60)" x2="400" y2="0" stroke="#ddd" stroke-width="1" opacity="1"/><line transform="translate(0,30)" x2="400" y2="0" stroke="#ddd" stroke-width="1" opacity="1"/><line transform="translate(0,0)" x2="400" y2="0" stroke="#ddd" stroke-width="1" opacity="1"/></g></g><path class="foreground" aria-hidden="true" d="" pointer-events="none" display="none"/></g></g><g class="mark-group role-axis" role="graphics-symbol" aria-roledescription="axis" aria-label="X-axis titled 'Week' for a linear scale with values from 1 to 134"><g transform="translate(0.5,300.5)"><path class="background" aria-hidden="true" d="M0,0h0v0h0Z" pointer-events="none"/><g><g class="mark-rule role-axis-tick" pointer-events="none"><line transform="translate(27,0)" x2="0" y2="5" stroke="#888" stroke-width="1" opacity="1"/><line transform="translate(57,0)" x2="0" y2="5" stroke="#888" stroke-width="1" opacity="1"/><line transform="translate(87,0)" x2="0" y2="5" stroke="#888" stroke-width="1" opacity="1"/><line transform="translate(117,0)" x2="0" y2="5" stroke="#888" stroke-width="1" opacity="1"/><line transform="translate(147,0)" x2="0" y2="5" stroke="#888" stroke-width="1" opacity="1"/><line transform="translate(177,0)" x2="0" y2="5" stroke="#888" stroke-width="1" opacity="1"/><line transform="translate(208,0)" x2="0" y2="5" stroke="#888" stroke-width="1" opacity="1"/><line transform="translate(238,0)" x2="0" y2="5" stroke="#888" stroke-width="1" opacity="1"/><line transform="translate(268,0)" x2="0" y2="5" stroke="#888" stroke-width="1" opacity="1"/><line transform="translate(298,0)" x2="0" y2="5" stroke="#888" stroke-width="1" opacity="1"/><line transform="translate(328,0)" x2="0" y2="5" stroke="#888" stroke-width="1" opacity="1"/><line transform="translate(358,0)" x2="0" y2="5" stroke="#888" stroke-width="1" opacity="1"/><line transform="translate(388,0)" x2="0" y2="5" stroke="#888" stroke-width="1" opacity="1"/></g><g class="mark-text role-axis-label" pointer-events="none"><text text-anchor="middle" transform="translate(27.06766917293233,15)" font-family="sans-serif" font-size="10px" fill="#000" opacity="1">10</text><text text-anchor="middle" transform="translate(57.14285714285714,15)" font-family="sans-serif" font-size="10px" fill="#000" opacity="1">20</text><text text-anchor="middle" transform="translate(87.21804511278195,15)" font-family="sans-serif" font-size="10px" fill="#000" opacity="1">30</text><text text-anchor="middle" transform="translate(117.29323308270676,15)" font-family="sans-serif" font-size="10px" fill="#000" opacity="1">40</text><text text-anchor="middle" transform="translate(147.36842105263156,15)" font-family="sans-serif" font-size="10px" fill="#000" opacity="1">50</text><text text-anchor="middle" transform="translate(177.4436090225564,15)" font-family="sans-serif" font-size="10px" fill="#000" opacity="1">60</text><text text-anchor="middle" transform="translate(207.5187969924812,15)" font-family="sans-serif" font-size="10px" fill="#000" opacity="1">70</text><text text-anchor="middle" transform="translate(237.593984962406,15)" font-family="sans-serif" font-size="10px" fill="#000" opacity="1">80</text><text text-anchor="middle" transform="translate(267.6691729323308,15)" font-family="sans-serif" font-size="10px" fill="#000" opacity="1">90</text><text text-anchor="middle" transform="translate(297.74436090225566,15)" font-family="sans-serif" font-size="10px" fill="#000" opacity="1">100</text><text text-anchor="middle" transform="translate(327.81954887218046,15)" font-family="sans-serif" font-size="10px" fill="#000" opacity="1">110</text><text text-anchor="middle" transform="translate(357.89473684210526,15)" font-family="sans-serif" font-size="10px" fill="#000" opacity="1">120</text><text text-anchor="middle" transform="translate(387.96992481203006,15)" font-family="sans-serif" font-size="10px" fill="#000" opacity="1">130</text></g><g class="mark-rule role-axis-domain" pointer-events="none"><line transform="translate(0,0)" x2="400" y2="0" stroke="#888" stroke-width="1" opacity="1"/></g><g class="mark-text role-axis-title" pointer-events="none"><text text-anchor="middle" transform="translate(200,30)" font-family="sans-serif" font-size="11px" font-weight="bold" fill="#000" opacity="1">Week</text></g></g><path class="foreground" aria-hidden="true" d="" pointer-events="none" display="none"/></g></g><g class="mark-group role-axis" role="graphics-symbol" aria-roledescription="axis" aria-label="Y-axis titled 'Decks Registered' for a linear scale with values from −1,000,000 to 4,000,000"><g transform="translate(0.5,0.5)"><path class="background" aria-hidden="true" d="M0,0h0v0h0Z" pointer-events="none"/><g><g class="mark-rule role-axis-tick" pointer-events="none"><line transform="translate(0,300)" x2="-5" y2="0" stroke="#888" stroke-width="1" opacity="1"/><line transform="translate(0,270)" x2="-5" y2="0" stroke="#888" stroke-width="1" opacity="1"/><line transform="translate(0,240)" x2="-5" y2="0" stroke="#888" stroke-width="1" opacity="1"/><line transform="translate(0,210)" x2="-5" y2="0" stroke="#888" stroke-width="1" opacity="1"/><line transform="translate(0,180)" x2="-5" y2="0" stroke="#888" stroke-width="1" opacity="1"/><line transform="translate(0,150)" x2="-5" y2="0" stroke="#888" stroke-width="1" opacity="1"/><line transform="translate(0,120)" x2="-5" y2="0" stroke="#888" stroke-width="1" opacity="1"/><line transform="translate(0,90)" x2="-5" y2="0" stroke="#888" stroke-width="1" opacity="1"/><line transform="translate(0,60)" x2="-5" y2="0" stroke="#888" stroke-width="1" opacity="1"/><line transform="translate(0,30)" x2="-5" y2="0" stroke="#888" stroke-width="1" opacity="1"/><line transform="translate(0,0)" x2="-5" y2="0" stroke="#888" stroke-width="1" opacity="1"/></g><g class="mark-text role-axis-label" pointer-events="none"><text text-anchor="end" transform="translate(-7,303)" font-family="sans-serif" font-size="10px" fill="#000" opacity="1">−1,000,000</text><text text-anchor="end" transform="translate(-7,273)" font-family="sans-serif" font-size="10px" fill="#000" opacity="1">−500,000</text><text text-anchor="end" transform="translate(-7,243)" font-family="sans-serif" font-size="10px" fill="#000" opacity="1">0</text><text text-anchor="end" transform="translate(-7,213)" font-family="sans-serif" font-size="10px" fill="#000" opacity="1">500,000</text><text text-anchor="end" transform="translate(-7,183)" font-family="sans-serif" font-size="10px" fill="#000" opacity="1">1,000,000</text><text text-anchor="end" transform="translate(-7,153)" font-family="sans-serif" font-size="10px" fill="#000" opacity="1">1,500,000</text><text text-anchor="end" transform="translate(-7,123)" font-family="sans-serif" font-size="10px" fill="#000" opacity="1">2,000,000</text><text text-anchor="end" transform="translate(-7,93.00000000000001)" font-family="sans-serif" font-size="10px" fill="#000" opacity="1">2,500,000</text><text text-anchor="end" transform="translate(-7,62.999999999999986)" font-family="sans-serif" font-size="10px" fill="#000" opacity="1">3,000,000</text><text text-anchor="end" transform="translate(-7,32.99999999999999)" font-family="sans-serif" font-size="10px" fill="#000" opacity="1">3,500,000</text><text text-anchor="end" transform="translate(-7,3)" font-family="sans-serif" font-size="10px" fill="#000" opacity="1">4,000,000</text></g><g class="mark-rule role-axis-domain" pointer-events="none"><line transform="translate(0,300)" x2="0" y2="-300" stroke="#888" stroke-width="1" opacity="1"/></g><g class="mark-text role-axis-title" pointer-events="none"><text text-anchor="middle" transform="translate(-61.3271484375,150) rotate(-90) translate(0,-2)" font-family="sans-serif" font-size="11px" font-weight="bold" fill="#000" opacity="1">Decks Registered</text></g></g><path class="foreground" aria-hidden="true" d="" pointer-events="none" display="none"/></g></g><g class="mark-area role-mark layer_0_marks" role="graphics-symbol" aria-roledescription="area mark container"><path d="M0,280.11505810326963L3.007518796992481,285.22256640255614L6.015037593984962,280.94957841608283L9.022556390977442,273.3260919999979L12.030075187969924,277.05567017553693L15.037593984962406,268.20660145417713L18.045112781954884,266.70287568301444L21.052631578947366,278.23703473959233L24.06015037593985,271.2544671001188L27.06766917293233,278.4346713559598L30.075187969924812,264.8509481684556L33.08270676691729,265.5386780115669L36.09022556390977,265.810090697405L39.097744360902254,262.5315590462641L42.10526315789473,263.0039615305793L45.11278195488722,259.82456746656953L48.1203007518797,261.47917396904654L51.127819548872175,258.4984403263027L54.13533834586466,253.42030833456002L57.14285714285714,253.6321938925635L60.150375939849624,259.8792575799998L63.1578947368421,251.180838825424L66.16541353383458,248.43981580535547L69.17293233082707,259.5714141890514L72.18045112781954,246.86114806095196L75.18796992481202,249.0003672066245L78.19548872180451,249.75744883995537L81.203007518797,251.06656960256186L84.21052631578947,246.82352767853922L87.21804511278195,244.18604436738178L90.22556390977444,242.64110984460496L93.23308270676691,242.10269256376924L96.2406015037594,237.7840856286153L99.24812030075188,239.56863225503014L102.25563909774435,240.7781393812316L105.26315789473684,234.5418835994113L108.27067669172932,242.29900354485744L111.27819548872179,233.49330666547243L114.28571428571428,234.90240641808288L117.29323308270676,237.04604724326632L120.30075187969925,231.96507040247317L123.30827067669172,232.7520074981926L126.3157894736842,231.7478012626229L129.32330827067668,229.30334014917136L132.33082706766916,239.1289511073966L135.33834586466165,223.76202698940935L138.34586466165413,224.78330873424974L141.35338345864662,223.66499570008935L144.36090225563908,227.99122007740317L147.36842105263156,225.62079275750742L150.37593984962405,224.36797021090916L153.38345864661653,219.06047642886858L156.39097744360902,218.69196747733037L159.3984962406015,222.93339278269028L162.406015037594,216.81775218325456L165.41353383458645,214.49296653630236L168.42105263157893,209.47074423548773L171.42857142857142,209.23534322285337L174.4360902255639,213.0478487101152L177.4436090225564,220.92613927293422L180.45112781954887,209.86894285753252L183.45864661654133,206.37884999932922L186.46616541353382,201.4862049680715L189.4736842105263,203.76286449941944L192.4812030075188,202.31468088200097L195.48872180451127,202.87848746905283L198.49624060150376,198.6141195803079L201.50375939849624,218.26977197716727L204.5112781954887,205.44582013274064L207.5187969924812,206.95995116633745L210.52631578947367,198.11591015015478L213.53383458646618,196.195184378083L216.54135338345864,193.14566383669978L219.54887218045113,190.04281701233438L222.55639097744358,191.11355169771963L225.5639097744361,189.77934278757007L228.57142857142856,202.2641253352778L231.57894736842107,188.59749233456955L234.58646616541353,198.56008316271402L237.593984962406,189.7881731702237L240.6015037593985,186.74276253688512L243.60902255639098,181.36401244613467L246.61654135338344,182.30852197039255L249.62406015037595,180.26376316190516L252.6315789473684,179.64973317652175L255.63909774436092,179.45970339460277L258.64661654135335,171.90850358535326L261.6541353383459,177.64545055886308L264.6616541353383,176.79940079719486L267.6691729323308,171.78439061485608L270.6766917293233,171.3539667940776L273.6842105263158,171.82028186018954L276.69172932330827,173.70090748607794L279.69924812030075,173.72803310885203L282.70676691729324,174.43339403938998L285.7142857142857,170.39039490935377L288.72180451127815,166.95704784775833L291.7293233082707,167.93502725007906L294.7368421052631,162.80931775319874L297.74436090225566,161.7039939494558L300.7518796992481,160.7041693706787L303.7593984962406,174.1102020250936L306.76691729323306,164.87009571168772L309.77443609022555,165.12294627771894L312.78195488721803,158.56221372389882L315.7894736842105,163.71641789421673L318.796992481203,162.534628953171L321.8045112781955,158.3583188671055L324.812030075188,159.98183787541882L327.81954887218046,150.42137998870962L330.8270676691729,152.01609072666406L333.83458646616543,145.41961638935013L336.84210526315786,153.02833281469412L339.8496240601504,148.88235156502344L342.85714285714283,154.88977055894097L345.8646616541353,140.87843562755629L348.8721804511278,144.77742532681793L351.8796992481203,138.9342519725254L354.8872180451128,143.100781097978L357.89473684210526,142.19807248027124L360.90225563909775,146.71885908277662L363.90977443609023,144.86845671741202L366.91729323308266,143.62580651490106L369.9248120300752,142.25591443334386L372.93233082706763,131.95280896352148L375.9398496240602,134.91772951444392L378.9473684210526,128.202778780448L381.9548872180451,127.9984905699482L384.9624060150376,131.63953191309L387.96992481203006,139.38467799482717L390.97744360902254,137.1415327223337L393.98496240601503,131.32726355467406L396.9924812030075,127.62726868172808L400,122.63104685620634L400,36.02285510380703L396.9924812030075,30.860595042376005L393.98496240601503,31.088959993858907L390.97744360902254,25.817859009966668L387.96992481203006,32.54482929570821L384.9624060150376,30.959279256386935L381.9548872180451,29.761375438008045L378.9473684210526,36.236138890089734L375.9398496240602,37.9453085218331L372.93233082706763,32.461081224083415L369.9248120300752,30.514549947826637L366.91729323308266,41.86364402390424L363.90977443609023,39.59643322144893L360.90225563909775,42.82271563861599L357.89473684210526,41.77168495837435L354.8872180451128,43.644163171383894L351.8796992481203,47.754295859916056L348.8721804511278,48.23939923933358L345.8646616541353,43.341889069138006L342.85714285714283,44.38535940677909L339.8496240601504,49.1281842236949L336.84210526315786,53.9463308044495L333.83458646616543,46.58046771634838L330.8270676691729,55.62494785831646L327.81954887218046,55.68546985322726L324.812030075188,61.51456592897756L321.8045112781955,46.95894957581575L318.796992481203,54.70689510047718L315.7894736842105,56.171658344757134L312.78195488721803,66.68630713804612L309.77443609022555,64.73258022767286L306.76691729323306,65.67337439065733L303.7593984962406,58.56933042373697L300.7518796992481,57.01247964819889L297.74436090225566,64.09325934662886L294.7368421052631,65.06855254575643L291.7293233082707,69.4379186645407L288.72180451127815,74.13258869069503L285.7142857142857,64.22273070077512L282.70676691729324,72.16858486059355L279.69924812030075,77.96017039995385L276.69172932330827,77.75785484901296L273.6842105263158,77.90754505717999L270.6766917293233,76.13883906739379L267.6691729323308,72.88478514904834L264.6616541353383,83.93378436222308L261.6541353383459,76.00799533635863L258.64661654135335,81.34795346596707L255.63909774436092,87.13378981112412L252.6315789473684,85.57096853675506L249.62406015037595,84.7077011572472L246.61654135338344,94.48578119135553L243.60902255639098,89.35393461869042L240.6015037593985,90.75545672720062L237.593984962406,92.44950183935372L234.58646616541353,93.73473978610573L231.57894736842107,98.26796772871981L228.57142857142856,89.02042875325435L225.5639097744361,89.53082178278716L222.55639097744358,96.97100384221733L219.54887218045113,90.41577533286139L216.54135338345864,98.70699357713629L213.53383458646618,97.37139801542712L210.52631578947367,103.42401608340067L207.5187969924812,99.54634691284458L204.5112781954887,104.411102776772L201.50375939849624,106.581939980468L198.49624060150376,105.07704857158099L195.48872180451127,104.64358536617524L192.4812030075188,109.3771765195429L189.4736842105263,104.25275114643684L186.46616541353382,106.81680526924112L183.45864661654133,106.31493328384282L180.45112781954887,110.92361128567387L177.4436090225564,115.26378821908251L174.4360902255639,115.3910967514172L171.42857142857142,115.66922414744994L168.42105263157893,117.55940474555388L165.41353383458645,122.53138056861512L162.406015037594,122.30749064798981L159.3984962406015,122.56429925908826L156.39097744360902,125.80575662297737L153.38345864661653,118.31708792862446L150.37593984962405,111.61492750864245L147.36842105263156,125.89506279424995L144.36090225563908,119.41379160058051L141.35338345864662,131.81165915869877L138.34586466165413,130.56779192820093L135.33834586466165,131.69644203306015L132.33082706766916,124.31715017669089L129.32330827067668,122.48968654270708L126.3157894736842,129.07197703349468L123.30827067669172,135.4261210666891L120.30075187969925,135.42097951414547L117.29323308270676,132.91971193089807L114.28571428571428,133.35596642759762L111.27819548872179,143.06773554062391L108.27067669172932,143.5456875720384L105.26315789473684,141.23973894954858L102.25563909774435,139.68813885930234L99.24812030075188,146.38887742408124L96.2406015037594,141.42969048806327L93.23308270676691,139.9140777885991L90.22556390977444,149.16886148377247L87.21804511278195,151.81034044263316L84.21052631578947,147.53892907393524L81.203007518797,144.3865648299622L78.19548872180451,146.53365771155944L75.18796992481202,145.06838468073826L72.18045112781954,153.99530676737848L69.17293233082707,147.05130069016278L66.16541353383458,154.3198231473602L63.1578947368421,156.67481405615018L60.150375939849624,159.45653379758033L57.14285714285714,161.30298236084653L54.13533834586466,160.2905989742227L51.127819548872175,167.1176247158103L48.1203007518797,166.9135291226819L45.11278195488722,159.61779227159818L42.10526315789473,160.99867534187575L39.097744360902254,168.40906512142521L36.09022556390977,166.38197485531813L33.08270676691729,170.1408134072438L30.075187969924812,168.2730322712383L27.06766917293233,173.95288962016758L24.06015037593985,176.1702923686462L21.052631578947366,178.3169619549457L18.045112781954884,166.76163071859145L15.037593984962406,173.86193822920634L12.030075187969924,176.50932382455156L9.022556390977442,179.38124257421114L6.015037593984962,182.34399236524342L3.007518796992481,182.29568570250757L0,187.55470577585152Z" fill="#333333" opacity="0.2"/></g><g class="mark-line role-mark layer_1_marks" role="graphics-symbol" aria-roledescription="line mark container"><path d="M0,231.22048026567933L3.007518796992481,229.6012304124614L6.015037593984962,228.72818431216L9.022556390977442,227.56307361969394L12.030075187969924,226.31315670939557L15.037593984962406,225.05727091081795L18.045112781954884,223.82435831949493L21.052631578947366,222.91011360584503L24.06015037593985,221.86018974479208L27.06766917293233,220.13296550477747L30.075187969924812,219.80397144396733L33.08270676691729,218.08510232584976L36.09022556390977,217.28754343698557L39.097744360902254,216.5093415130267L42.10526315789473,214.21387669549517L45.11278195488722,213.39749618597875L48.1203007518797,212.32011230611428L51.127819548872175,211.05066273565416L54.13533834586466,209.66226955591142L57.14285714285714,209.16894109769467L60.150375939849624,207.63622143732903L63.1578947368421,206.4307339057553L66.16541353383458,205.17184667472264L69.17293233082707,204.10619910901673L72.18045112781954,203.01565149216592L75.18796992481202,201.37016341776817L78.19548872180451,200.56481048659697L81.203007518797,199.3746034636371L84.21052631578947,197.83720396025873L87.21804511278195,197.15305810286227L90.22556390977444,195.69929712980655L93.23308270676691,194.71448395457452L96.2406015037594,193.5634242857231L99.24812030075188,192.3127702821283L102.25563909774435,191.19141129688376L105.26315789473684,190.21999490443582L108.27067669172932,188.6060821857922L111.27819548872179,187.77733253384454L114.28571428571428,186.38184220636342L117.29323308270676,185.19840336937966L120.30075187969925,184.11668661970316L123.30827067669172,183.4874060057501L126.3157894736842,181.26765759941566L129.32330827067668,180.57158354476434L132.33082706766916,179.62971145440932L135.33834586466165,178.18487550802757L138.34586466165413,176.7644513250505L141.35338345864662,175.8219163615197L144.36090225563908,174.9264596068769L147.36842105263156,173.43243080328725L150.37593984962405,172.55152405900094L153.38345864661653,171.3187622680028L156.39097744360902,170.61073270712677L159.3984962406015,169.0795912844806L162.406015037594,167.60397802542647L165.41353383458645,166.82452447451726L168.42105263157893,165.3825253170198L171.42857142857142,164.21086843372603L174.4360902255639,163.5776883995756L177.4436090225564,162.07399422838813L180.45112781954887,160.69945315937724L183.45864661654133,159.27070513039854L186.46616541353382,158.2963822248022L189.4736842105263,157.2813218123781L192.4812030075188,155.95238194812464L195.48872180451127,155.12170334761453L198.49624060150376,153.4031536213504L201.50375939849624,152.74818806039747L204.5112781954887,150.94268305462677L207.5187969924812,150.301942966138L210.52631578947367,148.7919324949507L213.53383458646618,148.28420961737265L216.54135338345864,146.65205598663334L219.54887218045113,145.27731948969478L222.55639097744358,144.25110197173223L225.5639097744361,143.11806327067694L228.57142857142856,142.0194092001741L231.57894736842107,141.09126481139876L234.58646616541353,139.80023587080728L237.593984962406,138.47836178799196L240.6015037593985,137.31119159166605L243.60902255639098,135.99219163538675L246.61654135338344,134.89791085357916L249.62406015037595,133.7880236520692L252.6315789473684,132.50360086938227L255.63909774436092,131.43410869400734L258.64661654135335,130.61080598529128L261.6541353383459,129.01827675468846L264.6616541353383,128.1169996187238L267.6691729323308,126.99778521155572L270.6766917293233,125.7811792554802L273.6842105263158,124.7769837035596L276.69172932330827,123.42337908557622L279.69924812030075,122.17837673406953L282.70676691729324,121.01836497317227L285.7142857142857,120.15908826900902L288.72180451127815,118.6697322184204L291.7293233082707,117.4599324518096L294.7368421052631,115.98747986580935L297.74436090225566,115.0291656510896L300.7518796992481,114.18706215578204L303.7593984962406,112.74589167755273L306.76691729323306,111.5703554768333L309.77443609022555,109.92375376194833L312.78195488721803,109.2116547992789L315.7894736842105,108.11593108375494L318.796992481203,106.5604963878184L321.8045112781955,106.0875509174576L324.812030075188,104.71780134133253L327.81954887218046,103.47442312113465L330.8270676691729,101.97698031221051L333.83458646616543,100.89817824359588L336.84210526315786,100.0088033299068L339.8496240601504,98.52297532002983L342.85714285714283,97.56839263749421L345.8646616541353,96.0047530670464L348.8721804511278,95.38353564389215L351.8796992481203,93.95560871729562L354.8872180451128,93.30582290792259L357.89473684210526,91.90032392960828L360.90225563909775,90.52558731946958L363.90977443609023,89.00175998210844L366.91729323308266,88.32472701201628L369.9248120300752,87.2930101204178L372.93233082706763,85.51629953228702L375.9398496240602,84.79885917036366L378.9473684210526,83.40890808312543L381.9548872180451,82.35377707935564L384.9624060150376,80.97405746690647L387.96992481203006,80.19742419915644L390.97744360902254,78.98885162679846L393.98496240601503,77.99105586800866L396.9924812030075,76.43927365666826L400,75.56428157673515" stroke="#333333" stroke-width="2" opacity="0.7"/></g><g class="mark-line role-mark layer_2_marks" role="graphics-symbol" aria-roledescription="line mark container"><path d="M0,230.51904L3.007518796992481,226.87601999999998L6.015037593984962,223.91844L9.022556390977442,221.2863L12.030075187969924,218.51412000000002L15.037593984962406,215.3754L18.045112781954884,213.05154000000002L21.052631578947366,210.91601999999997L24.06015037593985,209.10750000000002L27.06766917293233,207.45108L30.075187969924812,205.95660000000004L33.08270676691729,204.70368L36.09022556390977,203.23188000000002L39.097744360902254,201.73758L42.10526315789473,200.31384L45.11278195488722,199.032L48.1203007518797,197.69508L51.127819548872175,196.40225999999998L54.13533834586466,195.19212L57.14285714285714,194.07077999999998L60.150375939849624,193.13832L63.1578947368421,192.21954L66.16541353383458,191.48244L69.17293233082707,190.78788000000003L72.18045112781954,190.11030000000002L75.18796992481202,189.47310000000002L78.19548872180451,188.88252L81.203007518797,185.5245L84.21052631578947,182.39754L87.21804511278195,180.381L90.22556390977444,178.59959999999998L93.23308270676691,177.0834L96.2406015037594,175.79214L99.24812030075188,174.52530000000002L102.25563909774435,173.2695L105.26315789473684,171.98622L108.27067669172932,170.40306L111.27819548872179,168.94188L114.28571428571428,167.73804L117.29323308270676,166.60152L120.30075187969925,165.48486L123.30827067669172,164.55414000000002L126.3157894736842,163.70843999999997L129.32330827067668,162.8949L132.33082706766916,162.13524L135.33834586466165,161.34449999999998L138.34586466165413,160.59617999999998L141.35338345864662,159.87108L144.36090225563908,159.09228L147.36842105263156,158.32344L150.37593984962405,155.7858L153.38345864661653,152.91642L156.39097744360902,151.1553L159.3984962406015,149.87286L162.406015037594,148.26996000000003L165.41353383458645,146.94108L168.42105263157893,145.75902L171.42857142857142,144.28068000000002L174.4360902255639,143.14836L177.4436090225564,142.0824L180.45112781954887,141.07344L183.45864661654133,140.1102L186.46616541353382,139.12734L189.4736842105263,138.25842L192.4812030075188,137.16762L195.48872180451127,136.41317999999998L198.49624060150376,135.70098L201.50375939849624,134.96958L204.5112781954887,134.39628000000002L207.5187969924812,133.99014L210.52631578947367,133.69938L213.53383458646618,133.45031999999998L216.54135338345864,133.21272L219.54887218045113,132.95904L222.55639097744358,132.7182L225.5639097744361,132.48384000000001L228.57142857142856,132.25415999999998L231.57894736842107,131.93718L234.58646616541353,131.65926000000002L237.593984962406,131.11074L240.6015037593985,130.45008L243.60902255639098,130.00158000000002L246.61654135338344,129.58116L249.62406015037595,129.26376000000002L252.6315789473684,128.90592L255.63909774436092,127.07946000000001L258.64661654135335,124.87866000000001L261.6541353383459,123.34062000000002L264.6616541353383,122.22642000000002L267.6691729323308,121.39739999999999L270.6766917293233,120.77508000000002L273.6842105263158,120.18947999999999L276.69172932330827,119.68529999999998L279.69924812030075,119.139L282.70676691729324,118.66422L285.7142857142857,118.14504L288.72180451127815,117.66305999999999L291.7293233082707,117.19062L294.7368421052631,116.75753999999999L297.74436090225566,116.38938L300.7518796992481,115.94286000000001L303.7593984962406,115.39134000000001L306.76691729323306,114.98034000000001L309.77443609022555,114.59934000000001L312.78195488721803,114.22584L315.7894736842105,113.8077L318.796992481203,113.33508L321.8045112781955,112.97567999999998L324.812030075188,112.54961999999999L327.81954887218046,112.02216000000001L330.8270676691729,111.58919999999999L333.83458646616543,111.01272L336.84210526315786,110.59362L339.8496240601504,110.2284L342.85714285714283,109.84068L345.8646616541353,109.41731999999999L348.8721804511278,109.05936000000001L351.8796992481203,108.71928L354.8872180451128,108.41561999999999L357.89473684210526,108.01206L360.90225563909775,107.60898L363.90977443609023,107.21897999999999L366.91729323308266,106.78602L369.9248120300752,106.41612000000002L372.93233082706763,106.01003999999999L375.9398496240602,104.62482L378.9473684210526,103.78115999999999L381.9548872180451,103.10735999999999L384.9624060150376,102.54203999999999L387.96992481203006,101.50722L390.97744360902254,100.03002L393.98496240601503,99.18791999999999L396.9924812030075,98.45327999999999L400,97.90032000000001" stroke="#4c78a8" stroke-width="2"/></g></g><path class="foreground" aria-hidden="true" d="" display="none"/></g></g></g></svg>