<svg xmlns="http://www.w3.org/2000/svg" xmlns:xlink="http://www.w3.org/1999/xlink" version="1.1" class="marks" width="479" height="342" viewBox="0 0 479 342"><rect width="479" height="342" fill="white"/><g fill="none" stroke-miterlimit="10" transform="translate(72,5)"><g class="mark-group role-frame root" role="graphics-object" aria-roledescription="group mark container"><g transform="translate(0,0)"><path class="background" aria-hidden="true" d="M0.5,0.5h400v300h-400Z" stroke="#ddd"/><g><g class="mark-group role-axis" role="graphics-symbol" aria-roledescription="axis" aria-label="X-axis for a linear scale with values from 1 to 134"><g transform="translate(0.5,300.5)"><path class="background" aria-hidden="true" d="M0,0h0v0h0Z" pointer-events="none"/><g><g class="mark-rule role-axis-grid" pointer-events="none"><line transform="translate(27,-300)" x2="0" y2="300" stroke="#ddd" stroke-width="1" opacity="1"/><line transform="translate(57,-300)" x2="0" y2="300" stroke="#ddd" stroke-width="1" opacity="1"/><line transform="translate(87,-300)" x2="0" y2="300" stroke="#ddd" stroke-width="1" opacity="1"/><line transform="translate(117,-300)" x2="0" y2="300" stroke="#ddd" stroke-width="1" opacity="1"/><line transform="translate(147,-300)" x2="0" y2="300" stroke="#ddd" stroke-width="1" opacity="1"/><line transform="translate(177,-300)" x2="0" y2="300" stroke="#ddd" stroke-width="1" opacity="1"/><line transform="translate(208,-300)" x2="0" y2="300" stroke="#ddd" stroke-width="1" opacity="1"/><line transform="translate(238,-300)" x2="0" y2="300" stroke="#ddd" stroke-width="1" opacity="1"/><line transform="translate(268,-300)" x2="0" y2="300" stroke="#ddd" stroke-width="1" opacity="1"/><line transform="translate(298,-300)" x2="0" y2="300" stroke="#ddd" stroke-width="1" opacity="1"/><line transform="translate(328,-300)" x2="0" y2="300" stroke="#ddd" stroke-width="1" opacity="1"/><line transform="translate(358,-300)" x2="0" y2="300" stroke="#ddd" stroke-width="1" opacity="1"/><line transform="translate(388,-300)" x2="0" y2="300" stroke="#ddd" stroke-width="1" opacity="1"/></g></g><path class="foreground" aria-hidden="true" d="" pointer-events="none" display="none"/></g></g><g class="mark-group role-axis" role="graphics-symbol" aria-roledescription="axis" aria-label="Y-axis for a linear scale with values from −200,000 to 2,800,000"><g transform="translate(0.5,0.5)"><path class="background" aria-hidden="true" d="M0,0h0v0h0Z" pointer-events="none"/><g><g class="mark-rule role-axis-grid" pointer-events="none"><line transform="translate(0,280)" x2="400" y2="0" stroke="#ddd" stroke-width="1" opacity="1"/><line transform="translate(0,230)" x2="400" y2="0" stroke="#ddd" stroke-width="1" opacity="1"/><line transform="translate(0,180)" x2="400" y2="0" stroke="#ddd" stroke-width="1" opacity="1"/><line transform="translate(0,130)" x2="400" y2="0" stroke="#ddd" stroke-width="1" opacity="1"/><line transform="translate(0,80)" x2="400" y2="0" stroke="#ddd" stroke-width="1" opacity="1"/><line transform="translate(0,30)" x2="400" y2="0" stroke="#ddd" stroke-width="1" opacity="1"/></g></g><path class="foreground" aria-hidden="true" d="" pointer-events="none" display="none"/></g></g><g class="mark-group role-axis" role="graphics-symbol" aria-roledescription="axis" aria-label="X-axis titled 'Week' for a linear scale with values from 1 to 134"><g transform="translate(0.5,300.5)"><path class="background" aria-hidden="true" d="M0,0h0v0h0Z" pointer-events="none"/><g><g class="mark-rule role-axis-tick" pointer-events="none"><line transform="translate(27,0)" x2="0" y2="5" stroke="#888" stroke-width="1" opacity="1"/><line transform="translate(57,0)" x2="0" y2="5" stroke="#888" stroke-width="1" opacity="1"/><line transform="translate(87,0)" x2="0" y2="5" stroke="#888" stroke-width="1" opacity="1"/><line transform="translate(117,0)" x2="0" y2="5" stroke="#888" stroke-width="1" opacity="1"/><line transform="translate(147,0)" x2="0" y2="5" stroke="#888" stroke-width="1" opacity="1"/><line transform="translate(177,0)" x2="0" y2="5" stroke="#888" stroke-width="1" opacity="1"/><line transform="translate(208,0)" x2="0" y2="5" stroke="#888" stroke-width="1" opacity="1"/><line transform="translate(238,0)" x2="0" y2="5" stroke="#888" stroke-width="1" opacity="1"/><line transform="translate(268,0)" x2="0" y2="5" stroke="#888" stroke-width="1" opacity="1"/><line transform="translate(298,0)" x2="0" y2="5" stroke="#888" stroke-width="1" opacity="1"/><line transform="translate(328,0)" x2="0" y2="5" stroke="#888" stroke-width="1" opacity="1"/><line transform="translate(358,0)" x2="0" y2="5" stroke="#888" stroke-width="1" opacity="1"/><line transform="translate(388,0)" x2="0" y2="5" stroke="#888" stroke-width="1" opacity="1"/></g><g class="mark-text role-axis-label" pointer-events="none"><text text-anchor="middle" transform="translate(27.06766917293233,15)" font-family="sans-serif" font-size="10px" fill="#000" opacity="1">10</text><text text-anchor="middle" transform="translate(57.14285714285714,15)" font-family="sans-serif" font-size="10px" fill="#000" opacity="1">20</text><text text-anchor="middle" transform="translate(87.21804511278195,15)" font-family="sans-serif" font-size="10px" fill="#000" opacity="1">30</text><text text-anchor="middle" transform="translate(117.29323308270676,15)" font-family="sans-serif" font-size="10px" fill="#000" opacity="1">40</text><text text-anchor="middle" transform="translate(147.36842105263156,15)" font-family="sans-serif" font-size="10px" fill="#000" opacity="1">50</text><text text-anchor="middle" transform="translate(177.4436090225564,15)" font-family="sans-serif" font-size="10px" fill="#000" opacity="1">60</text><text text-anchor="middle" transform="translate(207.5187969924812,15)" font-family="sans-serif" font-size="10px" fill="#000" opacity="1">70</text><text text-anchor="middle" transform="translate(237.593984962406,15)" font-family="sans-serif" font-size="10px" fill="#000" opacity="1">80</text><text text-anchor="middle" transform="translate(267.6691729323308,15)" font-family="sans-serif" font-size="10px" fill="#000" opacity="1">90</text><text text-anchor="middle" transform="translate(297.74436090225566,15)" font-family="sans-serif" font-size="10px" fill="#000" opacity="1">100</text><text text-anchor="middle" transform="translate(327.81954887218046,15)" font-family="sans-serif" font-size="10px" fill="#000" opacity="1">110</text><text text-anchor="middle" transform="translate(357.89473684210526,15)" font-family="sans-serif" font-size="10px" fill="#000" opacity="1">120</text><text text-anchor="middle" transform="translate(387.96992481203006,15)" font-family="sans-serif" font-size="10px" fill="#000" opacity="1">130</text></g><g class="mark-rule role-axis-domain" pointer-events="none"><line transform="translate(0,0)" x2="400" y2="0" stroke="#888" stroke-width="1" opacity="1"/></g><g class="mark-text role-axis-title" pointer-events="none"><text text-anchor="middle" transform="translate(200,30)" font-family="sans-serif" font-size="11px" font-weight="bold" fill="#000" opacity="1">Week</text></g></g><path class="foreground" aria-hidden="true" d="" pointer-events="none" display="none"/></g></g><g class="mark-group role-axis" role="graphics-symbol" aria-roledescription="axis" aria-label="Y-axis titled 'Decks Registered' for a linear scale with values from −200,000 to 2,800,000"><g transform="translate(0.5,0.5)"><path class="background" aria-hidden="true" d="M0,0h0v0h0Z" pointer-events="none"/><g><g class="mark-rule role-axis-tick" pointer-events="none"><line transform="translate(0,280)" x2="-5" y2="0" stroke="#888" stroke-width="1" opacity="1"/><line transform="translate(0,230)" x2="-5" y2="0" stroke="#888" stroke-width="1" opacity="1"/><line transform="translate(0,180)" x2="-5" y2="0" stroke="#888" stroke-width="1" opacity="1"/><line transform="translate(0,130)" x2="-5" y2="0" stroke="#888" stroke-width="1" opacity="1"/><line transform="translate(0,80)" x2="-5" y2="0" stroke="#888" stroke-width="1" opacity="1"/><line transform="translate(0,30)" x2="-5" y2="0" stroke="#888" stroke-width="1" opacity="1"/></g><g class="mark-text role-axis-label" pointer-events="none"><text text-anchor="end" transform="translate(-7,283)" font-family="sans-serif" font-size="10px" fill="#000" opacity="1">0</text><text text-anchor="end" transform="translate(-7,232.99999999999997)" font-family="sans-serif" font-size="10px" fill="#000" opacity="1">500,000</text><text text-anchor="end" transform="translate(-7,183)" font-family="sans-serif" font-size="10px" fill="#000" opacity="1">1,000,000</text><text text-anchor="end" transform="translate(-7,133)" font-family="sans-serif" font-size="10px" fill="#000" opacity="1">1,500,000</text><text text-anchor="end" transform="translate(-7,83.00000000000001)" font-family="sans-serif" font-size="10px" fill="#000" opacity="1">2,000,000</text><text text-anchor="end" transform="translate(-7,32.99999999999999)" font-family="sans-serif" font-size="10px" fill="#000" opacity="1">2,500,000</text></g><g class="mark-rule role-axis-domain" pointer-events="none"><line transform="translate(0,300)" x2="0" y2="-300" stroke="#888" stroke-width="1" opacity="1"/></g><g class="mark-text role-axis-title" pointer-events="none"><text text-anchor="middle" transform="translate(-55.4873046875,150) rotate(-90) translate(0,-2)" font-family="sans-serif" font-size="11px" font-weight="bold" fill="#000" opacity="1">Decks Registered</text></g></g><path class="foreground" aria-hidden="true" d="" pointer-events="none" display="none"/></g></g><g class="mark-area role-mark layer_0_marks" role="graphics-symbol" aria-roledescription="area mark container"><path d="M0,286.06999544914515L3.007518796992481,281.7319410768992L6.015037593984962,282.3517269852499L9.022556390977442,283.5006597905251L12.030075187969924,279.77093717390363L15.037593984962406,272.4391869934768L18.045112781954884,271.8794044799225L21.052631578947366,269.3558951994923L24.06015037593985,267.77891204886043L27.06766917293233,266.165392488576L30.075187969924812,265.95796964947937L33.08270676691729,257.68827859629323L36.09022556390977,254.52226157390777L39.097744360902254,251.76580965314065L42.10526315789473,249.50604033576508L45.11278195488722,248.9917414693243L48.1203007518797,248.6912348586825L51.127819548872175,243.48385854443725L54.13533834586466,242.9736151617566L57.14285714285714,236.50769731750557L60.150375939849624,236.0878704750366L63.1578947368421,231.40313574987172L66.16541353383458,229.75688238036216L69.17293233082707,228.46698617620683L72.18045112781954,222.9896181773395L75.18796992481202,224.3728414600364L78.19548872180451,218.3537914950071L81.203007518797,216.1405973363718L84.21052631578947,212.19871223098465L87.21804511278195,210.12224114244987L90.22556390977444,207.40270771035003L93.23308270676691,205.50761898411363L96.2406015037594,206.29854938725015L99.24812030075188,203.62923395673386L102.25563909774435,198.09243862401033L105.26315789473684,195.83820879051947L108.27067669172932,193.3992533219678L111.27819548872179,190.7151170300917L114.28571428571428,191.89288724040966L117.29323308270676,189.87965879008487L120.30075187969925,181.49817257064538L123.30827067669172,180.1602554569965L126.3157894736842,182.50621033689163L129.32330827067668,183.7694486241209L132.33082706766916,170.09438137656176L135.33834586466165,168.56382254382152L138.34586466165413,171.827385155135L141.35338345864662,164.060888028876L144.36090225563908,163.02271005810874L147.36842105263156,158.67537922967531L150.37593984962405,157.36850175869975L153.38345864661653,157.0259945534355L156.39097744360902,155.79366448866733L159.3984962406015,150.7423355339355L162.406015037594,144.87678358637712L165.41353383458645,142.9128795064096L168.42105263157893,141.57647645881875L171.42857142857142,143.0553808390772L174.4360902255639,135.8953269404206L177.4436090225564,136.04082839799267L180.45112781954887,139.40285378495741L183.45864661654133,130.22991862691117L186.46616541353382,129.46812151051748L189.4736842105263,132.27243281519884L192.4812030075188,128.333905429241L195.48872180451127,127.4637156202394L198.49624060150376,130.15768304556275L201.50375939849624,127.524106916157L204.5112781954887,129.00789227364805L207.5187969924812,122.07271667194452L210.52631578947367,125.75715749924024L213.53383458646618,121.07741270190363L216.54135338345864,123.78097417128923L219.54887218045113,119.28582525328223L222.55639097744358,120.12745254798999L225.5639097744361,117.65234794054528L228.57142857142856,120.37603747962761L231.57894736842107,117.71282981558483L234.58646616541353,119.27050695330176L237.593984962406,115.49466017736954L240.6015037593985,117.34239758060052L243.60902255639098,113.30672182825379L246.61654135338344,114.56297387871366L249.62406015037595,111.12921513944164L252.6315789473684,111.33192589867886L255.63909774436092,109.0221842288258L258.64661654135335,117.40162188832137L261.6541353383459,108.70781885537866L264.6616541353383,110.01454041276081L267.6691729323308,109.97727359007722L270.6766917293233,105.34428010754671L273.6842105263158,109.36693232703422L276.69172932330827,107.58235539251574L279.69924812030075,105.944047653047L282.70676691729324,101.14346945233095L285.7142857142857,100.98015011342446L288.72180451127815,103.69699316849382L291.7293233082707,104.60386688152788L294.7368421052631,105.33703855982706L297.74436090225566,98.49366533753296L300.7518796992481,96.50149080459767L303.7593984962406,96.69792235214229L306.76691729323306,95.58274084612869L309.77443609022555,95.39654110875139L312.78195488721803,95.9769476945003L315.7894736842105,93.78891051412361L318.796992481203,94.48538212256081L321.8045112781955,93.63594647977979L324.812030075188,90.12287377130735L327.81954887218046,91.22268700796057L330.8270676691729,91.41387208080381L333.83458646616543,89.17549938862409L336.84210526315786,87.32933487005782L339.8496240601504,85.59696020416256L342.85714285714283,88.53015970718369L345.8646616541353,82.30698307617679L348.8721804511278,83.94642142173247L351.8796992481203,87.91643104550411L354.8872180451128,82.11028783490323L357.89473684210526,81.72192352752172L360.90225563909775,82.92782133436323L363.90977443609023,79.59203140661718L366.91729323308266,78.19548357129729L369.9248120300752,79.63973722971996L372.93233082706763,77.0238888295281L375.9398496240602,78.09249476481665L378.9473684210526,79.50898884008824L381.9548872180451,74.65005334241353L384.9624060150376,73.57233839557686L387.96992481203006,73.03981158416309L390.97744360902254,70.28192802389202L393.98496240601503,70.5580863541996L396.9924812030075,70.55116706562596L400,68.78251236204956L400,23.39396563782158L396.9924812030075,18.76695167962508L393.98496240601503,27.641907194411857L390.97744360902254,28.20917943531559L387.96992481203006,29.07191665360179L384.9624060150376,29.476321019393858L381.9548872180451,29.177477049697814L378.9473684210526,27.663837743692724L375.9398496240602,32.19608498696023L372.93233082706763,29.14869024926392L369.9248120300752,33.052602546001566L366.91729323308266,31.23121901509502L363.90977443609023,31.741541798430497L360.90225563909775,33.72123306154382L357.89473684210526,35.40363420680779L354.8872180451128,33.73188998402913L351.8796992481203,35.913903518535285L348.8721804511278,40.282518689094815L345.8646616541353,37.60161163716758L342.85714285714283,42.504551741339554L339.8496240601504,40.7780239585918L336.84210526315786,43.29723367860201L333.83458646616543,43.282445268012104L330.8270676691729,42.504499036206965L327.81954887218046,43.898361154457355L324.812030075188,47.85711680920678L321.8045112781955,47.9190705557751L318.796992481203,47.7368667608549L315.7894736842105,44.33818026371239L312.78195488721803,49.90194549743199L309.77443609022555,50.33599098983944L306.76691729323306,49.92812025493962L303.7593984962406,51.223321567294136L300.7518796992481,55.04750047697458L297.74436090225566,52.09831721865539L294.7368421052631,54.23084047820056L291.7293233082707,55.32607846355653L288.72180451127815,54.48587459398186L285.7142857142857,55.527334848933606L282.70676691729324,53.579136849461214L279.69924812030075,57.46024453134794L276.69172932330827,59.95745450320128L273.6842105263158,53.43986436267447L270.6766917293233,61.81593029189837L267.6691729323308,61.05092745537857L264.6616541353383,61.58151109198299L261.6541353383459,61.74049530253528L258.64661654135335,65.07893741612165L255.63909774436092,61.35819336857517L252.6315789473684,68.59231371169831L249.62406015037595,65.64935311315254L246.61654135338344,69.10361859011027L243.60902255639098,64.79790656273099L240.6015037593985,67.9767922629035L237.593984962406,70.49573942377178L234.58646616541353,68.14610955113768L231.57894736842107,71.75417458245914L228.57142857142856,72.66825660793934L225.5639097744361,73.72631482680687L222.55639097744358,74.35612326558748L219.54887218045113,74.4287647466926L216.54135338345864,76.49631478915951L213.53383458646618,74.98406114220703L210.52631578947367,79.53709742973749L207.5187969924812,76.94552454136097L204.5112781954887,81.41487457418769L201.50375939849624,80.64670286949203L198.49624060150376,81.3237912335944L195.48872180451127,80.88080523390741L192.4812030075188,80.60198460525724L189.4736842105263,74.24109872500263L186.46616541353382,78.39185613627214L183.45864661654133,85.3009307165904L180.45112781954887,85.41295717211916L177.4436090225564,87.03892056300552L174.4360902255639,93.89960184438088L171.42857142857142,93.53805216681954L168.42105263157893,91.89133389668788L165.41353383458645,96.6211823604499L162.406015037594,100.89108000625588L159.3984962406015,105.18560405693341L156.39097744360902,104.77857392766556L153.38345864661653,108.49001488570241L150.37593984962405,114.75847627624091L147.36842105263156,114.52608285021245L144.36090225563908,115.69469496862908L141.35338345864662,121.41130552860058L138.34586466165413,121.2593198162698L135.33834586466165,124.42188686956688L132.33082706766916,126.57946610714738L129.32330827067668,127.88910866821732L126.3157894736842,134.0747937890252L123.30827067669172,133.75668345087328L120.30075187969925,140.34467288154997L117.29323308270676,139.90611738393238L114.28571428571428,141.77746443421572L111.27819548872179,144.26662377286263L108.27067669172932,146.1908484620437L105.26315789473684,149.827395226487L102.25563909774435,155.289082747519L99.24812030075188,157.30073037861928L96.2406015037594,161.09189884181058L93.23308270676691,161.13761724238358L90.22556390977444,165.51535211730766L87.21804511278195,165.25759471280304L84.21052631578947,169.295872920302L81.203007518797,171.40832320188733L78.19548872180451,173.2440199819433L75.18796992481202,177.9650963885403L72.18045112781954,180.7700013443383L69.17293233082707,181.52870348547404L66.16541353383458,184.92516982918409L63.1578947368421,186.1298684061856L60.150375939849624,181.73915052866806L57.14285714285714,191.1081561618594L54.13533834586466,199.25252825934533L51.127819548872175,200.27115271646147L48.1203007518797,198.38083501706623L45.11278195488722,204.5601132252098L42.10526315789473,203.41672430175885L39.097744360902254,208.33435417190788L36.09022556390977,203.53479570856936L33.08270676691729,209.50665428558725L30.075187969924812,217.08907734924688L27.06766917293233,216.56739295365873L24.06015037593985,220.06173655781365L21.052631578947366,224.03711648068165L18.045112781954884,223.33047700690037L15.037593984962406,229.0240237329293L12.030075187969924,230.19335100224282L9.022556390977442,234.95161040752424L6.015037593984962,233.1093891210882L3.007518796992481,241.167504705974L0,244.24565635957322Z" fill="#333333" opacity="0.2"/></g><g class="mark-line role-mark layer_1_marks" role="graphics-symbol" aria-roledescription="line mark container"><path d="M0,264.95049418235175L3.007518796992481,262.23062787840513L6.015037593984962,259.86308557266767L9.022556390977442,257.162288471463L12.030075187969924,254.53972378260355L15.037593984962406,251.91332240447605L18.045112781954884,249.0965641220017L21.052631578947366,246.74103028144003L24.06015037593985,243.92545950750593L27.06766917293233,241.4977834438163L30.075187969924812,238.79138473640035L33.08270676691729,236.1331588293476L36.09022556390977,233.60280022941612L39.097744360902254,230.93743941336615L42.10526315789473,228.3328529199788L45.11278195488722,225.72531388407734L48.1203007518797,223.17450137729472L51.127819548872175,220.55999076695315L54.13533834586466,217.8479041978851L57.14285714285714,215.18361203658185L60.150375939849624,212.62834530919366L63.1578947368421,209.958943278339L66.16541353383458,207.44808445052783L69.17293233082707,204.77024151253266L72.18045112781954,202.12767654997495L75.18796992481202,199.4656369155531L78.19548872180451,196.84024817232705L81.203007518797,194.3399190429677L84.21052631578947,191.6835442315787L87.21804511278195,188.88760590687764L90.22556390977444,186.52655495634664L93.23308270676691,183.99362418461735L96.2406015037594,181.2783632048868L99.24812030075188,178.50523742403246L102.25563909774435,176.12688097745263L105.26315789473684,173.25493310701805L108.27067669172932,170.79825147511804L111.27819548872179,168.13899521102707L114.28571428571428,165.65274382108288L117.29323308270676,163.0454876998038L120.30075187969925,160.28191833762386L123.30827067669172,157.68767071495716L126.3157894736842,154.96835794580537L129.32330827067668,152.39165260602158L132.33082706766916,149.7935489161885L135.33834586466165,147.00109196968282L138.34586466165413,144.61976192937797L141.35338345864662,142.0449665832134L144.36090225563908,139.27900160940797L147.36842105263156,136.69045530373097L150.37593984962405,134.170818055816L153.38345864661653,131.45565168932941L156.39097744360902,128.69827864063424L159.3984962406015,126.24998260532804L162.406015037594,123.48467275674403L165.41353383458645,120.94469269958196L168.42105263157893,118.44452378717433L171.42857142857142,115.94777877726871L174.4360902255639,112.9744526726297L177.4436090225564,110.54306011435999L180.45112781954887,109.62746336294838L183.45864661654133,108.56020327277484L186.46616541353382,107.81550501575477L189.4736842105263,107.00295598590886L192.4812030075188,106.02672394884179L195.48872180451127,105.16358172491317L198.49624060150376,104.5773083191404L201.50375939849624,103.54059039053782L204.5112781954887,102.67714783091401L207.5187969924812,101.95131953217226L210.52631578947367,101.12091517481215L213.53383458646618,100.10414706624218L216.54135338345864,99.32021150265987L219.54887218045113,98.29812254598508L222.55639097744358,97.40133087832754L225.5639097744361,96.64163068835273L228.57142857142856,95.71444864951594L231.57894736842107,94.93808255338229L234.58646616541353,93.85272058880074L237.593984962406,93.18427824546426L240.6015037593985,92.43240875239903L243.60902255639098,91.48751586222033L246.61654135338344,90.48445124657492L249.62406015037595,89.6644271338502L252.6315789473684,88.78344185332143L255.63909774436092,87.97999100398263L258.64661654135335,87.04343334058238L261.6541353383459,86.21225908751832L264.6616541353383,85.36715750073152L267.6691729323308,84.65378064967156L270.6766917293233,83.61582804184714L273.6842105263158,82.87202472767709L276.69172932330827,81.96242972472395L279.69924812030075,81.043767633277L282.70676691729324,80.45562345447368L285.7142857142857,79.33122288095096L288.72180451127815,78.5666057202694L291.7293233082707,77.72227949634538L294.7368421052631,76.74632076602859L297.74436090225566,75.84463480734863L300.7518796992481,75.1330675638469L303.7593984962406,74.26612220507714L306.76691729323306,73.24083762390762L309.77443609022555,72.39270139564434L312.78195488721803,71.58459003900849L315.7894736842105,70.61163892719058L318.796992481203,69.93748859124403L321.8045112781955,69.24872619921585L324.812030075188,68.20945752248913L327.81954887218046,67.30389448672533L330.8270676691729,66.46044008633945L333.83458646616543,65.49193230908179L336.84210526315786,64.54868507489758L339.8496240601504,63.763343984532085L342.85714285714283,62.888196972949004L345.8646616541353,61.895003734772004L348.8721804511278,61.0005650336648L351.8796992481203,60.35431696101777L354.8872180451128,59.54661867070031L357.89473684210526,58.78277951421881L360.90225563909775,57.680966781163434L363.90977443609023,57.075581625286674L366.91729323308266,55.97323258571354L369.9248120300752,55.15669119055009L372.93233082706763,54.19179497721019L375.9398496240602,53.42291900048637L378.9473684210526,52.57429316800177L381.9548872180451,51.5814299709506L384.9624060150376,51.02025598069545L387.96992481203006,49.89902846880351L390.97744360902254,48.874591668663534L393.98496240601503,48.336124397561L396.9924812030075,47.33442465450201L400,46.53970649918452" stroke="#333333" stroke-width="2" opacity="0.7"/></g><g class="mark-line role-mark layer_2_marks" role="graphics-symbol" aria-roledescription="line mark container"><path d="M0,264.1984L3.007518796992481,258.1267L6.015037593984962,253.1974L9.022556390977442,248.81050000000002L12.030075187969924,244.19019999999998L15.037593984962406,238.95899999999997L18.045112781954884,235.08589999999998L21.052631578947366,231.5267L24.06015037593985,228.5125L27.06766917293233,225.7518L30.075187969924812,223.261L33.08270676691729,221.17280000000002L36.09022556390977,218.7198L39.097744360902254,216.2293L42.10526315789473,213.85639999999998L45.11278195488722,211.72L48.1203007518797,209.49179999999998L51.127819548872175,207.33710000000002L54.13533834586466,205.3202L57.14285714285714,203.45130000000003L60.150375939849624,201.89720000000003L63.1578947368421,200.3659L66.16541353383458,199.1374L69.17293233082707,197.9798L72.18045112781954,196.8505L75.18796992481202,195.7885L78.19548872180451,194.80419999999998L81.203007518797,189.20749999999998L84.21052631578947,183.9959L87.21804511278195,180.635L90.22556390977444,177.666L93.23308270676691,175.139L96.2406015037594,172.9869L99.24812030075188,170.8755L102.25563909774435,168.78250000000003L105.26315789473684,166.64370000000002L108.27067669172932,164.0051L111.27819548872179,161.5698L114.28571428571428,159.56340000000003L117.29323308270676,157.6692L120.30075187969925,155.8081L123.30827067669172,154.2569L126.3157894736842,152.8474L129.32330827067668,151.49149999999997L132.33082706766916,150.2254L135.33834586466165,148.9075L138.34586466165413,147.6603L141.35338345864662,146.45180000000002L144.36090225563908,145.1538L147.36842105263156,143.8724L150.37593984962405,139.643L153.38345864661653,134.8607L156.39097744360902,131.9255L159.3984962406015,129.78809999999996L162.406015037594,127.11660000000002L165.41353383458645,124.90179999999998L168.42105263157893,122.93169999999999L171.42857142857142,120.46780000000001L174.4360902255639,118.58060000000002L177.4436090225564,116.80399999999999L180.45112781954887,115.12240000000001L183.45864661654133,113.517L186.46616541353382,111.87889999999999L189.4736842105263,110.43069999999999L192.4812030075188,108.6127L195.48872180451127,107.35530000000001L198.49624060150376,106.16829999999999L201.50375939849624,104.9493L204.5112781954887,103.99380000000001L207.5187969924812,103.31690000000002L210.52631578947367,102.83229999999999L213.53383458646618,102.41719999999998L216.54135338345864,102.0212L219.54887218045113,101.59840000000001L222.55639097744358,101.19699999999999L225.5639097744361,100.80639999999998L228.57142857142856,100.42360000000001L231.57894736842107,99.89529999999999L234.58646616541353,99.4321L237.593984962406,98.51790000000001L240.6015037593985,97.41680000000001L243.60902255639098,96.6693L246.61654135338344,95.9686L249.62406015037595,95.43960000000003L252.6315789473684,94.8432L255.63909774436092,91.7991L258.64661654135335,88.1311L261.6541353383459,85.56770000000002L264.6616541353383,83.7107L267.6691729323308,82.32899999999998L270.6766917293233,81.2918L273.6842105263158,80.3158L276.69172932330827,79.47550000000001L279.69924812030075,78.56500000000001L282.70676691729324,77.77370000000002L285.7142857142857,76.9084L288.72180451127815,76.1051L291.7293233082707,75.31770000000002L294.7368421052631,74.5959L297.74436090225566,73.9823L300.7518796992481,73.23809999999999L303.7593984962406,72.31890000000001L306.76691729323306,71.63389999999998L309.77443609022555,70.99889999999999L312.78195488721803,70.3764L315.7894736842105,69.67950000000002L318.796992481203,68.89179999999999L321.8045112781955,68.2928L324.812030075188,67.58269999999999L327.81954887218046,66.70359999999998L330.8270676691729,65.98200000000001L333.83458646616543,65.02120000000001L336.84210526315786,64.32269999999998L339.8496240601504,63.714000000000006L342.85714285714283,63.067800000000005L345.8646616541353,62.3622L348.8721804511278,61.765600000000006L351.8796992481203,61.198799999999984L354.8872180451128,60.69269999999999L357.89473684210526,60.0201L360.90225563909775,59.34829999999999L363.90977443609023,58.69829999999999L366.91729323308266,57.976700000000015L369.9248120300752,57.360200000000006L372.93233082706763,56.68339999999999L375.9398496240602,54.3747L378.9473684210526,52.9686L381.9548872180451,51.845600000000005L384.9624060150376,50.9034L387.96992481203006,49.1787L390.97744360902254,46.71669999999999L393.98496240601503,45.31319999999999L396.9924812030075,44.088800000000006L400,43.16719999999998" stroke="#4c78a8" stroke-width="2"/></g></g><path class="foreground" aria-hidden="true" d="" display="none"/></g></g></g></svg>