<svg xmlns="http://www.w3.org/2000/svg" xmlns:xlink="http://www.w3.org/1999/xlink" version="1.1" class="marks" width="479" height="347" viewBox="0 0 479 347"><rect width="479" height="347" fill="white"/><g fill="none" stroke-miterlimit="10" transform="translate(72,10)"><g class="mark-group role-frame root" role="graphics-object" aria-roledescription="group mark container"><g transform="translate(0,0)"><path class="background" aria-hidden="true" d="M0.5,0.5h400v300h-400Z" stroke="#ddd"/><g><g class="mark-group role-axis" role="graphics-symbol" aria-roledescription="axis" aria-label="X-axis for a linear scale with values from 1 to 134"><g transform="translate(0.5,300.5)"><path class="background" aria-hidden="true" d="M0,0h0v0h0Z" pointer-events="none"/><g><g class="mark-rule role-axis-grid" pointer-events="none"><line transform="translate(27,-300)" x2="0" y2="300" stroke="#ddd" stroke-width="1" opacity="1"/><line transform="translate(57,-300)" x2="0" y2="300" stroke="#ddd" stroke-width="1" opacity="1"/><line transform="translate(87,-300)" x2="0" y2="300" stroke="#ddd" stroke-width="1" opacity="1"/><line transform="translate(117,-300)" x2="0" y2="300" stroke="#ddd" stroke-width="1" opacity="1"/><line transform="translate(147,-300)" x2="0" y2="300" stroke="#ddd" stroke-width="1" opacity="1"/><line transform="translate(177,-300)" x2="0" y2="300" stroke="#ddd" stroke-width="1" opacity="1"/><line transform="translate(208,-300)" x2="0" y2="300" stroke="#ddd" stroke-width="1" opacity="1"/><line transform="translate(238,-300)" x2="0" y2="300" stroke="#ddd" stroke-width="1" opacity="1"/><line transform="translate(268,-300)" x2="0" y2="300" stroke="#ddd" stroke-width="1" opacity="1"/><line transform="translate(298,-300)" x2="0" y2="300" stroke="#ddd" stroke-width="1" opacity="1"/><line transform="translate(328,-300)" x2="0" y2="300" stroke="#ddd" stroke-width="1" opacity="1"/><line transform="translate(358,-300)" x2="0" y2="300" stroke="#ddd" stroke-width="1" opacity="1"/><line transform="translate(388,-300)" x2="0" y2="300" stroke="#ddd" stroke-width="1" opacity="1"/></g></g><path class="foreground" aria-hidden="true" d="" pointer-events="none" display="none"/></g></g><g class="mark-group role-axis" role="graphics-symbol" aria-roledescription="axis" aria-label="Y-axis for a linear scale with values from 0 to 4,000,000"><g transform="translate(0.5,0.5)"><path class="background" aria-hidden="true" d="M0,0h0v0h0Z" pointer-events="none"/><g><g class="mark-rule role-axis-grid" pointer-events="none"><line transform="translate(0,300)" x2="400" y2="0" stroke="#ddd" stroke-width="1" opacity="1"/><line transform="translate(0,263)" x2="400" y2="0" stroke="#ddd" stroke-width="1" opacity="1"/><line transform="translate(0,225)" x2="400" y2="0" stroke="#ddd" stroke-width="1" opacity="1"/><line transform="translate(0,188)" x2="400" y2="0" stroke="#ddd" stroke-width="1" opacity="1"/><line transform="translate(0,150)" x2="400" y2="0" stroke="#ddd" stroke-width="1" opacity="1"/><line transform="translate(0,113)" x2="400" y2="0" stroke="#ddd" stroke-width="1" opacity="1"/><line transform="translate(0,75)" x2="400" y2="0" stroke="#ddd" stroke-width="1" opacity="1"/><line transform="translate(0,38)" x2="400" y2="0" stroke="#ddd" stroke-width="1" opacity="1"/><line transform="translate(0,0)" x2="400" y2="0" stroke="#ddd" stroke-width="1" opacity="1"/></g></g><path class="foreground" aria-hidden="true" d="" pointer-events="none" display="none"/></g></g><g class="mark-group role-axis" role="graphics-symbol" aria-roledescription="axis" aria-label="X-axis titled 'Week' for a linear scale with values from 1 to 134"><g transform="translate(0.5,300.5)"><path class="background" aria-hidden="true" d="M0,0h0v0h0Z" pointer-events="none"/><g><g class="mark-rule role-axis-tick" pointer-events="none"><line transform="translate(27,0)" x2="0" y2="5" stroke="#888" stroke-width="1" opacity="1"/><line transform="translate(57,0)" x2="0" y2="5" stroke="#888" stroke-width="1" opacity="1"/><line transform="translate(87,0)" x2="0" y2="5" stroke="#888" stroke-width="1" opacity="1"/><line transform="translate(117,0)" x2="0" y2="5" stroke="#888" stroke-width="1" opacity="1"/><line transform="translate(147,0)" x2="0" y2="5" stroke="#888" stroke-width="1" opacity="1"/><line transform="translate(177,0)" x2="0" y2="5" stroke="#888" stroke-width="1" opacity="1"/><line transform="translate(208,0)" x2="0" y2="5" stroke="#888" stroke-width="1" opacity="1"/><line transform="translate(238,0)" x2="0" y2="5" stroke="#888" stroke-width="1" opacity="1"/><line transform="translate(268,0)" x2="0" y2="5" stroke="#888" stroke-width="1" opacity="1"/><line transform="translate(298,0)" x2="0" y2="5" stroke="#888" stroke-width="1" opacity="1"/><line transform="translate(328,0)" x2="0" y2="5" stroke="#888" stroke-width="1" opacity="1"/><line transform="translate(358,0)" x2="0" y2="5" stroke="#888" stroke-width="1" opacity="1"/><line transform="translate(388,0)" x2="0" y2="5" stroke="#888" stroke-width="1" opacity="1"/></g><g class="mark-text role-axis-label" pointer-events="none"><text text-anchor="middle" transform="translate(27.06766917293233,15)" font-family="sans-serif" font-size="10px" fill="#000" opacity="1">10</text><text text-anchor="middle" transform="translate(57.14285714285714,15)" font-family="sans-serif" font-size="10px" fill="#000" opacity="1">20</text><text text-anchor="middle" transform="translate(87.21804511278195,15)" font-family="sans-serif" font-size="10px" fill="#000" opacity="1">30</text><text text-anchor="middle" transform="translate(117.29323308270676,15)" font-family="sans-serif" font-size="10px" fill="#000" opacity="1">40</text><text text-anchor="middle" transform="translate(147.36842105263156,15)" font-family="sans-serif" font-size="10px" fill="#000" opacity="1">50</text><text text-anchor="middle" transform="translate(177.4436090225564,15)" font-family="sans-serif" font-size="10px" fill="#000" opacity="1">60</text><text text-anchor="middle" transform="translate(207.5187969924812,15)" font-family="sans-serif" font-size="10px" fill="#000" opacity="1">70</text><text text-anchor="middle" transform="translate(237.593984962406,15)" font-family="sans-serif" font-size="10px" fill="#000" opacity="1">80</text><text text-anchor="middle" transform="translate(267.6691729323308,15)" font-family="sans-serif" font-size="10px" fill="#000" opacity="1">90</text><text text-anchor="middle" transform="translate(297.74436090225566,15)" font-family="sans-serif" font-size="10px" fill="#000" opacity="1">100</text><text text-anchor="middle" transform="translate(327.81954887218046,15)" font-family="sans-serif" font-size="10px" fill="#000" opacity="1">110</text><text text-anchor="middle" transform="translate(357.89473684210526,15)" font-family="sans-serif" font-size="10px" fill="#000" opacity="1">120</text><text text-anchor="middle" transform="translate(387.96992481203006,15)" font-family="sans-serif" font-size="10px" fill="#000" opacity="1">130</text></g><g class="mark-rule role-axis-domain" pointer-events="none"><line transform="translate(0,0)" x2="400" y2="0" stroke="#888" stroke-width="1" opacity="1"/></g><g class="mark-text role-axis-title" pointer-events="none"><text text-anchor="middle" transform="translate(200,30)" font-family="sans-serif" font-size="11px" font-weight="bold" fill="#000" opacity="1">Week</text></g></g><path class="foreground" aria-hidden="true" d="" pointer-events="none" display="none"/></g></g><g class="mark-group role-axis" role="graphics-symbol" aria-roledescription="axis" aria-label="Y-axis titled 'Decks Registered' for a linear scale with values from 0 to 4,000,000"><g transform="translate(0.5,0.5)"><path class="background" aria-hidden="true" d="M0,0h0v0h0Z" pointer-events="none"/><g><g class="mark-rule role-axis-tick" pointer-events="none"><line transform="translate(0,300)" x2="-5" y2="0" stroke="#888" stroke-width="1" opacity="1"/><line transform="translate(0,263)" x2="-5" y2="0" stroke="#888" stroke-width="1" opacity="1"/><line transform="translate(0,225)" x2="-5" y2="0" stroke="#888" stroke-width="1" opacity="1"/><line transform="translate(0,188)" x2="-5" y2="0" stroke="#888" stroke-width="1" opacity="1"/><line transform="translate(0,150)" x2="-5" y2="0" stroke="#888" stroke-width="1" opacity="1"/><line transform="translate(0,113)" x2="-5" y2="0" stroke="#888" stroke-width="1" opacity="1"/><line transform="translate(0,75)" x2="-5" y2="0" stroke="#888" stroke-width="1" opacity="1"/><line transform="translate(0,38)" x2="-5" y2="0" stroke="#888" stroke-width="1" opacity="1"/><line transform="translate(0,0)" x2="-5" y2="0" stroke="#888" stroke-width="1" opacity="1"/></g><g class="mark-text role-axis-label" pointer-events="none"><text text-anchor="end" transform="translate(-7,303)" font-family="sans-serif" font-size="10px" fill="#000" opacity="1">0</text><text text-anchor="end" transform="translate(-7,265.5)" font-family="sans-serif" font-size="10px" fill="#000" opacity="1">500,000</text><text text-anchor="end" transform="translate(-7,228)" font-family="sans-serif" font-size="10px" fill="#000" opacity="1">1,000,000</text><text text-anchor="end" transform="translate(-7,190.5)" font-family="sans-serif" font-size="10px" fill="#000" opacity="1">1,500,000</text><text text-anchor="end" transform="translate(-7,153)" font-family="sans-serif" font-size="10px" fill="#000" opacity="1">2,000,000</text><text text-anchor="end" transform="translate(-7,115.5)" font-family="sans-serif" font-size="10px" fill="#000" opacity="1">2,500,000</text><text text-anchor="end" transform="translate(-7,78)" font-family="sans-serif" font-size="10px" fill="#000" opacity="1">3,000,000</text><text text-anchor="end" transform="translate(-7,40.5)" font-family="sans-serif" font-size="10px" fill="#000" opacity="1">3,500,000</text><text text-anchor="end" transform="translate(-7,3)" font-family="sans-serif" font-size="10px" fill="#000" opacity="1">4,000,000</text></g><g class="mark-rule role-axis-domain" pointer-events="none"><line transform="translate(0,300)" x2="0" y2="-300" stroke="#888" stroke-width="1" opacity="1"/></g><g class="mark-text role-axis-title" pointer-events="none"><text text-anchor="middle" transform="translate(-55.4873046875,150) rotate(-90) translate(0,-2)" font-family="sans-serif" font-size="11px" font-weight="bold" fill="#000" opacity="1">Decks Registered</text></g></g><path class="foreground" aria-hidden="true" d="" pointer-events="none" display="none"/></g></g><g class="mark-area role-mark layer_0_marks" role="graphics-symbol" aria-roledescription="area mark container"><path d="M0,293.208980864996L3.007518796992481,288.24659626493565L6.015037593984962,284.56348695686637L9.022556390977442,281.0420082779354L12.030075187969924,278.1297915915054L15.037593984962406,278.1258883475949L18.045112781954884,280.0745736000396L21.052631578947366,270.4586696205272L24.06015037593985,268.2612675684838L27.06766917293233,264.60645410059516L30.075187969924812,263.694367242467L33.08270676691729,262.60461751765274L36.09022556390977,262.15861834193015L39.097744360902254,259.0935131158106L42.10526315789473,260.33573151079736L45.11278195488722,257.3267660090571L48.1203007518797,255.76941121415965L51.127819548872175,253.45039046815367L54.13533834586466,252.63044060413858L57.14285714285714,250.79990617792524L60.150375939849624,251.7134608911829L63.1578947368421,250.19415566989352L66.16541353383458,250.36726116596594L69.17293233082707,247.52911558929125L72.18045112781954,245.33837081206823L75.18796992481202,249.4061253697857L78.19548872180451,244.1359786524685L81.203007518797,244.71363197937356L84.21052631578947,239.36079393901682L87.21804511278195,236.36857971712578L90.22556390977444,234.95708146537663L93.23308270676691,231.76479956588832L96.2406015037594,232.25671468179527L99.24812030075188,228.582087378795L102.25563909774435,226.93670651129312L105.26315789473684,226.55097314592655L108.27067669172932,225.66143999402772L111.27819548872179,223.31700649771804L114.28571428571428,223.40159232206614L117.29323308270676,221.10868438800574L120.30075187969925,219.8640618935796L123.30827067669172,220.1058061318366L126.3157894736842,216.61683112157974L129.32330827067668,217.04743380670362L132.33082706766916,216.22465613877318L135.33834586466165,218.13409128862443L138.34586466165413,212.95267206791294L141.35338345864662,211.68847545632815L144.36090225563908,210.85854391613387L147.36842105263156,211.31701803458418L150.37593984962405,209.19096501026374L153.38345864661653,207.0069117760714L156.39097744360902,203.83996002347678L159.3984962406015,202.3061439125311L162.406015037594,202.28988283841255L165.41353383458645,202.35261733401163L168.42105263157893,199.17664927905975L171.42857142857142,197.18375629033105L174.4360902255639,196.07359140304848L177.4436090225564,194.10672206167897L180.45112781954887,193.69684964521048L183.45864661654133,192.14261480979678L186.46616541353382,190.57674267130076L189.4736842105263,189.94442806219038L192.4812030075188,188.00540239605326L195.48872180451127,186.51076566419476L198.49624060150376,187.01904966108208L201.50375939849624,185.25160127633683L204.5112781954887,183.63854476541474L207.5187969924812,182.46796315633532L210.52631578947367,183.09289278363786L213.53383458646618,180.97721779633304L216.54135338345864,179.46713999987716L219.54887218045113,182.50612760973564L222.55639097744358,177.48496957729952L225.5639097744361,176.8221838761171L228.57142857142856,176.58720677883684L231.57894736842107,174.88623490023656L234.58646616541353,172.45414621078103L237.593984962406,173.01001585847894L240.6015037593985,171.85603826752327L243.60902255639098,171.9062279596572L246.61654135338344,170.4834381812849L249.62406015037595,167.86979212051287L252.6315789473684,168.23241963989656L255.63909774436092,167.14775943143596L258.64661654135335,162.58994354314362L261.6541353383459,159.47488358819413L264.6616541353383,155.8689738882349L267.6691729323308,153.53871543751595L270.6766917293233,150.95662534486587L273.6842105263158,148.13422020464847L276.69172932330827,146.41088359225446L279.69924812030075,144.18260552485685L282.70676691729324,142.88713234820963L285.7142857142857,142.04324026090393L288.72180451127815,140.92103334007498L291.7293233082707,139.19868192989506L294.7368421052631,136.68836328195556L297.74436090225566,135.91291980084884L300.7518796992481,134.50080894310665L303.7593984962406,132.43943500968703L306.76691729323306,132.6236218202867L309.77443609022555,131.31910680082567L312.78195488721803,129.86969626644978L315.7894736842105,129.83856144594193L318.796992481203,127.88307065442574L321.8045112781955,126.96224537723435L324.812030075188,125.41802876137308L327.81954887218046,125.49863680420242L330.8270676691729,123.21951668493725L333.83458646616543,123.14254304506662L336.84210526315786,121.73411437276694L339.8496240601504,120.1637459283988L342.85714285714283,119.65825435700862L345.8646616541353,119.2150460650563L348.8721804511278,117.62225022043525L351.8796992481203,115.38638840920488L354.8872180451128,115.52329107261839L357.89473684210526,113.27054644225846L360.90225563909775,112.75267668870089L363.90977443609023,111.42883213137301L366.91729323308266,110.86482332621142L369.9248120300752,109.35264653527594L372.93233082706763,109.50899179771953L375.9398496240602,107.44097330242745L378.9473684210526,106.55426397427343L381.9548872180451,102.09145420184639L384.9624060150376,98.49062693168878L387.96992481203006,96.1299692684438L390.97744360902254,90.97847038413491L393.98496240601503,89.6533125554793L396.9924812030075,88.05909314896216L400,84.86272685315832L400,17.057501891407497L396.9924812030075,19.204449994612716L393.98496240601503,23.38801703063504L390.97744360902254,26.56161415826655L387.96992481203006,30.16008224703708L384.9624060150376,34.226201812546506L381.9548872180451,39.19584063074739L378.9473684210526,44.199927147063114L375.9398496240602,45.42690611485868L372.93233082706763,46.46568761127383L369.9248120300752,47.48809282150104L366.91729323308266,49.44418897727974L363.90977443609023,50.80563088703028L360.90225563909775,51.45963753159221L357.89473684210526,52.953394444906124L354.8872180451128,54.831251677495075L351.8796992481203,56.08827482652884L348.8721804511278,57.070253985377704L345.8646616541353,57.63332406906635L342.85714285714283,58.98662819079728L339.8496240601504,61.27280324295514L336.84210526315786,62.3798700914117L333.83458646616543,62.94600396506821L330.8270676691729,64.45774427057354L327.81954887218046,66.67239083340384L324.812030075188,67.67763663563653L321.8045112781955,69.17446239343354L318.796992481203,70.86683948834923L315.7894736842105,72.2948189723515L312.78195488721803,73.59596878555074L309.77443609022555,74.81630778437417L306.76691729323306,76.52179386769203L303.7593984962406,78.01960353843668L300.7518796992481,79.71158361990459L297.74436090225566,81.22255589258589L294.7368421052631,83.23573570453112L291.7293233082707,85.17862614549908L288.72180451127815,86.98706272582483L285.7142857142857,89.40902924751425L282.70676691729324,91.68423233766056L279.69924812030075,94.07074867430765L276.69172932330827,96.852799066134L273.6842105263158,99.94444719332554L270.6766917293233,102.84065475263614L267.6691729323308,106.44871999344399L264.6616541353383,110.44138304341851L261.6541353383459,114.7110225148203L258.64661654135335,119.38837932116947L255.63909774436092,124.69714218660786L252.6315789473684,126.29057013502238L249.62406015037595,127.63978128336453L246.61654135338344,128.293024575915L243.60902255639098,130.10956955966282L240.6015037593985,131.08742776224716L237.593984962406,132.16954601676545L234.58646616541353,133.44231613813378L231.57894736842107,134.8639135746695L228.57142857142856,136.07419156985048L225.5639097744361,137.42535955038898L222.55639097744358,138.13980410434203L219.54887218045113,139.15012796272592L216.54135338345864,140.61792407873355L213.53383458646618,142.34043085928337L210.52631578947367,143.72811753814943L207.5187969924812,144.6502038392787L204.5112781954887,145.69494148828596L201.50375939849624,147.31612486259235L198.49624060150376,148.62863073311135L195.48872180451127,150.1818552436249L192.4812030075188,151.46232712943586L189.4736842105263,152.90877461120004L186.46616541353382,154.22282817697382L183.45864661654133,155.9476684313587L180.45112781954887,157.46323343738442L177.4436090225564,158.6872817591382L174.4360902255639,160.6501661238487L171.42857142857142,161.85211261473574L168.42105263157893,164.34505844569784L165.41353383458645,165.85871360818584L162.406015037594,167.72084356857192L159.3984962406015,169.80767290816382L156.39097744360902,171.5965683352536L153.38345864661653,174.2705156971287L150.37593984962405,177.45932068896357L147.36842105263156,178.23650972208645L144.36090225563908,179.79391238329552L141.35338345864662,181.16260806613693L138.34586466165413,182.43605308341972L135.33834586466165,183.9487903166154L132.33082706766916,185.27711033664212L129.32330827067668,186.45234065720808L126.3157894736842,188.02851225936305L123.30827067669172,189.67907296150426L120.30075187969925,190.2744753151211L117.29323308270676,189.18217420232267L114.28571428571428,194.313384433897L111.27819548872179,196.1453019532125L108.27067669172932,198.30738804859084L105.26315789473684,199.9627667457185L102.25563909774435,202.40112747639913L99.24812030075188,204.40214021272013L96.2406015037594,206.7530175247937L93.23308270676691,209.96201095011972L90.22556390977444,212.31060337672645L87.21804511278195,215.36243858847834L84.21052631578947,218.6636835580059L81.203007518797,221.95357845811304L78.19548872180451,224.15985223088921L75.18796992481202,225.11299853562693L72.18045112781954,226.48863420678472L69.17293233082707,225.61565321363474L66.16541353383458,228.07687695172754L63.1578947368421,230.2882056621523L60.150375939849624,230.61806548971126L57.14285714285714,232.927693554172L54.13533834586466,233.07239765638627L51.127819548872175,236.92961864911894L48.1203007518797,238.1604434570723L45.11278195488722,239.3062047000445L42.10526315789473,241.58781736772573L39.097744360902254,241.23124046751926L36.09022556390977,245.36371256666632L33.08270676691729,242.04050889464432L30.075187969924812,248.44578619517L27.06766917293233,248.38010468279137L24.06015037593985,254.79934340734354L21.052631578947366,257.88834651839477L18.045112781954884,256.7306729688659L15.037593984962406,262.587196507651L12.030075187969924,263.1191686987823L9.022556390977442,267.25759612299544L6.015037593984962,272.84700607051644L3.007518796992481,278.5605586382544L0,284.0408955039169Z" fill="#333333" opacity="0.2"/></g><g class="mark-line role-mark layer_1_marks" role="graphics-symbol" aria-roledescription="line mark container"><path d="M0,288.7893458038161L3.007518796992481,283.54446953765813L6.015037593984962,278.90104408409985L9.022556390977442,274.9643888751005L12.030075187969924,271.3600278983401L15.037593984962406,268.13624451175525L18.045112781954884,265.326946578185L21.052631578947366,262.812709008961L24.06015037593985,260.47054317204476L27.06766917293233,258.2381468173926L30.075187969924812,256.3114185082597L33.08270676691729,254.41338410793756L36.09022556390977,252.6869559474508L39.097744360902254,250.96556450349914L42.10526315789473,249.43406348155594L45.11278195488722,247.84984581490392L48.1203007518797,246.4165382559971L51.127819548872175,244.97864039760333L54.13533834586466,243.6016336039389L57.14285714285714,242.24711345156686L60.150375939849624,241.01668370412756L63.1578947368421,239.61349052960134L66.16541353383458,238.43892612523734L69.17293233082707,237.169645916336L72.18045112781954,235.85711466468808L75.18796992481202,234.6807435717283L78.19548872180451,233.51654538025807L81.203007518797,232.29318894392023L84.21052631578947,229.12355457502272L87.21804511278195,226.17056683558886L90.22556390977444,223.60226589698672L93.23308270676691,221.24647147868143L96.2406015037594,218.98530140193634L99.24812030075188,217.0131951472396L102.25563909774435,215.12536715101155L105.26315789473684,213.36314952078231L108.27067669172932,211.80052452981312L111.27819548872179,210.17741358238806L114.28571428571428,208.62584811474787L117.29323308270676,207.16243572241004L120.30075187969925,205.67823719816948L123.30827067669172,204.40061982394565L126.3157894736842,203.0197870313108L129.32330827067668,201.65806884328396L132.33082706766916,200.29661327223195L135.33834586466165,199.2170797404547L138.34586466165413,197.88470509963304L141.35338345864662,196.64101908184918L144.36090225563908,195.44298705849934L147.36842105263156,194.25803142288456L150.37593984962405,192.98905037436356L153.38345864661653,190.73922455036373L156.39097744360902,188.5899689195096L159.3984962406015,186.58219635068494L162.406015037594,184.76135943193913L165.41353383458645,183.02537262263016L168.42105263157893,181.42924079174918L171.42857142857142,179.9257338219753L174.4360902255639,178.38582647952344L177.4436090225564,176.9152873764145L180.45112781954887,175.49473339988455L183.45864661654133,174.1596986910212L186.46616541353382,172.7774662626471L189.4736842105263,171.4705108524036L192.4812030075188,170.2238287875123L195.48872180451127,168.916277257306L198.49624060150376,167.68943114927256L201.50375939849624,166.34803704451548L204.5112781954887,165.31760927168466L207.5187969924812,163.99448989756934L210.52631578947367,162.86825483354394L213.53383458646618,161.6069528731477L216.54135338345864,160.4549420456086L219.54887218045113,159.2734225119394L222.55639097744358,158.05170631108734L225.5639097744361,156.86392708131072L228.57142857142856,155.74679174192366L231.57894736842107,154.45575546254406L234.58646616541353,153.37324456878503L237.593984962406,152.14632532092182L240.6015037593985,151.01740059954426L243.60902255639098,149.85070628982544L246.61654135338344,148.66405573761872L249.62406015037595,147.46166753106354L252.6315789473684,146.32620404664982L255.63909774436092,145.18458835548586L258.64661654135335,140.32267243973797L261.6541353383459,136.0236316438469L264.6616541353383,132.2770175135492L267.6691729323308,128.9191543092478L270.6766917293233,125.89711157853294L273.6842105263158,123.18488655389734L276.69172932330827,120.7017210698905L279.69924812030075,118.43633350535492L282.70676691729324,116.29491409000586L285.7142857142857,114.42492793986676L288.72180451127815,112.65910093477295L291.7293233082707,110.87207495398508L294.7368421052631,109.30251257706605L297.74436090225566,107.81064725145528L300.7518796992481,106.2011480067409L303.7593984962406,104.82448539406481L306.76691729323306,103.33516297286968L309.77443609022555,102.08194730942213L312.78195488721803,100.70454451619246L315.7894736842105,99.4494321879843L318.796992481203,98.08101583681689L321.8045112781955,96.85874613283586L324.812030075188,95.61961879339864L327.81954887218046,94.4141380471875L330.8270676691729,93.18002945318766L333.83458646616543,92.04449917056053L336.84210526315786,90.76460544807686L339.8496240601504,89.55359426315003L342.85714285714283,88.34837300604303L345.8646616541353,87.09860323875994L348.8721804511278,86.06959761954403L351.8796992481203,84.77022457670526L354.8872180451128,83.64121254972544L357.89473684210526,82.49928029058228L360.90225563909775,81.30826838420721L363.90977443609023,80.03567420531309L366.91729323308266,78.92558962146275L369.9248120300752,77.71172430626197L372.93233082706763,76.60846350732157L375.9398496240602,75.42399999987155L378.9473684210526,74.18997007834068L381.9548872180451,69.57010671451958L384.9624060150376,65.48560953412958L387.96992481203006,61.851539353923876L390.97744360902254,58.6368922972124L393.98496240601503,55.807610355461534L396.9924812030075,53.20589344870149L400,50.77455587937203" stroke="#333333" stroke-width="2" opacity="0.7"/></g><g class="mark-line role-mark layer_2_marks" role="graphics-symbol" aria-roledescription="line mark container"><path d="M0,288.1488L3.007518796992481,283.595025L6.015037593984962,279.89805L9.022556390977442,276.60787500000004L12.030075187969924,273.14265L15.037593984962406,269.21925000000005L18.045112781954884,266.31442499999997L21.052631578947366,263.64502500000003L24.06015037593985,261.384375L27.06766917293233,259.31385L30.075187969924812,257.44575L33.08270676691729,255.8796L36.09022556390977,254.03985L39.097744360902254,252.171975L42.10526315789473,250.39229999999998L45.11278195488722,248.79000000000002L48.1203007518797,247.11885L51.127819548872175,245.502825L54.13533834586466,243.99015L57.14285714285714,242.588475L60.150375939849624,241.4229L63.1578947368421,240.274425L66.16541353383458,239.35305000000002L69.17293233082707,238.48485L72.18045112781954,237.637875L75.18796992481202,236.84137500000003L78.19548872180451,236.10315000000003L81.203007518797,231.905625L84.21052631578947,227.996925L87.21804511278195,225.47625L90.22556390977444,223.24949999999998L93.23308270676691,221.35425L96.2406015037594,219.740175L99.24812030075188,218.15662500000002L102.25563909774435,216.58687500000002L105.26315789473684,214.982775L108.27067669172932,213.00382499999998L111.27819548872179,211.17735000000002L114.28571428571428,209.67254999999997L117.29323308270676,208.25189999999998L120.30075187969925,206.85607499999998L123.30827067669172,205.692675L126.3157894736842,204.63555000000002L129.32330827067668,203.618625L132.33082706766916,202.66905L135.33834586466165,201.680625L138.34586466165413,200.745225L141.35338345864662,199.83885L144.36090225563908,198.86535L147.36842105263156,197.90429999999998L150.37593984962405,194.73225L153.38345864661653,191.145525L156.39097744360902,188.944125L159.3984962406015,187.34107499999996L162.406015037594,185.33745000000002L165.41353383458645,183.67634999999999L168.42105263157893,182.198775L171.42857142857142,180.35085L174.4360902255639,178.93545L177.4436090225564,177.60299999999998L180.45112781954887,176.3418L183.45864661654133,175.13774999999998L186.46616541353382,173.90917499999998L189.4736842105263,172.823025L192.4812030075188,171.459525L195.48872180451127,170.51647499999999L198.49624060150376,169.62622499999998L201.50375939849624,168.71197500000002L204.5112781954887,167.99535L207.5187969924812,167.48767500000002L210.52631578947367,167.124225L213.53383458646618,166.8129L216.54135338345864,166.51590000000002L219.54887218045113,166.19879999999998L222.55639097744358,165.89775L225.5639097744361,165.6048L228.57142857142856,165.3177L231.57894736842107,164.921475L234.58646616541353,164.574075L237.593984962406,163.88842499999998L240.6015037593985,163.0626L243.60902255639098,162.501975L246.61654135338344,161.97644999999997L249.62406015037595,161.5797L252.6315789473684,161.13239999999996L255.63909774436092,158.849325L258.64661654135335,156.098325L261.6541353383459,154.17577500000002L264.6616541353383,152.78302499999998L267.6691729323308,151.74675000000002L270.6766917293233,150.96885L273.6842105263158,150.23685L276.69172932330827,149.606625L279.69924812030075,148.92375L282.70676691729324,148.330275L285.7142857142857,147.6813L288.72180451127815,147.078825L291.7293233082707,146.48827500000002L294.7368421052631,145.94692500000002L297.74436090225566,145.486725L300.7518796992481,144.928575L303.7593984962406,144.23917500000002L306.76691729323306,143.72542499999997L309.77443609022555,143.249175L312.78195488721803,142.7823L315.7894736842105,142.259625L318.796992481203,141.66885L321.8045112781955,141.2196L324.812030075188,140.687025L327.81954887218046,140.0277L330.8270676691729,139.4865L333.83458646616543,138.7659L336.84210526315786,138.242025L339.8496240601504,137.7855L342.85714285714283,137.30085L345.8646616541353,136.77165L348.8721804511278,136.3242L351.8796992481203,135.8991L354.8872180451128,135.519525L357.89473684210526,135.015075L360.90225563909775,134.51122500000002L363.90977443609023,134.023725L366.91729323308266,133.482525L369.9248120300752,133.02015L372.93233082706763,132.51254999999998L375.9398496240602,130.781025L378.9473684210526,129.72645L381.9548872180451,128.88420000000002L384.9624060150376,128.17755L387.96992481203006,126.88402500000001L390.97744360902254,125.037525L393.98496240601503,123.98489999999998L396.9924812030075,123.0666L400,122.3754" stroke="#4c78a8" stroke-width="2"/></g></g><path class="foreground" aria-hidden="true" d="" display="none"/></g></g></g></svg>