<svg xmlns="http://www.w3.org/2000/svg" xmlns:xlink="http://www.w3.org/1999/xlink" version="1.1" class="marks" width="479" height="347" viewBox="0 0 479 347"><rect width="479" height="347" fill="white"/><g fill="none" stroke-miterlimit="10" transform="translate(72,10)"><g class="mark-group role-frame root" role="graphics-object" aria-roledescription="group mark container"><g transform="translate(0,0)"><path class="background" aria-hidden="true" d="M0.5,0.5h400v300h-400Z" stroke="#ddd"/><g><g class="mark-group role-axis" role="graphics-symbol" aria-roledescription="axis" aria-label="X-axis for a linear scale with values from 1 to 143"><g transform="translate(0.5,300.5)"><path class="background" aria-hidden="true" d="M0,0h0v0h0Z" pointer-events="none"/><g><g class="mark-rule role-axis-grid" pointer-events="none"><line transform="translate(54,-300)" x2="0" y2="300" stroke="#ddd" stroke-width="1" opacity="1"/><line transform="translate(110,-300)" x2="0" y2="300" stroke="#ddd" stroke-width="1" opacity="1"/><line transform="translate(166,-300)" x2="0" y2="300" stroke="#ddd" stroke-width="1" opacity="1"/><line transform="translate(223,-300)" x2="0" y2="300" stroke="#ddd" stroke-width="1" opacity="1"/><line transform="translate(279,-300)" x2="0" y2="300" stroke="#ddd" stroke-width="1" opacity="1"/><line transform="translate(335,-300)" x2="0" y2="300" stroke="#ddd" stroke-width="1" opacity="1"/><line transform="translate(392,-300)" x2="0" y2="300" stroke="#ddd" stroke-width="1" opacity="1"/></g></g><path class="foreground" aria-hidden="true" d="" pointer-events="none" display="none"/></g></g><g class="mark-group role-axis" role="graphics-symbol" aria-roledescription="axis" aria-label="Y-axis for a linear scale with values from 0 to 3,500,000"><g transform="translate(0.5,0.5)"><path class="background" aria-hidden="true" d="M0,0h0v0h0Z" pointer-events="none"/><g><g class="mark-rule role-axis-grid" pointer-events="none"><line transform="translate(0,300)" x2="400" y2="0" stroke="#ddd" stroke-width="1" opacity="1"/><line transform="translate(0,257)" x2="400" y2="0" stroke="#ddd" stroke-width="1" opacity="1"/><line transform="translate(0,214)" x2="400" y2="0" stroke="#ddd" stroke-width="1" opacity="1"/><line transform="translate(0,171)" x2="400" y2="0" stroke="#ddd" stroke-width="1" opacity="1"/><line transform="translate(0,129)" x2="400" y2="0" stroke="#ddd" stroke-width="1" opacity="1"/><line transform="translate(0,86)" x2="400" y2="0" stroke="#ddd" stroke-width="1" opacity="1"/><line transform="translate(0,43)" x2="400" y2="0" stroke="#ddd" stroke-width="1" opacity="1"/><line transform="translate(0,0)" x2="400" y2="0" stroke="#ddd" stroke-width="1" opacity="1"/></g></g><path class="foreground" aria-hidden="true" d="" pointer-events="none" display="none"/></g></g><g class="mark-group role-axis" role="graphics-symbol" aria-roledescription="axis" aria-label="X-axis titled 'Week' for a linear scale with values from 1 to 143"><g transform="translate(0.5,300.5)"><path class="background" aria-hidden="true" d="M0,0h0v0h0Z" pointer-events="none"/><g><g class="mark-rule role-axis-tick" pointer-events="none"><line transform="translate(54,0)" x2="0" y2="5" stroke="#888" stroke-width="1" opacity="1"/><line transform="translate(110,0)" x2="0" y2="5" stroke="#888" stroke-width="1" opacity="1"/><line transform="translate(166,0)" x2="0" y2="5" stroke="#888" stroke-width="1" opacity="1"/><line transform="translate(223,0)" x2="0" y2="5" stroke="#888" stroke-width="1" opacity="1"/><line transform="translate(279,0)" x2="0" y2="5" stroke="#888" stroke-width="1" opacity="1"/><line transform="translate(335,0)" x2="0" y2="5" stroke="#888" stroke-width="1" opacity="1"/><line transform="translate(392,0)" x2="0" y2="5" stroke="#888" stroke-width="1" opacity="1"/></g><g class="mark-text role-axis-label" pointer-events="none"><text text-anchor="middle" transform="translate(53.52112676056338,15)" font-family="sans-serif" font-size="10px" fill="#000" opacity="1">20</text><text text-anchor="middle" transform="translate(109.85915492957747,15)" font-family="sans-serif" font-size="10px" fill="#000" opacity="1">40</text><text text-anchor="middle" transform="translate(166.19718309859155,15)" font-family="sans-serif" font-size="10px" fill="#000" opacity="1">60</text><text text-anchor="middle" transform="translate(222.53521126760566,15)" font-family="sans-serif" font-size="10px" fill="#000" opacity="1">80</text><text text-anchor="middle" transform="translate(278.8732394366197,15)" font-family="sans-serif" font-size="10px" fill="#000" opacity="1">100</text><text text-anchor="middle" transform="translate(335.2112676056338,15)" font-family="sans-serif" font-size="10px" fill="#000" opacity="1">120</text><text text-anchor="middle" transform="translate(391.5492957746479,15)" font-family="sans-serif" font-size="10px" fill="#000" opacity="1">140</text></g><g class="mark-rule role-axis-domain" pointer-events="none"><line transform="translate(0,0)" x2="400" y2="0" stroke="#888" stroke-width="1" opacity="1"/></g><g class="mark-text role-axis-title" pointer-events="none"><text text-anchor="middle" transform="translate(200,30)" font-family="sans-serif" font-size="11px" font-weight="bold" fill="#000" opacity="1">Week</text></g></g><path class="foreground" aria-hidden="true" d="" pointer-events="none" display="none"/></g></g><g class="mark-group role-axis" role="graphics-symbol" aria-roledescription="axis" aria-label="Y-axis titled 'Decks Registered' for a linear scale with values from 0 to 3,500,000"><g transform="translate(0.5,0.5)"><path class="background" aria-hidden="true" d="M0,0h0v0h0Z" pointer-events="none"/><g><g class="mark-rule role-axis-tick" pointer-events="none"><line transform="translate(0,300)" x2="-5" y2="0" stroke="#888" stroke-width="1" opacity="1"/><line transform="translate(0,257)" x2="-5" y2="0" stroke="#888" stroke-width="1" opacity="1"/><line transform="translate(0,214)" x2="-5" y2="0" stroke="#888" stroke-width="1" opacity="1"/><line transform="translate(0,171)" x2="-5" y2="0" stroke="#888" stroke-width="1" opacity="1"/><line transform="translate(0,129)" x2="-5" y2="0" stroke="#888" stroke-width="1" opacity="1"/><line transform="translate(0,86)" x2="-5" y2="0" stroke="#888" stroke-width="1" opacity="1"/><line transform="translate(0,43)" x2="-5" y2="0" stroke="#888" stroke-width="1" opacity="1"/><line transform="translate(0,0)" x2="-5" y2="0" stroke="#888" stroke-width="1" opacity="1"/></g><g class="mark-text role-axis-label" pointer-events="none"><text text-anchor="end" transform="translate(-7,303)" font-family="sans-serif" font-size="10px" fill="#000" opacity="1">0</text><text text-anchor="end" transform="translate(-7,260.14285714285717)" font-family="sans-serif" font-size="10px" fill="#000" opacity="1">500,000</text><text text-anchor="end" transform="translate(-7,217.28571428571428)" font-family="sans-serif" font-size="10px" fill="#000" opacity="1">1,000,000</text><text text-anchor="end" transform="translate(-7,174.42857142857142)" font-family="sans-serif" font-size="10px" fill="#000" opacity="1">1,500,000</text><text text-anchor="end" transform="translate(-7,131.57142857142858)" font-family="sans-serif" font-size="10px" fill="#000" opacity="1">2,000,000</text><text text-anchor="end" transform="translate(-7,88.71428571428571)" font-family="sans-serif" font-size="10px" fill="#000" opacity="1">2,500,000</text><text text-anchor="end" transform="translate(-7,45.85714285714287)" font-family="sans-serif" font-size="10px" fill="#000" opacity="1">3,000,000</text><text text-anchor="end" transform="translate(-7,3)" font-family="sans-serif" font-size="10px" fill="#000" opacity="1">3,500,000</text></g><g class="mark-rule role-axis-domain" pointer-events="none"><line transform="translate(0,300)" x2="0" y2="-300" stroke="#888" stroke-width="1" opacity="1"/></g><g class="mark-text role-axis-title" pointer-events="none"><text text-anchor="middle" transform="translate(-55.4873046875,150) rotate(-90) translate(0,-2)" font-family="sans-serif" font-size="11px" font-weight="bold" fill="#000" opacity="1">Decks Registered</text></g></g><path class="foreground" aria-hidden="true" d="" pointer-events="none" display="none"/></g></g><g class="mark-area role-mark layer_0_marks" role="graphics-symbol" aria-roledescription="area mark container"><path d="M0,290.51784785921615L2.8169014084507045,284.81526440791396L5.633802816901409,279.8332298634142L8.450704225352112,275.0552426293232L11.267605633802818,271.3967115889034L14.084507042253522,267.34017606048985L16.901408450704224,264.77102898248046L19.718309859154928,261.3101911911622L22.535211267605636,258.9082583633493L25.352112676056336,256.2614519015399L28.169014084507044,254.5443447870726L30.985915492957744,252.84823196912072L33.80281690140845,250.30709929602702L36.61971830985916,248.92291172280565L39.436619718309856,246.518421491469L42.25352112676056,246.13036872844697L45.07042253521127,244.42603492400949L47.88732394366197,242.3462209696925L50.70422535211267,240.39544020385648L53.52112676056338,239.18252588448695L56.33802816901409,237.44894796271006L59.154929577464785,236.40642382159848L61.97183098591549,234.54804005711676L64.7887323943662,233.29868676302948L67.6056338028169,231.26684752940722L70.4225352112676,230.27844997826043L73.23943661971832,228.9037489694966L76.05633802816901,227.423767287026L78.87323943661971,224.49718070770462L81.69014084507043,220.43038752301126L84.50704225352112,217.9125567065011L87.32394366197182,214.98071548101834L90.14084507042254,212.30274852015552L92.95774647887323,210.1236413436625L95.77464788732394,207.98364326561864L98.59154929577466,206.60843396038797L101.40845070422534,204.22258178755197L104.22535211267605,202.72349145692948L107.04225352112675,201.695276805968L109.85915492957747,199.1654051204001L112.67605633802818,197.5754251897683L115.49295774647888,196.4240460333653L118.30985915492957,194.7374091086935L121.12676056338027,192.90560394967392L123.94366197183098,191.5195525571865L126.7605633802817,189.93396856116843L129.5774647887324,188.8037089365632L132.3943661971831,187.1310656721281L135.2112676056338,185.57783279272883L138.0281690140845,185.040389806714L140.8450704225352,183.6918668717546L143.66197183098592,180.51917172298076L146.47887323943664,178.15499881777342L149.29577464788733,175.638641010721L152.11267605633802,174.12618981786014L154.92957746478874,172.0138707196577L157.74647887323943,170.25379244770537L160.56338028169014,168.0190580170782L163.38028169014086,166.66364650259683L166.19718309859155,164.7794091677621L169.01408450704224,163.15498944368602L171.83098591549296,162.12575111594967L174.64788732394365,160.63178520664692L177.46478873239437,158.7545448041256L180.2816901408451,157.71688364017982L183.09859154929578,156.44066508685742L185.91549295774647,154.44163024808657L188.73239436619718,153.21751206559938L191.54929577464787,152.14978083537784L194.3661971830986,150.4847874612034L197.1830985915493,148.86727175182307L200,148.0363480164426L202.8169014084507,146.17345510482068L205.6338028169014,144.72415635247847L208.4507042253521,143.43837513010865L211.26760563380282,142.80170062326067L214.0845070422535,140.75603323466527L216.90140845070425,139.42171873652043L219.71830985915494,139.51677026717192L222.53521126760566,137.040276950989L225.35211267605635,135.8017226228107L228.16901408450704,134.4885690258274L230.98591549295776,133.21887586891134L233.80281690140845,132.27525622421766L236.61971830985914,131.85972597987828L239.43661971830986,129.06314151910132L242.25352112676055,126.84505373279886L245.07042253521126,123.72224195912561L247.88732394366195,122.12102122347103L250.7042253521127,119.90318778960757L253.5211267605634,116.98844484061213L256.3380281690141,115.83432498352339L259.1549295774648,114.10947653199159L261.9718309859155,112.58609507152751L264.7887323943662,111.25486731493564L267.6056338028169,108.98495639553572L270.4225352112676,108.38152962273932L273.2394366197183,106.59360442247338L276.056338028169,105.7987694230944L278.8732394366197,103.89270072456054L281.6901408450704,102.3697712611322L284.50704225352115,101.3597256603002L287.32394366197184,99.57255300057194L290.14084507042253,98.85092852417039L292.9577464788733,98.21913469424709L295.77464788732397,95.62155378312289L298.59154929577466,94.46011985034544L301.40845070422534,92.21154504489739L304.22535211267603,91.62514985815682L307.0422535211267,90.71283054636163L309.85915492957747,89.28020380547498L312.67605633802816,88.82279881917519L315.49295774647885,88.36634956937218L318.3098591549296,86.42476674918095L321.1267605633803,84.33758638030659L323.943661971831,83.57766891401361L326.7605633802817,82.75318134902656L329.5774647887324,80.62606756517694L332.3943661971831,79.72009857460382L335.2112676056338,79.14385815477257L338.0281690140845,77.0447538006445L340.8450704225352,76.11310529116109L343.6619718309859,74.261392497774L346.4788732394366,74.29496076863036L349.2957746478873,73.24045578978148L352.11267605633805,73.1974239986104L354.92957746478874,70.67295398896012L357.7464788732394,68.01177929307639L360.5633802816902,65.8640868225234L363.38028169014086,63.72847223427564L366.19718309859155,62.510347748337004L369.01408450704224,60.1339474849757L371.83098591549293,58.69171657919006L374.6478873239437,57.312574564968834L377.46478873239437,54.42774549164939L380.28169014084506,53.99394163968476L383.09859154929575,51.541033546245274L385.9154929577465,50.61445725491378L388.7323943661972,48.77680151251589L391.5492957746479,47.48430464831367L394.3661971830986,46.38469597442574L397.1830985915493,43.99266228519995L400,44.11997807722611L400,15.86789978200467L397.1830985915493,17.78586184311175L394.3661971830986,17.701412599964517L391.5492957746479,19.51420641308087L388.7323943661972,22.355899266177993L385.9154929577465,24.794064406918693L383.09859154929575,24.60015938591342L380.28169014084506,26.758477816771986L377.46478873239437,29.767584321106L374.6478873239437,30.348056520300283L371.83098591549293,32.8862032106373L369.01408450704224,34.02382905627177L366.19718309859155,37.71909969695986L363.38028169014086,39.95514718973453L360.5633802816902,41.493022310684346L357.7464788732394,45.39687754636724L354.92957746478874,49.237207697759274L352.11267605633805,49.5739310612759L349.2957746478873,51.9287266281305L346.4788732394366,53.242014880748116L343.6619718309859,53.58600834722205L340.8450704225352,56.75423226494911L338.0281690140845,57.801890738835894L335.2112676056338,58.779987677336095L332.3943661971831,59.889874880108515L329.5774647887324,62.22053123055935L326.7605633802817,64.18598649140182L323.943661971831,64.97683198423584L321.1267605633803,67.76200536279416L318.3098591549296,68.56302827572352L315.49295774647885,68.10893795088957L312.67605633802816,71.00171623734285L309.85915492957747,73.21383579148261L307.0422535211267,73.76673819753485L304.22535211267603,76.16341280408601L301.40845070422534,77.45507759254696L298.59154929577466,79.37778802641571L295.77464788732397,79.0652575198084L292.9577464788733,80.73772041719954L290.14084507042253,82.18391544471815L287.32394366197184,85.47429066036995L284.50704225352115,86.93934736287581L281.6901408450704,88.66726207956482L278.8732394366197,89.14061240393137L276.056338028169,91.37601090909193L273.2394366197183,93.65383120001485L270.4225352112676,94.43833962396786L267.6056338028169,95.86895310878545L264.7887323943662,98.04530082706681L261.9718309859155,100.18016590647525L259.1549295774648,100.62663835439292L256.3380281690141,103.42588917233442L253.5211267605634,105.1136669320714L250.7042253521127,106.90974149943024L247.88732394366195,111.247892334216L245.07042253521126,112.8996169838016L242.25352112676055,117.18137603145664L239.43661971830986,120.15342796051384L236.61971830985914,121.31794124991475L233.80281690140845,123.30771249049326L230.98591549295776,124.59351286349546L228.16901408450704,126.1511097091364L225.35211267605635,127.62200721968277L222.53521126760566,129.04608546042172L219.71830985915494,130.3524112167712L216.90140845070425,130.50868668627785L214.0845070422535,132.18750199192186L211.26760563380282,134.61623156349276L208.4507042253521,136.17572977406078L205.6338028169014,137.5032513886541L202.8169014084507,139.2821451000206L200,139.98444538620822L197.1830985915493,140.94323336415775L194.3661971830986,143.2273589794402L191.54929577464787,144.72613073949034L188.73239436619718,146.25726122770342L185.91549295774647,146.38675641542503L183.09859154929578,148.504036061028L180.2816901408451,150.53525006191606L177.46478873239437,151.85132372903237L174.64788732394365,153.0052920364L171.83098591549296,154.22658362030992L169.01408450704224,156.05857427797662L166.19718309859155,157.63199507006996L163.38028169014086,159.52217106833666L160.56338028169014,161.54644947756006L157.74647887323943,162.87375771169567L154.92957746478874,164.21583602643062L152.11267605633802,166.77990039086973L149.29577464788733,168.43326756913203L146.47887323943664,170.4887948486934L143.66197183098592,172.80982752951718L140.8450704225352,175.84929452206995L138.0281690140845,177.11222375839097L135.2112676056338,177.77212700155147L132.3943661971831,179.8187767861965L129.5774647887324,181.36196372241068L126.7605633802817,183.1318700286986L123.94366197183098,183.90426245284308L121.12676056338027,185.7057623861022L118.30985915492957,187.26570067556992L115.49295774647888,188.3195194198651L112.67605633802818,190.4675467602031L109.85915492957747,192.08293448024597L107.04225352112675,193.54094000081392L104.22535211267605,195.17006260027622L101.40845070422534,196.89370095103104L98.59154929577466,198.98419371109796L95.77464788732394,201.31093186279435L92.95774647887323,202.91393087564745L90.14084507042254,204.77835152198534L87.32394366197182,207.6403043801088L84.50704225352112,210.1358097800782L81.69014084507043,212.56669946511698L78.87323943661971,215.81368653465776L76.05633802816901,219.79912405484933L73.23943661971832,221.52495783147128L70.4225352112676,223.0073982950838L67.6056338028169,223.7511544006945L64.7887323943662,225.97472932267098L61.97183098591549,227.17391932936076L59.154929577464785,228.3386526683336L56.33802816901409,229.47051564236446L53.52112676056338,231.60442789778438L50.70422535211267,232.641670376125L47.88732394366197,234.9513221682757L45.07042253521127,235.9624827440231L42.25352112676056,237.76383973627614L39.436619718309856,239.54994203048463L36.61971830985916,241.43145791011062L33.80281690140845,242.02105693069475L30.985915492957744,244.3578472429189L28.169014084507044,247.41347912443328L25.352112676056336,248.93846798904417L22.535211267605636,251.5733079758322L19.718309859154928,254.27528061178438L16.901408450704224,256.84673744270015L14.084507042253522,259.9793859086267L11.267605633802818,263.75503233262134L8.450704225352112,267.44704815987734L5.633802816901409,271.78024461443744L2.8169014084507045,277.1135919172425L0,283.5965047004237Z" fill="#333333" opacity="0.2"/></g><g class="mark-line role-mark layer_1_marks" role="graphics-symbol" aria-roledescription="line mark container"><path d="M0,287.1517696380363L2.8169014084507045,281.1242489383828L5.633802816901409,275.93437523891373L8.450704225352112,271.43032419517306L11.267605633802818,267.4153648915397L14.084507042253522,263.91898276396006L16.901408450704224,260.75571562011277L19.718309859154928,257.9020605159385L22.535211267605636,255.3538585385708L25.352112676056336,252.9804707754363L28.169014084507044,250.75425161687411L30.985915492957744,248.70373726798383L33.80281690140845,246.78278146795515L36.61971830985916,244.92430057230501L39.436619718309856,243.22696977371854L42.25352112676056,241.54255758297228L45.07042253521127,239.8795740088021L47.88732394366197,238.29614258578397L50.70422535211267,236.77438707331876L53.52112676056338,235.27671637644477L56.33802816901409,233.80001008403235L59.154929577464785,232.30991826703752L61.97183098591549,230.85199610393204L64.7887323943662,229.45979940381457L67.6056338028169,228.03404876113316L70.4225352112676,226.61413059781626L73.23943661971832,225.237785093713L76.05633802816901,223.84958181731187L78.87323943661971,220.18421919682817L81.69014084507043,216.93517078711483L84.50704225352112,213.98466456533725L87.32394366197182,211.31371524835097L90.14084507042254,208.90362224731174L92.95774647887323,206.67271489501888L95.77464788732394,204.5648696179819L98.59154929577466,202.58922030158087L101.40845070422534,200.7269027263044L104.22535211267605,198.95798675659688L107.04225352112675,197.2757253738632L109.85915492957747,195.60592035955418L112.67605633802818,193.99579785422708L115.49295774647888,192.47553491092307L118.30985915492957,190.96583846362313L121.12676056338027,189.4855354983858L123.94366197183098,188.00266389670682L126.7605633802817,186.53123855450022L129.5774647887324,185.0961613925152L132.3943661971831,183.70315324021732L135.2112676056338,182.25746413892983L138.0281690140845,180.85941944871246L140.8450704225352,179.5135898451423L143.66197183098592,176.92272352282558L146.47887323943664,174.5103608219432L149.29577464788733,172.33718499696852L152.11267605633802,170.2420097013858L154.92957746478874,168.32934559543884L157.74647887323943,166.48341837199422L160.56338028169014,164.73141646006323L163.38028169014086,163.03582073808056L166.19718309859155,161.42659378082237L169.01408450704224,159.8346772907562L171.83098591549296,158.30793589866684L174.64788732394365,156.7885490502339L177.46478873239437,155.28346901010812L180.2816901408451,153.836948846994L183.09859154929578,152.40733763672696L185.91549295774647,150.9806783949554L188.73239436619718,149.55440273173457L191.54929577464787,148.13217003446525L194.3661971830986,146.76079087997414L197.1830985915493,145.36383026325697L200,143.990141901928L202.8169014084507,142.62679201527823L205.6338028169014,141.2297162375632L208.4507042253521,139.8285819714633L211.26760563380282,138.51621205180288L214.0845070422535,137.11057786192302L216.90140845070425,135.7562594274014L219.71830985915494,134.4056839983431L222.53521126760566,133.01033078442012L225.35211267605635,131.67689394588123L228.16901408450704,130.33487260155187L230.98591549295776,128.9648006464797L233.80281690140845,127.59908481139853L236.61971830985914,126.23442097515422L239.43661971830986,124.87831785983798L242.25352112676055,121.73020615270312L245.07042253521126,118.91944352465396L247.88732394366195,116.34766685545968L250.7042253521127,113.95674151207156L253.5211267605634,111.75789216942927L256.3380281690141,109.73773362285306L259.1549295774648,107.82084931077506L261.9718309859155,105.98063873351853L264.7887323943662,104.23042471833665L267.6056338028169,102.56149142117536L270.4225352112676,100.93970402136331L273.2394366197183,99.32970309051402L276.056338028169,97.8205599877024L278.8732394366197,96.28993254320427L281.6901408450704,94.81693239139881L284.50704225352115,93.38429554361981L287.32394366197184,91.92500959919154L290.14084507042253,90.50552877997973L292.9577464788733,89.11380321968264L295.77464788732397,87.69340081244003L298.59154929577466,86.29297379622773L301.40845070422534,84.89509977070084L304.22535211267603,83.5006991876563L307.0422535211267,82.14333192331407L309.85915492957747,80.73878393687184L312.67605633802816,79.39436580951049L315.49295774647885,78.02199608175185L318.3098591549296,76.64939551617913L321.1267605633803,75.28731951167494L323.943661971831,73.89407115915898L326.7605633802817,72.57238019117193L329.5774647887324,71.21670980196507L332.3943661971831,69.86892963207893L335.2112676056338,68.4674871892101L338.0281690140845,67.1214784344128L340.8450704225352,65.7689613918212L343.6619718309859,64.41701214856546L346.4788732394366,63.04661119776019L349.2957746478873,61.75270266898774L352.11267605633805,60.31392922076587L354.92957746478874,58.982749596525565L357.7464788732394,56.13498351391245L360.5633802816902,53.544878728994625L363.38028169014086,51.175313271081734L366.19718309859155,48.95806018467713L369.01408450704224,46.91060596564965L371.83098591549293,44.968538477079726L374.6478873239437,43.158384011966554L377.46478873239437,41.41175067182801L380.28169014084506,39.70386965972311L383.09859154929575,38.09685840733968L385.9154929577465,36.506716057965605L388.7323943661972,34.97192228529112L391.5492957746479,33.47150464100823L394.3661971830986,31.977219012576196L397.1830985915493,30.513360316266546L400,29.02929216175495" stroke="#333333" stroke-width="2" opacity="0.7"/></g><g class="mark-line role-mark layer_2_marks" role="graphics-symbol" aria-roledescription="line mark container"><path d="M0,286.45577142857144L2.8169014084507045,281.25145714285713L5.633802816901409,277.0263428571428L8.450704225352112,273.2661428571429L11.267605633802818,269.30588571428575L14.084507042253522,264.822L16.901408450704224,261.5022L19.718309859154928,258.4514571428572L22.535211267605636,255.86785714285713L25.352112676056336,253.50154285714282L28.169014084507044,251.36657142857143L30.985915492957744,249.57668571428573L33.80281690140845,247.47411428571428L36.61971830985916,245.3394L39.436619718309856,243.3054857142857L42.25352112676056,241.4742857142857L45.07042253521127,239.5644L47.88732394366197,237.7175142857143L50.70422535211267,235.98874285714285L53.52112676056338,234.38682857142857L56.33802816901409,233.05474285714288L59.154929577464785,231.7422L61.97183098591549,230.6892L64.7887323943662,229.69697142857143L67.6056338028169,228.72899999999998L70.4225352112676,227.8187142857143L73.23943661971832,226.97502857142857L76.05633802816901,222.17785714285714L78.87323943661971,217.71077142857143L81.69014084507043,214.82999999999998L84.50704225352112,212.28514285714286L87.32394366197182,210.1191428571429L90.14084507042254,208.27448571428573L92.95774647887323,206.46471428571428L95.77464788732394,204.6707142857143L98.59154929577466,202.83745714285712L101.40845070422534,200.57580000000002L104.22535211267605,198.48839999999998L107.04225352112675,196.76862857142856L109.85915492957747,195.14502857142855L112.67605633802818,193.5498L115.49295774647888,192.2202L118.30985915492957,191.01205714285715L121.12676056338027,189.84985714285716L123.94366197183098,188.7646285714286L126.7605633802817,187.63500000000002L129.5774647887324,186.56597142857146L132.3943661971831,185.53011428571432L135.2112676056338,184.41754285714285L138.0281690140845,183.31920000000002L140.8450704225352,179.69400000000002L143.66197183098592,175.5948857142857L146.47887323943664,173.07899999999998L149.29577464788733,171.24694285714287L152.11267605633802,168.95708571428568L154.92957746478874,167.05868571428573L157.74647887323943,165.3700285714286L160.56338028169014,163.25811428571427L163.38028169014086,161.64051428571426L166.19718309859155,160.1177142857143L169.01408450704224,158.67634285714286L171.83098591549296,157.30028571428568L174.64788732394365,155.8962L177.46478873239437,154.65488571428568L180.2816901408451,153.0966L183.09859154929578,152.01882857142857L185.91549295774647,151.0014L188.73239436619718,149.95654285714284L191.54929577464787,149.13754285714285L194.3661971830986,148.55734285714286L197.1830985915493,148.14197142857142L200,147.78617142857144L202.8169014084507,147.44674285714285L205.6338028169014,147.08434285714287L208.4507042253521,146.74028571428573L211.26760563380282,146.40548571428573L214.0845070422535,146.0773714285714L216.90140845070425,145.62454285714284L219.71830985915494,145.22751428571428L222.53521126760566,144.44391428571427L225.35211267605635,143.5001142857143L228.16901408450704,142.8594L230.98591549295776,142.25879999999998L233.80281690140845,141.80537142857145L236.61971830985914,141.29417142857142L239.43661971830986,138.68494285714286L242.25352112676055,135.54094285714285L245.07042253521126,133.34374285714284L247.88732394366195,131.75202857142858L250.7042253521127,130.5677142857143L253.5211267605634,129.6786857142857L256.3380281690141,128.84211428571427L259.1549295774648,128.12185714285715L261.9718309859155,127.34142857142858L264.7887323943662,126.66317142857143L267.6056338028169,125.92148571428572L270.4225352112676,125.23294285714287L273.2394366197183,124.55802857142858L276.056338028169,123.93934285714285L278.8732394366197,123.41340000000001L281.6901408450704,122.77551428571428L284.50704225352115,121.9876285714286L287.32394366197184,121.40048571428571L290.14084507042253,120.85620000000002L292.9577464788733,120.32262857142855L295.77464788732397,119.7252857142857L298.59154929577466,119.05011428571427L301.40845070422534,118.53668571428572L304.22535211267603,117.92802857142858L307.0422535211267,117.1745142857143L309.85915492957747,116.556L312.67605633802816,115.73245714285716L315.49295774647885,115.13374285714286L318.3098591549296,114.61200000000001L321.1267605633803,114.05811428571427L323.943661971831,113.4533142857143L326.7605633802817,112.94194285714285L329.5774647887324,112.45611428571426L332.3943661971831,112.02231428571429L335.2112676056338,111.44579999999999L338.0281690140845,110.86997142857142L340.8450704225352,110.31282857142855L343.6619718309859,109.69431428571428L346.4788732394366,109.16588571428572L349.2957746478873,108.58577142857142L352.11267605633805,106.60688571428571L354.92957746478874,105.40165714285715L357.7464788732394,104.43908571428572L360.5633802816902,103.6314857142857L363.38028169014086,102.15317142857143L366.19718309859155,100.0428857142857L369.01408450704224,98.83988571428571L371.83098591549293,97.7904L374.6478873239437,97.00045714285714L377.46478873239437,96.24102857142856L380.28169014084506,95.6261142857143L383.09859154929575,95.03040000000001L385.9154929577465,94.35402857142859L388.7323943661972,93.71382857142856L391.5492957746479,93.14802857142858L394.3661971830986,92.61942857142856L397.1830985915493,92.13874285714286L400,91.57422857142859" stroke="#4c78a8" stroke-width="2"/></g></g><path class="foreground" aria-hidden="true" d="" display="none"/></g></g></g></svg>