<svg xmlns="http://www.w3.org/2000/svg" xmlns:xlink="http://www.w3.org/1999/xlink" version="1.1" class="marks" width="388" height="242" viewBox="0 0 388 242"><rect width="388" height="242" fill="white"/><g fill="none" stroke-miterlimit="10" transform="translate(26,5)"><g class="mark-group role-frame root" role="graphics-object" aria-roledescription="group mark container"><g transform="translate(0,0)"><path class="background" aria-hidden="true" d="M0.5,0.5h300v200h-300Z" stroke="#ddd"/><g><g class="mark-group role-axis" role="graphics-symbol" aria-roledescription="axis" aria-label="X-axis for a linear scale with values from 0 to 6"><g transform="translate(0.5,200.5)"><path class="background" aria-hidden="true" d="M0,0h0v0h0Z" pointer-events="none"/><g><g class="mark-rule role-axis-grid" pointer-events="none"><line transform="translate(0,-200)" x2="0" y2="200" stroke="#ddd" stroke-width="1" opacity="1"/><line transform="translate(50,-200)" x2="0" y2="200" stroke="#ddd" stroke-width="1" opacity="1"/><line transform="translate(100,-200)" x2="0" y2="200" stroke="#ddd" stroke-width="1" opacity="1"/><line transform="translate(150,-200)" x2="0" y2="200" stroke="#ddd" stroke-width="1" opacity="1"/><line transform="translate(200,-200)" x2="0" y2="200" stroke="#ddd" stroke-width="1" opacity="1"/><line transform="translate(250,-200)" x2="0" y2="200" stroke="#ddd" stroke-width="1" opacity="1"/><line transform="translate(300,-200)" x2="0" y2="200" stroke="#ddd" stroke-width="1" opacity="1"/></g></g><path class="foreground" aria-hidden="true" d="" pointer-events="none" display="none"/></g></g><g class="mark-group role-axis" role="graphics-symbol" aria-roledescription="axis" aria-label="Y-axis for a linear scale with values from 0.0 to 1.3"><g transform="translate(0.5,0.5)"><path class="background" aria-hidden="true" d="M0,0h0v0h0Z" pointer-events="none"/><g><g class="mark-rule role-axis-grid" pointer-events="none"><line transform="translate(0,200)" x2="300" y2="0" stroke="#ddd" stroke-width="1" opacity="1"/><line transform="translate(0,169)" x2="300" y2="0" stroke="#ddd" stroke-width="1" opacity="1"/><line transform="translate(0,138)" x2="300" y2="0" stroke="#ddd" stroke-width="1" opacity="1"/><line transform="translate(0,108)" x2="300" y2="0" stroke="#ddd" stroke-width="1" opacity="1"/><line transform="translate(0,77)" x2="300" y2="0" stroke="#ddd" stroke-width="1" opacity="1"/><line transform="translate(0,46)" x2="300" y2="0" stroke="#ddd" stroke-width="1" opacity="1"/><line transform="translate(0,15)" x2="300" y2="0" stroke="#ddd" stroke-width="1" opacity="1"/></g></g><path class="foreground" aria-hidden="true" d="" pointer-events="none" display="none"/></g></g><g class="mark-group role-axis" role="graphics-symbol" aria-roledescription="axis" aria-label="X-axis titled 'Popularity' for a linear scale with values from 0 to 6"><g transform="translate(0.5,200.5)"><path class="background" aria-hidden="true" d="M0,0h0v0h0Z" pointer-events="none"/><g><g class="mark-rule role-axis-tick" pointer-events="none"><line transform="translate(0,0)" x2="0" y2="5" stroke="#888" stroke-width="1" opacity="1"/><line transform="translate(50,0)" x2="0" y2="5" stroke="#888" stroke-width="1" opacity="1"/><line transform="translate(100,0)" x2="0" y2="5" stroke="#888" stroke-width="1" opacity="1"/><line transform="translate(150,0)" x2="0" y2="5" stroke="#888" stroke-width="1" opacity="1"/><line transform="translate(200,0)" x2="0" y2="5" stroke="#888" stroke-width="1" opacity="1"/><line transform="translate(250,0)" x2="0" y2="5" stroke="#888" stroke-width="1" opacity="1"/><line transform="translate(300,0)" x2="0" y2="5" stroke="#888" stroke-width="1" opacity="1"/></g><g class="mark-text role-axis-label" pointer-events="none"><text text-anchor="start" transform="translate(0,15)" font-family="sans-serif" font-size="10px" fill="#000" opacity="1">0</text><text text-anchor="middle" transform="translate(50,15)" font-family="sans-serif" font-size="10px" fill="#000" opacity="1">1</text><text text-anchor="middle" transform="translate(100,15)" font-family="sans-serif" font-size="10px" fill="#000" opacity="1">2</text><text text-anchor="middle" transform="translate(150,15)" font-family="sans-serif" font-size="10px" fill="#000" opacity="1">3</text><text text-anchor="middle" transform="translate(200,15)" font-family="sans-serif" font-size="10px" fill="#000" opacity="1">4</text><text text-anchor="middle" transform="translate(250,15)" font-family="sans-serif" font-size="10px" fill="#000" opacity="1">5</text><text text-anchor="end" transform="translate(300,15)" font-family="sans-serif" font-size="10px" fill="#000" opacity="1">6</text></g><g class="mark-rule role-axis-domain" pointer-events="none"><line transform="translate(0,0)" x2="300" y2="0" stroke="#888" stroke-width="1" opacity="1"/></g><g class="mark-text role-axis-title" pointer-events="none"><text text-anchor="middle" transform="translate(150,30)" font-family="sans-serif" font-size="11px" font-weight="bold" fill="#000" opacity="1">Popularity</text></g></g><path class="foreground" aria-hidden="true" d="" pointer-events="none" display="none"/></g></g><g class="mark-group role-axis" role="graphics-symbol" aria-roledescription="axis" aria-label="Y-axis for a linear scale with values from 0.0 to 1.3"><g transform="translate(0.5,0.5)"><path class="background" aria-hidden="true" d="M0,0h0v0h0Z" pointer-events="none"/><g><g class="mark-rule role-axis-tick" pointer-events="none"><line transform="translate(0,200)" x2="-5" y2="0" stroke="#888" stroke-width="1" opacity="1"/><line transform="translate(0,169)" x2="-5" y2="0" stroke="#888" stroke-width="1" opacity="1"/><line transform="translate(0,138)" x2="-5" y2="0" stroke="#888" stroke-width="1" opacity="1"/><line transform="translate(0,108)" x2="-5" y2="0" stroke="#888" stroke-width="1" opacity="1"/><line transform="translate(0,77)" x2="-5" y2="0" stroke="#888" stroke-width="1" opacity="1"/><line transform="translate(0,46)" x2="-5" y2="0" stroke="#888" stroke-width="1" opacity="1"/><line transform="translate(0,15)" x2="-5" y2="0" stroke="#888" stroke-width="1" opacity="1"/></g><g class="mark-text role-axis-label" pointer-events="none"><text text-anchor="end" transform="translate(-7,203)" font-family="sans-serif" font-size="10px" fill="#000" opacity="1">0.0</text><text text-anchor="end" transform="translate(-7,172.23076923076923)" font-family="sans-serif" font-size="10px" fill="#000" opacity="1">0.2</text><text text-anchor="end" transform="translate(-7,141.46153846153845)" font-family="sans-serif" font-size="10px" fill="#000" opacity="1">0.4</text><text text-anchor="end" transform="translate(-7,110.69230769230771)" font-family="sans-serif" font-size="10px" fill="#000" opacity="1">0.6</text><text text-anchor="end" transform="translate(-7,79.92307692307692)" font-family="sans-serif" font-size="10px" fill="#000" opacity="1">0.8</text><text text-anchor="end" transform="translate(-7,49.15384615384617)" font-family="sans-serif" font-size="10px" fill="#000" opacity="1">1.0</text><text text-anchor="end" transform="translate(-7,18.384615384615397)" font-family="sans-serif" font-size="10px" fill="#000" opacity="1">1.2</text></g><g class="mark-rule role-axis-domain" pointer-events="none"><line transform="translate(0,200)" x2="0" y2="-200" stroke="#888" stroke-width="1" opacity="1"/></g></g><path class="foreground" aria-hidden="true" d="" pointer-events="none" display="none"/></g></g><g class="mark-group role-scope pathgroup" role="graphics-object" aria-roledescription="group mark container"><g transform="translate(0,0)"><path class="background" aria-hidden="true" d="M0,0h300v200h-300Z"/><g><g class="mark-area role-mark marks" role="graphics-symbol" aria-roledescription="area mark container"><path d="M0,200L12,200L24,200L36,200L48,200L60.000000000000014,200L72,199.99999999999537L84.00000000000001,199.99999999880083L96,199.99999982910873L108.00000000000001,199.9999863588173L120.00000000000003,199.99937938687978L132,199.98357728637765L138,199.9305970050506L141,199.8640181609504L144,199.7418678389022L145.5,199.64851540989486L147,199.5251264402328L150,199.15317016323013L151.5,198.8821917023364L153,198.53581660443612L156,197.5449165603699L157.5,196.85710816982493L159,196.00707889978347L162,193.6999507041823L163.5,192.17556293247296L165,190.3551624751706L168.00000000000003,185.67126337477953L170.99999999999997,179.33935660139247L172.50000000000003,175.4662516489173L174,171.08243162009626L177,160.70655298525932L180,148.15845646955728L181.5,141.1054050946147L183,133.58049141633975L186,117.35130937486721L187.5,108.80471996606782L189,100.10033824507278L192,82.68664877523193L193.5,74.23589657727427L195,66.1383486067659L198,51.55625467834197L200.99999999999997,39.993623321956726L202.49999999999997,35.62950122524127L204.00000000000003,32.33009600500723L205.50000000000003,30.160004938089415L207.00000000000003,29.16090495758432L210.00000000000003,30.720754155414575L211.50000000000003,33.24085096061646L213,36.85581347098959L214.5,41.48976207993582L216.00000000000003,47.04828762505038L217.50000000000003,53.42162148965714L219.00000000000003,60.488197409258746L222.00000000000003,76.17866012117598L223.50000000000003,84.53477419751496L225,93.05591509081164L226.5,101.61760063091083L228.00000000000003,110.10448784228272L229.50000000000003,118.4126003193887L231.00000000000003,126.45099361978274L234.00000000000003,141.42599094905813L235.50000000000006,148.25292285788805L237,154.59034308783416L238.5,160.41830662781683L240.00000000000006,165.72905536396198L243.00000000000003,174.82026953572625L244.50000000000003,178.6328989423656L245.99999999999997,181.98940419603565L247.50000000000003,184.92012554088154L249.00000000000003,187.45839467239637L252,191.49817635316683L253.50000000000003,193.07038348611897L255,194.38979073897224L256.5,195.4885483259023L258,196.39658207823226L259.50000000000006,197.1413122861918L261.00000000000006,197.74750322222346L264,198.62988753360028L265.50000000000006,198.9423830622898L267,199.18922358201297L268.5,199.38275133604907L270,199.5333512178712L271.50000000000006,199.6496723491758L273.00000000000006,199.73884690811178L276,199.85794093435172L282,199.96145709144034L288,199.9907122988315L300,199.99962809118566L300,200L288,200L282,200L276,200L273.00000000000006,200L271.50000000000006,200L270,200L268.5,200L267,200L265.50000000000006,200L264,200L261.00000000000006,200L259.50000000000006,200L258,200L256.5,200L255,200L253.50000000000003,200L252,200L249.00000000000003,200L247.50000000000003,200L245.99999999999997,200L244.50000000000003,200L243.00000000000003,200L240.00000000000006,200L238.5,200L237,200L235.50000000000006,200L234.00000000000003,200L231.00000000000003,200L229.50000000000003,200L228.00000000000003,200L226.5,200L225,200L223.50000000000003,200L222.00000000000003,200L219.00000000000003,200L217.50000000000003,200L216.00000000000003,200L214.5,200L213,200L211.50000000000003,200L210.00000000000003,200L207.00000000000003,200L205.50000000000003,200L204.00000000000003,200L202.49999999999997,200L200.99999999999997,200L198,200L195,200L193.5,200L192,200L189,200L187.5,200L186,200L183,200L181.5,200L180,200L177,200L174,200L172.50000000000003,200L170.99999999999997,200L168.00000000000003,200L165,200L163.5,200L162,200L159,200L157.5,200L156,200L153,200L151.5,200L150,200L147,200L145.5,200L144,200L141,200L138,200L132,200L120.00000000000003,200L108.00000000000001,200L96,200L84.00000000000001,200L72,200L60.000000000000014,200L48,200L36,200L24,200L12,200L0,200Z" fill="#ad2117" opacity="0.7"/></g></g><path class="foreground" aria-hidden="true" d="" display="none"/></g><g transform="translate(0,0)"><path class="background" aria-hidden="true" d="M0,0h300v200h-300Z"/><g><g class="mark-area role-mark marks" role="graphics-symbol" aria-roledescription="area mark container"><path d="M0,199.99947078977644L12,199.9841961573362L18,199.92918105729004L20.999999999999996,199.85731379479859L24,199.7218195078182L25.500000000000004,199.61634187252676L27.000000000000004,199.47519995843868L28.500000000000004,199.28800655333086L29.999999999999996,199.04194228093974L32.99999999999999,198.3075071514006L34.5,197.77798051618362L36,197.10661960371363L37.5,196.2631930020252L39,195.21332293990466L40.5,193.91855393055837L41.99999999999999,192.33662812268432L45,188.12669445356497L46.5,185.401338224399L48,182.1967131854184L49.5,178.46549895585184L51.00000000000001,174.16438257471157L52.50000000000001,169.25642327510883L54.00000000000001,163.7136102864157L55.50000000000001,157.5195158901359L57.00000000000001,150.67192156404317L58.50000000000001,143.18527475677675L60.000000000000014,135.0928199706069L61.500000000000014,126.44824256241324L63.000000000000014,117.326668776362L66,98.06064486033299L69,78.30989865246872L70.5,68.64408550224243L72,59.34916865791733L73.5,50.60419171012853L75,42.58601201137557L76.5,35.463366052431766L78,29.39095159724461L79.5,24.50381710921792L81,20.912343909260866L82.5,18.698082702318697L84.00000000000001,17.91066472350238L85.50000000000001,18.56595136430674L87.00000000000001,20.645518572138634L90,28.83872441877735L91.5,34.75805868583271L93,41.720712378047175L94.5,49.57332841625677L96,58.14955828312767L97.5,67.27585262288271L99,76.77718811637617L102.00000000000001,96.22941108869239L103.50000000000001,105.8686390929785L105.00000000000001,115.26702552272505L108.00000000000001,132.90324561973495L109.50000000000001,140.97276647523333L111.00000000000001,148.46510719761764L114.00000000000001,161.59953373824533L115.50000000000001,167.22482200154715L117.00000000000001,172.2350772276151L120.00000000000003,180.51606450474554L121.50000000000003,183.85898165355223L123.00000000000003,186.72669871369445L126.00000000000003,191.21964615487056L129,194.35853675274032L130.50000000000003,195.52673367095096L132,196.47839248863303L135,197.86357200631173L138,198.74001215508065L139.5,199.04248351025555L141,199.27738196948448L144,199.59686957760948L145.5,199.70197679082403L147,199.78117481087824L150,199.8843972450716L156,199.97023856007573L168.00000000000003,199.99857242395282L180,199.9999562577929L192,199.99999917759203L204.00000000000003,199.99999999094257L216.00000000000003,199.99999999994373L228.00000000000003,199.9999999999998L240.00000000000006,200L252,200L264,200L276,200L288,200L300,200L300,200L288,200L276,200L264,200L252,200L240.00000000000006,200L228.00000000000003,200L216.00000000000003,200L204.00000000000003,200L192,200L180,200L168.00000000000003,200L156,200L150,200L147,200L145.5,200L144,200L141,200L139.5,200L138,200L135,200L132,200L130.50000000000003,200L129,200L126.00000000000003,200L123.00000000000003,200L121.50000000000003,200L120.00000000000003,200L117.00000000000001,200L115.50000000000001,200L114.00000000000001,200L111.00000000000001,200L109.50000000000001,200L108.00000000000001,200L105.00000000000001,200L103.50000000000001,200L102.00000000000001,200L99,200L97.5,200L96,200L94.5,200L93,200L91.5,200L90,200L87.00000000000001,200L85.50000000000001,200L84.00000000000001,200L82.5,200L81,200L79.5,200L78,200L76.5,200L75,200L73.5,200L72,200L70.5,200L69,200L66,200L63.000000000000014,200L61.500000000000014,200L60.000000000000014,200L58.50000000000001,200L57.00000000000001,200L55.50000000000001,200L54.00000000000001,200L52.50000000000001,200L51.00000000000001,200L49.5,200L48,200L46.5,200L45,200L41.99999999999999,200L40.5,200L39,200L37.5,200L36,200L34.5,200L32.99999999999999,200L29.999999999999996,200L28.500000000000004,200L27.000000000000004,200L25.500000000000004,200L24,200L20.999999999999996,200L18,200L12,200L0,200Z" fill="#0f69bd" opacity="0.7"/></g></g><path class="foreground" aria-hidden="true" d="" display="none"/></g><g transform="translate(0,0)"><path class="background" aria-hidden="true" d="M0,0h300v200h-300Z"/><g><g class="mark-area role-mark marks" role="graphics-symbol" aria-roledescription="area mark container"><path d="M0,195.8014031692059L1.5,194.60045792960162L3,193.11554932494366L4.5,191.29757214100337L6,189.0938949964295L7.499999999999999,186.44946277537332L9,183.30829857275253L10.499999999999998,179.61541909251096L12,175.31915320864536L13.500000000000002,170.3738241495957L14.999999999999998,164.7427228265581L18,151.34019259411698L19.5,143.56864464725984L20.999999999999996,135.1169104526918L24,116.41239909463017L25.500000000000004,106.34211141314718L27.000000000000004,95.9566753597776L29.999999999999996,74.86908676382377L32.99999999999999,54.58397221416005L34.5,45.24150961876199L36,36.70244001197831L37.5,29.159345051635L39,22.788214480077507L40.5,17.741606434503755L41.99999999999999,14.14255619652074L45,11.603016799042676L46.5,12.723042004561158L48,15.409259685534149L49.5,19.59209865465499L51.00000000000001,25.165801063014936L52.50000000000001,31.992865461251906L54.00000000000001,39.909677806368585L55.50000000000001,48.733008918413276L57.00000000000001,58.26701942098607L58.50000000000001,68.31040105071399L60.000000000000014,78.66329605222529L63.000000000000014,99.54288194052221L66,119.55628357121779L67.5,128.9052640200441L69,137.68590473867448L70.5,145.83148889286838L72,153.29882341775283L73.5,160.06644411286305L75,166.13222378848647L76.5,171.510579372258L78,176.22946692682297L79.5,180.327335989463L81,183.8501893656825L82.5,186.8488644743047L84.00000000000001,189.3766204032518L85.50000000000001,191.48708349768907L87.00000000000001,193.23257557703772L90,195.8240346993439L91.5,196.75828900476444L93,197.5032272671633L94.5,198.09196305685103L96,198.55318246741874L97.5,198.91137952064463L99,199.18718479954703L102.00000000000001,199.55715844643495L103.50000000000001,199.67683540446245L105.00000000000001,199.76594396285589L108.00000000000001,199.87995623500586L114.00000000000001,199.9711125632732L120.00000000000003,199.99381782135976L132,199.99980047505946L144,199.99999600585892L156,199.9999999518278L168.00000000000003,199.99999999966204L180,199.99999999999866L192,200L204.00000000000003,200L216.00000000000003,200L228.00000000000003,200L240.00000000000006,200L252,200L264,200L276,200L288,200L300,200L300,200L288,200L276,200L264,200L252,200L240.00000000000006,200L228.00000000000003,200L216.00000000000003,200L204.00000000000003,200L192,200L180,200L168.00000000000003,200L156,200L144,200L132,200L120.00000000000003,200L114.00000000000001,200L108.00000000000001,200L105.00000000000001,200L103.50000000000001,200L102.00000000000001,200L99,200L97.5,200L96,200L94.5,200L93,200L91.5,200L90,200L87.00000000000001,200L85.50000000000001,200L84.00000000000001,200L82.5,200L81,200L79.5,200L78,200L76.5,200L75,200L73.5,200L72,200L70.5,200L69,200L67.5,200L66,200L63.000000000000014,200L60.000000000000014,200L58.50000000000001,200L57.00000000000001,200L55.50000000000001,200L54.00000000000001,200L52.50000000000001,200L51.00000000000001,200L49.5,200L48,200L46.5,200L45,200L41.99999999999999,200L40.5,200L39,200L37.5,200L36,200L34.5,200L32.99999999999999,200L29.999999999999996,200L27.000000000000004,200L25.500000000000004,200L24,200L20.999999999999996,200L19.5,200L18,200L14.999999999999998,200L13.500000000000002,200L12,200L10.499999999999998,200L9,200L7.499999999999999,200L6,200L4.5,200L3,200L1.5,200L0,200Z" fill="#940fbd" opacity="0.7"/></g></g><path class="foreground" aria-hidden="true" d="" display="none"/></g><g transform="translate(0,0)"><path class="background" aria-hidden="true" d="M0,0h300v200h-300Z"/><g><g class="mark-area role-mark marks" role="graphics-symbol" aria-roledescription="area mark container"><path d="M0,199.9709219575362L3,199.93629571659574L6,199.86546499309662L7.499999999999999,199.80716068133512L9,199.72611039354723L10.499999999999998,199.61454252529822L12,199.46247382872383L13.500000000000002,199.25724388583205L14.999999999999998,198.98300789467257L18,198.14501938320205L19.5,197.52888897743463L20.999999999999996,196.7380692933732L24,194.46989760987213L25.500000000000004,192.89749636514864L27.000000000000004,190.96092489285016L28.500000000000004,188.60086529196886L29.999999999999996,185.7552037180581L32.99999999999999,178.35594214349072L34.5,173.68284776982608L36,168.29120025800788L37.5,162.1415849166468L39,155.20930938783854L40.5,147.48821727317605L41.99999999999999,138.9943039454388L45,119.88106410837747L46.5,109.42921856288702L48,98.54131295401594L51.00000000000001,76.10912341372563L52.50000000000001,64.95146459547725L54.00000000000001,54.12133248991644L55.50000000000001,43.84863539103636L57.00000000000001,34.364824484180545L58.50000000000001,25.89436327664898L60.000000000000014,18.6459682115768L61.500000000000014,12.80409320212572L63.000000000000014,8.52114110545057L66,5.043326718655439L67.5,5.941816716158299L69,8.581771379948822L70.5,12.89191072053728L72,18.75743074940064L73.5,26.025082167881884L75,34.50981740200283L76.5,44.0026039504676L78,54.27894455791213L79.5,65.10762182775423L81,76.25919680822292L84.00000000000001,98.66810412535816L85.50000000000001,109.54047681377448L87.00000000000001,119.97537420911284L90,139.05380719252432L91.5,147.53129505993647L93,155.23735671096054L94.5,162.15637345731625L96,168.29473279438088L97.5,173.67722282997832L99,178.3432360153032L102.00000000000001,185.73401962212952L103.50000000000001,188.57785742834764L105.00000000000001,190.93736267274068L108.00000000000001,194.44797985107937L109.50000000000001,195.7131335598331L111.00000000000001,196.71988582982576L114.00000000000001,198.13118680943327L115.50000000000001,198.6084684756815L117.00000000000001,198.9732167770737L120.00000000000003,199.45596868724417L121.50000000000003,199.60935503988884L123.00000000000003,199.722030641056L126.00000000000003,199.86304031993654L129,199.93492631922152L132,199.97018546899838L144,199.9990870572521L156,199.99998440565778L168.00000000000003,199.99999985177473L180,199.99999999921872L192,199.99999999999773L204.00000000000003,200L216.00000000000003,200L228.00000000000003,200L240.00000000000006,200L252,200L264,200L276,200L288,200L300,200L300,200L288,200L276,200L264,200L252,200L240.00000000000006,200L228.00000000000003,200L216.00000000000003,200L204.00000000000003,200L192,200L180,200L168.00000000000003,200L156,200L144,200L132,200L129,200L126.00000000000003,200L123.00000000000003,200L121.50000000000003,200L120.00000000000003,200L117.00000000000001,200L115.50000000000001,200L114.00000000000001,200L111.00000000000001,200L109.50000000000001,200L108.00000000000001,200L105.00000000000001,200L103.50000000000001,200L102.00000000000001,200L99,200L97.5,200L96,200L94.5,200L93,200L91.5,200L90,200L87.00000000000001,200L85.50000000000001,200L84.00000000000001,200L81,200L79.5,200L78,200L76.5,200L75,200L73.5,200L72,200L70.5,200L69,200L67.5,200L66,200L63.000000000000014,200L61.500000000000014,200L60.000000000000014,200L58.50000000000001,200L57.00000000000001,200L55.50000000000001,200L54.00000000000001,200L52.50000000000001,200L51.00000000000001,200L48,200L46.5,200L45,200L41.99999999999999,200L40.5,200L39,200L37.5,200L36,200L34.5,200L32.99999999999999,200L29.999999999999996,200L28.500000000000004,200L27.000000000000004,200L25.500000000000004,200L24,200L20.999999999999996,200L19.5,200L18,200L14.999999999999998,200L13.500000000000002,200L12,200L10.499999999999998,200L9,200L7.499999999999999,200L6,200L3,200L0,200Z" fill="#322d3b" opacity="0.7"/></g></g><path class="foreground" aria-hidden="true" d="" display="none"/></g><g transform="translate(0,0)"><path class="background" aria-hidden="true" d="M0,0h300v200h-300Z"/><g><g class="mark-area role-mark marks" role="graphics-symbol" aria-roledescription="area mark container"><path d="M0,199.62272658678668L1.5,199.47243611528376L3,199.26905036911023L4.5,198.99655762196227L6,198.63513665391238L7.499999999999999,198.1605970069798L9,197.5438498192351L10.499999999999998,196.7504541869741L12,195.74029417566862L13.500000000000002,194.46745059849468L14.999999999999998,192.8803382522549L18,188.5319027496512L19.5,185.64547430170236L20.999999999999996,182.1977967141184L24,173.36789575328714L25.500000000000004,167.87432809911925L27.000000000000004,161.60397899572052L28.500000000000004,154.53182303071625L29.999999999999996,146.65222960285894L32.99999999999999,128.5673954519514L34.5,118.47922584483803L36,107.82181129613862L37.5,96.72948664818944L39,85.36610734340529L40.5,73.92222109032818L41.99999999999999,62.6106250758294L45,41.30953739753298L46.5,31.79668618676368L48,23.35203537195809L49.5,16.188176266632315L51.00000000000001,10.491225998687991L52.50000000000001,6.412802050763711L54.00000000000001,4.063319517156971L55.50000000000001,3.507024545113535L57.00000000000001,4.759075753281716L58.50000000000001,7.784858655814353L60.000000000000014,12.501576322165665L61.500000000000014,18.78201421376304L63.000000000000014,26.46024024613056L66,45.197547499082646L67.5,55.8018551110471L69,66.91261572439777L72,89.72458809443144L73.5,100.9980284959712L75,111.93455856351746L76.5,122.38173284264224L78,132.2172269114865L79.5,141.3494797368805L81,149.71693907903773L82.5,157.28612517777412L84.00000000000001,164.0487702539174L85.50000000000001,170.01831052319739L87.00000000000001,175.22600518803662L90,183.5461111723299L91.5,186.77483921868537L93,189.46752106290273L94.5,191.68892369016476L96,193.5019848997554L97.5,194.96614584202578L99,196.13618216229065L102.00000000000001,197.78570628241107L103.50000000000001,198.34675669019535L105.00000000000001,198.77698335188404L108.00000000000001,199.34896707046067L109.50000000000001,199.53153580197284L111.00000000000001,199.66600434467284L114.00000000000001,199.83486517369863L117.00000000000001,199.92131569745143L120.00000000000003,199.9638690407092L132,199.99889074693266L144,199.9999811993104L156,199.9999998245563L168.00000000000003,199.99999999910153L180,199.9999999999975L192,200L204.00000000000003,200L216.00000000000003,200L228.00000000000003,200L240.00000000000006,200L252,200L264,200L276,200L288,200L300,200L300,200L288,200L276,200L264,200L252,200L240.00000000000006,200L228.00000000000003,200L216.00000000000003,200L204.00000000000003,200L192,200L180,200L168.00000000000003,200L156,200L144,200L132,200L120.00000000000003,200L117.00000000000001,200L114.00000000000001,200L111.00000000000001,200L109.50000000000001,200L108.00000000000001,200L105.00000000000001,200L103.50000000000001,200L102.00000000000001,200L99,200L97.5,200L96,200L94.5,200L93,200L91.5,200L90,200L87.00000000000001,200L85.50000000000001,200L84.00000000000001,200L82.5,200L81,200L79.5,200L78,200L76.5,200L75,200L73.5,200L72,200L69,200L67.5,200L66,200L63.000000000000014,200L61.500000000000014,200L60.000000000000014,200L58.50000000000001,200L57.00000000000001,200L55.50000000000001,200L54.00000000000001,200L52.50000000000001,200L51.00000000000001,200L49.5,200L48,200L46.5,200L45,200L41.99999999999999,200L40.5,200L39,200L37.5,200L36,200L34.5,200L32.99999999999999,200L29.999999999999996,200L28.500000000000004,200L27.000000000000004,200L25.500000000000004,200L24,200L20.999999999999996,200L19.5,200L18,200L14.999999999999998,200L13.500000000000002,200L12,200L10.499999999999998,200L9,200L7.499999999999999,200L6,200L4.5,200L3,200L1.5,200L0,200Z" fill="#5bbab9" opacity="0.7"/></g></g><path class="foreground" aria-hidden="true" d="" display="none"/></g></g><g class="mark-group role-legend" role="graphics-symbol" aria-roledescription="legend" aria-label="Symbol legend titled 'Set' for fill color with 5 values: CotA, AoA, WC, MM, DT"><g transform="translate(318,0)"><path class="background" aria-hidden="true" d="M0,0h39v79h-39Z" pointer-events="none"/><g><g class="mark-group role-legend-entry"><g transform="translate(0,16)"><path class="background" aria-hidden="true" d="M0,0h0v0h0Z" pointer-events="none"/><g><g class="mark-group role-scope" role="graphics-object" aria-roledescription="group mark container"><g transform="translate(0,0)"><path class="background" aria-hidden="true" d="M0,0h38.2314453125v11h-38.2314453125Z" pointer-events="none" opacity="1"/><g><g class="mark-symbol role-legend-symbol" pointer-events="none"><path transform="translate(6,6)" d="M5,0A5,5,0,1,1,-5,0A5,5,0,1,1,5,0" fill="#ad2117" stroke-width="1.5" opacity="0.7"/></g><g class="mark-text role-legend-label" pointer-events="none"><text text-anchor="start" transform="translate(16,9)" font-family="sans-serif" font-size="10px" fill="#000" opacity="1">CotA</text></g></g><path class="foreground" aria-hidden="true" d="" pointer-events="none" display="none"/></g><g transform="translate(0,13)"><path class="background" aria-hidden="true" d="M0,0h38.2314453125v11h-38.2314453125Z" pointer-events="none" opacity="1"/><g><g class="mark-symbol role-legend-symbol" pointer-events="none"><path transform="translate(6,6)" d="M5,0A5,5,0,1,1,-5,0A5,5,0,1,1,5,0" fill="#0f69bd" stroke-width="1.5" opacity="0.7"/></g><g class="mark-text role-legend-label" pointer-events="none"><text text-anchor="start" transform="translate(16,9)" font-family="sans-serif" font-size="10px" fill="#000" opacity="1">AoA</text></g></g><path class="foreground" aria-hidden="true" d="" pointer-events="none" display="none"/></g><g transform="translate(0,26)"><path class="background" aria-hidden="true" d="M0,0h38.2314453125v11h-38.2314453125Z" pointer-events="none" opacity="1"/><g><g class="mark-symbol role-legend-symbol" pointer-events="none"><path transform="translate(6,6)" d="M5,0A5,5,0,1,1,-5,0A5,5,0,1,1,5,0" fill="#940fbd" stroke-width="1.5" opacity="0.7"/></g><g class="mark-text role-legend-label" pointer-events="none"><text text-anchor="start" transform="translate(16,9)" font-family="sans-serif" font-size="10px" fill="#000" opacity="1">WC</text></g></g><path class="foreground" aria-hidden="true" d="" pointer-events="none" display="none"/></g><g transform="translate(0,39)"><path class="background" aria-hidden="true" d="M0,0h38.2314453125v11h-38.2314453125Z" pointer-events="none" opacity="1"/><g><g class="mark-symbol role-legend-symbol" pointer-events="none"><path transform="translate(6,6)" d="M5,0A5,5,0,1,1,-5,0A5,5,0,1,1,5,0" fill="#322d3b" stroke-width="1.5" opacity="0.7"/></g><g class="mark-text role-legend-label" pointer-events="none"><text text-anchor="start" transform="translate(16,9)" font-family="sans-serif" font-size="10px" fill="#000" opacity="1">MM</text></g></g><path class="foreground" aria-hidden="true" d="" pointer-events="none" display="none"/></g><g transform="translate(0,52)"><path class="background" aria-hidden="true" d="M0,0h38.2314453125v11h-38.2314453125Z" pointer-events="none" opacity="1"/><g><g class="mark-symbol role-legend-symbol" pointer-events="none"><path transform="translate(6,6)" d="M5,0A5,5,0,1,1,-5,0A5,5,0,1,1,5,0" fill="#5bbab9" stroke-width="1.5" opacity="0.7"/></g><g class="mark-text role-legend-label" pointer-events="none"><text text-anchor="start" transform="translate(16,9)" font-family="sans-serif" font-size="10px" fill="#000" opacity="1">DT</text></g></g><path class="foreground" aria-hidden="true" d="" pointer-events="none" display="none"/></g></g></g><path class="foreground" aria-hidden="true" d="" pointer-events="none" display="none"/></g></g><g class="mark-text role-legend-title" pointer-events="none"><text text-anchor="start" transform="translate(0,9)" font-family="sans-serif" font-size="11px" font-weight="bold" fill="#000" opacity="1">Set</text></g></g><path class="foreground" aria-hidden="true" d="" pointer-events="none" display="none"/></g></g></g><path class="foreground" aria-hidden="true" d="" display="none"/></g></g></g></svg>