<svg xmlns="http://www.w3.org/2000/svg" xmlns:xlink="http://www.w3.org/1999/xlink" version="1.1" class="marks" width="416" height="247" viewBox="0 0 416 247"><rect width="416" height="247" fill="white"/><g fill="none" stroke-miterlimit="10" transform="translate(26,10)"><g class="mark-group role-frame root" role="graphics-object" aria-roledescription="group mark container"><g transform="translate(0,0)"><path class="background" aria-hidden="true" d="M0.5,0.5h300v200h-300Z" stroke="#ddd"/><g><g class="mark-group role-axis" role="graphics-symbol" aria-roledescription="axis" aria-label="X-axis for a linear scale with values from 0.0 to 3.0"><g transform="translate(0.5,200.5)"><path class="background" aria-hidden="true" d="M0,0h0v0h0Z" pointer-events="none"/><g><g class="mark-rule role-axis-grid" pointer-events="none"><line transform="translate(0,-200)" x2="0" y2="200" stroke="#ddd" stroke-width="1" opacity="1"/><line transform="translate(50,-200)" x2="0" y2="200" stroke="#ddd" stroke-width="1" opacity="1"/><line transform="translate(100,-200)" x2="0" y2="200" stroke="#ddd" stroke-width="1" opacity="1"/><line transform="translate(150,-200)" x2="0" y2="200" stroke="#ddd" stroke-width="1" opacity="1"/><line transform="translate(200,-200)" x2="0" y2="200" stroke="#ddd" stroke-width="1" opacity="1"/><line transform="translate(250,-200)" x2="0" y2="200" stroke="#ddd" stroke-width="1" opacity="1"/><line transform="translate(300,-200)" x2="0" y2="200" stroke="#ddd" stroke-width="1" opacity="1"/></g></g><path class="foreground" aria-hidden="true" d="" pointer-events="none" display="none"/></g></g><g class="mark-group role-axis" role="graphics-symbol" aria-roledescription="axis" aria-label="Y-axis for a linear scale with values from 0.0 to 1.4"><g transform="translate(0.5,0.5)"><path class="background" aria-hidden="true" d="M0,0h0v0h0Z" pointer-events="none"/><g><g class="mark-rule role-axis-grid" pointer-events="none"><line transform="translate(0,200)" x2="300" y2="0" stroke="#ddd" stroke-width="1" opacity="1"/><line transform="translate(0,171)" x2="300" y2="0" stroke="#ddd" stroke-width="1" opacity="1"/><line transform="translate(0,143)" x2="300" y2="0" stroke="#ddd" stroke-width="1" opacity="1"/><line transform="translate(0,114)" x2="300" y2="0" stroke="#ddd" stroke-width="1" opacity="1"/><line transform="translate(0,86)" x2="300" y2="0" stroke="#ddd" stroke-width="1" opacity="1"/><line transform="translate(0,57)" x2="300" y2="0" stroke="#ddd" stroke-width="1" opacity="1"/><line transform="translate(0,29)" x2="300" y2="0" stroke="#ddd" stroke-width="1" opacity="1"/><line transform="translate(0,0)" x2="300" y2="0" stroke="#ddd" stroke-width="1" opacity="1"/></g></g><path class="foreground" aria-hidden="true" d="" pointer-events="none" display="none"/></g></g><g class="mark-group role-axis" role="graphics-symbol" aria-roledescription="axis" aria-label="X-axis titled '# Registered Decks Weekly (x10 000)' for a linear scale with values from 0.0 to 3.0"><g transform="translate(0.5,200.5)"><path class="background" aria-hidden="true" d="M0,0h0v0h0Z" pointer-events="none"/><g><g class="mark-rule role-axis-tick" pointer-events="none"><line transform="translate(0,0)" x2="0" y2="5" stroke="#888" stroke-width="1" opacity="1"/><line transform="translate(50,0)" x2="0" y2="5" stroke="#888" stroke-width="1" opacity="1"/><line transform="translate(100,0)" x2="0" y2="5" stroke="#888" stroke-width="1" opacity="1"/><line transform="translate(150,0)" x2="0" y2="5" stroke="#888" stroke-width="1" opacity="1"/><line transform="translate(200,0)" x2="0" y2="5" stroke="#888" stroke-width="1" opacity="1"/><line transform="translate(250,0)" x2="0" y2="5" stroke="#888" stroke-width="1" opacity="1"/><line transform="translate(300,0)" x2="0" y2="5" stroke="#888" stroke-width="1" opacity="1"/></g><g class="mark-text role-axis-label" pointer-events="none"><text text-anchor="start" transform="translate(0,15)" font-family="sans-serif" font-size="10px" fill="#000" opacity="1">0.0</text><text text-anchor="middle" transform="translate(50,15)" font-family="sans-serif" font-size="10px" fill="#000" opacity="1">0.5</text><text text-anchor="middle" transform="translate(100,15)" font-family="sans-serif" font-size="10px" fill="#000" opacity="1">1.0</text><text text-anchor="middle" transform="translate(150,15)" font-family="sans-serif" font-size="10px" fill="#000" opacity="1">1.5</text><text text-anchor="middle" transform="translate(200,15)" font-family="sans-serif" font-size="10px" fill="#000" opacity="1">2.0</text><text text-anchor="middle" transform="translate(250,15)" font-family="sans-serif" font-size="10px" fill="#000" opacity="1">2.5</text><text text-anchor="end" transform="translate(300,15)" font-family="sans-serif" font-size="10px" fill="#000" opacity="1">3.0</text></g><g class="mark-rule role-axis-domain" pointer-events="none"><line transform="translate(0,0)" x2="300" y2="0" stroke="#888" stroke-width="1" opacity="1"/></g><g class="mark-text role-axis-title" pointer-events="none"><text text-anchor="middle" transform="translate(150,30)" font-family="sans-serif" font-size="11px" font-weight="bold" fill="#000" opacity="1"># Registered Decks Weekly (x10 000)</text></g></g><path class="foreground" aria-hidden="true" d="" pointer-events="none" display="none"/></g></g><g class="mark-group role-axis" role="graphics-symbol" aria-roledescription="axis" aria-label="Y-axis for a linear scale with values from 0.0 to 1.4"><g transform="translate(0.5,0.5)"><path class="background" aria-hidden="true" d="M0,0h0v0h0Z" pointer-events="none"/><g><g class="mark-rule role-axis-tick" pointer-events="none"><line transform="translate(0,200)" x2="-5" y2="0" stroke="#888" stroke-width="1" opacity="1"/><line transform="translate(0,171)" x2="-5" y2="0" stroke="#888" stroke-width="1" opacity="1"/><line transform="translate(0,143)" x2="-5" y2="0" stroke="#888" stroke-width="1" opacity="1"/><line transform="translate(0,114)" x2="-5" y2="0" stroke="#888" stroke-width="1" opacity="1"/><line transform="translate(0,86)" x2="-5" y2="0" stroke="#888" stroke-width="1" opacity="1"/><line transform="translate(0,57)" x2="-5" y2="0" stroke="#888" stroke-width="1" opacity="1"/><line transform="translate(0,29)" x2="-5" y2="0" stroke="#888" stroke-width="1" opacity="1"/><line transform="translate(0,0)" x2="-5" y2="0" stroke="#888" stroke-width="1" opacity="1"/></g><g class="mark-text role-axis-label" pointer-events="none"><text text-anchor="end" transform="translate(-7,203)" font-family="sans-serif" font-size="10px" fill="#000" opacity="1">0.0</text><text text-anchor="end" transform="translate(-7,174.42857142857142)" font-family="sans-serif" font-size="10px" fill="#000" opacity="1">0.2</text><text text-anchor="end" transform="translate(-7,145.85714285714283)" font-family="sans-serif" font-size="10px" fill="#000" opacity="1">0.4</text><text text-anchor="end" transform="translate(-7,117.28571428571428)" font-family="sans-serif" font-size="10px" fill="#000" opacity="1">0.6</text><text text-anchor="end" transform="translate(-7,88.7142857142857)" font-family="sans-serif" font-size="10px" fill="#000" opacity="1">0.8</text><text text-anchor="end" transform="translate(-7,60.14285714285714)" font-family="sans-serif" font-size="10px" fill="#000" opacity="1">1.0</text><text text-anchor="end" transform="translate(-7,31.57142857142856)" font-family="sans-serif" font-size="10px" fill="#000" opacity="1">1.2</text><text text-anchor="end" transform="translate(-7,3)" font-family="sans-serif" font-size="10px" fill="#000" opacity="1">1.4</text></g><g class="mark-rule role-axis-domain" pointer-events="none"><line transform="translate(0,200)" x2="0" y2="-200" stroke="#888" stroke-width="1" opacity="1"/></g></g><path class="foreground" aria-hidden="true" d="" pointer-events="none" display="none"/></g></g><g class="mark-group role-scope pathgroup" role="graphics-object" aria-roledescription="group mark container"><g transform="translate(0,0)"><path class="background" aria-hidden="true" d="M0,0h300v200h-300Z"/><g><g class="mark-area role-mark marks" role="graphics-symbol" aria-roledescription="area mark container"><path d="M0,199.99972338737848L12,199.9980411830358L24,199.98810482161704L36,199.93806499677444L41.99999999999999,199.86660353331175L45,199.80703593292156L48,199.72354400270675L49.5,199.6702900434851L51.00000000000001,199.60772364415993L52.50000000000001,199.53440735122555L54.00000000000001,199.44871788997978L55.50000000000001,199.3488285122093L57.00000000000001,199.23269074343136L58.50000000000001,199.0980157067707L60.000000000000014,198.942255240677L61.500000000000014,198.7625830705327L63.000000000000014,198.55587633924532L66,198.0472794095254L67.5,197.73750674952112L69,197.38490646478908L70.5,196.98463555519163L72,196.5314741125045L73.5,196.0198217683622L75,195.44369853276544L76.5,194.79675067030462L78,194.07226226646398L79.5,193.26317312886704L81,192.36210364641647L82.5,191.3613871914165L84.00000000000001,190.25311059456948L85.50000000000001,189.02916314910524L87.00000000000001,187.68129450743047L90,184.58050554346306L91.5,182.81103596094198L93,180.88472675437004L94.5,178.79381870088136L96,176.53095083219915L97.5,174.08927895278956L99,171.46260040450485L102.00000000000001,165.6334025763992L103.50000000000001,162.42286978862447L105.00000000000001,159.01157380032217L108.00000000000001,151.5841163435846L109.50000000000001,147.5703827997631L111.00000000000001,143.36097778227295L114.00000000000001,134.3787858272202L115.50000000000001,129.62254472075537L117.00000000000001,124.70384818065692L120.00000000000003,114.43410622143276L121.50000000000003,109.11562428654977L123.00000000000003,103.69975600161649L126.00000000000003,92.66230220659521L132,70.4628602380845L135,59.74759968472498L138,49.60887253313943L139.5,44.832248110104445L141,40.29096149882958L144,32.03004516309147L145.5,28.365117611685342L147,25.044331314661193L150,19.52451586495032L151.5,17.364236993815595L153,15.625147164839293L156,13.457440614983508L157.5,13.04452456849412L159,13.084009536210806L162,14.515860634508382L163.5,15.8979111572936L165,17.71185525395518L168.00000000000003,22.580673203702737L170.99999999999997,28.98514831990706L172.50000000000003,32.70940048687474L174,36.748688471281234L177,45.663360666269966L180,55.4991249735439L181.5,60.686896503323126L183,66.01364624852258L186,76.9621030843082L192,99.22364181154728L193.5,104.70817932156228L195,110.11249974895203L198,120.59888328525803L200.99999999999997,130.53913132324246L202.49999999999997,135.2683382862298L204.00000000000003,139.82172441657843L205.50000000000003,144.19037362387095L207.00000000000003,148.36729938569562L210.00000000000003,156.12721832155523L211.50000000000003,159.70513636296033L213,163.08096074695416L214.5,166.25594801850247L216.00000000000003,169.2326443371237L217.50000000000003,172.0147511847397L219.00000000000003,174.6069893858257L222.00000000000003,179.24502824944972L223.50000000000003,181.30415917824226L225,183.1998280478911L226.5,184.939885098798L228.00000000000003,186.53244860780714L229.50000000000003,187.98580269253333L231.00000000000003,189.3083038918752L234.00000000000003,191.5940394853898L235.50000000000006,192.57363702392308L237,193.45498579569414L238.5,194.2457254777717L240.00000000000006,194.95320002498158L243.00000000000003,196.146072024993L244.50000000000003,196.64443604270537L245.99999999999997,197.08544094348613L247.50000000000003,197.47462671549448L249.00000000000003,197.81715117405494L252,198.38096673131713L253.50000000000003,198.61072008902795L255,198.81076142285022L256.5,198.98446838930923L258,199.1349063891001L259.50000000000006,199.2648466517927L261.00000000000006,199.3767849565083L264,199.55537561695905L265.50000000000006,199.6258130896518L267,199.68585585255778L268.5,199.73690390546426L270,199.7801913109908L273.00000000000006,199.8476856684586L276,199.89547586900392L282,199.95219126272042L288,199.97896628438713L300,199.99637686669968L300,200L288,200L282,200L276,200L273.00000000000006,200L270,200L268.5,200L267,200L265.50000000000006,200L264,200L261.00000000000006,200L259.50000000000006,200L258,200L256.5,200L255,200L253.50000000000003,200L252,200L249.00000000000003,200L247.50000000000003,200L245.99999999999997,200L244.50000000000003,200L243.00000000000003,200L240.00000000000006,200L238.5,200L237,200L235.50000000000006,200L234.00000000000003,200L231.00000000000003,200L229.50000000000003,200L228.00000000000003,200L226.5,200L225,200L223.50000000000003,200L222.00000000000003,200L219.00000000000003,200L217.50000000000003,200L216.00000000000003,200L214.5,200L213,200L211.50000000000003,200L210.00000000000003,200L207.00000000000003,200L205.50000000000003,200L204.00000000000003,200L202.49999999999997,200L200.99999999999997,200L198,200L195,200L193.5,200L192,200L186,200L183,200L181.5,200L180,200L177,200L174,200L172.50000000000003,200L170.99999999999997,200L168.00000000000003,200L165,200L163.5,200L162,200L159,200L157.5,200L156,200L153,200L151.5,200L150,200L147,200L145.5,200L144,200L141,200L139.5,200L138,200L135,200L132,200L126.00000000000003,200L123.00000000000003,200L121.50000000000003,200L120.00000000000003,200L117.00000000000001,200L115.50000000000001,200L114.00000000000001,200L111.00000000000001,200L109.50000000000001,200L108.00000000000001,200L105.00000000000001,200L103.50000000000001,200L102.00000000000001,200L99,200L97.5,200L96,200L94.5,200L93,200L91.5,200L90,200L87.00000000000001,200L85.50000000000001,200L84.00000000000001,200L82.5,200L81,200L79.5,200L78,200L76.5,200L75,200L73.5,200L72,200L70.5,200L69,200L67.5,200L66,200L63.000000000000014,200L61.500000000000014,200L60.000000000000014,200L58.50000000000001,200L57.00000000000001,200L55.50000000000001,200L54.00000000000001,200L52.50000000000001,200L51.00000000000001,200L49.5,200L48,200L45,200L41.99999999999999,200L36,200L24,200L12,200L0,200Z" fill="#f58518" opacity="0.5"/></g></g><path class="foreground" aria-hidden="true" d="" display="none"/></g><g transform="translate(0,0)"><path class="background" aria-hidden="true" d="M0,0h300v200h-300Z"/><g><g class="mark-area role-mark marks" role="graphics-symbol" aria-roledescription="area mark container"><path d="M0,177.35924474444525L1.5,174.93780200222392L3,172.3263541392256L4.5,169.51876382143877L6,166.50979955318945L7.499999999999999,163.29528208395027L9,159.8722317433174L10.499999999999998,156.23901449462872L12,152.39548430624134L13.500000000000002,148.3431192795821L14.999999999999998,144.08514885143663L18,134.9747448447925L19.5,130.13849135383205L20.999999999999996,125.12914037020084L24,114.64687448161115L25.500000000000004,109.20724863965793L27.000000000000004,103.6610550283878L28.500000000000004,98.03020298479905L29.999999999999996,92.33856043673919L36,69.5018774763593L37.5,63.92207719182608L39,58.45646687176824L40.5,53.137355288418384L41.99999999999999,47.99719285568291L45,38.382276673147395L46.5,33.97018074497036L48,29.861675184433878L49.5,26.084954176380947L51.00000000000001,22.666370301466475L52.50000000000001,19.630128891640975L54.00000000000001,16.998002937363445L55.50000000000001,14.789073238118844L57.00000000000001,13.019498131520812L58.50000000000001,11.702316687022552L60.000000000000014,10.847288716907833L61.500000000000014,10.460774350396917L63.000000000000014,10.545655249433628L66,12.123566119390894L67.5,13.604863085921771L69,15.534234595557962L70.5,17.897499324413424L72,20.677423330058154L73.5,23.853929301150178L75,27.404337933357994L76.5,31.303637373980386L78,35.52477626091219L79.5,40.038975560200996L81,44.81605418575636L82.5,49.824763267493054L84.00000000000001,55.03312392034727L85.50000000000001,60.40876345399819L87.00000000000001,65.91924514675411L90,77.2165650826705L96,100.06596926634623L97.5,105.66907623856329L99,111.1794049614391L102.00000000000001,121.83909497009024L103.50000000000001,126.95241084317695L105.00000000000001,131.90094301887157L108.00000000000001,141.25536311266117L109.50000000000001,145.64241719879334L111.00000000000001,149.82689870316682L114.00000000000001,157.57232280542425L115.50000000000001,161.12980204042552L117.00000000000001,164.47753118168455L120.00000000000003,170.55357382532057L121.50000000000003,173.28989145325443L123.00000000000003,175.83217318960465L126.00000000000003,180.36105511450137L129,184.19937608039788L130.50000000000003,185.88013317781983L132,187.4134749636231L135,190.07311562193857L138,192.24832450570415L139.5,193.17558854865058L141,194.00687006836012L144,195.412381650617L145.5,196.00117520983835L147,196.5230668901272L150,197.390959350983L151.5,197.7483473638052L153,198.06161161452044L156,198.57414230333384L157.5,198.78164974029474L159,198.96154665473009L162,199.25118729683868L163.5,199.36650296804874L165,199.4653927880865L168.00000000000003,199.62210442460582L170.99999999999997,199.73552527595282L174,199.81673822113066L177,199.87427114223686L180,199.91459695081554L192,199.98354188492317L204.00000000000003,199.99729547416166L216.00000000000003,199.99962102929004L228.00000000000003,199.99995471829754L240.00000000000006,199.99999538638306L252,199.9999995991692L264,199.9999999703052L276,199.99999999812414L288,199.99999999989896L300,199.99999999999537L300,200L288,200L276,200L264,200L252,200L240.00000000000006,200L228.00000000000003,200L216.00000000000003,200L204.00000000000003,200L192,200L180,200L177,200L174,200L170.99999999999997,200L168.00000000000003,200L165,200L163.5,200L162,200L159,200L157.5,200L156,200L153,200L151.5,200L150,200L147,200L145.5,200L144,200L141,200L139.5,200L138,200L135,200L132,200L130.50000000000003,200L129,200L126.00000000000003,200L123.00000000000003,200L121.50000000000003,200L120.00000000000003,200L117.00000000000001,200L115.50000000000001,200L114.00000000000001,200L111.00000000000001,200L109.50000000000001,200L108.00000000000001,200L105.00000000000001,200L103.50000000000001,200L102.00000000000001,200L99,200L97.5,200L96,200L90,200L87.00000000000001,200L85.50000000000001,200L84.00000000000001,200L82.5,200L81,200L79.5,200L78,200L76.5,200L75,200L73.5,200L72,200L70.5,200L69,200L67.5,200L66,200L63.000000000000014,200L61.500000000000014,200L60.000000000000014,200L58.50000000000001,200L57.00000000000001,200L55.50000000000001,200L54.00000000000001,200L52.50000000000001,200L51.00000000000001,200L49.5,200L48,200L46.5,200L45,200L41.99999999999999,200L40.5,200L39,200L37.5,200L36,200L29.999999999999996,200L28.500000000000004,200L27.000000000000004,200L25.500000000000004,200L24,200L20.999999999999996,200L19.5,200L18,200L14.999999999999998,200L13.500000000000002,200L12,200L10.499999999999998,200L9,200L7.499999999999999,200L6,200L4.5,200L3,200L1.5,200L0,200Z" fill="#4c78a8" opacity="0.5"/></g></g><path class="foreground" aria-hidden="true" d="" display="none"/></g></g><g class="mark-group role-legend" role="graphics-symbol" aria-roledescription="legend" aria-label="Symbol legend titled 'Period' for fill color with 2 values: COVID, Pre-COVID"><g transform="translate(318,0)"><path class="background" aria-hidden="true" d="M0,0h67v40h-67Z" pointer-events="none"/><g><g class="mark-group role-legend-entry"><g transform="translate(0,16)"><path class="background" aria-hidden="true" d="M0,0h0v0h0Z" pointer-events="none"/><g><g class="mark-group role-scope" role="graphics-object" aria-roledescription="group mark container"><g transform="translate(0,0)"><path class="background" aria-hidden="true" d="M0,0h66.5615234375v11h-66.5615234375Z" pointer-events="none" opacity="1"/><g><g class="mark-symbol role-legend-symbol" pointer-events="none"><path transform="translate(6,6)" d="M5,0A5,5,0,1,1,-5,0A5,5,0,1,1,5,0" fill="#4c78a8" stroke-width="1.5" opacity="0.5"/></g><g class="mark-text role-legend-label" pointer-events="none"><text text-anchor="start" transform="translate(16,9)" font-family="sans-serif" font-size="10px" fill="#000" opacity="1">COVID</text></g></g><path class="foreground" aria-hidden="true" d="" pointer-events="none" display="none"/></g><g transform="translate(0,13)"><path class="background" aria-hidden="true" d="M0,0h66.5615234375v11h-66.5615234375Z" pointer-events="none" opacity="1"/><g><g class="mark-symbol role-legend-symbol" pointer-events="none"><path transform="translate(6,6)" d="M5,0A5,5,0,1,1,-5,0A5,5,0,1,1,5,0" fill="#f58518" stroke-width="1.5" opacity="0.5"/></g><g class="mark-text role-legend-label" pointer-events="none"><text text-anchor="start" transform="translate(16,9)" font-family="sans-serif" font-size="10px" fill="#000" opacity="1">Pre-COVID</text></g></g><path class="foreground" aria-hidden="true" d="" pointer-events="none" display="none"/></g></g></g><path class="foreground" aria-hidden="true" d="" pointer-events="none" display="none"/></g></g><g class="mark-text role-legend-title" pointer-events="none"><text text-anchor="start" transform="translate(0,9)" font-family="sans-serif" font-size="11px" font-weight="bold" fill="#000" opacity="1">Period</text></g></g><path class="foreground" aria-hidden="true" d="" pointer-events="none" display="none"/></g></g></g><path class="foreground" aria-hidden="true" d="" display="none"/></g></g></g></svg>