<svg xmlns="http://www.w3.org/2000/svg" xmlns:xlink="http://www.w3.org/1999/xlink" version="1.1" class="marks" width="380" height="247" viewBox="0 0 380 247"><rect width="380" height="247" fill="white"/><g fill="none" stroke-miterlimit="10" transform="translate(18,10)"><g class="mark-group role-frame root" role="graphics-object" aria-roledescription="group mark container"><g transform="translate(0,0)"><path class="background" aria-hidden="true" d="M0.5,0.5h300v200h-300Z" stroke="#ddd"/><g><g class="mark-group role-axis" role="graphics-symbol" aria-roledescription="axis" aria-label="X-axis for a linear scale with values from 0 to 5"><g transform="translate(0.5,200.5)"><path class="background" aria-hidden="true" d="M0,0h0v0h0Z" pointer-events="none"/><g><g class="mark-rule role-axis-grid" pointer-events="none"><line transform="translate(0,-200)" x2="0" y2="200" stroke="#ddd" stroke-width="1" opacity="1"/><line transform="translate(30,-200)" x2="0" y2="200" stroke="#ddd" stroke-width="1" opacity="1"/><line transform="translate(60,-200)" x2="0" y2="200" stroke="#ddd" stroke-width="1" opacity="1"/><line transform="translate(90,-200)" x2="0" y2="200" stroke="#ddd" stroke-width="1" opacity="1"/><line transform="translate(120,-200)" x2="0" y2="200" stroke="#ddd" stroke-width="1" opacity="1"/><line transform="translate(150,-200)" x2="0" y2="200" stroke="#ddd" stroke-width="1" opacity="1"/><line transform="translate(180,-200)" x2="0" y2="200" stroke="#ddd" stroke-width="1" opacity="1"/><line transform="translate(210,-200)" x2="0" y2="200" stroke="#ddd" stroke-width="1" opacity="1"/><line transform="translate(240,-200)" x2="0" y2="200" stroke="#ddd" stroke-width="1" opacity="1"/><line transform="translate(270,-200)" x2="0" y2="200" stroke="#ddd" stroke-width="1" opacity="1"/><line transform="translate(300,-200)" x2="0" y2="200" stroke="#ddd" stroke-width="1" opacity="1"/></g></g><path class="foreground" aria-hidden="true" d="" pointer-events="none" display="none"/></g></g><g class="mark-group role-axis" role="graphics-symbol" aria-roledescription="axis" aria-label="Y-axis for a linear scale with values from 0 to 5"><g transform="translate(0.5,0.5)"><path class="background" aria-hidden="true" d="M0,0h0v0h0Z" pointer-events="none"/><g><g class="mark-rule role-axis-grid" pointer-events="none"><line transform="translate(0,200)" x2="300" y2="0" stroke="#ddd" stroke-width="1" opacity="1"/><line transform="translate(0,160)" x2="300" y2="0" stroke="#ddd" stroke-width="1" opacity="1"/><line transform="translate(0,120)" x2="300" y2="0" stroke="#ddd" stroke-width="1" opacity="1"/><line transform="translate(0,80)" x2="300" y2="0" stroke="#ddd" stroke-width="1" opacity="1"/><line transform="translate(0,40)" x2="300" y2="0" stroke="#ddd" stroke-width="1" opacity="1"/><line transform="translate(0,0)" x2="300" y2="0" stroke="#ddd" stroke-width="1" opacity="1"/></g></g><path class="foreground" aria-hidden="true" d="" pointer-events="none" display="none"/></g></g><g class="mark-group role-axis" role="graphics-symbol" aria-roledescription="axis" aria-label="X-axis titled 'Popularity' for a linear scale with values from 0 to 5"><g transform="translate(0.5,200.5)"><path class="background" aria-hidden="true" d="M0,0h0v0h0Z" pointer-events="none"/><g><g class="mark-rule role-axis-tick" pointer-events="none"><line transform="translate(0,0)" x2="0" y2="5" stroke="#888" stroke-width="1" opacity="1"/><line transform="translate(30,0)" x2="0" y2="5" stroke="#888" stroke-width="1" opacity="1"/><line transform="translate(60,0)" x2="0" y2="5" stroke="#888" stroke-width="1" opacity="1"/><line transform="translate(90,0)" x2="0" y2="5" stroke="#888" stroke-width="1" opacity="1"/><line transform="translate(120,0)" x2="0" y2="5" stroke="#888" stroke-width="1" opacity="1"/><line transform="translate(150,0)" x2="0" y2="5" stroke="#888" stroke-width="1" opacity="1"/><line transform="translate(180,0)" x2="0" y2="5" stroke="#888" stroke-width="1" opacity="1"/><line transform="translate(210,0)" x2="0" y2="5" stroke="#888" stroke-width="1" opacity="1"/><line transform="translate(240,0)" x2="0" y2="5" stroke="#888" stroke-width="1" opacity="1"/><line transform="translate(270,0)" x2="0" y2="5" stroke="#888" stroke-width="1" opacity="1"/><line transform="translate(300,0)" x2="0" y2="5" stroke="#888" stroke-width="1" opacity="1"/></g><g class="mark-text role-axis-label" pointer-events="none"><text text-anchor="start" transform="translate(0,15)" font-family="sans-serif" font-size="10px" fill="#000" opacity="1">0.0</text><text text-anchor="middle" transform="translate(30,15)" font-family="sans-serif" font-size="10px" fill="#000" opacity="1">0.5</text><text text-anchor="middle" transform="translate(60,15)" font-family="sans-serif" font-size="10px" fill="#000" opacity="1">1.0</text><text text-anchor="middle" transform="translate(90,15)" font-family="sans-serif" font-size="10px" fill="#000" opacity="1">1.5</text><text text-anchor="middle" transform="translate(120,15)" font-family="sans-serif" font-size="10px" fill="#000" opacity="1">2.0</text><text text-anchor="middle" transform="translate(150,15)" font-family="sans-serif" font-size="10px" fill="#000" opacity="1">2.5</text><text text-anchor="middle" transform="translate(180,15)" font-family="sans-serif" font-size="10px" fill="#000" opacity="1">3.0</text><text text-anchor="middle" transform="translate(210,15)" font-family="sans-serif" font-size="10px" fill="#000" opacity="1">3.5</text><text text-anchor="middle" transform="translate(240,15)" font-family="sans-serif" font-size="10px" fill="#000" opacity="1">4.0</text><text text-anchor="middle" transform="translate(270,15)" font-family="sans-serif" font-size="10px" fill="#000" opacity="1">4.5</text><text text-anchor="end" transform="translate(300,15)" font-family="sans-serif" font-size="10px" fill="#000" opacity="1">5.0</text></g><g class="mark-rule role-axis-domain" pointer-events="none"><line transform="translate(0,0)" x2="300" y2="0" stroke="#888" stroke-width="1" opacity="1"/></g><g class="mark-text role-axis-title" pointer-events="none"><text text-anchor="middle" transform="translate(150,30)" font-family="sans-serif" font-size="11px" font-weight="bold" fill="#000" opacity="1">Popularity</text></g></g><path class="foreground" aria-hidden="true" d="" pointer-events="none" display="none"/></g></g><g class="mark-group role-axis" role="graphics-symbol" aria-roledescription="axis" aria-label="Y-axis for a linear scale with values from 0 to 5"><g transform="translate(0.5,0.5)"><path class="background" aria-hidden="true" d="M0,0h0v0h0Z" pointer-events="none"/><g><g class="mark-rule role-axis-tick" pointer-events="none"><line transform="translate(0,200)" x2="-5" y2="0" stroke="#888" stroke-width="1" opacity="1"/><line transform="translate(0,160)" x2="-5" y2="0" stroke="#888" stroke-width="1" opacity="1"/><line transform="translate(0,120)" x2="-5" y2="0" stroke="#888" stroke-width="1" opacity="1"/><line transform="translate(0,80)" x2="-5" y2="0" stroke="#888" stroke-width="1" opacity="1"/><line transform="translate(0,40)" x2="-5" y2="0" stroke="#888" stroke-width="1" opacity="1"/><line transform="translate(0,0)" x2="-5" y2="0" stroke="#888" stroke-width="1" opacity="1"/></g><g class="mark-text role-axis-label" pointer-events="none"><text text-anchor="end" transform="translate(-7,203)" font-family="sans-serif" font-size="10px" fill="#000" opacity="1">0</text><text text-anchor="end" transform="translate(-7,163)" font-family="sans-serif" font-size="10px" fill="#000" opacity="1">1</text><text text-anchor="end" transform="translate(-7,123)" font-family="sans-serif" font-size="10px" fill="#000" opacity="1">2</text><text text-anchor="end" transform="translate(-7,83)" font-family="sans-serif" font-size="10px" fill="#000" opacity="1">3</text><text text-anchor="end" transform="translate(-7,42.99999999999999)" font-family="sans-serif" font-size="10px" fill="#000" opacity="1">4</text><text text-anchor="end" transform="translate(-7,3)" font-family="sans-serif" font-size="10px" fill="#000" opacity="1">5</text></g><g class="mark-rule role-axis-domain" pointer-events="none"><line transform="translate(0,200)" x2="0" y2="-200" stroke="#888" stroke-width="1" opacity="1"/></g></g><path class="foreground" aria-hidden="true" d="" pointer-events="none" display="none"/></g></g><g class="mark-group role-scope pathgroup" role="graphics-object" aria-roledescription="group mark container"><g transform="translate(0,0)"><path class="background" aria-hidden="true" d="M0,0h300v200h-300Z"/><g><g class="mark-area role-mark marks" role="graphics-symbol" aria-roledescription="area mark container"><path d="M0,200L12,200L24,200L36,200L48,200L60,200L72,200L84.00000000000001,200L96,200L108,200L120,200L132.00000000000003,200L144,200L156,200L168.00000000000003,200L180,200L192,200L204.00000000000003,199.99979383045806L207.00000000000003,199.98859148895235L210,199.86463687038182L213,199.47335794194203L216,198.8984765857521L218.99999999999997,198.13535892523808L220.5,197.4722191912248L222,196.52607815610241L225,193.59158426649213L228,189.0639392715686L230.99999999999997,181.84115922865868L232.5,177.02864015597868L234,170.90578730005427L240,142.34016311829714L245.99999999999997,115.9634550256103L247.5,113.57842086160692L249.00000000000003,113.84795144550033L250.50000000000006,115.8165010932489L252.00000000000003,118.63408344994109L255,123.94464025773392L256.5,126.8430054518762L258.00000000000006,131.67230831228648L264.00000000000006,162.60539213639925L265.50000000000006,170.40754515216838L267,175.87488664485923L270,183.17148480461194L271.5,186.76907959191325L273.00000000000006,189.79913487040056L274.50000000000006,191.89113648824264L276.00000000000006,193.33909741607434L279,195.39265580795964L280.50000000000006,196.18290732822743L282,197.11678293245876L285,198.8994026811008L286.5,199.36288394608462L288,199.6221787738978L291,199.90523909774575L292.5,199.9685644056898L294,199.99284011203724L300,199.9999997404542L300,200L294,200L292.5,200L291,200L288,200L286.5,200L285,200L282,200L280.50000000000006,200L279,200L276.00000000000006,200L274.50000000000006,200L273.00000000000006,200L271.5,200L270,200L267,200L265.50000000000006,200L264.00000000000006,200L258.00000000000006,200L256.5,200L255,200L252.00000000000003,200L250.50000000000006,200L249.00000000000003,200L247.5,200L245.99999999999997,200L240,200L234,200L232.5,200L230.99999999999997,200L228,200L225,200L222,200L220.5,200L218.99999999999997,200L216,200L213,200L210,200L207.00000000000003,200L204.00000000000003,200L192,200L180,200L168.00000000000003,200L156,200L144,200L132.00000000000003,200L120,200L108,200L96,200L84.00000000000001,200L72,200L60,200L48,200L36,200L24,200L12,200L0,200Z" fill="#ad2117" opacity="0.7"/></g></g><path class="foreground" aria-hidden="true" d="" display="none"/></g><g transform="translate(0,0)"><path class="background" aria-hidden="true" d="M0,0h300v200h-300Z"/><g><g class="mark-area role-mark marks" role="graphics-symbol" aria-roledescription="area mark container"><path d="M0,200L12,200L24,200L36,200L48,200L60,199.99986348466103L72,199.7046894709981L73.5,199.6212866323559L75,199.06867110230962L78,196.2228450415442L79.5,194.4501175958635L81,192.46815565807685L84.00000000000001,185.39457297302008L96,99.10078689641344L98.99999999999999,87.7175318650457L101.99999999999999,94.1141430632966L105,106.12616575130409L108,124.9736633422343L114,166.80085680080077L117,180.7657908824631L120,189.20526872054504L122.99999999999999,194.7237541122303L124.50000000000001,196.30084691970063L126.00000000000001,197.66182095383422L129.00000000000003,199.35083461356774L132.00000000000003,199.70328336731959L135,199.6892698063351L138,199.50750860654915L140.99999999999997,199.94466245197592L142.5,199.99360778035543L144,199.99963943026765L156,200L168.00000000000003,200L180,200L192,200L204.00000000000003,200L216,200L228,200L240,200L252.00000000000003,200L264.00000000000006,200L276.00000000000006,200L288,200L300,200L300,200L288,200L276.00000000000006,200L264.00000000000006,200L252.00000000000003,200L240,200L228,200L216,200L204.00000000000003,200L192,200L180,200L168.00000000000003,200L156,200L144,200L142.5,200L140.99999999999997,200L138,200L135,200L132.00000000000003,200L129.00000000000003,200L126.00000000000001,200L124.50000000000001,200L122.99999999999999,200L120,200L117,200L114,200L108,200L105,200L101.99999999999999,200L98.99999999999999,200L96,200L84.00000000000001,200L81,200L79.5,200L78,200L75,200L73.5,200L72,200L60,200L48,200L36,200L24,200L12,200L0,200Z" fill="#0f69bd" opacity="0.7"/></g></g><path class="foreground" aria-hidden="true" d="" display="none"/></g><g transform="translate(0,0)"><path class="background" aria-hidden="true" d="M0,0h300v200h-300Z"/><g><g class="mark-area role-mark marks" role="graphics-symbol" aria-roledescription="area mark container"><path d="M0,200L12,200L18.000000000000004,199.99999999561754L21.000000000000004,199.99988800977812L24,199.9631134948628L25.500000000000004,199.86883651891293L27,199.83711008171022L30,199.81056669757578L31.500000000000004,199.55699545060088L33.00000000000001,198.5920063538035L36,193.00613865157976L37.5,188.42724490419587L38.99999999999999,181.26091384707254L41.99999999999999,163.57193945932264L48,94.81255236159787L51.00000000000001,68.70900986113264L54,73.96043038239719L55.5,77.99170887300524L57,86.4478385792792L58.5,97.50558607371373L60,114.02017522076923L66.00000000000001,172.63106152552166L69,185.02225604000816L72,194.05444513011608L73.5,197.271263750264L75,199.0532238625149L78,199.37828263072566L79.5,199.45763398656035L81,199.50521595444795L84.00000000000001,199.41553730623934L85.50000000000001,199.75362103848576L87.00000000000001,199.954087732312L90,199.99990122247246L96,200L108,200L120,200L132.00000000000003,200L144,200L156,200L168.00000000000003,200L180,200L192,200L204.00000000000003,200L216,200L228,200L240,200L252.00000000000003,200L264.00000000000006,200L276.00000000000006,200L288,200L300,200L300,200L288,200L276.00000000000006,200L264.00000000000006,200L252.00000000000003,200L240,200L228,200L216,200L204.00000000000003,200L192,200L180,200L168.00000000000003,200L156,200L144,200L132.00000000000003,200L120,200L108,200L96,200L90,200L87.00000000000001,200L85.50000000000001,200L84.00000000000001,200L81,200L79.5,200L78,200L75,200L73.5,200L72,200L69,200L66.00000000000001,200L60,200L58.5,200L57,200L55.5,200L54,200L51.00000000000001,200L48,200L41.99999999999999,200L38.99999999999999,200L37.5,200L36,200L33.00000000000001,200L31.500000000000004,200L30,200L27,200L25.500000000000004,200L24,200L21.000000000000004,200L18.000000000000004,200L12,200L0,200Z" fill="#940fbd" opacity="0.7"/></g></g><path class="foreground" aria-hidden="true" d="" display="none"/></g><g transform="translate(0,0)"><path class="background" aria-hidden="true" d="M0,0h300v200h-300Z"/><g><g class="mark-area role-mark marks" role="graphics-symbol" aria-roledescription="area mark container"><path d="M0,200L12,200L24,200L36,200L48,200L54,199.9999925118028L55.5,199.9983150004288L57,199.94838121308953L58.5,199.78187275784816L60,199.77358859549733L63.00000000000001,199.05058910092885L64.50000000000001,198.3574121523861L66.00000000000001,195.91060093172504L69,184.8900028955661L72,144.9706511870704L78,53.11628095438039L81,21.228962679721917L84.00000000000001,56.182674835964484L90,159.7674567604813L93,190.67364840659812L94.50000000000001,195.59253802645696L96,197.35799268643265L98.99999999999999,199.70185345287078L101.99999999999999,199.99996042724743L108,200L120,200L132.00000000000003,200L144,200L156,200L168.00000000000003,200L180,200L192,200L204.00000000000003,200L216,200L228,200L240,200L252.00000000000003,200L264.00000000000006,200L276.00000000000006,200L288,200L300,200L300,200L288,200L276.00000000000006,200L264.00000000000006,200L252.00000000000003,200L240,200L228,200L216,200L204.00000000000003,200L192,200L180,200L168.00000000000003,200L156,200L144,200L132.00000000000003,200L120,200L108,200L101.99999999999999,200L98.99999999999999,200L96,200L94.50000000000001,200L93,200L90,200L84.00000000000001,200L81,200L78,200L72,200L69,200L66.00000000000001,200L64.50000000000001,200L63.00000000000001,200L60,200L58.5,200L57,200L55.5,200L54,200L48,200L36,200L24,200L12,200L0,200Z" fill="#322d3b" opacity="0.7"/></g></g><path class="foreground" aria-hidden="true" d="" display="none"/></g><g transform="translate(0,0)"><path class="background" aria-hidden="true" d="M0,0h300v200h-300Z"/><g><g class="mark-area role-mark marks" role="graphics-symbol" aria-roledescription="area mark container"><path d="M0,200L12,200L24,200L36,200L41.99999999999999,199.99999992937381L43.5,199.99989047219736L45,199.98506493515552L46.5,199.81840764969704L48,199.68802491689485L49.5,199.1111997089161L51.00000000000001,197.43787031062212L54,185.56150873674574L55.5,176.99192371188025L57,157.65927794188434L60,84.36105453315108L63.00000000000001,21.86498354319941L64.50000000000001,13.850992121019745L66.00000000000001,13.500607365644024L72,120.84232774616174L75,174.77446088283676L78,195.19451921368272L79.5,197.47534579766977L81,198.6811290284408L84.00000000000001,199.79930687215997L85.50000000000001,199.9892701019487L87.00000000000001,199.99993990168107L90,199.99999999999864L96,200L108,200L120,200L132.00000000000003,200L144,200L156,200L168.00000000000003,200L180,200L192,200L204.00000000000003,200L216,200L228,200L240,200L252.00000000000003,200L264.00000000000006,200L276.00000000000006,200L288,200L300,200L300,200L288,200L276.00000000000006,200L264.00000000000006,200L252.00000000000003,200L240,200L228,200L216,200L204.00000000000003,200L192,200L180,200L168.00000000000003,200L156,200L144,200L132.00000000000003,200L120,200L108,200L96,200L90,200L87.00000000000001,200L85.50000000000001,200L84.00000000000001,200L81,200L79.5,200L78,200L75,200L72,200L66.00000000000001,200L64.50000000000001,200L63.00000000000001,200L60,200L57,200L55.5,200L54,200L51.00000000000001,200L49.5,200L48,200L46.5,200L45,200L43.5,200L41.99999999999999,200L36,200L24,200L12,200L0,200Z" fill="#5bbab9" opacity="0.7"/></g></g><path class="foreground" aria-hidden="true" d="" display="none"/></g></g><g class="mark-group role-legend" role="graphics-symbol" aria-roledescription="legend" aria-label="Symbol legend titled 'Set' for fill color with 5 values: CotA, AoA, WC, MM, DT"><g transform="translate(318,0)"><path class="background" aria-hidden="true" d="M0,0h39v79h-39Z" pointer-events="none"/><g><g class="mark-group role-legend-entry"><g transform="translate(0,16)"><path class="background" aria-hidden="true" d="M0,0h0v0h0Z" pointer-events="none"/><g><g class="mark-group role-scope" role="graphics-object" aria-roledescription="group mark container"><g transform="translate(0,0)"><path class="background" aria-hidden="true" d="M0,0h38.2314453125v11h-38.2314453125Z" pointer-events="none" opacity="1"/><g><g class="mark-symbol role-legend-symbol" pointer-events="none"><path transform="translate(6,6)" d="M5,0A5,5,0,1,1,-5,0A5,5,0,1,1,5,0" fill="#ad2117" stroke-width="1.5" opacity="0.7"/></g><g class="mark-text role-legend-label" pointer-events="none"><text text-anchor="start" transform="translate(16,9)" font-family="sans-serif" font-size="10px" fill="#000" opacity="1">CotA</text></g></g><path class="foreground" aria-hidden="true" d="" pointer-events="none" display="none"/></g><g transform="translate(0,13)"><path class="background" aria-hidden="true" d="M0,0h38.2314453125v11h-38.2314453125Z" pointer-events="none" opacity="1"/><g><g class="mark-symbol role-legend-symbol" pointer-events="none"><path transform="translate(6,6)" d="M5,0A5,5,0,1,1,-5,0A5,5,0,1,1,5,0" fill="#0f69bd" stroke-width="1.5" opacity="0.7"/></g><g class="mark-text role-legend-label" pointer-events="none"><text text-anchor="start" transform="translate(16,9)" font-family="sans-serif" font-size="10px" fill="#000" opacity="1">AoA</text></g></g><path class="foreground" aria-hidden="true" d="" pointer-events="none" display="none"/></g><g transform="translate(0,26)"><path class="background" aria-hidden="true" d="M0,0h38.2314453125v11h-38.2314453125Z" pointer-events="none" opacity="1"/><g><g class="mark-symbol role-legend-symbol" pointer-events="none"><path transform="translate(6,6)" d="M5,0A5,5,0,1,1,-5,0A5,5,0,1,1,5,0" fill="#940fbd" stroke-width="1.5" opacity="0.7"/></g><g class="mark-text role-legend-label" pointer-events="none"><text text-anchor="start" transform="translate(16,9)" font-family="sans-serif" font-size="10px" fill="#000" opacity="1">WC</text></g></g><path class="foreground" aria-hidden="true" d="" pointer-events="none" display="none"/></g><g transform="translate(0,39)"><path class="background" aria-hidden="true" d="M0,0h38.2314453125v11h-38.2314453125Z" pointer-events="none" opacity="1"/><g><g class="mark-symbol role-legend-symbol" pointer-events="none"><path transform="translate(6,6)" d="M5,0A5,5,0,1,1,-5,0A5,5,0,1,1,5,0" fill="#322d3b" stroke-width="1.5" opacity="0.7"/></g><g class="mark-text role-legend-label" pointer-events="none"><text text-anchor="start" transform="translate(16,9)" font-family="sans-serif" font-size="10px" fill="#000" opacity="1">MM</text></g></g><path class="foreground" aria-hidden="true" d="" pointer-events="none" display="none"/></g><g transform="translate(0,52)"><path class="background" aria-hidden="true" d="M0,0h38.2314453125v11h-38.2314453125Z" pointer-events="none" opacity="1"/><g><g class="mark-symbol role-legend-symbol" pointer-events="none"><path transform="translate(6,6)" d="M5,0A5,5,0,1,1,-5,0A5,5,0,1,1,5,0" fill="#5bbab9" stroke-width="1.5" opacity="0.7"/></g><g class="mark-text role-legend-label" pointer-events="none"><text text-anchor="start" transform="translate(16,9)" font-family="sans-serif" font-size="10px" fill="#000" opacity="1">DT</text></g></g><path class="foreground" aria-hidden="true" d="" pointer-events="none" display="none"/></g></g></g><path class="foreground" aria-hidden="true" d="" pointer-events="none" display="none"/></g></g><g class="mark-text role-legend-title" pointer-events="none"><text text-anchor="start" transform="translate(0,9)" font-family="sans-serif" font-size="11px" font-weight="bold" fill="#000" opacity="1">Set</text></g></g><path class="foreground" aria-hidden="true" d="" pointer-events="none" display="none"/></g></g></g><path class="foreground" aria-hidden="true" d="" display="none"/></g></g></g></svg>