<svg xmlns="http://www.w3.org/2000/svg" xmlns:xlink="http://www.w3.org/1999/xlink" version="1.1" class="marks" width="479" height="347" viewBox="0 0 479 347"><rect width="479" height="347" fill="white"/><g fill="none" stroke-miterlimit="10" transform="translate(72,10)"><g class="mark-group role-frame root" role="graphics-object" aria-roledescription="group mark container"><g transform="translate(0,0)"><path class="background" aria-hidden="true" d="M0.5,0.5h400v300h-400Z" stroke="#ddd"/><g><g class="mark-group role-axis" role="graphics-symbol" aria-roledescription="axis" aria-label="X-axis for a linear scale with values from 1 to 134"><g transform="translate(0.5,300.5)"><path class="background" aria-hidden="true" d="M0,0h0v0h0Z" pointer-events="none"/><g><g class="mark-rule role-axis-grid" pointer-events="none"><line transform="translate(27,-300)" x2="0" y2="300" stroke="#ddd" stroke-width="1" opacity="1"/><line transform="translate(57,-300)" x2="0" y2="300" stroke="#ddd" stroke-width="1" opacity="1"/><line transform="translate(87,-300)" x2="0" y2="300" stroke="#ddd" stroke-width="1" opacity="1"/><line transform="translate(117,-300)" x2="0" y2="300" stroke="#ddd" stroke-width="1" opacity="1"/><line transform="translate(147,-300)" x2="0" y2="300" stroke="#ddd" stroke-width="1" opacity="1"/><line transform="translate(177,-300)" x2="0" y2="300" stroke="#ddd" stroke-width="1" opacity="1"/><line transform="translate(208,-300)" x2="0" y2="300" stroke="#ddd" stroke-width="1" opacity="1"/><line transform="translate(238,-300)" x2="0" y2="300" stroke="#ddd" stroke-width="1" opacity="1"/><line transform="translate(268,-300)" x2="0" y2="300" stroke="#ddd" stroke-width="1" opacity="1"/><line transform="translate(298,-300)" x2="0" y2="300" stroke="#ddd" stroke-width="1" opacity="1"/><line transform="translate(328,-300)" x2="0" y2="300" stroke="#ddd" stroke-width="1" opacity="1"/><line transform="translate(358,-300)" x2="0" y2="300" stroke="#ddd" stroke-width="1" opacity="1"/><line transform="translate(388,-300)" x2="0" y2="300" stroke="#ddd" stroke-width="1" opacity="1"/></g></g><path class="foreground" aria-hidden="true" d="" pointer-events="none" display="none"/></g></g><g class="mark-group role-axis" role="graphics-symbol" aria-roledescription="axis" aria-label="Y-axis for a linear scale with values from 0 to 3,500,000"><g transform="translate(0.5,0.5)"><path class="background" aria-hidden="true" d="M0,0h0v0h0Z" pointer-events="none"/><g><g class="mark-rule role-axis-grid" pointer-events="none"><line transform="translate(0,300)" x2="400" y2="0" stroke="#ddd" stroke-width="1" opacity="1"/><line transform="translate(0,257)" x2="400" y2="0" stroke="#ddd" stroke-width="1" opacity="1"/><line transform="translate(0,214)" x2="400" y2="0" stroke="#ddd" stroke-width="1" opacity="1"/><line transform="translate(0,171)" x2="400" y2="0" stroke="#ddd" stroke-width="1" opacity="1"/><line transform="translate(0,129)" x2="400" y2="0" stroke="#ddd" stroke-width="1" opacity="1"/><line transform="translate(0,86)" x2="400" y2="0" stroke="#ddd" stroke-width="1" opacity="1"/><line transform="translate(0,43)" x2="400" y2="0" stroke="#ddd" stroke-width="1" opacity="1"/><line transform="translate(0,0)" x2="400" y2="0" stroke="#ddd" stroke-width="1" opacity="1"/></g></g><path class="foreground" aria-hidden="true" d="" pointer-events="none" display="none"/></g></g><g class="mark-group role-axis" role="graphics-symbol" aria-roledescription="axis" aria-label="X-axis titled 'Week' for a linear scale with values from 1 to 134"><g transform="translate(0.5,300.5)"><path class="background" aria-hidden="true" d="M0,0h0v0h0Z" pointer-events="none"/><g><g class="mark-rule role-axis-tick" pointer-events="none"><line transform="translate(27,0)" x2="0" y2="5" stroke="#888" stroke-width="1" opacity="1"/><line transform="translate(57,0)" x2="0" y2="5" stroke="#888" stroke-width="1" opacity="1"/><line transform="translate(87,0)" x2="0" y2="5" stroke="#888" stroke-width="1" opacity="1"/><line transform="translate(117,0)" x2="0" y2="5" stroke="#888" stroke-width="1" opacity="1"/><line transform="translate(147,0)" x2="0" y2="5" stroke="#888" stroke-width="1" opacity="1"/><line transform="translate(177,0)" x2="0" y2="5" stroke="#888" stroke-width="1" opacity="1"/><line transform="translate(208,0)" x2="0" y2="5" stroke="#888" stroke-width="1" opacity="1"/><line transform="translate(238,0)" x2="0" y2="5" stroke="#888" stroke-width="1" opacity="1"/><line transform="translate(268,0)" x2="0" y2="5" stroke="#888" stroke-width="1" opacity="1"/><line transform="translate(298,0)" x2="0" y2="5" stroke="#888" stroke-width="1" opacity="1"/><line transform="translate(328,0)" x2="0" y2="5" stroke="#888" stroke-width="1" opacity="1"/><line transform="translate(358,0)" x2="0" y2="5" stroke="#888" stroke-width="1" opacity="1"/><line transform="translate(388,0)" x2="0" y2="5" stroke="#888" stroke-width="1" opacity="1"/></g><g class="mark-text role-axis-label" pointer-events="none"><text text-anchor="middle" transform="translate(27.06766917293233,15)" font-family="sans-serif" font-size="10px" fill="#000" opacity="1">10</text><text text-anchor="middle" transform="translate(57.14285714285714,15)" font-family="sans-serif" font-size="10px" fill="#000" opacity="1">20</text><text text-anchor="middle" transform="translate(87.21804511278195,15)" font-family="sans-serif" font-size="10px" fill="#000" opacity="1">30</text><text text-anchor="middle" transform="translate(117.29323308270676,15)" font-family="sans-serif" font-size="10px" fill="#000" opacity="1">40</text><text text-anchor="middle" transform="translate(147.36842105263156,15)" font-family="sans-serif" font-size="10px" fill="#000" opacity="1">50</text><text text-anchor="middle" transform="translate(177.4436090225564,15)" font-family="sans-serif" font-size="10px" fill="#000" opacity="1">60</text><text text-anchor="middle" transform="translate(207.5187969924812,15)" font-family="sans-serif" font-size="10px" fill="#000" opacity="1">70</text><text text-anchor="middle" transform="translate(237.593984962406,15)" font-family="sans-serif" font-size="10px" fill="#000" opacity="1">80</text><text text-anchor="middle" transform="translate(267.6691729323308,15)" font-family="sans-serif" font-size="10px" fill="#000" opacity="1">90</text><text text-anchor="middle" transform="translate(297.74436090225566,15)" font-family="sans-serif" font-size="10px" fill="#000" opacity="1">100</text><text text-anchor="middle" transform="translate(327.81954887218046,15)" font-family="sans-serif" font-size="10px" fill="#000" opacity="1">110</text><text text-anchor="middle" transform="translate(357.89473684210526,15)" font-family="sans-serif" font-size="10px" fill="#000" opacity="1">120</text><text text-anchor="middle" transform="translate(387.96992481203006,15)" font-family="sans-serif" font-size="10px" fill="#000" opacity="1">130</text></g><g class="mark-rule role-axis-domain" pointer-events="none"><line transform="translate(0,0)" x2="400" y2="0" stroke="#888" stroke-width="1" opacity="1"/></g><g class="mark-text role-axis-title" pointer-events="none"><text text-anchor="middle" transform="translate(200,30)" font-family="sans-serif" font-size="11px" font-weight="bold" fill="#000" opacity="1">Week</text></g></g><path class="foreground" aria-hidden="true" d="" pointer-events="none" display="none"/></g></g><g class="mark-group role-axis" role="graphics-symbol" aria-roledescription="axis" aria-label="Y-axis titled 'Decks Registered' for a linear scale with values from 0 to 3,500,000"><g transform="translate(0.5,0.5)"><path class="background" aria-hidden="true" d="M0,0h0v0h0Z" pointer-events="none"/><g><g class="mark-rule role-axis-tick" pointer-events="none"><line transform="translate(0,300)" x2="-5" y2="0" stroke="#888" stroke-width="1" opacity="1"/><line transform="translate(0,257)" x2="-5" y2="0" stroke="#888" stroke-width="1" opacity="1"/><line transform="translate(0,214)" x2="-5" y2="0" stroke="#888" stroke-width="1" opacity="1"/><line transform="translate(0,171)" x2="-5" y2="0" stroke="#888" stroke-width="1" opacity="1"/><line transform="translate(0,129)" x2="-5" y2="0" stroke="#888" stroke-width="1" opacity="1"/><line transform="translate(0,86)" x2="-5" y2="0" stroke="#888" stroke-width="1" opacity="1"/><line transform="translate(0,43)" x2="-5" y2="0" stroke="#888" stroke-width="1" opacity="1"/><line transform="translate(0,0)" x2="-5" y2="0" stroke="#888" stroke-width="1" opacity="1"/></g><g class="mark-text role-axis-label" pointer-events="none"><text text-anchor="end" transform="translate(-7,303)" font-family="sans-serif" font-size="10px" fill="#000" opacity="1">0</text><text text-anchor="end" transform="translate(-7,260.14285714285717)" font-family="sans-serif" font-size="10px" fill="#000" opacity="1">500,000</text><text text-anchor="end" transform="translate(-7,217.28571428571428)" font-family="sans-serif" font-size="10px" fill="#000" opacity="1">1,000,000</text><text text-anchor="end" transform="translate(-7,174.42857142857142)" font-family="sans-serif" font-size="10px" fill="#000" opacity="1">1,500,000</text><text text-anchor="end" transform="translate(-7,131.57142857142858)" font-family="sans-serif" font-size="10px" fill="#000" opacity="1">2,000,000</text><text text-anchor="end" transform="translate(-7,88.71428571428571)" font-family="sans-serif" font-size="10px" fill="#000" opacity="1">2,500,000</text><text text-anchor="end" transform="translate(-7,45.85714285714287)" font-family="sans-serif" font-size="10px" fill="#000" opacity="1">3,000,000</text><text text-anchor="end" transform="translate(-7,3)" font-family="sans-serif" font-size="10px" fill="#000" opacity="1">3,500,000</text></g><g class="mark-rule role-axis-domain" pointer-events="none"><line transform="translate(0,300)" x2="0" y2="-300" stroke="#888" stroke-width="1" opacity="1"/></g><g class="mark-text role-axis-title" pointer-events="none"><text text-anchor="middle" transform="translate(-55.4873046875,150) rotate(-90) translate(0,-2)" font-family="sans-serif" font-size="11px" font-weight="bold" fill="#000" opacity="1">Decks Registered</text></g></g><path class="foreground" aria-hidden="true" d="" pointer-events="none" display="none"/></g></g><g class="mark-area role-mark layer_0_marks" role="graphics-symbol" aria-roledescription="area mark container"><path d="M0,292.761984455601L3.007518796992481,286.81022902160026L6.015037593984962,286.8289317166686L9.022556390977442,277.66570424299226L12.030075187969924,274.0089738270106L15.037593984962406,271.51434364848376L18.045112781954884,269.60652667404645L21.052631578947366,268.69027997813987L24.06015037593985,260.8647436467283L27.06766917293233,262.9695226840581L30.075187969924812,260.6220988815573L33.08270676691729,255.6261096972778L36.09022556390977,252.88246612734986L39.097744360902254,254.26065674581992L42.10526315789473,250.69376039369294L45.11278195488722,251.33844320903827L48.1203007518797,247.95194707072858L51.127819548872175,247.32390175046604L54.13533834586466,244.33674024794198L57.14285714285714,245.86498995403105L60.150375939849624,241.7260745537927L63.1578947368421,239.38132870786984L66.16541353383458,238.99009324946996L69.17293233082707,239.05764144413166L72.18045112781954,236.1337064463312L75.18796992481202,237.94158641758773L78.19548872180451,234.7317375809065L81.203007518797,233.07812528248056L84.21052631578947,228.58846950053606L87.21804511278195,227.97244563748944L90.22556390977444,226.033882616396L93.23308270676691,221.2300872194494L96.2406015037594,219.82022289871972L99.24812030075188,220.33933046381242L102.25563909774435,215.67810230584828L105.26315789473684,213.7640656881231L108.27067669172932,212.50853985075315L111.27819548872179,209.50561276294465L114.28571428571428,208.29271790862256L117.29323308270676,207.60667187600183L120.30075187969925,208.32223648021107L123.30827067669172,207.07341573652707L126.3157894736842,201.84422600029052L129.32330827067668,202.6948912176327L132.33082706766916,200.01223654567684L135.33834586466165,199.0032025745911L138.34586466165413,198.14883135984823L141.35338345864662,197.37511791034802L144.36090225563908,193.84135083904252L147.36842105263156,194.3055130155238L150.37593984962405,192.89572182806825L153.38345864661653,191.31866213978083L156.39097744360902,188.34460647507902L159.3984962406015,187.19580683325236L162.406015037594,185.4545271508537L165.41353383458645,182.79410441107098L168.42105263157893,180.53607111076295L171.42857142857142,179.00577680538393L174.4360902255639,177.57583232048287L177.4436090225564,176.39193277987457L180.45112781954887,173.97445961175447L183.45864661654133,174.54219544982857L186.46616541353382,172.4910950336704L189.4736842105263,171.22902941888685L192.4812030075188,169.08206276201216L195.48872180451127,169.73552757389027L198.49624060150376,166.4281078635841L201.50375939849624,166.40885489352118L204.5112781954887,163.78352237987258L207.5187969924812,162.34130863489528L210.52631578947367,162.1997016184633L213.53383458646618,160.59506442298886L216.54135338345864,160.11727370071202L219.54887218045113,158.88952395082217L222.55639097744358,156.27544555824616L225.5639097744361,157.95580359257613L228.57142857142856,153.90250203576662L231.57894736842107,155.25943793584594L234.58646616541353,152.94006602265486L237.593984962406,151.7519011253021L240.6015037593985,150.12296600039068L243.60902255639098,149.45893664123642L246.61654135338344,147.3237152472997L249.62406015037595,146.23114559652691L252.6315789473684,146.13479831718257L255.63909774436092,145.40356368999934L258.64661654135335,142.93834941301782L261.6541353383459,141.8012916880982L264.6616541353383,138.57056391068454L267.6691729323308,137.20830303486795L270.6766917293233,136.42657857698032L273.6842105263158,133.43062220152189L276.69172932330827,132.56842302761302L279.69924812030075,130.4823312395375L282.70676691729324,129.01393089553986L285.7142857142857,128.12068323642941L288.72180451127815,127.46218100627034L291.7293233082707,125.51892242084033L294.7368421052631,125.7726648977222L297.74436090225566,122.70019752421636L300.7518796992481,122.98493209379718L303.7593984962406,119.77166363514414L306.76691729323306,119.61098650047668L309.77443609022555,117.49648951409391L312.78195488721803,116.32882266121804L315.7894736842105,114.27006038165199L318.796992481203,113.88683118980627L321.8045112781955,113.53604951461017L324.812030075188,112.38241028736302L327.81954887218046,111.48123574960026L330.8270676691729,111.20863782058427L333.83458646616543,108.5242112750205L336.84210526315786,107.34999485694718L339.8496240601504,106.1740867909333L342.85714285714283,105.11377846970088L345.8646616541353,102.8017981066168L348.8721804511278,102.61270001430489L351.8796992481203,101.044268331962L354.8872180451128,100.52470980828423L357.89473684210526,98.58939036165737L360.90225563909775,97.76196219930193L363.90977443609023,95.59190067180285L366.91729323308266,96.15415435320901L369.9248120300752,95.69137985300131L372.93233082706763,93.91135350185837L375.9398496240602,91.83634783353615L378.9473684210526,90.40187178728644L381.9548872180451,90.23539345213283L384.9624060150376,86.6542284916266L387.96992481203006,84.07300851383785L390.97744360902254,84.47485502302669L393.98496240601503,81.84243667930365L396.9924812030075,78.86667456402702L400,77.16643899240796L400,11.110252709307048L396.9924812030075,9.910139285679392L393.98496240601503,14.778619168430183L390.97744360902254,17.624727824645007L387.96992481203006,19.279848853778134L384.9624060150376,20.21427142221846L381.9548872180451,22.051829015904232L378.9473684210526,24.948201504798817L375.9398496240602,29.242417767481697L372.93233082706763,28.950043897165344L369.9248120300752,29.78010866898859L366.91729323308266,32.31446834721198L363.90977443609023,33.802906660550526L360.90225563909775,35.959303957162106L357.89473684210526,36.551056381095336L354.8872180451128,38.07249735030349L351.8796992481203,39.284711409739614L348.8721804511278,39.49779203199812L345.8646616541353,41.98974926500071L342.85714285714283,42.99882578751375L339.8496240601504,44.96185846287277L336.84210526315786,45.5554218759299L333.83458646616543,48.450638646895264L330.8270676691729,49.314423521400904L327.81954887218046,50.31540723188447L324.812030075188,51.56881319620767L321.8045112781955,52.99259173923372L318.796992481203,54.040486810796416L315.7894736842105,57.36113676540575L312.78195488721803,57.519415843992164L309.77443609022555,59.98072805400684L306.76691729323306,62.70751753760757L303.7593984962406,64.38483275983698L300.7518796992481,66.1567633765685L297.74436090225566,65.900057302897L294.7368421052631,68.15339760791571L291.7293233082707,69.35096213941682L288.72180451127815,72.32391754878503L285.7142857142857,73.16994108931661L282.70676691729324,74.82838314523664L279.69924812030075,77.05132225469697L276.69172932330827,77.99829844787118L273.6842105263158,79.55871327370741L270.6766917293233,82.51346629520015L267.6691729323308,83.64532242749712L264.6616541353383,87.85239165450686L261.6541353383459,89.03542241701872L258.64661654135335,92.06874997310146L255.63909774436092,93.50430982863193L252.6315789473684,95.72114399345988L249.62406015037595,96.54767689973703L246.61654135338344,98.86517422197082L243.60902255639098,98.7177230201844L240.6015037593985,99.07373378811273L237.593984962406,102.71949616462543L234.58646616541353,104.32633500040758L231.57894736842107,106.66776149845015L228.57142857142856,106.272097314545L225.5639097744361,108.77315748458324L222.55639097744358,108.75886241341279L219.54887218045113,111.60579843927519L216.54135338345864,113.72454464635271L213.53383458646618,115.72256920332953L210.52631578947367,115.87719004128901L207.5187969924812,117.69275144443515L204.5112781954887,119.53869088795199L201.50375939849624,121.32889677285353L198.49624060150376,122.30963360914289L195.48872180451127,124.21321437323526L192.4812030075188,124.60509445302783L189.4736842105263,126.75899859608826L186.46616541353382,128.27431351426262L183.45864661654133,130.68733576030428L180.45112781954887,133.3407251678998L177.4436090225564,132.5134170028323L174.4360902255639,136.28297395656892L171.42857142857142,137.59271236962925L168.42105263157893,139.5105177300792L165.41353383458645,141.96756870022955L162.406015037594,143.03334515401042L159.3984962406015,147.30857637404748L156.39097744360902,149.95086045837456L153.38345864661653,151.73872159096885L150.37593984962405,155.1943833273413L147.36842105263156,156.34464310047846L144.36090225563908,155.60039975874676L141.35338345864662,159.01047127035224L138.34586466165413,161.64031812641727L135.33834586466165,163.60894967034665L132.33082706766916,163.59787759801242L129.32330827067668,164.65176792139954L126.3157894736842,167.82620151564424L123.30827067669172,169.94229538078358L120.30075187969925,172.25931204732106L117.29323308270676,173.92767087594555L114.28571428571428,176.47856765082506L111.27819548872179,177.21787677578942L108.27067669172932,180.30262680554995L105.26315789473684,182.94529894243016L102.25563909774435,185.03636778413863L99.24812030075188,187.044862649593L96.2406015037594,189.65225262335446L93.23308270676691,192.56458250265328L90.22556390977444,197.38750812982659L87.21804511278195,200.9799803655996L84.21052631578947,205.61698104986405L81.203007518797,208.82756622956572L78.19548872180451,210.95034662621248L75.18796992481202,213.15004303744945L72.18045112781954,214.43660641747323L69.17293233082707,215.7969500612017L66.16541353383458,218.07525832064314L63.1578947368421,218.8833468732724L60.150375939849624,220.1410693648138L57.14285714285714,222.67023203973153L54.13533834586466,223.66702567399307L51.127819548872175,225.6305964258594L48.1203007518797,228.3227095415054L45.11278195488722,229.81280434666533L42.10526315789473,231.45905407111897L39.097744360902254,233.86254677888758L36.09022556390977,233.5240718507904L33.08270676691729,236.91485244830807L30.075187969924812,236.58164658235552L27.06766917293233,243.5710417316409L24.06015037593985,248.18465828762152L21.052631578947366,248.32934534544407L18.045112781954884,253.98820421130551L15.037593984962406,253.68359247078888L12.030075187969924,259.6196045574793L9.022556390977442,264.4596815988395L6.015037593984962,270.5511748039984L3.007518796992481,275.89474626793975L0,270.8754656125321Z" fill="#333333" opacity="0.2"/></g><g class="mark-line role-mark layer_1_marks" role="graphics-symbol" aria-roledescription="line mark container"><path d="M0,287.0964020764418L3.007518796992481,281.22855909712666L6.015037593984962,276.05611403565774L9.022556390977442,271.5010343619673L12.030075187969924,267.3279053541221L15.037593984962406,263.7529755069562L18.045112781954884,260.6090583717695L21.052631578947366,257.5339341788546L24.06015037593985,254.91349872384023L27.06766917293233,252.3041171487092L30.075187969924812,250.06779071305158L33.08270676691729,247.92353270931972L36.09022556390977,245.87333104230038L39.097744360902254,244.08723427070876L42.10526315789473,242.23602874842067L45.11278195488722,240.5177702442355L48.1203007518797,238.78644263487223L51.127819548872175,237.29888585789388L54.13533834586466,235.59006156691666L57.14285714285714,234.07085428792115L60.150375939849624,232.62106783969196L63.1578947368421,231.13910335030602L66.16541353383458,229.7503126281005L69.17293233082707,228.15664685932776L72.18045112781954,226.82250451498447L75.18796992481202,225.40539078756524L78.19548872180451,223.93669531670204L81.203007518797,222.57100833523987L84.21052631578947,219.04173497766945L87.21804511278195,215.83957183971086L90.22556390977444,212.75644847048807L93.23308270676691,210.18769147116788L96.2406015037594,207.73462793295187L99.24812030075188,205.39712474473808L102.25563909774435,203.37243961431176L105.26315789473684,201.36336875541116L108.27067669172932,199.41895678495106L111.27819548872179,197.6498306622408L114.28571428571428,195.8362542128772L117.29323308270676,194.18691476747262L120.30075187969925,192.50410445875508L123.30827067669172,190.99945578421162L126.3157894736842,189.36264103061242L129.32330827067668,187.98164139865875L132.33082706766916,186.4316740422329L135.33834586466165,185.06003753219252L138.34586466165413,183.51125598736135L141.35338345864662,182.19962711069434L144.36090225563908,180.6706630477869L147.36842105263156,179.37162667689935L150.37593984962405,178.0673152506951L153.38345864661653,175.35379977244776L156.39097744360902,172.9618391674149L159.3984962406015,170.7694657657646L162.406015037594,168.6203097280213L165.41353383458645,166.64771069231307L168.42105263157893,164.81483502063773L171.42857142857142,163.051082204398L174.4360902255639,161.318055707722L177.4436090225564,159.71791389341737L180.45112781954887,157.99786045728698L183.45864661654133,156.50472035757477L186.46616541353382,154.89979516143475L189.4736842105263,153.48759555673394L192.4812030075188,151.905570886681L195.48872180451127,150.52627613690575L198.49624060150376,149.11227668107472L201.50375939849624,147.80226992324714L204.5112781954887,146.40480766874055L207.5187969924812,144.99476064612196L210.52631578947367,143.4383523361032L213.53383458646618,142.07111796930545L216.54135338345864,140.78325230859033L219.54887218045113,139.41990008539946L222.55639097744358,138.1120208756425L225.5639097744361,136.87355654591553L228.57142857142856,135.39444082777763L231.57894736842107,134.00720719059944L234.58646616541353,132.816392259512L237.593984962406,131.3520330623717L240.6015037593985,129.93815516793094L243.60902255639098,128.74340757342543L246.61654135338344,127.41466515288089L249.62406015037595,126.13725342853263L252.6315789473684,124.63072488613638L255.63909774436092,123.33229477333217L258.64661654135335,120.72071143055686L261.6541353383459,118.39581537697916L264.6616541353383,116.14281084356357L267.6691729323308,114.15321707256183L270.6766917293233,112.09878802732337L273.6842105263158,110.17115146880244L276.69172932330827,108.38969200091249L279.69924812030075,106.77674011457097L282.70676691729324,105.12057428917323L285.7142857142857,103.53331537124633L288.72180451127815,102.03357170927137L291.7293233082707,100.48790812766231L294.7368421052631,99.01781178320942L297.74436090225566,97.47499847930328L300.7518796992481,96.04524631330736L303.7593984962406,94.6695489435238L306.76691729323306,93.2993924748396L309.77443609022555,91.8137690387653L312.78195488721803,90.40026442702538L315.7894736842105,89.0141132256104L318.796992481203,87.80660077761779L321.8045112781955,86.30313081213073L324.812030075188,85.07225288578678L327.81954887218046,83.66227478264713L330.8270676691729,82.3352163654234L333.83458646616543,81.02191386069683L336.84210526315786,79.57962880893051L339.8496240601504,78.32074675879973L342.85714285714283,76.98509271546422L345.8646616541353,75.59124127177077L348.8721804511278,74.286720858263L351.8796992481203,72.87714617884298L354.8872180451128,71.67901919807359L357.89473684210526,70.1399148912768L360.90225563909775,69.0440166807601L363.90977443609023,67.6155519237679L366.91729323308266,66.37918607174525L369.9248120300752,64.92946481755737L372.93233082706763,63.610063311379896L375.9398496240602,62.18127393901356L378.9473684210526,60.93789160046399L381.9548872180451,58.36014182519988L384.9624060150376,56.07914121226346L387.96992481203006,53.77872996134653L390.97744360902254,51.771538521912795L393.98496240601503,49.90270802115149L396.9924812030075,47.81922295122364L400,46.11051299154539" stroke="#333333" stroke-width="2" opacity="0.7"/></g><g class="mark-line role-mark layer_2_marks" role="graphics-symbol" aria-roledescription="line mark container"><path d="M0,286.45577142857144L3.007518796992481,281.25145714285713L6.015037593984962,277.0263428571428L9.022556390977442,273.2661428571429L12.030075187969924,269.30588571428575L15.037593984962406,264.822L18.045112781954884,261.5022L21.052631578947366,258.4514571428572L24.06015037593985,255.86785714285713L27.06766917293233,253.50154285714282L30.075187969924812,251.36657142857143L33.08270676691729,249.57668571428573L36.09022556390977,247.47411428571428L39.097744360902254,245.3394L42.10526315789473,243.3054857142857L45.11278195488722,241.4742857142857L48.1203007518797,239.5644L51.127819548872175,237.7175142857143L54.13533834586466,235.98874285714285L57.14285714285714,234.38682857142857L60.150375939849624,233.05474285714288L63.1578947368421,231.7422L66.16541353383458,230.6892L69.17293233082707,229.69697142857143L72.18045112781954,228.72899999999998L75.18796992481202,227.8187142857143L78.19548872180451,226.97502857142857L81.203007518797,222.17785714285714L84.21052631578947,217.71077142857143L87.21804511278195,214.82999999999998L90.22556390977444,212.28514285714286L93.23308270676691,210.1191428571429L96.2406015037594,208.27448571428573L99.24812030075188,206.46471428571428L102.25563909774435,204.6707142857143L105.26315789473684,202.83745714285712L108.27067669172932,200.57580000000002L111.27819548872179,198.48839999999998L114.28571428571428,196.76862857142856L117.29323308270676,195.14502857142855L120.30075187969925,193.5498L123.30827067669172,192.2202L126.3157894736842,191.01205714285715L129.32330827067668,189.84985714285716L132.33082706766916,188.7646285714286L135.33834586466165,187.63500000000002L138.34586466165413,186.56597142857146L141.35338345864662,185.53011428571432L144.36090225563908,184.41754285714285L147.36842105263156,183.31920000000002L150.37593984962405,179.69400000000002L153.38345864661653,175.5948857142857L156.39097744360902,173.07899999999998L159.3984962406015,171.24694285714287L162.406015037594,168.95708571428568L165.41353383458645,167.05868571428573L168.42105263157893,165.3700285714286L171.42857142857142,163.25811428571427L174.4360902255639,161.64051428571426L177.4436090225564,160.1177142857143L180.45112781954887,158.67634285714286L183.45864661654133,157.30028571428568L186.46616541353382,155.8962L189.4736842105263,154.65488571428568L192.4812030075188,153.0966L195.48872180451127,152.01882857142857L198.49624060150376,151.0014L201.50375939849624,149.95654285714284L204.5112781954887,149.13754285714285L207.5187969924812,148.55734285714286L210.52631578947367,148.14197142857142L213.53383458646618,147.78617142857144L216.54135338345864,147.44674285714285L219.54887218045113,147.08434285714287L222.55639097744358,146.74028571428573L225.5639097744361,146.40548571428573L228.57142857142856,146.0773714285714L231.57894736842107,145.62454285714284L234.58646616541353,145.22751428571428L237.593984962406,144.44391428571427L240.6015037593985,143.5001142857143L243.60902255639098,142.8594L246.61654135338344,142.25879999999998L249.62406015037595,141.80537142857145L252.6315789473684,141.29417142857142L255.63909774436092,138.68494285714286L258.64661654135335,135.54094285714285L261.6541353383459,133.34374285714284L264.6616541353383,131.75202857142858L267.6691729323308,130.5677142857143L270.6766917293233,129.6786857142857L273.6842105263158,128.84211428571427L276.69172932330827,128.12185714285715L279.69924812030075,127.34142857142858L282.70676691729324,126.66317142857143L285.7142857142857,125.92148571428572L288.72180451127815,125.23294285714287L291.7293233082707,124.55802857142858L294.7368421052631,123.93934285714285L297.74436090225566,123.41340000000001L300.7518796992481,122.77551428571428L303.7593984962406,121.9876285714286L306.76691729323306,121.40048571428571L309.77443609022555,120.85620000000002L312.78195488721803,120.32262857142855L315.7894736842105,119.7252857142857L318.796992481203,119.05011428571427L321.8045112781955,118.53668571428572L324.812030075188,117.92802857142858L327.81954887218046,117.1745142857143L330.8270676691729,116.556L333.83458646616543,115.73245714285716L336.84210526315786,115.13374285714286L339.8496240601504,114.61200000000001L342.85714285714283,114.05811428571427L345.8646616541353,113.4533142857143L348.8721804511278,112.94194285714285L351.8796992481203,112.45611428571426L354.8872180451128,112.02231428571429L357.89473684210526,111.44579999999999L360.90225563909775,110.86997142857142L363.90977443609023,110.31282857142855L366.91729323308266,109.69431428571428L369.9248120300752,109.16588571428572L372.93233082706763,108.58577142857142L375.9398496240602,106.60688571428571L378.9473684210526,105.40165714285715L381.9548872180451,104.43908571428572L384.9624060150376,103.6314857142857L387.96992481203006,102.15317142857143L390.97744360902254,100.0428857142857L393.98496240601503,98.83988571428571L396.9924812030075,97.7904L400,97.00045714285714" stroke="#4c78a8" stroke-width="2"/></g></g><path class="foreground" aria-hidden="true" d="" display="none"/></g></g></g></svg>